G04 Layer_Color=128*
%FSLAX25Y25*%
%MOIN*%
G70*
G01*
G75*
%ADD11R,0.15748X0.07874*%
G04:AMPARAMS|DCode=25|XSize=157.48mil|YSize=98.43mil|CornerRadius=0mil|HoleSize=0mil|Usage=FLASHONLY|Rotation=315.000|XOffset=0mil|YOffset=0mil|HoleType=Round|Shape=Round|*
%AMOVALD25*
21,1,0.05906,0.09843,0.00000,0.00000,315.0*
1,1,0.09843,-0.02088,0.02088*
1,1,0.09843,0.02088,-0.02088*
%
%ADD25OVALD25*%

G04:AMPARAMS|DCode=26|XSize=157.48mil|YSize=98.43mil|CornerRadius=0mil|HoleSize=0mil|Usage=FLASHONLY|Rotation=-45.000|XOffset=0mil|YOffset=0mil|HoleType=Round|Shape=Round|*
%AMOVALD26*
21,1,0.05906,0.09843,0.00000,0.00000,-45.0*
1,1,0.09843,-0.02088,0.02088*
1,1,0.09843,0.02088,-0.02088*
%
%ADD26OVALD26*%

%ADD27O,0.15748X0.09843*%
G04:AMPARAMS|DCode=28|XSize=157.48mil|YSize=98.43mil|CornerRadius=0mil|HoleSize=0mil|Usage=FLASHONLY|Rotation=225.000|XOffset=0mil|YOffset=0mil|HoleType=Round|Shape=Round|*
%AMOVALD28*
21,1,0.05906,0.09843,0.00000,0.00000,225.0*
1,1,0.09843,0.02088,0.02088*
1,1,0.09843,-0.02088,-0.02088*
%
%ADD28OVALD28*%

%ADD29C,0.00500*%
D11*
X433011Y225986D02*
D03*
X432966Y207955D02*
D03*
X432978Y182838D02*
D03*
X432982Y169051D02*
D03*
X433046Y154415D02*
D03*
X1317402Y154460D02*
D03*
X1317338Y169096D02*
D03*
X1317334Y182883D02*
D03*
X1317322Y207999D02*
D03*
X1317366Y226031D02*
D03*
D25*
X1288233Y179206D02*
D03*
X1175822Y210653D02*
D03*
X890206Y210652D02*
D03*
X1002618Y179205D02*
D03*
X1145425Y179205D02*
D03*
X1033013Y210651D02*
D03*
X747404Y210647D02*
D03*
X859816Y179200D02*
D03*
X717008Y179200D02*
D03*
X604596Y210647D02*
D03*
X461788Y210647D02*
D03*
X574200Y179200D02*
D03*
D26*
X1190207Y225624D02*
D03*
X1278325Y169435D02*
D03*
X1262712Y153770D02*
D03*
X977096Y153768D02*
D03*
X992709Y169434D02*
D03*
X904591Y225622D02*
D03*
X1047398Y225622D02*
D03*
X1135516Y169434D02*
D03*
X1119904Y153768D02*
D03*
X834294Y153764D02*
D03*
X849907Y169429D02*
D03*
X761789Y225618D02*
D03*
X618981Y225618D02*
D03*
X707099Y169429D02*
D03*
X691487Y153764D02*
D03*
X548678Y153763D02*
D03*
X564291Y169429D02*
D03*
X476173Y225617D02*
D03*
D27*
X1303652Y154475D02*
D03*
X1303553Y169140D02*
D03*
X1303652Y182951D02*
D03*
Y208018D02*
D03*
Y226054D02*
D03*
X1018036Y226052D02*
D03*
Y208016D02*
D03*
Y182949D02*
D03*
X1017937Y169139D02*
D03*
X1018036Y154473D02*
D03*
X1160843Y154473D02*
D03*
X1160745Y169138D02*
D03*
X1160843Y182949D02*
D03*
Y208016D02*
D03*
Y226052D02*
D03*
X875234Y226047D02*
D03*
Y208012D02*
D03*
Y182945D02*
D03*
X875135Y169134D02*
D03*
X875234Y154469D02*
D03*
X732426Y154469D02*
D03*
X732328Y169134D02*
D03*
X732426Y182945D02*
D03*
Y208012D02*
D03*
Y226048D02*
D03*
X446738Y226004D02*
D03*
X446751Y207972D02*
D03*
X446706Y182912D02*
D03*
X446759Y169101D02*
D03*
X446781Y154436D02*
D03*
X589618Y226047D02*
D03*
Y208012D02*
D03*
Y182945D02*
D03*
X589520Y169134D02*
D03*
X589618Y154468D02*
D03*
D28*
X1274265Y225644D02*
D03*
X1288634Y210706D02*
D03*
X1176222Y179153D02*
D03*
X1201713Y153898D02*
D03*
X1186130Y169382D02*
D03*
X900515Y169381D02*
D03*
X916097Y153896D02*
D03*
X890606Y179152D02*
D03*
X1003018Y210705D02*
D03*
X988649Y225642D02*
D03*
X1131456Y225642D02*
D03*
X1145825Y210705D02*
D03*
X1033413Y179151D02*
D03*
X1058905Y153896D02*
D03*
X1043322Y169380D02*
D03*
X757713Y169376D02*
D03*
X773295Y153892D02*
D03*
X747804Y179147D02*
D03*
X860216Y210700D02*
D03*
X845847Y225638D02*
D03*
X703039Y225638D02*
D03*
X717408Y210700D02*
D03*
X604996Y179147D02*
D03*
X630488Y153892D02*
D03*
X614905Y169376D02*
D03*
X472097Y169376D02*
D03*
X487680Y153892D02*
D03*
X462188Y179147D02*
D03*
X574600Y210700D02*
D03*
X560231Y225637D02*
D03*
D29*
X425029Y241174D02*
X1325373D01*
X424937Y143882D02*
X425005Y241146D01*
X424937Y143882D02*
X1325373Y143517D01*
Y241174D01*
M02*
