G04 Layer_Color=65535*
%FSLAX25Y25*%
%MOIN*%
G70*
G01*
G75*
%ADD10C,0.00984*%
%ADD11C,0.01000*%
%ADD12C,0.00500*%
%ADD13C,0.00787*%
%ADD14R,0.02594X0.00547*%
%ADD15R,0.00547X0.02741*%
%ADD16R,0.02741X0.00547*%
%ADD17R,0.00547X0.02594*%
%ADD18R,0.02741X0.00547*%
%ADD19R,0.02594X0.00547*%
G04:AMPARAMS|DCode=20|XSize=20.51mil|YSize=12.8mil|CornerRadius=0mil|HoleSize=0mil|Usage=FLASHONLY|Rotation=135.000|XOffset=0mil|YOffset=0mil|HoleType=Round|Shape=Rectangle|*
%AMROTATEDRECTD20*
4,1,4,0.01177,-0.00273,0.00273,-0.01177,-0.01177,0.00273,-0.00273,0.01177,0.01177,-0.00273,0.0*
%
%ADD20ROTATEDRECTD20*%

G04:AMPARAMS|DCode=21|XSize=161.33mil|YSize=12.8mil|CornerRadius=0mil|HoleSize=0mil|Usage=FLASHONLY|Rotation=135.000|XOffset=0mil|YOffset=0mil|HoleType=Round|Shape=Rectangle|*
%AMROTATEDRECTD21*
4,1,4,0.06156,-0.05252,0.05252,-0.06156,-0.06156,0.05252,-0.05252,0.06156,0.06156,-0.05252,0.0*
%
%ADD21ROTATEDRECTD21*%

G04:AMPARAMS|DCode=22|XSize=153.11mil|YSize=12.8mil|CornerRadius=0mil|HoleSize=0mil|Usage=FLASHONLY|Rotation=225.000|XOffset=0mil|YOffset=0mil|HoleType=Round|Shape=Rectangle|*
%AMROTATEDRECTD22*
4,1,4,0.04961,0.05866,0.05866,0.04961,-0.04961,-0.05866,-0.05866,-0.04961,0.04961,0.05866,0.0*
%
%ADD22ROTATEDRECTD22*%

G04:AMPARAMS|DCode=23|XSize=158.25mil|YSize=12.8mil|CornerRadius=0mil|HoleSize=0mil|Usage=FLASHONLY|Rotation=135.000|XOffset=0mil|YOffset=0mil|HoleType=Round|Shape=Rectangle|*
%AMROTATEDRECTD23*
4,1,4,0.06047,-0.05142,0.05142,-0.06047,-0.06047,0.05142,-0.05142,0.06047,0.06047,-0.05142,0.0*
%
%ADD23ROTATEDRECTD23*%

%ADD24R,0.01280X0.02313*%
G04:AMPARAMS|DCode=25|XSize=158.42mil|YSize=12.8mil|CornerRadius=0mil|HoleSize=0mil|Usage=FLASHONLY|Rotation=225.000|XOffset=0mil|YOffset=0mil|HoleType=Round|Shape=Rectangle|*
%AMROTATEDRECTD25*
4,1,4,0.05149,0.06054,0.06054,0.05149,-0.05149,-0.06054,-0.06054,-0.05149,0.05149,0.06054,0.0*
%
%ADD25ROTATEDRECTD25*%

%ADD26R,0.01280X0.02719*%
%ADD27R,0.01280X0.01873*%
%ADD28R,0.01280X0.13084*%
%ADD29R,0.01280X0.05981*%
%ADD30R,0.01280X0.09043*%
G04:AMPARAMS|DCode=31|XSize=84.65mil|YSize=12.8mil|CornerRadius=0mil|HoleSize=0mil|Usage=FLASHONLY|Rotation=135.000|XOffset=0mil|YOffset=0mil|HoleType=Round|Shape=Rectangle|*
%AMROTATEDRECTD31*
4,1,4,0.03445,-0.02540,0.02540,-0.03445,-0.03445,0.02540,-0.02540,0.03445,0.03445,-0.02540,0.0*
%
%ADD31ROTATEDRECTD31*%

G04:AMPARAMS|DCode=32|XSize=149.44mil|YSize=12.8mil|CornerRadius=0mil|HoleSize=0mil|Usage=FLASHONLY|Rotation=135.000|XOffset=0mil|YOffset=0mil|HoleType=Round|Shape=Rectangle|*
%AMROTATEDRECTD32*
4,1,4,0.05736,-0.04831,0.04831,-0.05736,-0.05736,0.04831,-0.04831,0.05736,0.05736,-0.04831,0.0*
%
%ADD32ROTATEDRECTD32*%

G04:AMPARAMS|DCode=33|XSize=77.94mil|YSize=12.8mil|CornerRadius=0mil|HoleSize=0mil|Usage=FLASHONLY|Rotation=225.000|XOffset=0mil|YOffset=0mil|HoleType=Round|Shape=Rectangle|*
%AMROTATEDRECTD33*
4,1,4,0.02303,0.03208,0.03208,0.02303,-0.02303,-0.03208,-0.03208,-0.02303,0.02303,0.03208,0.0*
%
%ADD33ROTATEDRECTD33*%

G04:AMPARAMS|DCode=34|XSize=99.57mil|YSize=12.8mil|CornerRadius=0mil|HoleSize=0mil|Usage=FLASHONLY|Rotation=225.000|XOffset=0mil|YOffset=0mil|HoleType=Round|Shape=Rectangle|*
%AMROTATEDRECTD34*
4,1,4,0.03068,0.03973,0.03973,0.03068,-0.03068,-0.03973,-0.03973,-0.03068,0.03068,0.03973,0.0*
%
%ADD34ROTATEDRECTD34*%

G04:AMPARAMS|DCode=35|XSize=18.55mil|YSize=12.8mil|CornerRadius=0mil|HoleSize=0mil|Usage=FLASHONLY|Rotation=225.000|XOffset=0mil|YOffset=0mil|HoleType=Round|Shape=Rectangle|*
%AMROTATEDRECTD35*
4,1,4,0.00203,0.01108,0.01108,0.00203,-0.00203,-0.01108,-0.01108,-0.00203,0.00203,0.01108,0.0*
%
%ADD35ROTATEDRECTD35*%

G04:AMPARAMS|DCode=36|XSize=84.67mil|YSize=12.8mil|CornerRadius=0mil|HoleSize=0mil|Usage=FLASHONLY|Rotation=225.000|XOffset=0mil|YOffset=0mil|HoleType=Round|Shape=Rectangle|*
%AMROTATEDRECTD36*
4,1,4,0.02541,0.03446,0.03446,0.02541,-0.02541,-0.03446,-0.03446,-0.02541,0.02541,0.03446,0.0*
%
%ADD36ROTATEDRECTD36*%

G04:AMPARAMS|DCode=37|XSize=162.69mil|YSize=12.8mil|CornerRadius=0mil|HoleSize=0mil|Usage=FLASHONLY|Rotation=225.000|XOffset=0mil|YOffset=0mil|HoleType=Round|Shape=Rectangle|*
%AMROTATEDRECTD37*
4,1,4,0.05300,0.06204,0.06204,0.05300,-0.05300,-0.06204,-0.06204,-0.05300,0.05300,0.06204,0.0*
%
%ADD37ROTATEDRECTD37*%

G04:AMPARAMS|DCode=38|XSize=100.23mil|YSize=12.8mil|CornerRadius=0mil|HoleSize=0mil|Usage=FLASHONLY|Rotation=135.000|XOffset=0mil|YOffset=0mil|HoleType=Round|Shape=Rectangle|*
%AMROTATEDRECTD38*
4,1,4,0.03996,-0.03091,0.03091,-0.03996,-0.03996,0.03091,-0.03091,0.03996,0.03996,-0.03091,0.0*
%
%ADD38ROTATEDRECTD38*%

G04:AMPARAMS|DCode=39|XSize=78.71mil|YSize=12.8mil|CornerRadius=0mil|HoleSize=0mil|Usage=FLASHONLY|Rotation=135.000|XOffset=0mil|YOffset=0mil|HoleType=Round|Shape=Rectangle|*
%AMROTATEDRECTD39*
4,1,4,0.03235,-0.02330,0.02330,-0.03235,-0.03235,0.02330,-0.02330,0.03235,0.03235,-0.02330,0.0*
%
%ADD39ROTATEDRECTD39*%

%ADD40R,0.01280X0.03853*%
D10*
X1226738Y202144D02*
G03*
X1226738Y202144I-492J0D01*
G01*
X941122Y202143D02*
G03*
X941122Y202143I-492J0D01*
G01*
X1083930Y202142D02*
G03*
X1083930Y202142I-492J0D01*
G01*
X798320Y202138D02*
G03*
X798320Y202138I-492J0D01*
G01*
X655513Y202138D02*
G03*
X655513Y202138I-492J0D01*
G01*
X512705Y202138D02*
G03*
X512705Y202138I-492J0D01*
G01*
D11*
X1289633Y156006D02*
G03*
X1289633Y156006I-1487J0D01*
G01*
X1289534Y150506D02*
G03*
X1289534Y150506I-1487J0D01*
G01*
X1289734Y223106D02*
G03*
X1289734Y223106I-1487J0D01*
G01*
X1289834Y228606D02*
G03*
X1289834Y228606I-1487J0D01*
G01*
X1291434Y192606D02*
G03*
X1291434Y192606I-1487J0D01*
G01*
X1291533Y198106D02*
G03*
X1291533Y198106I-1487J0D01*
G01*
X1005918Y198105D02*
G03*
X1005918Y198105I-1487J0D01*
G01*
X1005818Y192605D02*
G03*
X1005818Y192605I-1487J0D01*
G01*
X1004218Y228605D02*
G03*
X1004218Y228605I-1487J0D01*
G01*
X1004118Y223105D02*
G03*
X1004118Y223105I-1487J0D01*
G01*
X1003918Y150505D02*
G03*
X1003918Y150505I-1487J0D01*
G01*
X1004018Y156005D02*
G03*
X1004018Y156005I-1487J0D01*
G01*
X1146825Y156005D02*
G03*
X1146825Y156005I-1487J0D01*
G01*
X1146725Y150505D02*
G03*
X1146725Y150505I-1487J0D01*
G01*
X1146925Y223105D02*
G03*
X1146925Y223105I-1487J0D01*
G01*
X1147025Y228605D02*
G03*
X1147025Y228605I-1487J0D01*
G01*
X1148625Y192605D02*
G03*
X1148625Y192605I-1487J0D01*
G01*
X1148725Y198105D02*
G03*
X1148725Y198105I-1487J0D01*
G01*
X863116Y198100D02*
G03*
X863116Y198100I-1487J0D01*
G01*
X863016Y192600D02*
G03*
X863016Y192600I-1487J0D01*
G01*
X861416Y228600D02*
G03*
X861416Y228600I-1487J0D01*
G01*
X861316Y223100D02*
G03*
X861316Y223100I-1487J0D01*
G01*
X861116Y150500D02*
G03*
X861116Y150500I-1487J0D01*
G01*
X861216Y156000D02*
G03*
X861216Y156000I-1487J0D01*
G01*
X718408Y156000D02*
G03*
X718408Y156000I-1487J0D01*
G01*
X718308Y150500D02*
G03*
X718308Y150500I-1487J0D01*
G01*
X718508Y223100D02*
G03*
X718508Y223100I-1487J0D01*
G01*
X718608Y228600D02*
G03*
X718608Y228600I-1487J0D01*
G01*
X720208Y192600D02*
G03*
X720208Y192600I-1487J0D01*
G01*
X720308Y198100D02*
G03*
X720308Y198100I-1487J0D01*
G01*
X577500Y198100D02*
G03*
X577500Y198100I-1487J0D01*
G01*
X577400Y192600D02*
G03*
X577400Y192600I-1487J0D01*
G01*
X575800Y228600D02*
G03*
X575800Y228600I-1487J0D01*
G01*
X575700Y223100D02*
G03*
X575700Y223100I-1487J0D01*
G01*
X575500Y150500D02*
G03*
X575500Y150500I-1487J0D01*
G01*
X575600Y156000D02*
G03*
X575600Y156000I-1487J0D01*
G01*
X1241119Y176277D02*
X1242619Y173277D01*
X1241119Y176277D02*
X1244619D01*
X1242619Y173277D02*
X1244619Y176277D01*
X1240619Y173277D02*
X1244619D01*
X1098937Y174912D02*
X1100437Y171912D01*
X1098937Y174912D02*
X1102437D01*
X1100437Y171912D02*
X1102437Y174912D01*
X1098437Y171912D02*
X1102437D01*
X955750Y175061D02*
X957250Y172061D01*
X955750Y175061D02*
X959250D01*
X957250Y172061D02*
X959250Y175061D01*
X955250Y172061D02*
X959250D01*
X812697Y174395D02*
X814197Y171395D01*
X812697Y174395D02*
X816197D01*
X814197Y171395D02*
X816197Y174395D01*
X812197Y171395D02*
X816197D01*
X669662Y174799D02*
X671162Y171799D01*
X669662Y174799D02*
X673162D01*
X671162Y171799D02*
X673162Y174799D01*
X669162Y171799D02*
X673162D01*
X527368Y174718D02*
X528868Y171718D01*
X527368Y174718D02*
X530868D01*
X528868Y171718D02*
X530868Y174718D01*
X526868Y171718D02*
X530868D01*
X1289307Y151156D02*
X1294046Y155894D01*
X1289198Y154842D02*
X1294133Y149906D01*
X1289398Y227442D02*
X1294333Y222506D01*
X1289507Y223756D02*
X1294246Y228494D01*
X1291098Y196942D02*
X1296033Y192006D01*
X1291207Y193256D02*
X1295946Y197994D01*
X1005591Y193254D02*
X1010330Y197993D01*
X1005482Y196940D02*
X1010418Y192005D01*
X1003891Y223754D02*
X1008630Y228493D01*
X1003782Y227440D02*
X1008718Y222505D01*
X1003582Y154840D02*
X1008518Y149905D01*
X1003691Y151154D02*
X1008430Y155893D01*
X1146499Y151154D02*
X1151237Y155892D01*
X1146390Y154840D02*
X1151325Y149905D01*
X1146590Y227440D02*
X1151525Y222505D01*
X1146699Y223754D02*
X1151437Y228492D01*
X1148290Y196940D02*
X1153225Y192005D01*
X1148399Y193254D02*
X1153137Y197992D01*
X862789Y193250D02*
X867528Y197988D01*
X862680Y196936D02*
X867616Y192000D01*
X861089Y223750D02*
X865828Y228488D01*
X860980Y227436D02*
X865916Y222500D01*
X860780Y154836D02*
X865716Y149900D01*
X860889Y151150D02*
X865628Y155888D01*
X718082Y151150D02*
X722820Y155888D01*
X717973Y154836D02*
X722908Y149900D01*
X718173Y227436D02*
X723108Y222500D01*
X718282Y223750D02*
X723020Y228488D01*
X719873Y196936D02*
X724808Y192000D01*
X719982Y193250D02*
X724720Y197988D01*
X577174Y193249D02*
X581912Y197988D01*
X577065Y196935D02*
X582000Y192000D01*
X575474Y223749D02*
X580212Y228488D01*
X575364Y227435D02*
X580300Y222500D01*
X575165Y154835D02*
X580100Y149900D01*
X575274Y151149D02*
X580012Y155888D01*
X438344Y240633D02*
X1312528Y240606D01*
X438116Y144574D02*
X1312300Y144547D01*
D12*
X1209100Y187090D02*
Y205676D01*
X1209026Y187015D02*
X1209068Y187057D01*
X1198346Y187040D02*
X1209026D01*
X1198346D02*
Y205649D01*
X1198355Y205672D02*
X1209106D01*
X923484Y187089D02*
Y205675D01*
X923410Y187014D02*
X923452Y187056D01*
X912730Y187038D02*
X923410D01*
X912730D02*
Y205648D01*
X912739Y205670D02*
X923490D01*
X1066291Y187088D02*
Y205675D01*
X1066218Y187014D02*
X1066260Y187056D01*
X1055538Y187038D02*
X1066218D01*
X1055538D02*
Y205648D01*
X1055546Y205670D02*
X1066298D01*
X780682Y187084D02*
Y205670D01*
X780608Y187009D02*
X780650Y187051D01*
X769928Y187034D02*
X780608D01*
X769928D02*
Y205643D01*
X769937Y205666D02*
X780688D01*
X637874Y187084D02*
Y205670D01*
X637801Y187009D02*
X637843Y187052D01*
X627120Y187034D02*
X637801D01*
X627120D02*
Y205644D01*
X627129Y205666D02*
X637881D01*
X495066Y187084D02*
Y205670D01*
X494993Y187009D02*
X495035Y187051D01*
X484312Y187034D02*
X494993D01*
X484312D02*
Y205643D01*
X484321Y205666D02*
X495072D01*
X1197102Y206449D02*
X1198102D01*
X1198602Y206949D01*
Y207949D01*
X1198102Y208449D01*
X1197102D01*
X1196602Y207949D01*
Y206949D01*
X1197102Y206449D01*
X1210007Y206906D02*
Y207906D01*
Y207406D01*
X1207008D01*
X1207508Y206906D01*
X1251812Y146302D02*
X1252812D01*
X1252312D01*
Y149301D01*
X1251812Y148801D01*
X1272086Y193332D02*
X1272585D01*
X1273085Y193832D01*
Y196331D01*
X1271586D01*
X1271086Y195832D01*
Y194832D01*
X1271586Y194332D01*
X1273085D01*
X1274085D02*
Y196331D01*
X1275584D01*
X1276084Y195832D01*
Y194332D01*
X1279083Y197331D02*
Y194332D01*
X1277584D01*
X1277084Y194832D01*
Y195832D01*
X1277584Y196331D01*
X1279083D01*
X1271375Y190771D02*
Y188771D01*
Y189771D01*
X1271875Y190271D01*
X1272374Y190771D01*
X1272874D01*
X1275873Y188771D02*
X1274874D01*
X1274374Y189271D01*
Y190271D01*
X1274874Y190771D01*
X1275873D01*
X1276373Y190271D01*
Y189771D01*
X1274374D01*
X1277373Y188771D02*
X1278872D01*
X1279372Y189271D01*
X1278872Y189771D01*
X1277873D01*
X1277373Y190271D01*
X1277873Y190771D01*
X1279372D01*
X1281871Y188771D02*
X1280872D01*
X1280372Y189271D01*
Y190271D01*
X1280872Y190771D01*
X1281871D01*
X1282371Y190271D01*
Y189771D01*
X1280372D01*
X1283871Y191271D02*
Y190771D01*
X1283371D01*
X1284371D01*
X1283871D01*
Y189271D01*
X1284371Y188771D01*
X1271591Y183789D02*
X1273091D01*
X1273591Y184289D01*
X1273091Y184789D01*
X1272091D01*
X1271591Y185288D01*
X1272091Y185788D01*
X1273591D01*
X1276590D02*
X1275090D01*
X1274590Y185288D01*
Y184289D01*
X1275090Y183789D01*
X1276590D01*
X1277589D02*
Y186788D01*
Y184789D02*
X1279089Y185788D01*
X1277589Y184789D02*
X1279089Y183789D01*
X1270234Y179406D02*
Y181406D01*
X1270733D01*
X1271233Y180906D01*
Y179406D01*
Y180906D01*
X1271733Y181406D01*
X1272233Y180906D01*
Y179406D01*
X1273732D02*
X1274732D01*
X1275232Y179906D01*
Y180906D01*
X1274732Y181406D01*
X1273732D01*
X1273232Y180906D01*
Y179906D01*
X1273732Y179406D01*
X1276231D02*
X1277731D01*
X1278231Y179906D01*
X1277731Y180406D01*
X1276731D01*
X1276231Y180906D01*
X1276731Y181406D01*
X1278231D01*
X1279230Y179406D02*
X1280230D01*
X1279730D01*
Y181406D01*
X1279230D01*
X966196Y146301D02*
X967196D01*
X966696D01*
Y149300D01*
X966196Y148800D01*
X924391Y206905D02*
Y207904D01*
Y207404D01*
X921393D01*
X921892Y206905D01*
X911486Y206448D02*
X912486D01*
X912986Y206948D01*
Y207947D01*
X912486Y208447D01*
X911486D01*
X910987Y207947D01*
Y206948D01*
X911486Y206448D01*
X1054294Y206448D02*
X1055294D01*
X1055793Y206947D01*
Y207947D01*
X1055294Y208447D01*
X1054294D01*
X1053794Y207947D01*
Y206947D01*
X1054294Y206448D01*
X1067199Y206905D02*
Y207904D01*
Y207404D01*
X1064200D01*
X1064700Y206905D01*
X1109004Y146300D02*
X1110004D01*
X1109504D01*
Y149300D01*
X1109004Y148800D01*
X984618Y179405D02*
Y181404D01*
X985117D01*
X985617Y180904D01*
Y179405D01*
Y180904D01*
X986117Y181404D01*
X986617Y180904D01*
Y179405D01*
X988116D02*
X989116D01*
X989616Y179905D01*
Y180904D01*
X989116Y181404D01*
X988116D01*
X987617Y180904D01*
Y179905D01*
X988116Y179405D01*
X990616D02*
X992115D01*
X992615Y179905D01*
X992115Y180404D01*
X991115D01*
X990616Y180904D01*
X991115Y181404D01*
X992615D01*
X993615Y179405D02*
X994614D01*
X994114D01*
Y181404D01*
X993615D01*
X985975Y183787D02*
X987475D01*
X987975Y184287D01*
X987475Y184787D01*
X986475D01*
X985975Y185287D01*
X986475Y185787D01*
X987975D01*
X990974D02*
X989474D01*
X988974Y185287D01*
Y184287D01*
X989474Y183787D01*
X990974D01*
X991974D02*
Y186786D01*
Y184787D02*
X993473Y185787D01*
X991974Y184787D02*
X993473Y183787D01*
X985759Y190769D02*
Y188770D01*
Y189770D01*
X986259Y190269D01*
X986759Y190769D01*
X987258D01*
X990257Y188770D02*
X989258D01*
X988758Y189270D01*
Y190269D01*
X989258Y190769D01*
X990257D01*
X990757Y190269D01*
Y189770D01*
X988758D01*
X991757Y188770D02*
X993256D01*
X993756Y189270D01*
X993256Y189770D01*
X992257D01*
X991757Y190269D01*
X992257Y190769D01*
X993756D01*
X996255Y188770D02*
X995256D01*
X994756Y189270D01*
Y190269D01*
X995256Y190769D01*
X996255D01*
X996755Y190269D01*
Y189770D01*
X994756D01*
X998255Y191269D02*
Y190769D01*
X997755D01*
X998755D01*
X998255D01*
Y189270D01*
X998755Y188770D01*
X986470Y193331D02*
X986969D01*
X987469Y193831D01*
Y196330D01*
X985970D01*
X985470Y195830D01*
Y194830D01*
X985970Y194330D01*
X987469D01*
X988469D02*
Y196330D01*
X989969D01*
X990468Y195830D01*
Y194330D01*
X993467Y197329D02*
Y194330D01*
X991968D01*
X991468Y194830D01*
Y195830D01*
X991968Y196330D01*
X993467D01*
X1129277Y193331D02*
X1129777D01*
X1130277Y193830D01*
Y196330D01*
X1128777D01*
X1128277Y195830D01*
Y194830D01*
X1128777Y194330D01*
X1130277D01*
X1131277D02*
Y196330D01*
X1132776D01*
X1133276Y195830D01*
Y194330D01*
X1136275Y197329D02*
Y194330D01*
X1134775D01*
X1134276Y194830D01*
Y195830D01*
X1134775Y196330D01*
X1136275D01*
X1128566Y190769D02*
Y188770D01*
Y189769D01*
X1129066Y190269D01*
X1129566Y190769D01*
X1130066D01*
X1133065Y188770D02*
X1132065D01*
X1131565Y189270D01*
Y190269D01*
X1132065Y190769D01*
X1133065D01*
X1133565Y190269D01*
Y189769D01*
X1131565D01*
X1134564Y188770D02*
X1136064D01*
X1136564Y189270D01*
X1136064Y189769D01*
X1135064D01*
X1134564Y190269D01*
X1135064Y190769D01*
X1136564D01*
X1139063Y188770D02*
X1138063D01*
X1137564Y189270D01*
Y190269D01*
X1138063Y190769D01*
X1139063D01*
X1139563Y190269D01*
Y189769D01*
X1137564D01*
X1141062Y191269D02*
Y190769D01*
X1140563D01*
X1141562D01*
X1141062D01*
Y189270D01*
X1141562Y188770D01*
X1128783Y183787D02*
X1130283D01*
X1130782Y184287D01*
X1130283Y184787D01*
X1129283D01*
X1128783Y185287D01*
X1129283Y185786D01*
X1130782D01*
X1133781D02*
X1132282D01*
X1131782Y185287D01*
Y184287D01*
X1132282Y183787D01*
X1133781D01*
X1134781D02*
Y186786D01*
Y184787D02*
X1136281Y185786D01*
X1134781Y184787D02*
X1136281Y183787D01*
X1127425Y179405D02*
Y181404D01*
X1127925D01*
X1128425Y180904D01*
Y179405D01*
Y180904D01*
X1128925Y181404D01*
X1129424Y180904D01*
Y179405D01*
X1130924D02*
X1131924D01*
X1132423Y179904D01*
Y180904D01*
X1131924Y181404D01*
X1130924D01*
X1130424Y180904D01*
Y179904D01*
X1130924Y179405D01*
X1133423D02*
X1134923D01*
X1135423Y179904D01*
X1134923Y180404D01*
X1133923D01*
X1133423Y180904D01*
X1133923Y181404D01*
X1135423D01*
X1136422Y179405D02*
X1137422D01*
X1136922D01*
Y181404D01*
X1136422D01*
X823394Y146296D02*
X824394D01*
X823894D01*
Y149295D01*
X823394Y148795D01*
X781590Y206900D02*
Y207900D01*
Y207400D01*
X778590D01*
X779090Y206900D01*
X768684Y206443D02*
X769684D01*
X770184Y206943D01*
Y207943D01*
X769684Y208443D01*
X768684D01*
X768185Y207943D01*
Y206943D01*
X768684Y206443D01*
X841816Y179400D02*
Y181400D01*
X842315D01*
X842815Y180900D01*
Y179400D01*
Y180900D01*
X843315Y181400D01*
X843815Y180900D01*
Y179400D01*
X845315D02*
X846314D01*
X846814Y179900D01*
Y180900D01*
X846314Y181400D01*
X845315D01*
X844815Y180900D01*
Y179900D01*
X845315Y179400D01*
X847814D02*
X849313D01*
X849813Y179900D01*
X849313Y180400D01*
X848314D01*
X847814Y180900D01*
X848314Y181400D01*
X849813D01*
X850813Y179400D02*
X851812D01*
X851313D01*
Y181400D01*
X850813D01*
X843174Y183783D02*
X844673D01*
X845173Y184283D01*
X844673Y184783D01*
X843673D01*
X843174Y185282D01*
X843673Y185782D01*
X845173D01*
X848172D02*
X846672D01*
X846173Y185282D01*
Y184283D01*
X846672Y183783D01*
X848172D01*
X849172D02*
Y186782D01*
Y184783D02*
X850671Y185782D01*
X849172Y184783D02*
X850671Y183783D01*
X842957Y190765D02*
Y188766D01*
Y189765D01*
X843457Y190265D01*
X843957Y190765D01*
X844456D01*
X847455Y188766D02*
X846456D01*
X845956Y189265D01*
Y190265D01*
X846456Y190765D01*
X847455D01*
X847955Y190265D01*
Y189765D01*
X845956D01*
X848955Y188766D02*
X850455D01*
X850954Y189265D01*
X850455Y189765D01*
X849455D01*
X848955Y190265D01*
X849455Y190765D01*
X850954D01*
X853454Y188766D02*
X852454D01*
X851954Y189265D01*
Y190265D01*
X852454Y190765D01*
X853454D01*
X853953Y190265D01*
Y189765D01*
X851954D01*
X855453Y191265D02*
Y190765D01*
X854953D01*
X855953D01*
X855453D01*
Y189265D01*
X855953Y188766D01*
X843668Y193326D02*
X844168D01*
X844667Y193826D01*
Y196325D01*
X843168D01*
X842668Y195825D01*
Y194826D01*
X843168Y194326D01*
X844667D01*
X845667D02*
Y196325D01*
X847167D01*
X847666Y195825D01*
Y194326D01*
X850665Y197325D02*
Y194326D01*
X849166D01*
X848666Y194826D01*
Y195825D01*
X849166Y196325D01*
X850665D01*
X700860Y193326D02*
X701360D01*
X701860Y193826D01*
Y196325D01*
X700360D01*
X699860Y195826D01*
Y194826D01*
X700360Y194326D01*
X701860D01*
X702859D02*
Y196325D01*
X704359D01*
X704859Y195826D01*
Y194326D01*
X707858Y197325D02*
Y194326D01*
X706358D01*
X705859Y194826D01*
Y195826D01*
X706358Y196325D01*
X707858D01*
X700149Y190765D02*
Y188766D01*
Y189765D01*
X700649Y190265D01*
X701149Y190765D01*
X701649D01*
X704648Y188766D02*
X703648D01*
X703148Y189266D01*
Y190265D01*
X703648Y190765D01*
X704648D01*
X705148Y190265D01*
Y189765D01*
X703148D01*
X706147Y188766D02*
X707647D01*
X708147Y189266D01*
X707647Y189765D01*
X706647D01*
X706147Y190265D01*
X706647Y190765D01*
X708147D01*
X710646Y188766D02*
X709646D01*
X709146Y189266D01*
Y190265D01*
X709646Y190765D01*
X710646D01*
X711146Y190265D01*
Y189765D01*
X709146D01*
X712645Y191265D02*
Y190765D01*
X712146D01*
X713145D01*
X712645D01*
Y189266D01*
X713145Y188766D01*
X700366Y183783D02*
X701865D01*
X702365Y184283D01*
X701865Y184783D01*
X700866D01*
X700366Y185283D01*
X700866Y185782D01*
X702365D01*
X705364D02*
X703865D01*
X703365Y185283D01*
Y184283D01*
X703865Y183783D01*
X705364D01*
X706364D02*
Y186782D01*
Y184783D02*
X707864Y185782D01*
X706364Y184783D02*
X707864Y183783D01*
X699008Y179400D02*
Y181400D01*
X699508D01*
X700008Y180900D01*
Y179400D01*
Y180900D01*
X700508Y181400D01*
X701007Y180900D01*
Y179400D01*
X702507D02*
X703507D01*
X704006Y179900D01*
Y180900D01*
X703507Y181400D01*
X702507D01*
X702007Y180900D01*
Y179900D01*
X702507Y179400D01*
X705006D02*
X706506D01*
X707006Y179900D01*
X706506Y180400D01*
X705506D01*
X705006Y180900D01*
X705506Y181400D01*
X707006D01*
X708005Y179400D02*
X709005D01*
X708505D01*
Y181400D01*
X708005D01*
X625877Y206443D02*
X626877D01*
X627376Y206943D01*
Y207943D01*
X626877Y208443D01*
X625877D01*
X625377Y207943D01*
Y206943D01*
X625877Y206443D01*
X638782Y206900D02*
Y207900D01*
Y207400D01*
X635783D01*
X636283Y206900D01*
X680587Y146296D02*
X681587D01*
X681087D01*
Y149295D01*
X680587Y148795D01*
X495974Y206900D02*
Y207900D01*
Y207400D01*
X492975D01*
X493475Y206900D01*
X483069Y206443D02*
X484068D01*
X484568Y206943D01*
Y207943D01*
X484068Y208442D01*
X483069D01*
X482569Y207943D01*
Y206943D01*
X483069Y206443D01*
X537779Y146296D02*
X538778D01*
X538279D01*
Y149295D01*
X537779Y148795D01*
X556200Y179400D02*
Y181399D01*
X556700D01*
X557200Y180900D01*
Y179400D01*
Y180900D01*
X557699Y181399D01*
X558199Y180900D01*
Y179400D01*
X559699D02*
X560699D01*
X561198Y179900D01*
Y180900D01*
X560699Y181399D01*
X559699D01*
X559199Y180900D01*
Y179900D01*
X559699Y179400D01*
X562198D02*
X563698D01*
X564197Y179900D01*
X563698Y180400D01*
X562698D01*
X562198Y180900D01*
X562698Y181399D01*
X564197D01*
X565197Y179400D02*
X566197D01*
X565697D01*
Y181399D01*
X565197D01*
X557558Y183782D02*
X559057D01*
X559557Y184282D01*
X559057Y184782D01*
X558058D01*
X557558Y185282D01*
X558058Y185782D01*
X559557D01*
X562556D02*
X561057D01*
X560557Y185282D01*
Y184282D01*
X561057Y183782D01*
X562556D01*
X563556D02*
Y186782D01*
Y184782D02*
X565056Y185782D01*
X563556Y184782D02*
X565056Y183782D01*
X557341Y190765D02*
Y188765D01*
Y189765D01*
X557841Y190265D01*
X558341Y190765D01*
X558841D01*
X561840Y188765D02*
X560840D01*
X560340Y189265D01*
Y190265D01*
X560840Y190765D01*
X561840D01*
X562340Y190265D01*
Y189765D01*
X560340D01*
X563339Y188765D02*
X564839D01*
X565339Y189265D01*
X564839Y189765D01*
X563839D01*
X563339Y190265D01*
X563839Y190765D01*
X565339D01*
X567838Y188765D02*
X566838D01*
X566338Y189265D01*
Y190265D01*
X566838Y190765D01*
X567838D01*
X568338Y190265D01*
Y189765D01*
X566338D01*
X569837Y191264D02*
Y190765D01*
X569337D01*
X570337D01*
X569837D01*
Y189265D01*
X570337Y188765D01*
X558052Y193326D02*
X558552D01*
X559052Y193826D01*
Y196325D01*
X557552D01*
X557052Y195825D01*
Y194825D01*
X557552Y194326D01*
X559052D01*
X560051D02*
Y196325D01*
X561551D01*
X562051Y195825D01*
Y194326D01*
X565050Y197325D02*
Y194326D01*
X563550D01*
X563051Y194825D01*
Y195825D01*
X563550Y196325D01*
X565050D01*
D13*
X1228805Y201062D02*
Y202735D01*
X1230478D01*
X1228805Y181278D02*
Y182951D01*
Y181278D02*
X1230478D01*
X1248589D02*
X1250262D01*
Y182951D01*
Y201062D02*
Y202735D01*
X1248589D02*
X1250262D01*
X943189Y201060D02*
Y202733D01*
X944862D01*
X943189Y181276D02*
Y182949D01*
Y181276D02*
X944862D01*
X962973D02*
X964646D01*
Y182949D01*
Y201060D02*
Y202733D01*
X962973D02*
X964646D01*
X1085997Y201060D02*
Y202733D01*
X1087670D01*
X1085997Y181276D02*
Y182949D01*
Y181276D02*
X1087670D01*
X1105780D02*
X1107454D01*
Y182949D01*
Y201060D02*
Y202733D01*
X1105780D02*
X1107454D01*
X800387Y201055D02*
Y202729D01*
X802060D01*
X800387Y181272D02*
Y182945D01*
Y181272D02*
X802060D01*
X820171D02*
X821844D01*
Y182945D01*
Y201055D02*
Y202729D01*
X820171D02*
X821844D01*
X657580Y201056D02*
Y202729D01*
X659253D01*
X657580Y181272D02*
Y182945D01*
Y181272D02*
X659253D01*
X677363D02*
X679037D01*
Y182945D01*
Y201056D02*
Y202729D01*
X677363D02*
X679037D01*
X514772Y201055D02*
Y202728D01*
X516445D01*
X514772Y181272D02*
Y182945D01*
Y181272D02*
X516445D01*
X534555D02*
X536228D01*
Y182945D01*
Y201055D02*
Y202728D01*
X534555D02*
X536228D01*
D14*
X1225084Y224548D02*
D03*
X939468Y224547D02*
D03*
X1082276Y224547D02*
D03*
X796666Y224543D02*
D03*
X653859Y224543D02*
D03*
X511051Y224543D02*
D03*
D15*
X1226199Y223450D02*
D03*
X1209903Y209340D02*
D03*
X940583Y223448D02*
D03*
X924287Y209338D02*
D03*
X1083391Y223448D02*
D03*
X1067095Y209338D02*
D03*
X797781Y223444D02*
D03*
X781485Y209334D02*
D03*
X654974Y223444D02*
D03*
X638678Y209334D02*
D03*
X512166Y223444D02*
D03*
X495870Y209334D02*
D03*
D16*
X1225109Y208248D02*
D03*
X939493Y208246D02*
D03*
X1082301Y208246D02*
D03*
X796691Y208242D02*
D03*
X653884Y208242D02*
D03*
X511076Y208242D02*
D03*
D17*
X1226197Y209355D02*
D03*
X1209911Y223443D02*
D03*
X940581Y209354D02*
D03*
X924296Y223441D02*
D03*
X1083389Y209354D02*
D03*
X1067103Y223441D02*
D03*
X797779Y209349D02*
D03*
X781494Y223437D02*
D03*
X654972Y209350D02*
D03*
X638686Y223437D02*
D03*
X512164Y209349D02*
D03*
X495878Y223437D02*
D03*
D18*
X1211010Y224557D02*
D03*
X925394Y224556D02*
D03*
X1068202Y224556D02*
D03*
X782592Y224552D02*
D03*
X639785Y224552D02*
D03*
X496977Y224552D02*
D03*
D19*
X1211011Y208252D02*
D03*
X925395Y208250D02*
D03*
X1068202Y208250D02*
D03*
X782593Y208246D02*
D03*
X639785Y208246D02*
D03*
X496977Y208246D02*
D03*
D20*
X1181497Y174591D02*
D03*
X895881Y174589D02*
D03*
X1038689Y174589D02*
D03*
X753079Y174584D02*
D03*
X610272Y174585D02*
D03*
X467464Y174584D02*
D03*
D21*
X1166596Y189336D02*
D03*
X880980Y189334D02*
D03*
X1023788Y189334D02*
D03*
X738178Y189329D02*
D03*
X595370Y189330D02*
D03*
X452562Y189329D02*
D03*
D22*
X1166348Y200852D02*
D03*
X880733Y200851D02*
D03*
X1023540Y200850D02*
D03*
X737931Y200846D02*
D03*
X595123Y200846D02*
D03*
X452315Y200846D02*
D03*
D23*
X1263867Y234977D02*
D03*
X978251Y234976D02*
D03*
X1121059Y234975D02*
D03*
X835450Y234971D02*
D03*
X692642Y234971D02*
D03*
X549834Y234971D02*
D03*
D24*
X1303604Y147357D02*
D03*
X1017988Y147355D02*
D03*
X1160796Y147355D02*
D03*
X875186Y147351D02*
D03*
X732379Y147351D02*
D03*
X589571Y147351D02*
D03*
D25*
X1297858Y189322D02*
D03*
X1012243Y189320D02*
D03*
X1155050Y189320D02*
D03*
X869441Y189316D02*
D03*
X726633Y189316D02*
D03*
X583825Y189315D02*
D03*
D26*
X1303585Y161790D02*
D03*
X1017969Y161789D02*
D03*
X1160776Y161789D02*
D03*
X875167Y161784D02*
D03*
X732359Y161785D02*
D03*
X446725Y161685D02*
D03*
X589551Y161784D02*
D03*
D27*
X1303611Y176034D02*
D03*
X1017996Y176032D02*
D03*
X1160803Y176032D02*
D03*
X875194Y176028D02*
D03*
X732386Y176028D02*
D03*
X446751Y175928D02*
D03*
X589578Y176028D02*
D03*
D28*
X1303558Y195487D02*
D03*
X1017942Y195485D02*
D03*
X1160750Y195485D02*
D03*
X875140Y195481D02*
D03*
X732332Y195481D02*
D03*
X446698Y195381D02*
D03*
X589524Y195480D02*
D03*
D29*
X1303619Y217088D02*
D03*
X1018003Y217086D02*
D03*
X1160811Y217086D02*
D03*
X875201Y217082D02*
D03*
X732394Y217082D02*
D03*
X446759Y216982D02*
D03*
X589586Y217082D02*
D03*
D30*
X1303525Y236533D02*
D03*
X1017909Y236531D02*
D03*
X1160717Y236531D02*
D03*
X875107Y236527D02*
D03*
X732299Y236527D02*
D03*
X446665Y236427D02*
D03*
X589491Y236526D02*
D03*
D31*
X1280994Y217876D02*
D03*
X995378Y217875D02*
D03*
X1138185Y217874D02*
D03*
X852576Y217870D02*
D03*
X709768Y217870D02*
D03*
X566960Y217870D02*
D03*
D32*
X1297927Y200891D02*
D03*
X1012311Y200889D02*
D03*
X1155118Y200889D02*
D03*
X869509Y200885D02*
D03*
X726701Y200885D02*
D03*
X583893Y200884D02*
D03*
D33*
X1255423Y147097D02*
D03*
X969807Y147096D02*
D03*
X1112615Y147096D02*
D03*
X827005Y147091D02*
D03*
X684198Y147091D02*
D03*
X541390Y147091D02*
D03*
D34*
X1270302Y161839D02*
D03*
X984686Y161837D02*
D03*
X1127494Y161837D02*
D03*
X841884Y161833D02*
D03*
X699077Y161833D02*
D03*
X556269Y161832D02*
D03*
D35*
X1283095Y174574D02*
D03*
X997480Y174573D02*
D03*
X1140287Y174573D02*
D03*
X854678Y174568D02*
D03*
X711870Y174569D02*
D03*
X569062Y174568D02*
D03*
D36*
X1183323Y217805D02*
D03*
X897707Y217803D02*
D03*
X1040515Y217803D02*
D03*
X754905Y217798D02*
D03*
X612098Y217799D02*
D03*
X469289Y217798D02*
D03*
D37*
X1200636Y235070D02*
D03*
X915020Y235068D02*
D03*
X1057827Y235068D02*
D03*
X772218Y235064D02*
D03*
X629410Y235064D02*
D03*
X486602Y235063D02*
D03*
D38*
X1194045Y161806D02*
D03*
X908429Y161804D02*
D03*
X1051236Y161804D02*
D03*
X765627Y161800D02*
D03*
X622819Y161800D02*
D03*
X480011Y161800D02*
D03*
D39*
X1208798Y147033D02*
D03*
X923182Y147031D02*
D03*
X1065989Y147031D02*
D03*
X780380Y147027D02*
D03*
X637572Y147027D02*
D03*
X494764Y147027D02*
D03*
D40*
X446744Y146481D02*
D03*
M02*
