G04 Layer_Physical_Order=2*
G04 Layer_Color=16711680*
%FSLAX25Y25*%
%MOIN*%
G70*
G01*
G75*
%ADD11R,0.15748X0.07874*%
G04:AMPARAMS|DCode=25|XSize=157.48mil|YSize=98.43mil|CornerRadius=0mil|HoleSize=0mil|Usage=FLASHONLY|Rotation=315.000|XOffset=0mil|YOffset=0mil|HoleType=Round|Shape=Round|*
%AMOVALD25*
21,1,0.05906,0.09843,0.00000,0.00000,315.0*
1,1,0.09843,-0.02088,0.02088*
1,1,0.09843,0.02088,-0.02088*
%
%ADD25OVALD25*%

G04:AMPARAMS|DCode=26|XSize=157.48mil|YSize=98.43mil|CornerRadius=0mil|HoleSize=0mil|Usage=FLASHONLY|Rotation=-45.000|XOffset=0mil|YOffset=0mil|HoleType=Round|Shape=Round|*
%AMOVALD26*
21,1,0.05906,0.09843,0.00000,0.00000,-45.0*
1,1,0.09843,-0.02088,0.02088*
1,1,0.09843,0.02088,-0.02088*
%
%ADD26OVALD26*%

%ADD27O,0.15748X0.09843*%
G04:AMPARAMS|DCode=28|XSize=157.48mil|YSize=98.43mil|CornerRadius=0mil|HoleSize=0mil|Usage=FLASHONLY|Rotation=225.000|XOffset=0mil|YOffset=0mil|HoleType=Round|Shape=Round|*
%AMOVALD28*
21,1,0.05906,0.09843,0.00000,0.00000,225.0*
1,1,0.09843,0.02088,0.02088*
1,1,0.09843,-0.02088,-0.02088*
%
%ADD28OVALD28*%

%ADD29C,0.00500*%
%ADD30C,0.00600*%
%ADD31C,0.01000*%
%ADD32R,0.09000X0.07000*%
%ADD33C,0.02598*%
%ADD34C,0.02500*%
%ADD35C,0.02000*%
%ADD36R,0.58920X0.03937*%
%ADD37R,1.42739X0.07874*%
%ADD38R,1.43128X0.07874*%
%ADD39R,1.42809X0.15748*%
%ADD40R,1.42956X0.15748*%
%ADD41R,0.76634X0.03937*%
D11*
X433011Y225986D02*
D03*
X432966Y207955D02*
D03*
X432978Y182838D02*
D03*
X432982Y169051D02*
D03*
X433046Y154415D02*
D03*
X1317402Y154460D02*
D03*
X1317338Y169096D02*
D03*
X1317334Y182883D02*
D03*
X1317322Y207999D02*
D03*
X1317366Y226031D02*
D03*
D25*
X1288233Y179206D02*
D03*
X1175822Y210653D02*
D03*
X890206Y210652D02*
D03*
X1002618Y179205D02*
D03*
X1145425Y179205D02*
D03*
X1033013Y210651D02*
D03*
X747404Y210647D02*
D03*
X859816Y179200D02*
D03*
X717008Y179200D02*
D03*
X604596Y210647D02*
D03*
X461788Y210647D02*
D03*
X574200Y179200D02*
D03*
D26*
X1190207Y225624D02*
D03*
X1278325Y169435D02*
D03*
X1262712Y153770D02*
D03*
X977096Y153768D02*
D03*
X992709Y169434D02*
D03*
X904591Y225622D02*
D03*
X1047398Y225622D02*
D03*
X1135516Y169434D02*
D03*
X1119904Y153768D02*
D03*
X834294Y153764D02*
D03*
X849907Y169429D02*
D03*
X761789Y225618D02*
D03*
X618981Y225618D02*
D03*
X707099Y169429D02*
D03*
X691487Y153764D02*
D03*
X548678Y153763D02*
D03*
X564291Y169429D02*
D03*
X476173Y225617D02*
D03*
D27*
X1303652Y154475D02*
D03*
X1303553Y169140D02*
D03*
X1303652Y182951D02*
D03*
Y208018D02*
D03*
Y226054D02*
D03*
X1018036Y226052D02*
D03*
Y208016D02*
D03*
Y182949D02*
D03*
X1017937Y169139D02*
D03*
X1018036Y154473D02*
D03*
X1160843Y154473D02*
D03*
X1160745Y169138D02*
D03*
X1160843Y182949D02*
D03*
Y208016D02*
D03*
Y226052D02*
D03*
X875234Y226047D02*
D03*
Y208012D02*
D03*
Y182945D02*
D03*
X875135Y169134D02*
D03*
X875234Y154469D02*
D03*
X732426Y154469D02*
D03*
X732328Y169134D02*
D03*
X732426Y182945D02*
D03*
Y208012D02*
D03*
Y226048D02*
D03*
X446738Y226004D02*
D03*
X446751Y207972D02*
D03*
X446706Y182912D02*
D03*
X446759Y169101D02*
D03*
X446781Y154436D02*
D03*
X589618Y226047D02*
D03*
Y208012D02*
D03*
Y182945D02*
D03*
X589520Y169134D02*
D03*
X589618Y154468D02*
D03*
D28*
X1274265Y225644D02*
D03*
X1288634Y210706D02*
D03*
X1176222Y179153D02*
D03*
X1201713Y153898D02*
D03*
X1186130Y169382D02*
D03*
X900515Y169381D02*
D03*
X916097Y153896D02*
D03*
X890606Y179152D02*
D03*
X1003018Y210705D02*
D03*
X988649Y225642D02*
D03*
X1131456Y225642D02*
D03*
X1145825Y210705D02*
D03*
X1033413Y179151D02*
D03*
X1058905Y153896D02*
D03*
X1043322Y169380D02*
D03*
X757713Y169376D02*
D03*
X773295Y153892D02*
D03*
X747804Y179147D02*
D03*
X860216Y210700D02*
D03*
X845847Y225638D02*
D03*
X703039Y225638D02*
D03*
X717408Y210700D02*
D03*
X604996Y179147D02*
D03*
X630488Y153892D02*
D03*
X614905Y169376D02*
D03*
X472097Y169376D02*
D03*
X487680Y153892D02*
D03*
X462188Y179147D02*
D03*
X574600Y210700D02*
D03*
X560231Y225637D02*
D03*
D29*
X425029Y241174D02*
X1325373D01*
X424937Y143882D02*
X425005Y241146D01*
X424937Y143882D02*
X1325373Y143517D01*
Y241174D01*
D30*
X1214807Y213750D02*
X1214822Y215324D01*
X1217863Y215689D02*
X1222334D01*
X1215945Y217606D02*
X1217863Y215689D01*
X1204451D02*
X1208922D01*
X1210839Y217606D01*
X1256334Y202106D02*
X1279634D01*
X1262234Y190006D02*
X1263533D01*
X1273133Y189506D02*
X1275433D01*
X1271468Y187841D02*
X1273133Y189506D01*
X1256001Y187841D02*
X1271468D01*
X1210839Y217606D02*
X1215945D01*
X1222334Y215689D02*
X1222383Y215739D01*
X1225333Y213556D02*
X1225883Y214106D01*
X1198734D02*
X1202184D01*
X1202734Y213556D01*
X1242626Y214106D02*
X1244026Y215506D01*
X1225883Y214106D02*
X1242626D01*
X1202734Y213556D02*
X1225333D01*
X1187934Y200906D02*
X1191634Y197206D01*
X1221533Y157506D02*
X1233484D01*
X1238435Y207006D02*
X1238533D01*
X1237567Y169079D02*
X1240434Y171706D01*
X1275433Y189506D02*
X1276733Y190806D01*
X1252764Y202237D02*
Y202316D01*
X1252534Y202006D02*
X1252764Y202237D01*
Y202316D02*
X1262124Y192956D01*
X1277624D01*
X1278883Y191697D01*
Y190129D02*
Y191697D01*
Y190129D02*
X1287411Y181601D01*
X1229733Y202906D02*
X1233134Y199506D01*
X1204434Y215706D02*
X1204451Y215689D01*
X1225533Y202306D02*
X1231109Y196731D01*
X1234809D01*
X1197534Y215306D02*
X1198734Y214106D01*
X1246533Y174606D02*
X1247433D01*
X1242634Y164106D02*
X1264334D01*
X1239484Y175156D02*
X1239884D01*
X1242334Y172706D01*
X1243659Y169441D02*
X1243734Y169516D01*
Y169566D01*
X1243684Y169616D02*
X1243734Y169566D01*
X1243684Y169616D02*
Y171756D01*
X1246533Y174606D01*
X1236534Y164406D02*
X1239933Y167806D01*
X1242334Y170206D02*
Y172706D01*
X1239933Y167806D02*
X1242334Y170206D01*
X1233484Y157506D02*
X1236633Y160656D01*
Y161306D01*
X1236934Y169106D02*
X1237567Y169079D01*
X1236633Y161306D02*
X1238629Y163302D01*
Y164411D01*
X1243659Y169441D01*
Y169441D01*
X1237826Y214306D02*
X1238433Y214914D01*
Y216406D01*
X1210670Y236006D02*
X1215234D01*
X1225033Y202106D02*
Y202179D01*
X1225161Y202306D01*
X1225533D01*
X1233134Y199506D02*
X1246033D01*
X1248756Y196783D01*
X1252936D01*
X1252995Y196842D01*
X1255398D01*
X1262234Y190006D01*
X1254533Y194706D02*
X1254620Y194793D01*
X1239525Y192073D02*
X1242246Y194793D01*
X1234875Y192073D02*
X1239525D01*
X1233502Y193445D02*
X1234875Y192073D01*
X1242246Y194793D02*
X1254620D01*
X1184534Y190306D02*
X1221387D01*
X1223223Y188471D01*
X1255371D02*
X1256001Y187841D01*
X1223223Y188471D02*
X1233030D01*
X1233939Y189381D01*
X1235679D01*
X1238664D02*
X1240403D01*
X1243388D02*
X1245127D01*
X1246037Y188471D01*
X1255371D01*
X1225921Y191103D02*
X1226284D01*
X1226362Y191025D01*
X1191634Y197206D02*
X1226033D01*
X1225895Y193561D02*
X1225921Y193535D01*
X1223921Y195042D02*
X1225402Y193561D01*
X1225921Y191103D02*
Y193445D01*
Y193535D01*
X1225402Y193561D02*
X1225895D01*
X1225921Y193445D02*
X1233502D01*
X1223642Y195042D02*
X1223921D01*
X1235679Y189381D02*
X1235701Y189359D01*
X1238641D01*
X1238664Y189381D01*
X1240403D02*
X1240425Y189359D01*
X1243366D01*
X1243388Y189381D01*
X957750Y189357D02*
X957773Y189380D01*
X954810Y189357D02*
X957750D01*
X954787Y189380D02*
X954810Y189357D01*
X953026D02*
X953048Y189380D01*
X950085Y189357D02*
X953026D01*
X950063Y189380D02*
X950085Y189357D01*
X938026Y195041D02*
X938305D01*
X940306Y193443D02*
X947886D01*
X939786Y193560D02*
X940279D01*
X940306Y193443D02*
Y193534D01*
Y191102D02*
Y193443D01*
X938305Y195041D02*
X939786Y193560D01*
X940279D02*
X940306Y193534D01*
X906018Y197205D02*
X940418D01*
X940668Y191102D02*
X940746Y191024D01*
X940306Y191102D02*
X940668D01*
X960421Y188470D02*
X969755D01*
X959511Y189380D02*
X960421Y188470D01*
X957773Y189380D02*
X959511D01*
X953048D02*
X954787D01*
X948324D02*
X950063D01*
X947414Y188470D02*
X948324Y189380D01*
X937607Y188470D02*
X947414D01*
X969755D02*
X970385Y187840D01*
X935772Y190305D02*
X937607Y188470D01*
X898918Y190305D02*
X935772D01*
X956630Y194792D02*
X969005D01*
X947886Y193443D02*
X949259Y192071D01*
X953909D01*
X956630Y194792D01*
X968918Y194705D02*
X969005Y194792D01*
X969782Y196840D02*
X976618Y190005D01*
X967379Y196840D02*
X969782D01*
X967321Y196782D02*
X967379Y196840D01*
X963141Y196782D02*
X967321D01*
X960418Y199505D02*
X963141Y196782D01*
X947518Y199505D02*
X960418D01*
X939545Y202305D02*
X939918D01*
X939418Y202177D02*
X939545Y202305D01*
X939418Y202105D02*
Y202177D01*
X925054Y236005D02*
X929618D01*
X952818Y214913D02*
Y216405D01*
X952210Y214305D02*
X952818Y214913D01*
X958043Y169439D02*
Y169439D01*
X953013Y164409D02*
X958043Y169439D01*
X953013Y163300D02*
Y164409D01*
X951018Y161305D02*
X953013Y163300D01*
X951318Y169105D02*
X951951Y169077D01*
X951018Y160655D02*
Y161305D01*
X947868Y157505D02*
X951018Y160655D01*
X954318Y167805D02*
X956718Y170205D01*
Y172705D01*
X950918Y164405D02*
X954318Y167805D01*
X958068Y171755D02*
X960918Y174605D01*
X958068Y169614D02*
Y171755D01*
Y169614D02*
X958118Y169564D01*
Y169514D02*
Y169564D01*
X958043Y169439D02*
X958118Y169514D01*
X954268Y175155D02*
X956718Y172705D01*
X953868Y175155D02*
X954268D01*
X957018Y164105D02*
X978718D01*
X960918Y174605D02*
X961818D01*
X911918Y215305D02*
X913118Y214105D01*
X945493Y196729D02*
X949193D01*
X939918Y202305D02*
X945493Y196729D01*
X918818Y215705D02*
X918835Y215687D01*
X944118Y202905D02*
X947518Y199505D01*
X993268Y190128D02*
X1001796Y181599D01*
X993268Y190128D02*
Y191695D01*
X992008Y192955D02*
X993268Y191695D01*
X976508Y192955D02*
X992008D01*
X967148Y202314D02*
X976508Y192955D01*
X966918Y202005D02*
X967148Y202236D01*
Y202314D01*
X989817Y189505D02*
X991118Y190805D01*
X951951Y169077D02*
X954818Y171705D01*
X952820Y207005D02*
X952918D01*
X935918Y157505D02*
X947868D01*
X902318Y200905D02*
X906018Y197205D01*
X917118Y213555D02*
X939718D01*
X940268Y214105D02*
X957010D01*
X958410Y215505D01*
X916568Y214105D02*
X917118Y213555D01*
X913118Y214105D02*
X916568D01*
X939718Y213555D02*
X940268Y214105D01*
X936718Y215687D02*
X936768Y215737D01*
X925223Y217605D02*
X930330D01*
X970385Y187840D02*
X985853D01*
X987518Y189505D01*
X989817D01*
X976618Y190005D02*
X977918D01*
X970718Y202105D02*
X994018D01*
X923306Y215687D02*
X925223Y217605D01*
X918835Y215687D02*
X923306D01*
X930330Y217605D02*
X932247Y215687D01*
X936718D01*
X929191Y213748D02*
X929206Y215322D01*
X1071999Y213748D02*
X1072014Y215322D01*
X1075054Y215687D02*
X1079525D01*
X1073137Y217605D02*
X1075054Y215687D01*
X1061642D02*
X1066113D01*
X1068030Y217605D01*
X1113525Y202105D02*
X1136825D01*
X1119425Y190005D02*
X1120725D01*
X1130325Y189505D02*
X1132625D01*
X1128660Y187840D02*
X1130325Y189505D01*
X1113193Y187840D02*
X1128660D01*
X1068030Y217605D02*
X1073137D01*
X1079525Y215687D02*
X1079575Y215737D01*
X1082525Y213555D02*
X1083075Y214105D01*
X1055925D02*
X1059375D01*
X1059925Y213555D01*
X1099817Y214105D02*
X1101217Y215505D01*
X1083075Y214105D02*
X1099817D01*
X1059925Y213555D02*
X1082525D01*
X1045125Y200905D02*
X1048825Y197205D01*
X1078725Y157505D02*
X1090675D01*
X1095627Y207005D02*
X1095725D01*
X1094759Y169077D02*
X1097625Y171705D01*
X1132625Y189505D02*
X1133925Y190805D01*
X1109956Y202235D02*
Y202314D01*
X1109725Y202005D02*
X1109956Y202235D01*
Y202314D02*
X1119315Y192955D01*
X1134816D01*
X1136075Y191695D01*
Y190127D02*
Y191695D01*
Y190127D02*
X1144603Y181599D01*
X1086925Y202905D02*
X1090325Y199505D01*
X1061625Y215705D02*
X1061642Y215687D01*
X1082725Y202305D02*
X1088301Y196729D01*
X1092001D01*
X1054725Y215305D02*
X1055925Y214105D01*
X1103725Y174605D02*
X1104625D01*
X1099825Y164105D02*
X1121525D01*
X1096675Y175155D02*
X1097075D01*
X1099525Y172705D01*
X1100850Y169439D02*
X1100925Y169514D01*
Y169564D01*
X1100875Y169614D02*
X1100925Y169564D01*
X1100875Y169614D02*
Y171755D01*
X1103725Y174605D01*
X1093725Y164405D02*
X1097125Y167805D01*
X1099525Y170205D02*
Y172705D01*
X1097125Y167805D02*
X1099525Y170205D01*
X1090675Y157505D02*
X1093825Y160655D01*
Y161305D01*
X1094125Y169105D02*
X1094759Y169077D01*
X1093825Y161305D02*
X1095820Y163300D01*
Y164409D01*
X1100850Y169439D01*
Y169439D01*
X1095017Y214305D02*
X1095625Y214912D01*
Y216405D01*
X1067861Y236005D02*
X1072425D01*
X1082225Y202105D02*
Y202177D01*
X1082353Y202305D01*
X1082725D01*
X1090325Y199505D02*
X1103225D01*
X1105948Y196782D01*
X1110128D01*
X1110186Y196840D01*
X1112590D01*
X1119425Y190005D01*
X1111725Y194705D02*
X1111812Y194792D01*
X1096717Y192071D02*
X1099437Y194792D01*
X1092066Y192071D02*
X1096717D01*
X1090694Y193443D02*
X1092066Y192071D01*
X1099437Y194792D02*
X1111812D01*
X1041725Y190305D02*
X1078579D01*
X1080414Y188470D01*
X1112563D02*
X1113193Y187840D01*
X1080414Y188470D02*
X1090221D01*
X1091131Y189379D01*
X1092870D01*
X1095856D02*
X1097595D01*
X1100580D02*
X1102319D01*
X1103229Y188470D01*
X1112563D01*
X1083113Y191102D02*
X1083475D01*
X1083553Y191024D01*
X1048825Y197205D02*
X1083225D01*
X1083087Y193560D02*
X1083113Y193533D01*
X1081112Y195040D02*
X1082593Y193560D01*
X1083113Y191102D02*
Y193443D01*
Y193533D01*
X1082593Y193560D02*
X1083087D01*
X1083113Y193443D02*
X1090694D01*
X1080833Y195040D02*
X1081112D01*
X1092870Y189379D02*
X1092893Y189357D01*
X1095833D01*
X1095856Y189379D01*
X1097595D02*
X1097617Y189357D01*
X1100558D01*
X1100580Y189379D01*
X814948Y189353D02*
X814970Y189375D01*
X812008Y189353D02*
X814948D01*
X811985Y189375D02*
X812008Y189353D01*
X810224D02*
X810246Y189375D01*
X807283Y189353D02*
X810224D01*
X807261Y189375D02*
X807283Y189353D01*
X795224Y195036D02*
X795503D01*
X797504Y193439D02*
X805085D01*
X796984Y193555D02*
X797477D01*
X797504Y193439D02*
Y193529D01*
Y191097D02*
Y193439D01*
X795503Y195036D02*
X796984Y193555D01*
X797477D02*
X797504Y193529D01*
X763216Y197200D02*
X797616D01*
X797866Y191097D02*
X797944Y191019D01*
X797504Y191097D02*
X797866D01*
X817619Y188465D02*
X826954D01*
X816710Y189375D02*
X817619Y188465D01*
X814970Y189375D02*
X816710D01*
X810246D02*
X811985D01*
X805522D02*
X807261D01*
X804612Y188465D02*
X805522Y189375D01*
X794805Y188465D02*
X804612D01*
X826954D02*
X827584Y187835D01*
X792970Y190300D02*
X794805Y188465D01*
X756116Y190300D02*
X792970D01*
X813828Y194787D02*
X826203D01*
X805085Y193439D02*
X806457Y192067D01*
X811107D01*
X813828Y194787D01*
X826116Y194700D02*
X826203Y194787D01*
X826980Y196836D02*
X833816Y190000D01*
X824577Y196836D02*
X826980D01*
X824518Y196777D02*
X824577Y196836D01*
X820339Y196777D02*
X824518D01*
X817616Y199500D02*
X820339Y196777D01*
X804716Y199500D02*
X817616D01*
X796743Y202300D02*
X797116D01*
X796616Y202173D02*
X796743Y202300D01*
X796616Y202100D02*
Y202173D01*
X782252Y236000D02*
X786816D01*
X810016Y214908D02*
Y216400D01*
X809408Y214300D02*
X810016Y214908D01*
X815241Y169435D02*
Y169435D01*
X810211Y164405D02*
X815241Y169435D01*
X810211Y163295D02*
Y164405D01*
X808216Y161300D02*
X810211Y163295D01*
X808516Y169100D02*
X809149Y169073D01*
X808216Y160650D02*
Y161300D01*
X805066Y157500D02*
X808216Y160650D01*
X811516Y167800D02*
X813916Y170200D01*
Y172700D01*
X808116Y164400D02*
X811516Y167800D01*
X815266Y171750D02*
X818116Y174600D01*
X815266Y169610D02*
Y171750D01*
Y169610D02*
X815316Y169560D01*
Y169510D02*
Y169560D01*
X815241Y169435D02*
X815316Y169510D01*
X811466Y175150D02*
X813916Y172700D01*
X811066Y175150D02*
X811466D01*
X814216Y164100D02*
X835916D01*
X818116Y174600D02*
X819016D01*
X769116Y215300D02*
X770316Y214100D01*
X802691Y196725D02*
X806391D01*
X797116Y202300D02*
X802691Y196725D01*
X776016Y215700D02*
X776033Y215683D01*
X801316Y202900D02*
X804716Y199500D01*
X850466Y190123D02*
X858994Y181595D01*
X850466Y190123D02*
Y191691D01*
X849206Y192950D02*
X850466Y191691D01*
X833706Y192950D02*
X849206D01*
X824347Y202310D02*
X833706Y192950D01*
X824116Y202000D02*
X824347Y202231D01*
Y202310D01*
X847015Y189500D02*
X848316Y190800D01*
X809149Y169073D02*
X812016Y171700D01*
X810018Y207000D02*
X810116D01*
X793116Y157500D02*
X805066D01*
X759516Y200900D02*
X763216Y197200D01*
X774316Y213550D02*
X796916D01*
X797466Y214100D02*
X814208D01*
X815608Y215500D01*
X773766Y214100D02*
X774316Y213550D01*
X770316Y214100D02*
X773766D01*
X796916Y213550D02*
X797466Y214100D01*
X793916Y215683D02*
X793966Y215733D01*
X782421Y217600D02*
X787528D01*
X827584Y187835D02*
X843051D01*
X844716Y189500D01*
X847015D01*
X833816Y190000D02*
X835116D01*
X827916Y202100D02*
X851216D01*
X780504Y215683D02*
X782421Y217600D01*
X776033Y215683D02*
X780504D01*
X787528Y217600D02*
X789445Y215683D01*
X793916D01*
X786389Y213744D02*
X786404Y215318D01*
X643582Y213744D02*
X643597Y215318D01*
X646637Y215683D02*
X651108D01*
X644720Y217600D02*
X646637Y215683D01*
X633225D02*
X637696D01*
X639613Y217600D01*
X685108Y202100D02*
X708408D01*
X691008Y190000D02*
X692308D01*
X701908Y189500D02*
X704208D01*
X700243Y187835D02*
X701908Y189500D01*
X684776Y187835D02*
X700243D01*
X639613Y217600D02*
X644720D01*
X651108Y215683D02*
X651158Y215733D01*
X654108Y213550D02*
X654658Y214100D01*
X627508D02*
X630958D01*
X631508Y213550D01*
X671400Y214100D02*
X672800Y215500D01*
X654658Y214100D02*
X671400D01*
X631508Y213550D02*
X654108D01*
X616708Y200900D02*
X620408Y197200D01*
X650308Y157500D02*
X662258D01*
X667210Y207000D02*
X667308D01*
X666342Y169073D02*
X669208Y171700D01*
X704208Y189500D02*
X705508Y190801D01*
X681539Y202231D02*
Y202310D01*
X681308Y202000D02*
X681539Y202231D01*
Y202310D02*
X690898Y192951D01*
X706399D01*
X707658Y191691D01*
Y190123D02*
Y191691D01*
Y190123D02*
X716186Y181595D01*
X658508Y202900D02*
X661908Y199500D01*
X633208Y215700D02*
X633225Y215683D01*
X654308Y202300D02*
X659884Y196725D01*
X663584D01*
X626308Y215300D02*
X627508Y214100D01*
X675308Y174600D02*
X676208D01*
X671408Y164100D02*
X693108D01*
X668258Y175150D02*
X668658D01*
X671108Y172700D01*
X672433Y169435D02*
X672508Y169510D01*
Y169560D01*
X672458Y169610D02*
X672508Y169560D01*
X672458Y169610D02*
Y171750D01*
X675308Y174600D01*
X665308Y164400D02*
X668708Y167800D01*
X671108Y170200D02*
Y172700D01*
X668708Y167800D02*
X671108Y170200D01*
X662258Y157500D02*
X665408Y160650D01*
Y161300D01*
X665708Y169100D02*
X666342Y169073D01*
X665408Y161300D02*
X667403Y163296D01*
Y164405D01*
X672433Y169435D01*
Y169435D01*
X666600Y214300D02*
X667208Y214908D01*
Y216400D01*
X639444Y236000D02*
X644008D01*
X653808Y202100D02*
Y202173D01*
X653935Y202300D01*
X654308D01*
X661908Y199500D02*
X674808D01*
X677531Y196777D01*
X681711D01*
X681770Y196836D01*
X684172D01*
X691008Y190000D01*
X683308Y194700D02*
X683395Y194787D01*
X668300Y192067D02*
X671020Y194787D01*
X663649Y192067D02*
X668300D01*
X662277Y193439D02*
X663649Y192067D01*
X671020Y194787D02*
X683395D01*
X613308Y190300D02*
X650162D01*
X651997Y188465D01*
X684146D02*
X684776Y187835D01*
X651997Y188465D02*
X661804D01*
X662714Y189375D01*
X664453D01*
X667439D02*
X669178D01*
X672163D02*
X673902D01*
X674812Y188465D01*
X684146D01*
X654696Y191098D02*
X655058D01*
X655136Y191019D01*
X620408Y197200D02*
X654808D01*
X654670Y193555D02*
X654696Y193529D01*
X652695Y195036D02*
X654176Y193555D01*
X654696Y191098D02*
Y193439D01*
Y193529D01*
X654176Y193555D02*
X654670D01*
X654696Y193439D02*
X662277D01*
X652416Y195036D02*
X652695D01*
X664453Y189375D02*
X664476Y189353D01*
X667416D01*
X667439Y189375D01*
X669178D02*
X669200Y189353D01*
X672140D01*
X672163Y189375D01*
X529332Y189352D02*
X529355Y189375D01*
X526392Y189352D02*
X529332D01*
X526369Y189375D02*
X526392Y189352D01*
X524608D02*
X524630Y189375D01*
X521668Y189352D02*
X524608D01*
X521645Y189375D02*
X521668Y189352D01*
X509608Y195036D02*
X509887D01*
X511888Y193438D02*
X519469D01*
X511368Y193555D02*
X511862D01*
X511888Y193438D02*
Y193529D01*
Y191097D02*
Y193438D01*
X509887Y195036D02*
X511368Y193555D01*
X511862D02*
X511888Y193529D01*
X477600Y197200D02*
X512000D01*
X512250Y191097D02*
X512328Y191019D01*
X511888Y191097D02*
X512250D01*
X532004Y188465D02*
X541338D01*
X531094Y189375D02*
X532004Y188465D01*
X529355Y189375D02*
X531094D01*
X524630D02*
X526369D01*
X519906D02*
X521645D01*
X518996Y188465D02*
X519906Y189375D01*
X509189Y188465D02*
X518996D01*
X541338D02*
X541968Y187835D01*
X507354Y190300D02*
X509189Y188465D01*
X470500Y190300D02*
X507354D01*
X528212Y194787D02*
X540587D01*
X519469Y193438D02*
X520841Y192067D01*
X525492D01*
X528212Y194787D01*
X540500Y194700D02*
X540587Y194787D01*
X541364Y196835D02*
X548200Y190000D01*
X538961Y196835D02*
X541364D01*
X538903Y196777D02*
X538961Y196835D01*
X534723Y196777D02*
X538903D01*
X532000Y199500D02*
X534723Y196777D01*
X519100Y199500D02*
X532000D01*
X511127Y202300D02*
X511500D01*
X511000Y202173D02*
X511127Y202300D01*
X511000Y202100D02*
Y202173D01*
X496636Y236000D02*
X501200D01*
X524400Y214908D02*
Y216400D01*
X523792Y214300D02*
X524400Y214908D01*
X529625Y169434D02*
Y169434D01*
X524595Y164405D02*
X529625Y169434D01*
X524595Y163295D02*
Y164405D01*
X522600Y161300D02*
X524595Y163295D01*
X522900Y169100D02*
X523534Y169072D01*
X522600Y160650D02*
Y161300D01*
X519450Y157500D02*
X522600Y160650D01*
X525900Y167800D02*
X528300Y170200D01*
Y172700D01*
X522500Y164400D02*
X525900Y167800D01*
X529650Y171750D02*
X532500Y174600D01*
X529650Y169609D02*
Y171750D01*
Y169609D02*
X529700Y169559D01*
Y169509D02*
Y169559D01*
X529625Y169434D02*
X529700Y169509D01*
X525850Y175150D02*
X528300Y172700D01*
X525450Y175150D02*
X525850D01*
X528600Y164100D02*
X550300D01*
X532500Y174600D02*
X533400D01*
X483500Y215300D02*
X484700Y214100D01*
X517076Y196724D02*
X520776D01*
X511500Y202300D02*
X517076Y196724D01*
X490400Y215700D02*
X490417Y215683D01*
X515700Y202900D02*
X519100Y199500D01*
X564850Y190123D02*
X573378Y181595D01*
X564850Y190123D02*
Y191691D01*
X563590Y192950D02*
X564850Y191691D01*
X548090Y192950D02*
X563590D01*
X538731Y202310D02*
X548090Y192950D01*
X538500Y202000D02*
X538731Y202231D01*
Y202310D01*
X561400Y189500D02*
X562700Y190800D01*
X523534Y169072D02*
X526400Y171700D01*
X524402Y207000D02*
X524500D01*
X507500Y157500D02*
X519450D01*
X473900Y200900D02*
X477600Y197200D01*
X488700Y213550D02*
X511300D01*
X511850Y214100D02*
X528592D01*
X529992Y215500D01*
X488150Y214100D02*
X488700Y213550D01*
X484700Y214100D02*
X488150D01*
X511300Y213550D02*
X511850Y214100D01*
X508300Y215683D02*
X508350Y215733D01*
X496805Y217600D02*
X501912D01*
X541968Y187835D02*
X557435D01*
X559100Y189500D01*
X561400D01*
X548200Y190000D02*
X549500D01*
X542300Y202100D02*
X565600D01*
X494888Y215683D02*
X496805Y217600D01*
X490417Y215683D02*
X494888D01*
X501912Y217600D02*
X503829Y215683D01*
X508300D01*
X500774Y213744D02*
X500789Y215317D01*
D31*
X1214849Y214871D02*
Y215341D01*
X1268431Y215404D02*
Y217504D01*
X1269934Y219006D01*
X1268034Y215006D02*
X1268431Y215404D01*
X982418Y215005D02*
X982815Y215402D01*
Y217502D02*
X984318Y219005D01*
X982815Y215402D02*
Y217502D01*
X929233Y214869D02*
Y215339D01*
X1072040Y214869D02*
Y215339D01*
X1125623Y215402D02*
Y217502D01*
X1127125Y219005D01*
X1125225Y215005D02*
X1125623Y215402D01*
X839616Y215000D02*
X840013Y215398D01*
Y217498D02*
X841516Y219000D01*
X840013Y215398D02*
Y217498D01*
X786431Y214865D02*
Y215335D01*
X643623Y214865D02*
Y215335D01*
X697206Y215398D02*
Y217498D01*
X698708Y219000D01*
X696808Y215000D02*
X697206Y215398D01*
X554000Y215000D02*
X554398Y215398D01*
Y217498D02*
X555900Y219000D01*
X554398Y215398D02*
Y217498D01*
X500815Y214864D02*
Y215334D01*
D32*
X1318456Y226100D02*
D03*
X1318492Y208001D02*
D03*
X1318500Y182972D02*
D03*
X1318479Y169097D02*
D03*
X1318474Y154462D02*
D03*
X1325280D02*
D03*
X1325285Y169097D02*
D03*
X1325306Y182972D02*
D03*
X1325298Y208001D02*
D03*
X1325262Y226100D02*
D03*
D33*
X1244258Y187282D02*
D03*
X1239534D02*
D03*
X1234809D02*
D03*
X1244258Y192006D02*
D03*
X1239534D02*
D03*
X1234809D02*
D03*
X1244258Y196731D02*
D03*
X1239534D02*
D03*
X1234809D02*
D03*
X958642Y187280D02*
D03*
X953918D02*
D03*
X949193D02*
D03*
X958642Y192005D02*
D03*
X953918D02*
D03*
X949193D02*
D03*
X958642Y196729D02*
D03*
X953918D02*
D03*
X949193D02*
D03*
X1101449Y187280D02*
D03*
X1096725D02*
D03*
X1092001D02*
D03*
X1101449Y192005D02*
D03*
X1096725D02*
D03*
X1092001D02*
D03*
X1101449Y196729D02*
D03*
X1096725D02*
D03*
X1092001D02*
D03*
X815840Y187276D02*
D03*
X811116D02*
D03*
X806391D02*
D03*
X815840Y192000D02*
D03*
X811116D02*
D03*
X806391D02*
D03*
X815840Y196725D02*
D03*
X811116D02*
D03*
X806391D02*
D03*
X673033Y187276D02*
D03*
X668308D02*
D03*
X663584D02*
D03*
X673033Y192000D02*
D03*
X668308D02*
D03*
X663584D02*
D03*
X673033Y196725D02*
D03*
X668308D02*
D03*
X663584D02*
D03*
X530224Y187276D02*
D03*
X525500D02*
D03*
X520776D02*
D03*
X530224Y192000D02*
D03*
X525500D02*
D03*
X520776D02*
D03*
X530224Y196724D02*
D03*
X525500D02*
D03*
X520776D02*
D03*
D34*
X1214849Y215341D02*
D03*
X1279634Y202106D02*
D03*
X1256334D02*
D03*
X1308834Y152206D02*
D03*
X1308434Y157006D02*
D03*
X1308834Y166806D02*
D03*
X1308533Y171706D02*
D03*
X1308733Y180306D02*
D03*
X1308634Y185406D02*
D03*
X1309134Y205706D02*
D03*
X1309033Y210406D02*
D03*
X1308834Y223506D02*
D03*
Y228606D02*
D03*
X1298234Y228506D02*
D03*
X1272699Y220400D02*
D03*
X1279999Y228200D02*
D03*
X1276499Y231100D02*
D03*
X1289834Y216006D02*
D03*
X1294034Y213006D02*
D03*
X1286833Y205306D02*
D03*
X1272633Y172006D02*
D03*
X1275634Y174606D02*
D03*
X1280334Y164006D02*
D03*
X1283834Y167006D02*
D03*
X1290434Y173906D02*
D03*
X1282633Y181206D02*
D03*
X1285633Y184206D02*
D03*
X1257133Y156506D02*
D03*
X1260433Y159106D02*
D03*
X1264834Y148506D02*
D03*
X1242130Y206017D02*
D03*
X1222383Y215739D02*
D03*
X1244026Y215506D02*
D03*
X1223525Y188347D02*
D03*
X1276733Y190806D02*
D03*
X1238433Y216406D02*
D03*
X1226033Y197206D02*
D03*
X1187934Y200906D02*
D03*
X1221533Y157506D02*
D03*
X1247433Y174606D02*
D03*
X1245833Y170506D02*
D03*
X1184534Y190306D02*
D03*
X1298833Y156606D02*
D03*
Y152606D02*
D03*
X1283033Y208906D02*
D03*
X1298333Y206106D02*
D03*
Y210106D02*
D03*
X1297834Y180106D02*
D03*
Y183606D02*
D03*
X1293655Y176212D02*
D03*
X1268034Y215006D02*
D03*
X1268334Y151606D02*
D03*
X1268699Y223900D02*
D03*
X1298333Y223706D02*
D03*
X1264034Y190006D02*
D03*
X1251933Y202606D02*
D03*
X1229733Y202906D02*
D03*
X1204434Y215706D02*
D03*
X1197534Y215306D02*
D03*
X1239633Y175306D02*
D03*
X1264534Y164006D02*
D03*
X1239933Y171206D02*
D03*
X1236434Y164406D02*
D03*
X1241533Y163506D02*
D03*
X1298034Y166206D02*
D03*
X1297733Y170806D02*
D03*
X1215234Y236006D02*
D03*
X1210670D02*
D03*
X1195762Y223711D02*
D03*
X1196128Y151560D02*
D03*
X1170806Y176165D02*
D03*
X1181428Y208860D02*
D03*
X1199628Y148460D02*
D03*
X1204028Y159060D02*
D03*
X1207328Y156460D02*
D03*
X1178828Y184160D02*
D03*
X1181828Y181160D02*
D03*
X1174028Y173860D02*
D03*
X1180628Y166960D02*
D03*
X1184128Y163960D02*
D03*
X1188828Y174560D02*
D03*
X1191828Y171960D02*
D03*
X1177628Y205260D02*
D03*
X1170428Y212960D02*
D03*
X1174628Y215960D02*
D03*
X1187962Y230911D02*
D03*
X1184462Y228011D02*
D03*
X1191762Y220211D02*
D03*
X1275533Y226978D02*
D03*
X1272733Y224026D02*
D03*
X1290239Y212017D02*
D03*
X1287438Y209065D02*
D03*
X1177781Y180795D02*
D03*
X1174981Y177843D02*
D03*
X1187738Y170871D02*
D03*
X1184937Y167920D02*
D03*
X1203382Y155277D02*
D03*
X1200582Y152325D02*
D03*
X1191984Y223458D02*
D03*
X1189032Y226258D02*
D03*
X1177256Y209046D02*
D03*
X1174304Y211846D02*
D03*
X1289417Y177724D02*
D03*
X1286465Y180525D02*
D03*
X1279648Y167903D02*
D03*
X1276696Y170704D02*
D03*
X1263976Y152440D02*
D03*
X1261024Y155240D02*
D03*
X1225033Y202106D02*
D03*
X1254533Y194706D02*
D03*
X1225921Y191103D02*
D03*
X1223833Y195106D02*
D03*
X938218Y195105D02*
D03*
X940306Y191102D02*
D03*
X968918Y194705D02*
D03*
X939418Y202105D02*
D03*
X975408Y155239D02*
D03*
X978360Y152438D02*
D03*
X991081Y170702D02*
D03*
X994032Y167902D02*
D03*
X1000850Y180523D02*
D03*
X1003802Y177723D02*
D03*
X888688Y211845D02*
D03*
X891640Y209044D02*
D03*
X903416Y226257D02*
D03*
X906368Y223456D02*
D03*
X914966Y152324D02*
D03*
X917766Y155276D02*
D03*
X899321Y167918D02*
D03*
X902122Y170870D02*
D03*
X889365Y177841D02*
D03*
X892165Y180793D02*
D03*
X1001822Y209064D02*
D03*
X1004623Y212016D02*
D03*
X987117Y224024D02*
D03*
X989917Y226976D02*
D03*
X906146Y220209D02*
D03*
X898846Y228009D02*
D03*
X902346Y230909D02*
D03*
X889012Y215958D02*
D03*
X884812Y212959D02*
D03*
X892012Y205258D02*
D03*
X906212Y171958D02*
D03*
X903212Y174558D02*
D03*
X898512Y163959D02*
D03*
X895012Y166958D02*
D03*
X888412Y173858D02*
D03*
X896212Y181158D02*
D03*
X893212Y184159D02*
D03*
X921712Y156458D02*
D03*
X918412Y159058D02*
D03*
X914012Y148459D02*
D03*
X895812Y208858D02*
D03*
X885190Y176164D02*
D03*
X910512Y151558D02*
D03*
X910146Y223709D02*
D03*
X925054Y236005D02*
D03*
X929618D02*
D03*
X1012118Y170805D02*
D03*
X1012418Y166205D02*
D03*
X955918Y163505D02*
D03*
X950818Y164405D02*
D03*
X954318Y171205D02*
D03*
X978918Y164005D02*
D03*
X954018Y175305D02*
D03*
X911918Y215305D02*
D03*
X918818Y215705D02*
D03*
X944118Y202905D02*
D03*
X966318Y202605D02*
D03*
X978418Y190005D02*
D03*
X1012718Y223705D02*
D03*
X983083Y223899D02*
D03*
X982718Y151605D02*
D03*
X982418Y215005D02*
D03*
X1008040Y176210D02*
D03*
X1012218Y183605D02*
D03*
Y180105D02*
D03*
X1012718Y210105D02*
D03*
Y206105D02*
D03*
X997418Y208905D02*
D03*
X1013218Y152605D02*
D03*
Y156605D02*
D03*
X898918Y190305D02*
D03*
X960218Y170505D02*
D03*
X961818Y174605D02*
D03*
X935918Y157505D02*
D03*
X902318Y200905D02*
D03*
X940418Y197205D02*
D03*
X952818Y216405D02*
D03*
X991118Y190805D02*
D03*
X937909Y188346D02*
D03*
X958410Y215505D02*
D03*
X936768Y215737D02*
D03*
X956514Y206015D02*
D03*
X979218Y148505D02*
D03*
X974818Y159105D02*
D03*
X971518Y156505D02*
D03*
X1000018Y184205D02*
D03*
X997018Y181205D02*
D03*
X1004818Y173905D02*
D03*
X998218Y167005D02*
D03*
X994718Y164005D02*
D03*
X990018Y174605D02*
D03*
X987018Y172005D02*
D03*
X1001218Y205305D02*
D03*
X1008418Y213005D02*
D03*
X1004218Y216005D02*
D03*
X990883Y231099D02*
D03*
X994383Y228199D02*
D03*
X987083Y220399D02*
D03*
X1012618Y228505D02*
D03*
X1023218Y228605D02*
D03*
Y223505D02*
D03*
X1023418Y210405D02*
D03*
X1023518Y205705D02*
D03*
X1023018Y185405D02*
D03*
X1023118Y180305D02*
D03*
X1022918Y171705D02*
D03*
X1023218Y166805D02*
D03*
X1022818Y157005D02*
D03*
X1023218Y152205D02*
D03*
X970718Y202105D02*
D03*
X994018D02*
D03*
X929233Y215339D02*
D03*
X1072040Y215339D02*
D03*
X1136825Y202105D02*
D03*
X1113525D02*
D03*
X1166025Y152205D02*
D03*
X1165625Y157005D02*
D03*
X1166025Y166805D02*
D03*
X1165725Y171705D02*
D03*
X1165925Y180305D02*
D03*
X1165825Y185405D02*
D03*
X1166325Y205705D02*
D03*
X1166225Y210405D02*
D03*
X1166025Y223505D02*
D03*
Y228605D02*
D03*
X1155425Y228505D02*
D03*
X1129891Y220398D02*
D03*
X1137191Y228199D02*
D03*
X1133691Y231099D02*
D03*
X1147025Y216005D02*
D03*
X1151225Y213005D02*
D03*
X1144025Y205305D02*
D03*
X1129825Y172005D02*
D03*
X1132825Y174605D02*
D03*
X1137525Y164005D02*
D03*
X1141025Y167005D02*
D03*
X1147625Y173905D02*
D03*
X1139825Y181205D02*
D03*
X1142825Y184205D02*
D03*
X1114325Y156505D02*
D03*
X1117625Y159105D02*
D03*
X1122025Y148505D02*
D03*
X1099322Y206015D02*
D03*
X1079575Y215737D02*
D03*
X1101217Y215505D02*
D03*
X1080717Y188346D02*
D03*
X1133925Y190805D02*
D03*
X1095625Y216405D02*
D03*
X1083225Y197205D02*
D03*
X1045125Y200905D02*
D03*
X1078725Y157505D02*
D03*
X1104625Y174605D02*
D03*
X1103025Y170505D02*
D03*
X1041725Y190305D02*
D03*
X1156025Y156605D02*
D03*
Y152605D02*
D03*
X1140225Y208905D02*
D03*
X1155525Y206105D02*
D03*
Y210105D02*
D03*
X1155025Y180105D02*
D03*
Y183605D02*
D03*
X1150847Y176210D02*
D03*
X1125225Y215005D02*
D03*
X1125525Y151605D02*
D03*
X1125891Y223899D02*
D03*
X1155525Y223705D02*
D03*
X1121225Y190005D02*
D03*
X1109125Y202605D02*
D03*
X1086925Y202905D02*
D03*
X1061625Y215705D02*
D03*
X1054725Y215305D02*
D03*
X1096825Y175305D02*
D03*
X1121725Y164005D02*
D03*
X1097125Y171205D02*
D03*
X1093625Y164405D02*
D03*
X1098725Y163505D02*
D03*
X1155225Y166205D02*
D03*
X1154925Y170805D02*
D03*
X1072425Y236005D02*
D03*
X1067861D02*
D03*
X1052954Y223709D02*
D03*
X1053320Y151558D02*
D03*
X1027998Y176163D02*
D03*
X1038620Y208858D02*
D03*
X1056820Y148458D02*
D03*
X1061220Y159058D02*
D03*
X1064520Y156458D02*
D03*
X1036020Y184158D02*
D03*
X1039020Y181158D02*
D03*
X1031220Y173858D02*
D03*
X1037820Y166958D02*
D03*
X1041320Y163958D02*
D03*
X1046020Y174558D02*
D03*
X1049020Y171958D02*
D03*
X1034820Y205258D02*
D03*
X1027620Y212958D02*
D03*
X1031820Y215958D02*
D03*
X1045154Y230909D02*
D03*
X1041654Y228009D02*
D03*
X1048954Y220209D02*
D03*
X1132725Y226976D02*
D03*
X1129924Y224024D02*
D03*
X1147431Y212016D02*
D03*
X1144630Y209064D02*
D03*
X1034973Y180793D02*
D03*
X1032172Y177841D02*
D03*
X1044929Y170870D02*
D03*
X1042129Y167918D02*
D03*
X1060574Y155275D02*
D03*
X1057773Y152324D02*
D03*
X1049176Y223456D02*
D03*
X1046224Y226257D02*
D03*
X1034447Y209044D02*
D03*
X1031495Y211845D02*
D03*
X1146609Y177723D02*
D03*
X1143657Y180523D02*
D03*
X1136840Y167901D02*
D03*
X1133888Y170702D02*
D03*
X1121168Y152438D02*
D03*
X1118216Y155239D02*
D03*
X1082225Y202105D02*
D03*
X1111725Y194705D02*
D03*
X1083113Y191102D02*
D03*
X1081025Y195105D02*
D03*
X795416Y195100D02*
D03*
X797504Y191097D02*
D03*
X826116Y194700D02*
D03*
X796616Y202100D02*
D03*
X832607Y155234D02*
D03*
X835558Y152434D02*
D03*
X848279Y170698D02*
D03*
X851231Y167897D02*
D03*
X858048Y180519D02*
D03*
X860999Y177718D02*
D03*
X745886Y211840D02*
D03*
X748838Y209040D02*
D03*
X760614Y226252D02*
D03*
X763566Y223452D02*
D03*
X772164Y152319D02*
D03*
X774964Y155271D02*
D03*
X756519Y167913D02*
D03*
X759320Y170865D02*
D03*
X746563Y177837D02*
D03*
X749363Y180789D02*
D03*
X859021Y209059D02*
D03*
X861821Y212011D02*
D03*
X844315Y224020D02*
D03*
X847116Y226972D02*
D03*
X763344Y220205D02*
D03*
X756044Y228005D02*
D03*
X759544Y230905D02*
D03*
X746210Y215954D02*
D03*
X742010Y212954D02*
D03*
X749210Y205254D02*
D03*
X763410Y171954D02*
D03*
X760410Y174554D02*
D03*
X755710Y163954D02*
D03*
X752210Y166954D02*
D03*
X745610Y173854D02*
D03*
X753410Y181154D02*
D03*
X750410Y184154D02*
D03*
X778910Y156454D02*
D03*
X775610Y159054D02*
D03*
X771210Y148454D02*
D03*
X753010Y208854D02*
D03*
X742388Y176159D02*
D03*
X767710Y151554D02*
D03*
X767344Y223705D02*
D03*
X782252Y236000D02*
D03*
X786816D02*
D03*
X869316Y170800D02*
D03*
X869616Y166200D02*
D03*
X813116Y163500D02*
D03*
X808016Y164400D02*
D03*
X811516Y171200D02*
D03*
X836116Y164000D02*
D03*
X811216Y175300D02*
D03*
X769116Y215300D02*
D03*
X776016Y215700D02*
D03*
X801316Y202900D02*
D03*
X823516Y202600D02*
D03*
X835616Y190000D02*
D03*
X869916Y223700D02*
D03*
X840281Y223894D02*
D03*
X839916Y151600D02*
D03*
X839616Y215000D02*
D03*
X865238Y176205D02*
D03*
X869416Y183600D02*
D03*
Y180100D02*
D03*
X869916Y210100D02*
D03*
Y206100D02*
D03*
X854616Y208900D02*
D03*
X870416Y152600D02*
D03*
Y156600D02*
D03*
X756116Y190300D02*
D03*
X817416Y170500D02*
D03*
X819016Y174600D02*
D03*
X793116Y157500D02*
D03*
X759516Y200900D02*
D03*
X797616Y197200D02*
D03*
X810016Y216400D02*
D03*
X848316Y190800D02*
D03*
X795107Y188341D02*
D03*
X815608Y215500D02*
D03*
X793966Y215733D02*
D03*
X813712Y206011D02*
D03*
X836416Y148500D02*
D03*
X832016Y159100D02*
D03*
X828716Y156500D02*
D03*
X857216Y184200D02*
D03*
X854216Y181200D02*
D03*
X862016Y173900D02*
D03*
X855416Y167000D02*
D03*
X851916Y164000D02*
D03*
X847216Y174600D02*
D03*
X844216Y172000D02*
D03*
X858416Y205300D02*
D03*
X865616Y213000D02*
D03*
X861416Y216000D02*
D03*
X848081Y231094D02*
D03*
X851581Y228194D02*
D03*
X844281Y220394D02*
D03*
X869816Y228500D02*
D03*
X880416Y228600D02*
D03*
Y223500D02*
D03*
X880616Y210400D02*
D03*
X880716Y205700D02*
D03*
X880216Y185400D02*
D03*
X880316Y180300D02*
D03*
X880116Y171700D02*
D03*
X880416Y166800D02*
D03*
X880016Y157000D02*
D03*
X880416Y152200D02*
D03*
X827916Y202100D02*
D03*
X851216D02*
D03*
X786431Y215335D02*
D03*
X643623Y215335D02*
D03*
X708408Y202100D02*
D03*
X685108D02*
D03*
X737608Y152200D02*
D03*
X737208Y157000D02*
D03*
X737608Y166800D02*
D03*
X737308Y171700D02*
D03*
X737508Y180300D02*
D03*
X737408Y185400D02*
D03*
X737908Y205700D02*
D03*
X737808Y210400D02*
D03*
X737608Y223500D02*
D03*
Y228600D02*
D03*
X727008Y228500D02*
D03*
X701474Y220394D02*
D03*
X708774Y228194D02*
D03*
X705274Y231094D02*
D03*
X718608Y216000D02*
D03*
X722808Y213000D02*
D03*
X715608Y205300D02*
D03*
X701408Y172000D02*
D03*
X704408Y174600D02*
D03*
X709108Y164000D02*
D03*
X712608Y167000D02*
D03*
X719208Y173900D02*
D03*
X711408Y181200D02*
D03*
X714408Y184200D02*
D03*
X685908Y156500D02*
D03*
X689208Y159100D02*
D03*
X693608Y148500D02*
D03*
X670905Y206011D02*
D03*
X651158Y215733D02*
D03*
X672800Y215500D02*
D03*
X652300Y188342D02*
D03*
X705508Y190801D02*
D03*
X667208Y216400D02*
D03*
X654808Y197200D02*
D03*
X616708Y200900D02*
D03*
X650308Y157500D02*
D03*
X676208Y174600D02*
D03*
X674608Y170500D02*
D03*
X613308Y190300D02*
D03*
X727608Y156600D02*
D03*
Y152600D02*
D03*
X711808Y208900D02*
D03*
X727108Y206100D02*
D03*
Y210100D02*
D03*
X726608Y180100D02*
D03*
Y183600D02*
D03*
X722430Y176206D02*
D03*
X696808Y215000D02*
D03*
X697108Y151600D02*
D03*
X697474Y223894D02*
D03*
X727108Y223700D02*
D03*
X692808Y190000D02*
D03*
X680708Y202600D02*
D03*
X658508Y202900D02*
D03*
X633208Y215700D02*
D03*
X626308Y215300D02*
D03*
X668408Y175300D02*
D03*
X693308Y164000D02*
D03*
X668708Y171200D02*
D03*
X665208Y164400D02*
D03*
X670308Y163500D02*
D03*
X726808Y166200D02*
D03*
X726508Y170800D02*
D03*
X644008Y236000D02*
D03*
X639444D02*
D03*
X624537Y223705D02*
D03*
X624902Y151554D02*
D03*
X599580Y176159D02*
D03*
X610203Y208854D02*
D03*
X628403Y148454D02*
D03*
X632802Y159054D02*
D03*
X636102Y156454D02*
D03*
X607603Y184154D02*
D03*
X610603Y181154D02*
D03*
X602803Y173854D02*
D03*
X609403Y166954D02*
D03*
X612902Y163954D02*
D03*
X617602Y174554D02*
D03*
X620603Y171954D02*
D03*
X606402Y205254D02*
D03*
X599202Y212954D02*
D03*
X603403Y215954D02*
D03*
X616737Y230905D02*
D03*
X613237Y228005D02*
D03*
X620537Y220205D02*
D03*
X704308Y226972D02*
D03*
X701507Y224020D02*
D03*
X719014Y212011D02*
D03*
X716213Y209059D02*
D03*
X606556Y180789D02*
D03*
X603755Y177837D02*
D03*
X616512Y170866D02*
D03*
X613712Y167914D02*
D03*
X632157Y155271D02*
D03*
X629356Y152319D02*
D03*
X620759Y223452D02*
D03*
X617807Y226253D02*
D03*
X606031Y209040D02*
D03*
X603079Y211841D02*
D03*
X718192Y177718D02*
D03*
X715240Y180519D02*
D03*
X708423Y167897D02*
D03*
X705471Y170698D02*
D03*
X692751Y152434D02*
D03*
X689799Y155235D02*
D03*
X653808Y202100D02*
D03*
X683308Y194700D02*
D03*
X654696Y191098D02*
D03*
X652608Y195100D02*
D03*
X509800Y195100D02*
D03*
X511888Y191097D02*
D03*
X540500Y194700D02*
D03*
X511000Y202100D02*
D03*
X546991Y155234D02*
D03*
X549943Y152434D02*
D03*
X562663Y170697D02*
D03*
X565615Y167897D02*
D03*
X572432Y180519D02*
D03*
X575384Y177718D02*
D03*
X460270Y211840D02*
D03*
X463222Y209039D02*
D03*
X474999Y226252D02*
D03*
X477951Y223452D02*
D03*
X486548Y152319D02*
D03*
X489349Y155271D02*
D03*
X470904Y167913D02*
D03*
X473704Y170865D02*
D03*
X460947Y177836D02*
D03*
X463748Y180788D02*
D03*
X573405Y209059D02*
D03*
X576205Y212011D02*
D03*
X558699Y224020D02*
D03*
X561500Y226972D02*
D03*
X448634Y154516D02*
D03*
X444566Y154408D02*
D03*
X448634Y169038D02*
D03*
X444566Y168931D02*
D03*
X448741Y182704D02*
D03*
X444673Y182597D02*
D03*
X448848Y207859D02*
D03*
X444780Y207752D02*
D03*
X444673Y226128D02*
D03*
X448741Y226235D02*
D03*
X477729Y220205D02*
D03*
X470429Y228005D02*
D03*
X473929Y230905D02*
D03*
X460595Y215954D02*
D03*
X456394Y212954D02*
D03*
X463594Y205254D02*
D03*
X477795Y171954D02*
D03*
X474794Y174554D02*
D03*
X470094Y163954D02*
D03*
X466595Y166954D02*
D03*
X459995Y173854D02*
D03*
X467795Y181154D02*
D03*
X464794Y184154D02*
D03*
X493294Y156454D02*
D03*
X489994Y159054D02*
D03*
X485595Y148454D02*
D03*
X467394Y208854D02*
D03*
X456773Y176159D02*
D03*
X482094Y151554D02*
D03*
X481729Y223705D02*
D03*
X440940Y170767D02*
D03*
X441240Y166167D02*
D03*
X441420Y223657D02*
D03*
X440750Y184855D02*
D03*
X440906Y180723D02*
D03*
X441024Y210067D02*
D03*
Y206067D02*
D03*
X441963Y152567D02*
D03*
Y156567D02*
D03*
X441320Y228457D02*
D03*
X451920Y228557D02*
D03*
Y223457D02*
D03*
X451724Y210367D02*
D03*
X451824Y205667D02*
D03*
X451688Y185367D02*
D03*
X451788Y180267D02*
D03*
X451740Y171667D02*
D03*
X452039Y166767D02*
D03*
X451563Y156967D02*
D03*
X451963Y152167D02*
D03*
X496636Y236000D02*
D03*
X501200D02*
D03*
X583700Y170800D02*
D03*
X584000Y166200D02*
D03*
X527500Y163500D02*
D03*
X522400Y164400D02*
D03*
X525900Y171200D02*
D03*
X550500Y164000D02*
D03*
X525600Y175300D02*
D03*
X483500Y215300D02*
D03*
X490400Y215700D02*
D03*
X515700Y202900D02*
D03*
X537900Y202600D02*
D03*
X550000Y190000D02*
D03*
X584300Y223700D02*
D03*
X554666Y223894D02*
D03*
X554300Y151600D02*
D03*
X554000Y215000D02*
D03*
X579622Y176205D02*
D03*
X583800Y183600D02*
D03*
Y180100D02*
D03*
X584300Y210100D02*
D03*
Y206100D02*
D03*
X569000Y208900D02*
D03*
X584800Y152600D02*
D03*
Y156600D02*
D03*
X470500Y190300D02*
D03*
X531800Y170500D02*
D03*
X533400Y174600D02*
D03*
X507500Y157500D02*
D03*
X473900Y200900D02*
D03*
X512000Y197200D02*
D03*
X524400Y216400D02*
D03*
X562700Y190800D02*
D03*
X509491Y188341D02*
D03*
X529992Y215500D02*
D03*
X508350Y215733D02*
D03*
X528096Y206011D02*
D03*
X550800Y148500D02*
D03*
X546400Y159100D02*
D03*
X543100Y156500D02*
D03*
X571600Y184200D02*
D03*
X568600Y181200D02*
D03*
X576400Y173900D02*
D03*
X569800Y167000D02*
D03*
X566300Y164000D02*
D03*
X561600Y174600D02*
D03*
X558600Y172000D02*
D03*
X572800Y205300D02*
D03*
X580000Y213000D02*
D03*
X575800Y216000D02*
D03*
X562466Y231094D02*
D03*
X565966Y228194D02*
D03*
X558666Y220394D02*
D03*
X584200Y228500D02*
D03*
X594800Y228600D02*
D03*
Y223500D02*
D03*
X595000Y210400D02*
D03*
X595100Y205700D02*
D03*
X594600Y185400D02*
D03*
X594700Y180300D02*
D03*
X594500Y171700D02*
D03*
X594800Y166800D02*
D03*
X594400Y157000D02*
D03*
X594800Y152200D02*
D03*
X542300Y202100D02*
D03*
X565600D02*
D03*
X500815Y215334D02*
D03*
D35*
X1267392Y199908D02*
D03*
X1267391Y164964D02*
D03*
X981776Y164963D02*
D03*
X981776Y199906D02*
D03*
X1124583Y199906D02*
D03*
X1124583Y164963D02*
D03*
X838974Y164958D02*
D03*
X838974Y199902D02*
D03*
X696166Y199902D02*
D03*
X696166Y164959D02*
D03*
X553358Y164958D02*
D03*
X553358Y199902D02*
D03*
D36*
X1274093Y168935D02*
D03*
X988477Y168934D02*
D03*
X1131285Y168934D02*
D03*
X845675Y168929D02*
D03*
X702868Y168930D02*
D03*
X560060Y168929D02*
D03*
D37*
X1232282Y208715D02*
D03*
X946666Y208713D02*
D03*
X1089474Y208713D02*
D03*
X803864Y208709D02*
D03*
X661057Y208709D02*
D03*
X518248Y208709D02*
D03*
D38*
X1232088Y181278D02*
D03*
X946472Y181276D02*
D03*
X1089279Y181276D02*
D03*
X803670Y181272D02*
D03*
X660862Y181272D02*
D03*
X518054Y181272D02*
D03*
D39*
X1232247Y153632D02*
D03*
X946631Y153631D02*
D03*
X1089439Y153631D02*
D03*
X803829Y153626D02*
D03*
X661022Y153626D02*
D03*
X518214Y153626D02*
D03*
D40*
X1232072Y226280D02*
D03*
X946456Y226279D02*
D03*
X1089264Y226279D02*
D03*
X803654Y226274D02*
D03*
X660847Y226274D02*
D03*
X518039Y226274D02*
D03*
D41*
X1199250Y168837D02*
D03*
X913634Y168835D02*
D03*
X1056442Y168835D02*
D03*
X770832Y168831D02*
D03*
X628025Y168831D02*
D03*
X485217Y168831D02*
D03*
M02*
