M48
;Layer_Color=9474304
;FILE_FORMAT=2:5
INCH,LZ
;TYPE=PLATED
T1F00S00C0.01299
T2F00S00C0.01500
T3F00S00C0.01575
T4F00S00C0.02000
T5F00S00C0.03937
%
T01
X1096725Y018728
X1101449
Y0192005
X1096725
Y0196729
X1101449
X1234809Y0196731
Y0192006
Y0187282
X1239534
X1244258
Y0192006
X1239534
Y0196731
X1244258
X1092001Y0196729
Y0192005
Y018728
X0958642Y018728
X0953918
X0949193
Y0192005
X0953918
X0958642
Y0196729
X0953918
X0949193
X081584Y0196725
Y0192
Y0187276
X0811116
X0806391
Y0192
X0811116
Y0196725
X0806391
X0673033Y0196725
Y0192
Y0187276
X0668308
X0663584
Y0192
X0668308
Y0196725
X0663584
X0530224Y0196724
Y0192
Y0187276
X05255
X0520776
Y0192
X05255
Y0196724
X0520776
T02
X0441963Y0152567
X0451963Y0152167
X0482094Y0151554
X0485595Y0148454
X05508Y01485
X05543Y01516
X05848Y01526
X05948Y01522
X0624902Y0151554
X0628403Y0148454
X0693608Y01485
X0697108Y01516
X0727608Y01526
X0737608Y01522
X076771Y0151554
X077121Y0148454
X0836416Y01485
X0839916Y01516
X0870416Y01526
X0880416Y01522
X0910512Y0151558
X0914012Y0148459
X0979218Y0148505
X0982718Y0151605
X1013218Y0152605
X1023218Y0152205
X105332Y0151558
X105682Y0148458
X1122025Y0148505
X1125525Y0151605
X1156025Y0152605
X1166025Y0152205
X1196128Y015156
X1199628Y014846
X1264834Y0148506
X1268334Y0151606
X1298833Y0152606
X1308834Y0152206
X1308434Y0157006
X1298833Y0156606
X1298034Y0166206
X1297733Y0170806
X1297834Y0180106
Y0183606
X1293655Y0176212
X1290434Y0173906
X1283834Y0167006
X1280334Y0164006
X1275634Y0174606
X1272633Y0172006
X1264534Y0164006
X1260433Y0159106
X1257133Y0156506
X1264034Y0190006
X1276733Y0190806
X1279634Y0202106
X1283033Y0208906
X1286833Y0205306
X1298333Y0206106
Y0210106
X1294034Y0213006
X1289834Y0216006
X1298333Y0223706
X1298234Y0228506
X1308834Y0228606
Y0223506
X1309033Y0210406
X1309134Y0205706
X1308634Y0185406
X1308733Y0180306
X1308533Y0171706
X1308834Y0166806
X1282633Y0181206
X1285633Y0184206
X1254533Y0194706
X1256334Y0202106
X1251933Y0202606
X1268034Y0215006
X1268699Y02239
X1272699Y02204
X1276499Y02311
X1279999Y02282
X1244026Y0215506
X1238433Y0216406
X124213Y0206017
X1229733Y0202906
X1225033Y0202106
X1226033Y0197206
X1223833Y0195106
X1225921Y0191103
X1223525Y0188347
X1222383Y0215739
X1214849Y0215341
X1204434Y0215706
X1197534Y0215306
X1195762Y0223711
X1191762Y0220211
X1187962Y0230911
X1184462Y0228011
X1166025Y0228605
Y0223505
X1155525Y0223705
X1155425Y0228505
X1155525Y0210105
Y0206105
X1166325Y0205705
X1166225Y0210405
X1170428Y021296
X1174628Y021596
X1177628Y020526
X1181428Y020886
X1187934Y0200906
X1184534Y0190306
X1178828Y018416
X1181828Y018116
X1188828Y017456
X1191828Y017196
X1184128Y016396
X1180628Y016696
X1174028Y017386
X1170806Y0176165
X1165925Y0180305
X1165825Y0185405
X1155025Y0183605
Y0180105
X1150847Y017621
X1147625Y0173905
X1154925Y0170805
X1155225Y0166205
X1156025Y0156605
X1165625Y0157005
X1166025Y0166805
X1165725Y0171705
X1141025Y0167005
X1137525Y0164005
X1132825Y0174605
X1129825Y0172005
X1121725Y0164005
X1117625Y0159105
X1114325Y0156505
X1098725Y0163505
X1097125Y0171205
X1096825Y0175305
X1104625Y0174605
X1103025Y0170505
X1111725Y0194705
X1113525Y0202105
X1109125Y0202605
X1099322Y0206015
X1101217Y0215505
X1095625Y0216405
X1125225Y0215005
X1125891Y0223899
X1129891Y0220398
X1133691Y0231099
X1137191Y0228199
X1147025Y0216005
X1151225Y0213005
X1144025Y0205305
X1140225Y0208905
X1136825Y0202105
X1133925Y0190805
X1121225Y0190005
X1139825Y0181205
X1142825Y0184205
X1204028Y015906
X1207328Y015646
X1221533Y0157506
X1236434Y0164406
X1241533Y0163506
X1239933Y0171206
X1239633Y0175306
X1247433Y0174606
X1245833Y0170506
X1215234Y0236006
X121067
X1072425Y0236005
X1067861
X107204Y0215339
X1079575Y0215737
X1082225Y0202105
X1086925Y0202905
X1083225Y0197205
X1081025Y0195105
X1083113Y0191102
X1080717Y0188346
X1078725Y0157505
X106452Y0156458
X106122Y0159058
X104132Y0163958
X103782Y0166958
X103122Y0173858
X1027998Y0176163
X1023118Y0180305
X1023018Y0185405
X1012218Y0183605
Y0180105
X100804Y017621
X1004818Y0173905
X1012118Y0170805
X1012418Y0166205
X1013218Y0156605
X1022818Y0157005
X1023218Y0166805
X1022918Y0171705
X103602Y0184158
X103902Y0181158
X1041725Y0190305
X1045125Y0200905
X103862Y0208858
X103482Y0205258
X1023518Y0205705
X1023418Y0210405
X102762Y0212958
X103182Y0215958
X1023218Y0223505
Y0228605
X1012618Y0228505
X1012718Y0223705
Y0210105
Y0206105
X1008418Y0213005
X1004218Y0216005
X1001218Y0205305
X0997418Y0208905
X0994018Y0202105
X0991118Y0190805
X0978418Y0190005
X0968918Y0194705
X0970718Y0202105
X0966318Y0202605
X0956514Y0206015
X095841Y0215505
X0952818Y0216405
X0944118Y0202905
X0939418Y0202105
X0940418Y0197205
X0938218Y0195105
X0940306Y0191102
X0937909Y0188346
X0954018Y0175305
X0954318Y0171205
X0960218Y0170505
X0961818Y0174605
X0955918Y0163505
X0950818Y0164405
X0978918Y0164005
X0974818Y0159105
X0971518Y0156505
X0994718Y0164005
X0998218Y0167005
X0997018Y0181205
X1000018Y0184205
X0990018Y0174605
X0987018Y0172005
X0982418Y0215005
X0983083Y0223899
X0987083Y0220399
X0990883Y0231099
X0994383Y0228199
X1041654Y0228009
X1045154Y0230909
X1048954Y0220209
X1052954Y0223709
X1054725Y0215305
X1061625Y0215705
X104902Y0171958
X104602Y0174558
X1093625Y0164405
X0935918Y0157505
X0921712Y0156458
X0918412Y0159058
X0898512Y0163959
X0895012Y0166958
X0888412Y0173858
X088519Y0176164
X0880316Y01803
X0880216Y01854
X0869416Y01836
Y01801
X0865238Y0176205
X0862016Y01739
X0869316Y01708
X0869616Y01662
X0870416Y01566
X0880016Y0157
X0880416Y01668
X0880116Y01717
X0896212Y0181158
X0893212Y0184159
X0898918Y0190305
X0902318Y0200905
X0895812Y0208858
X0892012Y0205258
X0880716Y02057
X0880616Y02104
X0884812Y0212959
X0889012Y0215958
X0880416Y02235
Y02286
X0869816Y02285
X0869916Y02237
Y02101
Y02061
X0865616Y0213
X0861416Y0216
X0858416Y02053
X0854616Y02089
X0851216Y02021
X0848316Y01908
X0835616Y019
X0826116Y01947
X0827916Y02021
X0823516Y02026
X0813712Y0206011
X0815608Y02155
X0810016Y02164
X0793966Y0215733
X0786431Y0215335
X0786816Y0236
X0782252
X0796616Y02021
X0801316Y02029
X0797616Y01972
X0795416Y01951
X0797504Y0191097
X0795107Y0188341
X0811216Y01753
X0811516Y01712
X0817416Y01705
X0819016Y01746
X0813116Y01635
X0808016Y01644
X0793116Y01575
X0828716Y01565
X0832016Y01591
X0836116Y0164
X0851916
X0855416Y0167
X0854216Y01812
X0857216Y01842
X0847216Y01746
X0844216Y0172
X0839616Y0215
X0840281Y0223894
X0844281Y0220394
X0848081Y0231094
X0851581Y0228194
X0898846Y0228009
X0902346Y0230909
X0906146Y0220209
X0910146Y0223709
X0911918Y0215305
X0918818Y0215705
X0929233Y0215339
X0936768Y0215737
X0929618Y0236005
X0925054
X0906212Y0171958
X0903212Y0174558
X076341Y0171954
X076041Y0174554
X075341Y0181154
X075041Y0184154
X0756116Y01903
X0759516Y02009
X075301Y0208854
X074921Y0205254
X0737908Y02057
X0737808Y02104
X074201Y0212954
X074621Y0215954
X0737608Y02235
Y02286
X0727008Y02285
X0727108Y02237
Y02101
Y02061
X0722808Y0213
X0718608Y0216
X0715608Y02053
X0711808Y02089
X0708408Y02021
X0705508Y0190801
X0692808Y019
X0683308Y01947
X0685108Y02021
X0680708Y02026
X0670905Y0206011
X06728Y02155
X0667208Y02164
X0651158Y0215733
X0643623Y0215335
X0633208Y02157
X0626308Y02153
X0639444Y0236
X0644008
X0653808Y02021
X0658508Y02029
X0654808Y01972
X0652608Y01951
X0654696Y0191098
X06523Y0188342
X0668408Y01753
X0668708Y01712
X0674608Y01705
X0676208Y01746
X0670308Y01635
X0665208Y01644
X0650308Y01575
X0636102Y0156454
X0632802Y0159054
X0685908Y01565
X0689208Y01591
X0693308Y0164
X0709108
X0712608Y0167
X0719208Y01739
X072243Y0176206
X0726608Y01801
Y01836
X0737408Y01854
X0737508Y01803
X0737308Y01717
X0737608Y01668
X0737208Y0157
X0727608Y01566
X0726808Y01662
X0726508Y01708
X0742388Y0176159
X074561Y0173854
X075221Y0166954
X075571Y0163954
X077561Y0159054
X077891Y0156454
X0776016Y02157
X0769116Y02153
X0767344Y0223705
X0763344Y0220205
X0759544Y0230905
X0756044Y0228005
X0708774Y0228194
X0705274Y0231094
X0701474Y0220394
X0697474Y0223894
X0696808Y0215
X0701408Y0172
X0704408Y01746
X0711408Y01812
X0714408Y01842
X0620603Y0171954
X0617602Y0174554
X0610603Y0181154
X0607603Y0184154
X0613308Y01903
X0616708Y02009
X0610203Y0208854
X0606402Y0205254
X05951Y02057
X0595Y02104
X0599202Y0212954
X0603403Y0215954
X05948Y02235
Y02286
X05842Y02285
X05843Y02237
Y02101
Y02061
X058Y0213
X05758Y0216
X05728Y02053
X0569Y02089
X05656Y02021
X05627Y01908
X055Y019
X05405Y01947
X05423Y02021
X05379Y02026
X0528096Y0206011
X0529992Y02155
X05244Y02164
X050835Y0215733
X0500815Y0215334
X04904Y02157
X04835Y02153
X0481729Y0223705
X0477729Y0220205
X0473929Y0230905
X0470429Y0228005
X04739Y02009
X04705Y01903
X0474794Y0174554
X0477795Y0171954
X0470094Y0163954
X0489994Y0159054
X0493294Y0156454
X05075Y01575
X05224Y01644
X05275Y01635
X05259Y01712
X05256Y01753
X05334Y01746
X05318Y01705
X05505Y0164
X05464Y01591
X05431Y01565
X05663Y0164
X05698Y0167
X05764Y01739
X0579622Y0176205
X05838Y01801
Y01836
X05946Y01854
X05947Y01803
X05945Y01717
X05948Y01668
X05944Y0157
X05848Y01566
X0584Y01662
X05837Y01708
X059958Y0176159
X0602803Y0173854
X0609403Y0166954
X0612902Y0163954
X05716Y01842
X05686Y01812
X05616Y01746
X05586Y0172
X0554Y0215
X0554666Y0223894
X0558666Y0220394
X0562466Y0231094
X0565966Y0228194
X0613237Y0228005
X0616737Y0230905
X0620537Y0220205
X0624537Y0223705
X05157Y02029
X0511Y02021
X0512Y01972
X05098Y01951
X0511888Y0191097
X0509491Y0188341
X05012Y0236
X0496636
X045192Y0228557
Y0223457
X044142Y0223657
X044132Y0228457
X0441024Y0210067
Y0206067
X0451824Y0205667
X0451724Y0210367
X0456394Y0212954
X0460595Y0215954
X0463594Y0205254
X0467394Y0208854
X0464794Y0184154
X0467795Y0181154
X0459995Y0173854
X0456773Y0176159
X0451788Y0180267
X0451688Y0185367
X044075Y0184855
X0440906Y0180723
X044094Y0170767
X044124Y0166167
X0441963Y0156567
X0451563Y0156967
X0452039Y0166767
X045174Y0171667
X0466595Y0166954
T03
X0444566Y0154408
X0448634Y0154516
X0486548Y0152319
X0489349Y0155271
X0546991Y0155234
X0549943Y0152434
X0629356Y0152319
X0632157Y0155271
X0689799Y0155235
X0692751Y0152434
X0772164Y0152319
X0774964Y0155271
X0832607Y0155234
X0835558Y0152434
X0914966Y0152324
X0917766Y0155276
X0975408Y0155239
X097836Y0152438
X1057773Y0152324
X1060574Y0155275
X1118216Y0155239
X1121168Y0152438
X1200582Y0152325
X1203382Y0155277
X1261024Y015524
X1263976Y015244
X1276696Y0170704
X1279648Y0167903
X1286465Y0180525
X1289417Y0177724
X1287438Y0209065
X1290239Y0212017
X1272733Y0224026
X1275533Y0226978
X1191984Y0223458
X1189032Y0226258
X1177256Y0209046
X1174304Y0211846
X1147431Y0212016
X114463Y0209064
X1143657Y0180523
X1146609Y0177723
X113684Y0167901
X1133888Y0170702
X1174981Y0177843
X1177781Y0180795
X1187738Y0170871
X1184937Y016792
X1129924Y0224024
X1132725Y0226976
X1049176Y0223456
X1046224Y0226257
X1034447Y0209044
X1031495Y0211845
X1004623Y0212016
X1001822Y0209064
X100085Y0180523
X1003802Y0177723
X0994032Y0167902
X0991081Y0170702
X1032172Y0177841
X1034973Y0180793
X1044929Y017087
X1042129Y0167918
X0987117Y0224024
X0989917Y0226976
X0906368Y0223456
X0903416Y0226257
X089164Y0209044
X0888688Y0211845
X0861821Y0212011
X0859021Y0209059
X0858048Y0180519
X0860999Y0177718
X0851231Y0167897
X0848279Y0170698
X0889365Y0177841
X0892165Y0180793
X0902122Y017087
X0899321Y0167918
X0844315Y022402
X0847116Y0226972
X0763566Y0223452
X0760614Y0226252
X0748838Y020904
X0745886Y021184
X0719014Y0212011
X0716213Y0209059
X071524Y0180519
X0718192Y0177718
X0708423Y0167897
X0705471Y0170698
X0746563Y0177837
X0749363Y0180789
X075932Y0170865
X0756519Y0167913
X0701507Y022402
X0704308Y0226972
X0620759Y0223452
X0617807Y0226253
X0606031Y020904
X0603079Y0211841
X0576205Y0212011
X0573405Y0209059
X0572432Y0180519
X0575384Y0177718
X0565615Y0167897
X0562663Y0170697
X0603755Y0177837
X0606556Y0180789
X0616512Y0170866
X0613712Y0167914
X0558699Y022402
X05615Y0226972
X0477951Y0223452
X0474999Y0226252
X0473704Y0170865
X0470904Y0167913
X0460947Y0177836
X0463748Y0180788
X0448741Y0182704
X0444673Y0182597
X0444566Y0168931
X0448634Y0169038
X0448848Y0207859
X044478Y0207752
X0444673Y0226128
X0448741Y0226235
X046027Y021184
X0463222Y0209039
T04
X1267391Y0164964
X1267392Y0199908
X1124583Y0199906
X1124583Y0164963
X0981776Y0164963
X0981776Y0199906
X0838974Y0199902
X0838974Y0164958
X0696166Y0164959
X0696166Y0199902
X0553358Y0199902
X0553358Y0164958
T05
X1318474Y0154462
X132528
X1325285Y0169097
X1318479
X13185Y0182972
X1325306
X1325298Y0208001
X1318492
X1318456Y02261
X1325262
M30
