G04 Layer_Physical_Order=1*
G04 Layer_Color=255*
%FSLAX25Y25*%
%MOIN*%
G70*
G01*
G75*
%ADD10C,0.03937*%
%ADD11R,0.15748X0.07874*%
%ADD12C,0.03000*%
%ADD13R,0.03937X0.04331*%
%ADD14R,0.02559X0.03937*%
%ADD15R,0.02362X0.02165*%
%ADD16O,0.01181X0.03150*%
%ADD17O,0.03150X0.01181*%
%ADD18R,0.12992X0.12992*%
%ADD19O,0.00984X0.03543*%
%ADD20O,0.03543X0.00984*%
%ADD21R,0.03150X0.04331*%
%ADD22R,0.07874X0.01575*%
%ADD23R,0.05906X0.03937*%
%ADD24C,0.01000*%
G04:AMPARAMS|DCode=25|XSize=157.48mil|YSize=98.43mil|CornerRadius=0mil|HoleSize=0mil|Usage=FLASHONLY|Rotation=315.000|XOffset=0mil|YOffset=0mil|HoleType=Round|Shape=Round|*
%AMOVALD25*
21,1,0.05906,0.09843,0.00000,0.00000,315.0*
1,1,0.09843,-0.02088,0.02088*
1,1,0.09843,0.02088,-0.02088*
%
%ADD25OVALD25*%

G04:AMPARAMS|DCode=26|XSize=157.48mil|YSize=98.43mil|CornerRadius=0mil|HoleSize=0mil|Usage=FLASHONLY|Rotation=-45.000|XOffset=0mil|YOffset=0mil|HoleType=Round|Shape=Round|*
%AMOVALD26*
21,1,0.05906,0.09843,0.00000,0.00000,-45.0*
1,1,0.09843,-0.02088,0.02088*
1,1,0.09843,0.02088,-0.02088*
%
%ADD26OVALD26*%

%ADD27O,0.15748X0.09843*%
G04:AMPARAMS|DCode=28|XSize=157.48mil|YSize=98.43mil|CornerRadius=0mil|HoleSize=0mil|Usage=FLASHONLY|Rotation=225.000|XOffset=0mil|YOffset=0mil|HoleType=Round|Shape=Round|*
%AMOVALD28*
21,1,0.05906,0.09843,0.00000,0.00000,225.0*
1,1,0.09843,0.02088,0.02088*
1,1,0.09843,-0.02088,-0.02088*
%
%ADD28OVALD28*%

%ADD29C,0.00500*%
%ADD30C,0.00600*%
%ADD31C,0.01000*%
%ADD32R,0.09000X0.07000*%
%ADD33C,0.02598*%
%ADD34C,0.02500*%
%ADD35C,0.02000*%
D10*
X888700Y193788D02*
D03*
X1292293Y234399D02*
D03*
X462409Y151479D02*
D03*
D11*
X433025Y225994D02*
D03*
X432981Y207963D02*
D03*
X432993Y182847D02*
D03*
X432997Y169060D02*
D03*
X433061Y154423D02*
D03*
X1317417Y154468D02*
D03*
X1317353Y169104D02*
D03*
X1317349Y182891D02*
D03*
X1317337Y208008D02*
D03*
X1317381Y226039D02*
D03*
D12*
X1232034Y206906D02*
D03*
X1201033Y218006D02*
D03*
X1237033Y206906D02*
D03*
X1254134Y188306D02*
D03*
X1256136Y198207D02*
D03*
X1253734Y164406D02*
D03*
X1205233Y209806D02*
D03*
X981701Y194990D02*
D03*
X981701Y184987D02*
D03*
X981702Y189990D02*
D03*
X981700Y179986D02*
D03*
X981708Y169987D02*
D03*
X981699Y174983D02*
D03*
X919618Y209805D02*
D03*
X968118Y164405D02*
D03*
X970520Y198206D02*
D03*
X968518Y188305D02*
D03*
X951418Y206905D02*
D03*
X915418Y218005D02*
D03*
X946418Y206905D02*
D03*
X1089225Y206905D02*
D03*
X1058225Y218005D02*
D03*
X1094225Y206905D02*
D03*
X1111325Y188305D02*
D03*
X1113328Y198206D02*
D03*
X1110925Y164405D02*
D03*
X1062425Y209805D02*
D03*
X776816Y209800D02*
D03*
X825316Y164400D02*
D03*
X827718Y198202D02*
D03*
X825716Y188300D02*
D03*
X808616Y206900D02*
D03*
X772616Y218000D02*
D03*
X803616Y206900D02*
D03*
X660808Y206900D02*
D03*
X629808Y218000D02*
D03*
X665808Y206900D02*
D03*
X682908Y188300D02*
D03*
X684911Y198202D02*
D03*
X682508Y164400D02*
D03*
X634008Y209800D02*
D03*
X696092Y194986D02*
D03*
X696092Y184982D02*
D03*
X696093Y189985D02*
D03*
X696091Y179982D02*
D03*
X696098Y169982D02*
D03*
X696090Y174979D02*
D03*
X518000Y206900D02*
D03*
X487000Y218000D02*
D03*
X523000Y206900D02*
D03*
X540100Y188300D02*
D03*
X542102Y198201D02*
D03*
X539700Y164400D02*
D03*
X491200Y209800D02*
D03*
X553283Y194986D02*
D03*
X553284Y184982D02*
D03*
X553285Y189985D02*
D03*
X553282Y179981D02*
D03*
X553290Y169982D02*
D03*
X553281Y174978D02*
D03*
X838899Y194986D02*
D03*
X838899Y184982D02*
D03*
X838900Y189985D02*
D03*
X838898Y179981D02*
D03*
X838906Y169982D02*
D03*
X838897Y174978D02*
D03*
X1124508Y194990D02*
D03*
X1124509Y184987D02*
D03*
X1124510Y189990D02*
D03*
X1124508Y179986D02*
D03*
X1124515Y169987D02*
D03*
X1124506Y174983D02*
D03*
X1267317Y194992D02*
D03*
X1267317Y184988D02*
D03*
X1267318Y189991D02*
D03*
X1267316Y179988D02*
D03*
X1267324Y169988D02*
D03*
X1267315Y174985D02*
D03*
D13*
X1189034Y196754D02*
D03*
Y190061D02*
D03*
X1195033Y190258D02*
D03*
Y196951D02*
D03*
X1216033Y168254D02*
D03*
Y161562D02*
D03*
X1244526Y224046D02*
D03*
X1221533Y161258D02*
D03*
Y167951D02*
D03*
X1243534Y236754D02*
D03*
Y230062D02*
D03*
X1213938Y199760D02*
D03*
Y193067D02*
D03*
X1219279Y199728D02*
D03*
Y193036D02*
D03*
X1236434Y229358D02*
D03*
Y236051D02*
D03*
X1251134Y175954D02*
D03*
Y169261D02*
D03*
X1257133Y169358D02*
D03*
Y176051D02*
D03*
X1262134Y176054D02*
D03*
Y169361D02*
D03*
X1228633Y176254D02*
D03*
Y169562D02*
D03*
X1234534Y176254D02*
D03*
Y169562D02*
D03*
X1219069Y229239D02*
D03*
Y235932D02*
D03*
X1224533Y229258D02*
D03*
Y235951D02*
D03*
X1234433Y220954D02*
D03*
Y214262D02*
D03*
X1230933Y229458D02*
D03*
Y236151D02*
D03*
X1251534Y216758D02*
D03*
Y223451D02*
D03*
X1274533Y209254D02*
D03*
Y202561D02*
D03*
X1261633Y206054D02*
D03*
Y199362D02*
D03*
X1258733Y193654D02*
D03*
Y186961D02*
D03*
X973118Y193653D02*
D03*
Y186960D02*
D03*
X976018Y206053D02*
D03*
Y199360D02*
D03*
X988918Y209253D02*
D03*
Y202560D02*
D03*
X965918Y216757D02*
D03*
Y223449D02*
D03*
X945318Y229457D02*
D03*
Y236150D02*
D03*
X948818Y220953D02*
D03*
Y214260D02*
D03*
X938918Y229257D02*
D03*
Y235949D02*
D03*
X933454Y229238D02*
D03*
Y235931D02*
D03*
X948918Y176253D02*
D03*
Y169560D02*
D03*
X943018Y176253D02*
D03*
Y169560D02*
D03*
X976518Y176053D02*
D03*
Y169360D02*
D03*
X971518Y169357D02*
D03*
Y176050D02*
D03*
X965518Y175953D02*
D03*
Y169260D02*
D03*
X950818Y229357D02*
D03*
Y236050D02*
D03*
X933664Y199727D02*
D03*
Y193034D02*
D03*
X928322Y199758D02*
D03*
Y193066D02*
D03*
X957918Y236753D02*
D03*
Y230060D02*
D03*
X935918Y161257D02*
D03*
Y167949D02*
D03*
X958910Y224044D02*
D03*
X930418Y168253D02*
D03*
Y161560D02*
D03*
X909418Y190257D02*
D03*
Y196950D02*
D03*
X903418Y196753D02*
D03*
Y190060D02*
D03*
X1046225Y196753D02*
D03*
Y190060D02*
D03*
X1052225Y190257D02*
D03*
Y196949D02*
D03*
X1073225Y168253D02*
D03*
Y161560D02*
D03*
X1101717Y224044D02*
D03*
X1078725Y161257D02*
D03*
Y167949D02*
D03*
X1100725Y236753D02*
D03*
Y230060D02*
D03*
X1071130Y199758D02*
D03*
Y193065D02*
D03*
X1076471Y199727D02*
D03*
Y193034D02*
D03*
X1093625Y229357D02*
D03*
Y236049D02*
D03*
X1108325Y175953D02*
D03*
Y169260D02*
D03*
X1114325Y169357D02*
D03*
Y176049D02*
D03*
X1119325Y176053D02*
D03*
Y169360D02*
D03*
X1085825Y176253D02*
D03*
Y169560D02*
D03*
X1091725Y176253D02*
D03*
Y169560D02*
D03*
X1076261Y229238D02*
D03*
Y235930D02*
D03*
X1081725Y229257D02*
D03*
Y235949D02*
D03*
X1091625Y220953D02*
D03*
Y214260D02*
D03*
X1088125Y229457D02*
D03*
Y236149D02*
D03*
X1108725Y216757D02*
D03*
Y223449D02*
D03*
X1131725Y209253D02*
D03*
Y202560D02*
D03*
X1118825Y206053D02*
D03*
Y199360D02*
D03*
X1115925Y193653D02*
D03*
Y186960D02*
D03*
X830316Y193648D02*
D03*
Y186955D02*
D03*
X833216Y206048D02*
D03*
Y199355D02*
D03*
X846116Y209248D02*
D03*
Y202555D02*
D03*
X823116Y216752D02*
D03*
Y223445D02*
D03*
X802516Y229452D02*
D03*
Y236145D02*
D03*
X806016Y220948D02*
D03*
Y214255D02*
D03*
X796116Y229252D02*
D03*
Y235945D02*
D03*
X790652Y229233D02*
D03*
Y235926D02*
D03*
X806116Y176248D02*
D03*
Y169555D02*
D03*
X800216Y176248D02*
D03*
Y169555D02*
D03*
X833716Y176048D02*
D03*
Y169355D02*
D03*
X828716Y169352D02*
D03*
Y176045D02*
D03*
X822716Y175948D02*
D03*
Y169255D02*
D03*
X808016Y229352D02*
D03*
Y236045D02*
D03*
X790862Y199722D02*
D03*
Y193030D02*
D03*
X785520Y199754D02*
D03*
Y193061D02*
D03*
X815116Y236748D02*
D03*
Y230055D02*
D03*
X793116Y161252D02*
D03*
Y167945D02*
D03*
X816108Y224040D02*
D03*
X787616Y168248D02*
D03*
Y161555D02*
D03*
X766616Y190252D02*
D03*
Y196945D02*
D03*
X760616Y196748D02*
D03*
Y190055D02*
D03*
X617808Y196748D02*
D03*
Y190056D02*
D03*
X623808Y190252D02*
D03*
Y196945D02*
D03*
X644808Y168248D02*
D03*
Y161556D02*
D03*
X673300Y224040D02*
D03*
X650308Y161252D02*
D03*
Y167945D02*
D03*
X672308Y236748D02*
D03*
Y230056D02*
D03*
X642713Y199754D02*
D03*
Y193061D02*
D03*
X648054Y199723D02*
D03*
Y193030D02*
D03*
X665208Y229352D02*
D03*
Y236045D02*
D03*
X679908Y175949D02*
D03*
Y169255D02*
D03*
X685908Y169352D02*
D03*
Y176045D02*
D03*
X690908Y176048D02*
D03*
Y169356D02*
D03*
X657408Y176248D02*
D03*
Y169556D02*
D03*
X663308Y176248D02*
D03*
Y169556D02*
D03*
X647844Y229234D02*
D03*
Y235926D02*
D03*
X653308Y229252D02*
D03*
Y235945D02*
D03*
X663208Y220948D02*
D03*
Y214256D02*
D03*
X659708Y229452D02*
D03*
Y236145D02*
D03*
X680308Y216752D02*
D03*
Y223445D02*
D03*
X703308Y209248D02*
D03*
Y202556D02*
D03*
X690408Y206048D02*
D03*
Y199356D02*
D03*
X687508Y193648D02*
D03*
Y186956D02*
D03*
X475000Y196748D02*
D03*
Y190055D02*
D03*
X481000Y190252D02*
D03*
Y196945D02*
D03*
X502000Y168248D02*
D03*
Y161555D02*
D03*
X530492Y224039D02*
D03*
X507500Y161252D02*
D03*
Y167945D02*
D03*
X529500Y236748D02*
D03*
Y230055D02*
D03*
X499905Y199753D02*
D03*
Y193061D02*
D03*
X505246Y199722D02*
D03*
Y193029D02*
D03*
X522400Y229352D02*
D03*
Y236045D02*
D03*
X537100Y175948D02*
D03*
Y169255D02*
D03*
X543100Y169352D02*
D03*
Y176045D02*
D03*
X548100Y176048D02*
D03*
Y169355D02*
D03*
X514600Y176248D02*
D03*
Y169555D02*
D03*
X520500Y176248D02*
D03*
Y169555D02*
D03*
X505036Y229233D02*
D03*
Y235926D02*
D03*
X510500Y229252D02*
D03*
Y235945D02*
D03*
X520400Y220948D02*
D03*
Y214255D02*
D03*
X516900Y229452D02*
D03*
Y236145D02*
D03*
X537500Y216752D02*
D03*
Y223445D02*
D03*
X560500Y209248D02*
D03*
Y202555D02*
D03*
X547600Y206048D02*
D03*
Y199355D02*
D03*
X544700Y193648D02*
D03*
Y186955D02*
D03*
D14*
X1206459Y183073D02*
D03*
X1213939D02*
D03*
X1206459Y174609D02*
D03*
X1210199D02*
D03*
X1213939D02*
D03*
X1256217Y222568D02*
D03*
X1263697D02*
D03*
X1256217Y214103D02*
D03*
X1259957D02*
D03*
X1263697D02*
D03*
X970601Y222566D02*
D03*
X978081D02*
D03*
X970601Y214101D02*
D03*
X974341D02*
D03*
X978081D02*
D03*
X920843Y183072D02*
D03*
X928323D02*
D03*
X920843Y174607D02*
D03*
X924583D02*
D03*
X928323D02*
D03*
X1063650Y183072D02*
D03*
X1071131D02*
D03*
X1063650Y174607D02*
D03*
X1067391D02*
D03*
X1071131D02*
D03*
X1113408Y222566D02*
D03*
X1120889D02*
D03*
X1113408Y214101D02*
D03*
X1117149D02*
D03*
X1120889D02*
D03*
X827799Y222561D02*
D03*
X835279D02*
D03*
X827799Y214097D02*
D03*
X831539D02*
D03*
X835279D02*
D03*
X778041Y183067D02*
D03*
X785521D02*
D03*
X778041Y174603D02*
D03*
X781781D02*
D03*
X785521D02*
D03*
X635233Y183067D02*
D03*
X642714D02*
D03*
X635233Y174603D02*
D03*
X638974D02*
D03*
X642714D02*
D03*
X684991Y222562D02*
D03*
X692472D02*
D03*
X684991Y214097D02*
D03*
X688732D02*
D03*
X692472D02*
D03*
X492425Y183067D02*
D03*
X499906D02*
D03*
X492425Y174602D02*
D03*
X496165D02*
D03*
X499906D02*
D03*
X542183Y222561D02*
D03*
X549664D02*
D03*
X542183Y214097D02*
D03*
X545924D02*
D03*
X549664D02*
D03*
D15*
X1207662Y203736D02*
D03*
X1207662Y197837D02*
D03*
X1207664Y200786D02*
D03*
X1207664Y194885D02*
D03*
X1207662Y191935D02*
D03*
X1207663Y188982D02*
D03*
X1199785Y188988D02*
D03*
X1199784Y191941D02*
D03*
X1199787Y194892D02*
D03*
X1199787Y200793D02*
D03*
X1199785Y197844D02*
D03*
X1199784Y203742D02*
D03*
X922046Y203734D02*
D03*
X922047Y197836D02*
D03*
X922049Y200784D02*
D03*
X922048Y194884D02*
D03*
X922046Y191933D02*
D03*
X922047Y188980D02*
D03*
X914169Y188987D02*
D03*
X914169Y191939D02*
D03*
X914171Y194890D02*
D03*
X914171Y200791D02*
D03*
X914169Y197842D02*
D03*
X914169Y203741D02*
D03*
X1064854Y203734D02*
D03*
X1064854Y197836D02*
D03*
X1064856Y200784D02*
D03*
X1064856Y194884D02*
D03*
X1064853Y191933D02*
D03*
X1064854Y188980D02*
D03*
X1056977Y188987D02*
D03*
X1056976Y191939D02*
D03*
X1056978Y194890D02*
D03*
X1056979Y200791D02*
D03*
X1056977Y197842D02*
D03*
X1056976Y203740D02*
D03*
X779244Y203730D02*
D03*
X779245Y197831D02*
D03*
X779247Y200780D02*
D03*
X779246Y194879D02*
D03*
X779244Y191929D02*
D03*
X779245Y188976D02*
D03*
X771367Y188982D02*
D03*
X771367Y191935D02*
D03*
X771369Y194885D02*
D03*
X771369Y200786D02*
D03*
X771367Y197838D02*
D03*
X771367Y203736D02*
D03*
X636437Y203730D02*
D03*
X636437Y197832D02*
D03*
X636439Y200780D02*
D03*
X636439Y194879D02*
D03*
X636437Y191929D02*
D03*
X636437Y188976D02*
D03*
X628560Y188983D02*
D03*
X628559Y191935D02*
D03*
X628561Y194886D02*
D03*
X628562Y200787D02*
D03*
X628559Y197838D02*
D03*
X628559Y203736D02*
D03*
X493629Y203729D02*
D03*
X493629Y197831D02*
D03*
X493631Y200780D02*
D03*
X493631Y194879D02*
D03*
X493628Y191928D02*
D03*
X493629Y188976D02*
D03*
X485752Y188982D02*
D03*
X485751Y191935D02*
D03*
X485753Y194885D02*
D03*
X485754Y200786D02*
D03*
X485751Y197837D02*
D03*
X485751Y203736D02*
D03*
D16*
X1222963Y224277D02*
D03*
X1220995Y224277D02*
D03*
X1219028D02*
D03*
X1215091Y224277D02*
D03*
X1217059Y224277D02*
D03*
X1213123Y224276D02*
D03*
X1222964Y208532D02*
D03*
X1219027Y208531D02*
D03*
X1220995Y208532D02*
D03*
X1217059Y208531D02*
D03*
X1215091D02*
D03*
X1213123Y208531D02*
D03*
X937347Y224275D02*
D03*
X935379Y224275D02*
D03*
X933412D02*
D03*
X929475Y224275D02*
D03*
X931443Y224275D02*
D03*
X927507Y224275D02*
D03*
X937348Y208530D02*
D03*
X933411Y208530D02*
D03*
X935379Y208530D02*
D03*
X931443Y208530D02*
D03*
X929475D02*
D03*
X927507Y208530D02*
D03*
X1080155Y224275D02*
D03*
X1078187Y224275D02*
D03*
X1076219D02*
D03*
X1072283Y224275D02*
D03*
X1074251Y224275D02*
D03*
X1070315Y224275D02*
D03*
X1080155Y208530D02*
D03*
X1076219Y208530D02*
D03*
X1078187Y208530D02*
D03*
X1074250Y208530D02*
D03*
X1072283D02*
D03*
X1070315Y208530D02*
D03*
X794545Y224271D02*
D03*
X792577Y224271D02*
D03*
X790610D02*
D03*
X786673Y224271D02*
D03*
X788641Y224271D02*
D03*
X784705Y224270D02*
D03*
X794546Y208526D02*
D03*
X790609Y208525D02*
D03*
X792577Y208526D02*
D03*
X788641Y208525D02*
D03*
X786673D02*
D03*
X784705Y208525D02*
D03*
X651738Y224271D02*
D03*
X649770Y224271D02*
D03*
X647802D02*
D03*
X643866Y224271D02*
D03*
X645834Y224271D02*
D03*
X641897Y224271D02*
D03*
X651738Y208526D02*
D03*
X647802Y208526D02*
D03*
X649770Y208526D02*
D03*
X645833Y208526D02*
D03*
X643866D02*
D03*
X641898Y208525D02*
D03*
X508930Y224271D02*
D03*
X506962Y224271D02*
D03*
X504994D02*
D03*
X501058Y224270D02*
D03*
X503026Y224271D02*
D03*
X499089Y224270D02*
D03*
X508930Y208526D02*
D03*
X504994Y208525D02*
D03*
X506962Y208525D02*
D03*
X503025Y208525D02*
D03*
X501058D02*
D03*
X499090Y208525D02*
D03*
D17*
X1225916Y211484D02*
D03*
X1225916Y215421D02*
D03*
Y213453D02*
D03*
Y217389D02*
D03*
Y219356D02*
D03*
X1225916Y221325D02*
D03*
X1210171Y211484D02*
D03*
X1210171Y213452D02*
D03*
Y215419D02*
D03*
X1210170Y219356D02*
D03*
X1210171Y217388D02*
D03*
X1210170Y221324D02*
D03*
X940300Y211483D02*
D03*
X940300Y215419D02*
D03*
Y213451D02*
D03*
Y217388D02*
D03*
Y219355D02*
D03*
X940300Y221323D02*
D03*
X924555Y211482D02*
D03*
X924555Y213450D02*
D03*
Y215418D02*
D03*
X924555Y219354D02*
D03*
X924555Y217386D02*
D03*
X924554Y221322D02*
D03*
X1083108Y211483D02*
D03*
X1083107Y215419D02*
D03*
Y213451D02*
D03*
Y217387D02*
D03*
Y219355D02*
D03*
X1083107Y221323D02*
D03*
X1067362Y211482D02*
D03*
X1067362Y213450D02*
D03*
Y215418D02*
D03*
X1067362Y219354D02*
D03*
X1067362Y217386D02*
D03*
X1067362Y221322D02*
D03*
X797498Y211478D02*
D03*
X797498Y215414D02*
D03*
Y213447D02*
D03*
Y217383D02*
D03*
Y219350D02*
D03*
X797498Y221319D02*
D03*
X781753Y211478D02*
D03*
X781753Y213446D02*
D03*
Y215413D02*
D03*
X781753Y219350D02*
D03*
X781753Y217382D02*
D03*
X781752Y221318D02*
D03*
X654691Y211478D02*
D03*
X654690Y215415D02*
D03*
Y213447D02*
D03*
Y217383D02*
D03*
Y219351D02*
D03*
X654690Y221319D02*
D03*
X638945Y211478D02*
D03*
X638945Y213446D02*
D03*
Y215413D02*
D03*
X638945Y219350D02*
D03*
X638945Y217382D02*
D03*
X638945Y221318D02*
D03*
X511883Y211478D02*
D03*
X511882Y215414D02*
D03*
Y213446D02*
D03*
Y217383D02*
D03*
Y219350D02*
D03*
X511882Y221318D02*
D03*
X496137Y211477D02*
D03*
X496137Y213446D02*
D03*
Y215413D02*
D03*
X496137Y219349D02*
D03*
X496137Y217382D02*
D03*
X496137Y221318D02*
D03*
D18*
X1239534Y192006D02*
D03*
X953918Y192005D02*
D03*
X1096725Y192005D02*
D03*
X811116Y192000D02*
D03*
X668308Y192000D02*
D03*
X525500Y192000D02*
D03*
D19*
X1232644Y202046D02*
D03*
X1234612D02*
D03*
X1236581D02*
D03*
X1238549D02*
D03*
X1240518D02*
D03*
X1242486D02*
D03*
X1244455D02*
D03*
X1246423D02*
D03*
Y181967D02*
D03*
X1244455D02*
D03*
X1242486D02*
D03*
X1240518D02*
D03*
X1238549D02*
D03*
X1236581D02*
D03*
X1234612D02*
D03*
X1232644D02*
D03*
X947028Y202044D02*
D03*
X948996D02*
D03*
X950965D02*
D03*
X952933D02*
D03*
X954902D02*
D03*
X956870D02*
D03*
X958839D02*
D03*
X960807D02*
D03*
Y181965D02*
D03*
X958839D02*
D03*
X956870D02*
D03*
X954902D02*
D03*
X952933D02*
D03*
X950965D02*
D03*
X948996D02*
D03*
X947028D02*
D03*
X1089835Y202044D02*
D03*
X1091804D02*
D03*
X1093772D02*
D03*
X1095741D02*
D03*
X1097709D02*
D03*
X1099678D02*
D03*
X1101646D02*
D03*
X1103615D02*
D03*
Y181965D02*
D03*
X1101646D02*
D03*
X1099678D02*
D03*
X1097709D02*
D03*
X1095741D02*
D03*
X1093772D02*
D03*
X1091804D02*
D03*
X1089835D02*
D03*
X804226Y202040D02*
D03*
X806194D02*
D03*
X808163D02*
D03*
X810131D02*
D03*
X812100D02*
D03*
X814068D02*
D03*
X816037D02*
D03*
X818005D02*
D03*
Y181961D02*
D03*
X816037D02*
D03*
X814068D02*
D03*
X812100D02*
D03*
X810131D02*
D03*
X808163D02*
D03*
X806194D02*
D03*
X804226D02*
D03*
X661418Y202040D02*
D03*
X663387D02*
D03*
X665355D02*
D03*
X667324D02*
D03*
X669292D02*
D03*
X671261D02*
D03*
X673229D02*
D03*
X675198D02*
D03*
Y181961D02*
D03*
X673229D02*
D03*
X671261D02*
D03*
X669292D02*
D03*
X667324D02*
D03*
X665355D02*
D03*
X663387D02*
D03*
X661418D02*
D03*
X518610Y202039D02*
D03*
X520579D02*
D03*
X522547D02*
D03*
X524516D02*
D03*
X526484D02*
D03*
X528453D02*
D03*
X530421D02*
D03*
X532390D02*
D03*
Y181961D02*
D03*
X530421D02*
D03*
X528453D02*
D03*
X526484D02*
D03*
X524516D02*
D03*
X522547D02*
D03*
X520579D02*
D03*
X518610D02*
D03*
D20*
X1249573Y198896D02*
D03*
Y196927D02*
D03*
Y194959D02*
D03*
Y192991D02*
D03*
Y191022D02*
D03*
Y189053D02*
D03*
Y187085D02*
D03*
Y185117D02*
D03*
X1229494D02*
D03*
Y187085D02*
D03*
Y189053D02*
D03*
Y191022D02*
D03*
Y192991D02*
D03*
Y194959D02*
D03*
Y196927D02*
D03*
Y198896D02*
D03*
X963957Y198895D02*
D03*
Y196926D02*
D03*
Y194957D02*
D03*
Y192989D02*
D03*
Y191021D02*
D03*
Y189052D02*
D03*
Y187083D02*
D03*
Y185115D02*
D03*
X943878D02*
D03*
Y187083D02*
D03*
Y189052D02*
D03*
Y191021D02*
D03*
Y192989D02*
D03*
Y194957D02*
D03*
Y196926D02*
D03*
Y198895D02*
D03*
X1106765Y198894D02*
D03*
Y196926D02*
D03*
Y194957D02*
D03*
Y192989D02*
D03*
Y191020D02*
D03*
Y189052D02*
D03*
Y187083D02*
D03*
Y185115D02*
D03*
X1086686D02*
D03*
Y187083D02*
D03*
Y189052D02*
D03*
Y191020D02*
D03*
Y192989D02*
D03*
Y194957D02*
D03*
Y196926D02*
D03*
Y198894D02*
D03*
X821155Y198890D02*
D03*
Y196921D02*
D03*
Y194953D02*
D03*
Y192984D02*
D03*
Y191016D02*
D03*
Y189047D02*
D03*
Y187079D02*
D03*
Y185110D02*
D03*
X801076D02*
D03*
Y187079D02*
D03*
Y189047D02*
D03*
Y191016D02*
D03*
Y192984D02*
D03*
Y194953D02*
D03*
Y196921D02*
D03*
Y198890D02*
D03*
X678347Y198890D02*
D03*
Y196922D02*
D03*
Y194953D02*
D03*
Y192985D02*
D03*
Y191016D02*
D03*
Y189048D02*
D03*
Y187079D02*
D03*
Y185111D02*
D03*
X658269D02*
D03*
Y187079D02*
D03*
Y189048D02*
D03*
Y191016D02*
D03*
Y192985D02*
D03*
Y194953D02*
D03*
Y196922D02*
D03*
Y198890D02*
D03*
X535539Y198890D02*
D03*
Y196921D02*
D03*
Y194953D02*
D03*
Y192984D02*
D03*
Y191016D02*
D03*
Y189047D02*
D03*
Y187079D02*
D03*
Y185110D02*
D03*
X515461D02*
D03*
Y187079D02*
D03*
Y189047D02*
D03*
Y191016D02*
D03*
Y192984D02*
D03*
Y194953D02*
D03*
Y196921D02*
D03*
Y198890D02*
D03*
D21*
X1246691Y210069D02*
D03*
X1242360D02*
D03*
X961075Y210068D02*
D03*
X956744D02*
D03*
X1103883Y210068D02*
D03*
X1099552D02*
D03*
X818273Y210063D02*
D03*
X813942D02*
D03*
X675465Y210063D02*
D03*
X671135D02*
D03*
X532657Y210063D02*
D03*
X528327D02*
D03*
D22*
X1221429Y185465D02*
D03*
X1221428Y180742D02*
D03*
X1221432Y176016D02*
D03*
X935813Y185463D02*
D03*
X935812Y180740D02*
D03*
X935816Y176014D02*
D03*
X1078621Y185463D02*
D03*
X1078620Y180740D02*
D03*
X1078623Y176014D02*
D03*
X793011Y185458D02*
D03*
X793010Y180736D02*
D03*
X793014Y176010D02*
D03*
X650204Y185459D02*
D03*
X650203Y180736D02*
D03*
X650206Y176010D02*
D03*
X507396Y185458D02*
D03*
X507395Y180736D02*
D03*
X507398Y176009D02*
D03*
D23*
X1247655Y162390D02*
D03*
X1247654Y156093D02*
D03*
X1247654Y149794D02*
D03*
X1228357Y149795D02*
D03*
X1228357Y156094D02*
D03*
X1228358Y162391D02*
D03*
X962039Y162389D02*
D03*
X962039Y156091D02*
D03*
X962038Y149792D02*
D03*
X942741Y149793D02*
D03*
X942741Y156092D02*
D03*
X942742Y162390D02*
D03*
X1104847Y162389D02*
D03*
X1104846Y156091D02*
D03*
X1104846Y149792D02*
D03*
X1085548Y149793D02*
D03*
X1085549Y156092D02*
D03*
X1085550Y162390D02*
D03*
X819237Y162384D02*
D03*
X819237Y156087D02*
D03*
X819236Y149788D02*
D03*
X799939Y149789D02*
D03*
X799939Y156088D02*
D03*
X799940Y162385D02*
D03*
X676430Y162384D02*
D03*
X676429Y156087D02*
D03*
X676429Y149788D02*
D03*
X657131Y149789D02*
D03*
X657132Y156088D02*
D03*
X657132Y162385D02*
D03*
X533622Y162384D02*
D03*
X533621Y156086D02*
D03*
X533621Y149787D02*
D03*
X514323Y149788D02*
D03*
X514324Y156087D02*
D03*
X514324Y162385D02*
D03*
D24*
X1284300Y221268D02*
D03*
X1282730Y221288D02*
D03*
X1280551Y156872D02*
D03*
X1280532Y155302D02*
D03*
X994936Y156870D02*
D03*
X994916Y155300D02*
D03*
X998684Y221267D02*
D03*
X997114Y221286D02*
D03*
X1141492Y221267D02*
D03*
X1139922Y221286D02*
D03*
X1137743Y156870D02*
D03*
X1137724Y155300D02*
D03*
X852133Y156866D02*
D03*
X852114Y155296D02*
D03*
X855882Y221262D02*
D03*
X854312Y221282D02*
D03*
X713075Y221262D02*
D03*
X711505Y221282D02*
D03*
X709326Y156866D02*
D03*
X709306Y155296D02*
D03*
X566518Y156866D02*
D03*
X566498Y155295D02*
D03*
X570267Y221262D02*
D03*
X568697Y221282D02*
D03*
D25*
X1288233Y179206D02*
D03*
X1175828Y210660D02*
D03*
X1190197Y225597D02*
D03*
X904581Y225596D02*
D03*
X890212Y210659D02*
D03*
X1002618Y179205D02*
D03*
X1145425Y179205D02*
D03*
X1033020Y210658D02*
D03*
X1047388Y225596D02*
D03*
X761779Y225591D02*
D03*
X747410Y210654D02*
D03*
X859816Y179200D02*
D03*
X717008Y179200D02*
D03*
X604602Y210654D02*
D03*
X618971Y225591D02*
D03*
X476163Y225591D02*
D03*
X461795Y210654D02*
D03*
X574200Y179200D02*
D03*
D26*
X1278325Y169435D02*
D03*
X1262742Y153951D02*
D03*
X977126Y153949D02*
D03*
X992709Y169434D02*
D03*
X1135516Y169434D02*
D03*
X1119934Y153949D02*
D03*
X834324Y153945D02*
D03*
X849907Y169429D02*
D03*
X707099Y169429D02*
D03*
X691517Y153945D02*
D03*
X548709Y153945D02*
D03*
X564291Y169429D02*
D03*
D27*
X1303652Y182951D02*
D03*
X1303553Y169140D02*
D03*
X1303652Y154475D02*
D03*
Y208018D02*
D03*
Y226054D02*
D03*
X1018036Y226052D02*
D03*
Y208016D02*
D03*
Y154473D02*
D03*
X1017937Y169139D02*
D03*
X1018036Y182949D02*
D03*
X1160843Y182949D02*
D03*
X1160745Y169138D02*
D03*
X1160843Y154473D02*
D03*
Y208016D02*
D03*
Y226052D02*
D03*
X875234Y226047D02*
D03*
Y208012D02*
D03*
Y154469D02*
D03*
X875135Y169134D02*
D03*
X875234Y182945D02*
D03*
X732426Y182945D02*
D03*
X732328Y169134D02*
D03*
X732426Y154469D02*
D03*
Y208012D02*
D03*
Y226048D02*
D03*
X446738Y226004D02*
D03*
X446751Y207972D02*
D03*
X446781Y154436D02*
D03*
X446759Y169101D02*
D03*
X446706Y182912D02*
D03*
X589618Y226047D02*
D03*
Y208012D02*
D03*
Y154468D02*
D03*
X589520Y169134D02*
D03*
X589618Y182945D02*
D03*
D28*
X1274265Y225644D02*
D03*
X1288634Y210706D02*
D03*
X1176228Y179160D02*
D03*
X1201717Y153964D02*
D03*
X1186137Y169389D02*
D03*
X900521Y169387D02*
D03*
X916101Y153963D02*
D03*
X890612Y179158D02*
D03*
X1003018Y210705D02*
D03*
X988649Y225642D02*
D03*
X1131456Y225642D02*
D03*
X1145825Y210705D02*
D03*
X1033420Y179158D02*
D03*
X1058909Y153962D02*
D03*
X1043328Y169387D02*
D03*
X757719Y169383D02*
D03*
X773300Y153958D02*
D03*
X747810Y179154D02*
D03*
X860216Y210700D02*
D03*
X845847Y225638D02*
D03*
X703039Y225638D02*
D03*
X717408Y210700D02*
D03*
X605002Y179154D02*
D03*
X630492Y153958D02*
D03*
X614911Y169383D02*
D03*
X472103Y169383D02*
D03*
X487684Y153958D02*
D03*
X462194Y179154D02*
D03*
X574600Y210700D02*
D03*
X560231Y225637D02*
D03*
D29*
X1282859Y221261D02*
X1284166Y221258D01*
X1280559Y155431D02*
X1280561Y156737D01*
X994943Y155429D02*
X994946Y156736D01*
X997243Y221259D02*
X998550Y221257D01*
X1140051Y221259D02*
X1141357Y221257D01*
X1137751Y155429D02*
X1137753Y156735D01*
X852141Y155425D02*
X852143Y156731D01*
X854441Y221255D02*
X855748Y221252D01*
X711634Y221255D02*
X712940Y221252D01*
X709334Y155425D02*
X709336Y156731D01*
X566526Y155424D02*
X566528Y156731D01*
X568826Y221254D02*
X570132Y221252D01*
X425029Y241174D02*
X1325373D01*
X424937Y143882D02*
X425005Y241146D01*
X424937Y143882D02*
X1325373Y143517D01*
Y241174D01*
D30*
X1220234Y214106D02*
Y214108D01*
X1218727Y215615D02*
X1220234Y214108D01*
X1214574Y215615D02*
X1218727D01*
X1220234Y214440D02*
Y221547D01*
X1242733Y177806D02*
X1245133Y175406D01*
X1242733Y177806D02*
Y181720D01*
X1244455Y179306D02*
Y181967D01*
Y179306D02*
X1244555Y179206D01*
X1267334D01*
X1247433Y174606D02*
Y175756D01*
X1248234Y172406D02*
X1254033D01*
Y165390D02*
Y172406D01*
X1251617Y165390D02*
X1254033D01*
X1248234Y168895D02*
Y172506D01*
X1247494Y168156D02*
X1248234Y168895D01*
X1258234Y162806D02*
Y164606D01*
X1260633Y167006D01*
Y168306D01*
X1242486Y181967D02*
X1242733Y181720D01*
X1241533Y177206D02*
Y178906D01*
X1240833Y179606D02*
X1241533Y178906D01*
X1240833Y179606D02*
Y180206D01*
X1236581Y179659D02*
X1237434Y178806D01*
Y170475D02*
Y178806D01*
X1213939Y173106D02*
X1231633D01*
Y165806D02*
Y173106D01*
Y165806D02*
X1234233Y163206D01*
X1240518Y180522D02*
X1240833Y180206D01*
X1240518Y180522D02*
Y181467D01*
X1242486Y203326D02*
X1243878Y204717D01*
X1242486Y202046D02*
Y203326D01*
X1260278Y194506D02*
X1266533D01*
X1279533Y216106D02*
X1284515Y221088D01*
X1279533Y202206D02*
Y216106D01*
Y202206D02*
X1279634Y202106D01*
X1256330D02*
X1256334D01*
X1253312Y199088D02*
X1256330Y202106D01*
X1249765Y199088D02*
X1253312D01*
X1249573Y198896D02*
X1249765Y199088D01*
X1258533Y197306D02*
Y205138D01*
X1257633Y196406D02*
X1258533Y197306D01*
X1250747Y205138D02*
X1253934D01*
X1249660Y206225D02*
X1250747Y205138D01*
X1254134Y201606D02*
Y205106D01*
X1252815Y200288D02*
X1254134Y201606D01*
X1248534Y200288D02*
X1252815D01*
X1265789Y211306D02*
X1274533Y202561D01*
X1264439Y211306D02*
X1265789D01*
X1261833Y184406D02*
Y192406D01*
X1261133Y183706D02*
X1261833Y184406D01*
X1250673Y189022D02*
X1253133D01*
X1255834Y191106D02*
X1258033Y188906D01*
X1251949Y191106D02*
X1255834D01*
X1251949D02*
X1252034Y191022D01*
X1249934Y197088D02*
X1253983D01*
X1257633Y195454D02*
Y196406D01*
X1253333Y183706D02*
X1261133D01*
X1252534Y184506D02*
X1253333Y183706D01*
X1252534Y184506D02*
Y185406D01*
X1250855Y187085D02*
X1252534Y185406D01*
X1249573Y183167D02*
Y185117D01*
Y183167D02*
X1250233Y182506D01*
X1248433Y181206D02*
X1262631D01*
X1247233Y182406D02*
X1248433Y181206D01*
X1246423Y182406D02*
X1247233D01*
X1261833Y182506D02*
X1264334Y185006D01*
X1250233Y182506D02*
X1261833D01*
X1263831Y182406D02*
X1269633D01*
X1262631Y181206D02*
X1263831Y182406D01*
X1246776Y202046D02*
X1248534Y200288D01*
X1205233Y205756D02*
Y210006D01*
X1251507Y156080D02*
X1258234Y162806D01*
X1256234D02*
Y169606D01*
X1255334Y161906D02*
X1256234Y162806D01*
X1251933Y161906D02*
X1255334D01*
X1251449Y162390D02*
X1251933Y161906D01*
X1247655Y162390D02*
X1251449D01*
X1256034Y167706D02*
Y169510D01*
Y167706D02*
X1256050D01*
X1243834Y165306D02*
X1251534D01*
X1203034Y179406D02*
Y182706D01*
Y170906D02*
Y179606D01*
X1203079Y179694D02*
X1206459Y183073D01*
X1203034Y170906D02*
X1212434Y161506D01*
X1216033D01*
Y161562D01*
X1216133Y164806D02*
X1220284D01*
X1216033Y164906D02*
X1216133Y164806D01*
X1216033Y164906D02*
Y168254D01*
X1200834Y213456D02*
Y217606D01*
X1231933Y206706D02*
X1234549Y204090D01*
X1236549Y206022D02*
X1237134Y206606D01*
X1234549Y201646D02*
Y204090D01*
X1236549Y201746D02*
Y206022D01*
X1229177Y207950D02*
X1230834Y209606D01*
X1229177Y203750D02*
Y207950D01*
X1230177Y203450D02*
X1230233Y203506D01*
X1230134Y210806D02*
X1231734D01*
X1227633Y208306D02*
X1230134Y210806D01*
X1239734Y205806D02*
Y209606D01*
X1238549Y204622D02*
X1239734Y205806D01*
X1240518Y204190D02*
X1241634Y205306D01*
X1230834Y209606D02*
X1239834D01*
X1243878Y204717D02*
X1247000D01*
X1238878Y210806D02*
X1239885Y211813D01*
X1231734Y210806D02*
X1238878D01*
X1227633Y204506D02*
Y208306D01*
X1231789Y214262D02*
X1234433D01*
X1226383Y208856D02*
X1231789Y214262D01*
X1231633Y218154D02*
X1234433Y220954D01*
X1231633Y216806D02*
Y218154D01*
X1228280Y213453D02*
X1231633Y216806D01*
X1239933Y221406D02*
Y232606D01*
Y221406D02*
X1240633Y220706D01*
Y213706D02*
Y220706D01*
X1239885Y212958D02*
X1240633Y213706D01*
X1239885Y211813D02*
Y212958D01*
X1241133Y222031D02*
Y226661D01*
Y222031D02*
X1241860Y221304D01*
Y208569D02*
Y221304D01*
X1230433Y217606D02*
Y224106D01*
X1228248Y215421D02*
X1230433Y217606D01*
X1225916Y215421D02*
X1228248D01*
X1225916Y213453D02*
X1228280D01*
X1233434Y225906D02*
X1235034Y227506D01*
X1232234Y225906D02*
X1233434D01*
X1230433Y224106D02*
X1232234Y225906D01*
X1235034Y227506D02*
X1236333D01*
X1230733Y227006D02*
Y227806D01*
X1228833Y225106D02*
X1230733Y227006D01*
X1228833Y217806D02*
Y225106D01*
X1222383Y215739D02*
Y216949D01*
X1224314Y218880D01*
X1225439D01*
X1225916Y219356D01*
X1220234Y214106D02*
X1220887Y213453D01*
X1222486Y223799D02*
X1222963Y224277D01*
X1222486Y222675D02*
Y223799D01*
X1221612Y221802D02*
X1222486Y222675D01*
X1220488Y221802D02*
X1221612D01*
X1220234Y221547D02*
X1220488Y221802D01*
X1241860Y208569D02*
X1243392D01*
X1244026Y222046D02*
X1244431Y222451D01*
X1244026Y215506D02*
Y222046D01*
X1239933Y235951D02*
X1240130Y235754D01*
X1243534D01*
X1235034Y176254D02*
Y178806D01*
X1234612Y179227D02*
X1235034Y178806D01*
X1234612Y179227D02*
Y181967D01*
X1249573Y191022D02*
X1252034D01*
X1261534Y169562D02*
X1264133D01*
X1264560Y169988D01*
X1267324D01*
X1222963Y224277D02*
Y225906D01*
X1224533Y227477D01*
Y229258D01*
X1244431Y222451D02*
X1254134D01*
X1254256Y222573D01*
X1256959D01*
X1214005Y193055D02*
X1220505D01*
X1264439Y211306D02*
Y214109D01*
X1264339Y211206D02*
X1264439Y211306D01*
X1257059Y211206D02*
X1264339D01*
X1256959Y211306D02*
X1257059Y211206D01*
X1256959Y211306D02*
Y214109D01*
X1220887Y213453D02*
X1225916D01*
X1232644Y180706D02*
Y181967D01*
X1229033Y177096D02*
X1232644Y180706D01*
X1229033Y176254D02*
Y177096D01*
X1189034Y196754D02*
Y198742D01*
X1194034Y203742D01*
X1199784D01*
X1220284Y164806D02*
X1221533Y163556D01*
Y161258D02*
Y163556D01*
X1261534Y169562D02*
Y172806D01*
X1261434Y172906D02*
X1261534Y172806D01*
X1256133Y172906D02*
X1261434D01*
X1256034Y173006D02*
X1256133Y172906D01*
X1256034Y173006D02*
Y176203D01*
X1195033Y190258D02*
X1197534D01*
X1197633Y190358D01*
Y194006D01*
X1198519Y194892D01*
X1199787D01*
X1264334Y184988D02*
X1267317D01*
X1213123Y224276D02*
Y235076D01*
X1224533Y235951D02*
X1227734D01*
X1207711Y168254D02*
X1216033D01*
X1204279Y171686D02*
X1207711Y168254D01*
X1204279Y171686D02*
Y177506D01*
X1204379Y177606D01*
X1210099D01*
X1210199Y177506D01*
X1228633Y185117D02*
X1229494D01*
X1239133Y156094D02*
X1242021Y153206D01*
X1205634Y203736D02*
X1207662D01*
X1205534Y203636D02*
X1205634Y203736D01*
X1205534Y195806D02*
Y203636D01*
Y195806D02*
X1206454Y194885D01*
X1207664D01*
X1251534Y208258D02*
Y217006D01*
X1243834Y156093D02*
X1247654D01*
X1243734Y156193D02*
X1243834Y156093D01*
X1243734Y156193D02*
Y165206D01*
X1243834Y165306D01*
X1239752Y168156D02*
X1247494D01*
X1237434Y170475D02*
X1239752Y168156D01*
X1236581Y179659D02*
Y181967D01*
X1205634Y191935D02*
X1207662D01*
X1205534Y191835D02*
X1205634Y191935D01*
X1205534Y186132D02*
Y191835D01*
Y186132D02*
X1206459Y185206D01*
Y183073D02*
Y185206D01*
X1213939Y173312D02*
Y174609D01*
X1206559Y171706D02*
X1212333D01*
X1206459Y171806D02*
X1206559Y171706D01*
X1206459Y171806D02*
Y174609D01*
X1226233Y169562D02*
X1229033D01*
X1224623Y167951D02*
X1226233Y169562D01*
X1221533Y167951D02*
X1224623D01*
X1250033Y167106D02*
Y169313D01*
X1249883Y166956D02*
X1250033Y167106D01*
X1235133Y166956D02*
X1249883D01*
X1235034Y167056D02*
X1235133Y166956D01*
X1235034Y167056D02*
Y169562D01*
X1207662Y191935D02*
X1209907D01*
X1211034Y193061D01*
X1214034D01*
X1199784Y191941D02*
X1202034D01*
X1202133Y192041D01*
Y211552D01*
X1204033Y213452D01*
X1267315Y174985D02*
X1269734Y177403D01*
Y182306D01*
X1269633Y182406D02*
X1269734Y182306D01*
X1246423Y181967D02*
Y182406D01*
X1224355Y189053D02*
X1229494D01*
X1270134Y197406D02*
X1276733Y190806D01*
X1192233Y196951D02*
X1195033D01*
X1192134Y196851D02*
X1192233Y196951D01*
X1221533Y151045D02*
X1222783Y149795D01*
X1228357D01*
X1214034Y193061D02*
Y195256D01*
X1213801Y195489D02*
X1214034Y195256D01*
X1210082Y195489D02*
X1213801D01*
X1209898Y195674D02*
X1210082Y195489D01*
X1209898Y195674D02*
Y197106D01*
X1209748Y197256D02*
X1209898Y197106D01*
X1208546Y197256D02*
X1209748D01*
X1207662Y197837D02*
X1208546D01*
X1267318Y189991D02*
X1270934Y186376D01*
Y174206D02*
Y186376D01*
X1269234Y172506D02*
X1270934Y174206D01*
X1264933Y172506D02*
X1269234D01*
X1263733Y173706D02*
X1264933Y172506D01*
X1263733Y173706D02*
Y176154D01*
X1263634Y176254D02*
X1263733Y176154D01*
X1261534Y176254D02*
X1263634D01*
X1263378Y197406D02*
X1269633D01*
X1269734Y197306D01*
Y193756D02*
Y197306D01*
X1268484Y192506D02*
X1269734Y193756D01*
X1261934Y192506D02*
X1268484D01*
X1249573Y187085D02*
X1250855D01*
X1260699Y214109D02*
Y216906D01*
X1215333Y229258D02*
X1218034D01*
X1215234Y229358D02*
X1215333Y229258D01*
X1215234Y229358D02*
Y232606D01*
X1207633Y219456D02*
X1207734Y219356D01*
X1210170D01*
X1247433Y175756D02*
X1247684Y176006D01*
X1250033D01*
X1195033Y193706D02*
Y196951D01*
X1194934Y193606D02*
X1195033Y193706D01*
X1189034Y192256D02*
X1190384Y193606D01*
X1189034Y190061D02*
Y192256D01*
X1263533Y190006D02*
X1267318Y189991D01*
X1230233Y202406D02*
Y203506D01*
X1238549Y202046D02*
Y204622D01*
X1225916Y221325D02*
X1227534D01*
X1227633Y221425D01*
Y232606D01*
X1239933D01*
X1227633Y235851D02*
X1227734Y235951D01*
X1211165Y196806D02*
X1211282Y196689D01*
X1211165Y196806D02*
Y198206D01*
X1210915Y198456D02*
X1211165Y198206D01*
X1209996Y198456D02*
X1210915D01*
X1209746Y198706D02*
X1209996Y198456D01*
X1209746Y198706D02*
Y202769D01*
X1208779Y203736D02*
X1209746Y202769D01*
X1207662Y203736D02*
X1208779D01*
X1211833Y189706D02*
X1216333D01*
X1210199Y188072D02*
X1211833Y189706D01*
X1216434Y183057D02*
X1216533Y182957D01*
X1216434Y183057D02*
Y189306D01*
X1274533Y209254D02*
Y214163D01*
X1211034Y204656D02*
X1212784Y202906D01*
X1227384Y198896D02*
X1229494D01*
X1199785Y188988D02*
X1201616D01*
X1203333Y190706D01*
Y204606D01*
X1204533Y205806D01*
X1209883D01*
X1211034Y204656D01*
X1211098Y199754D02*
X1214034D01*
X1211034Y204656D02*
X1211098Y199754D01*
X1210171Y211484D02*
X1211034D01*
X1226933Y192991D02*
X1229494D01*
X1228357Y156094D02*
X1232784D01*
X1234033Y154844D01*
Y147806D02*
Y154844D01*
X1232784Y146556D02*
X1234033Y147806D01*
X1221533Y146556D02*
X1232784D01*
X1219983Y148106D02*
X1221533Y146556D01*
X1219983Y148106D02*
Y151456D01*
X1213836Y173209D02*
X1213939Y174609D01*
X1213836Y173209D02*
X1213939Y173106D01*
X1234196Y157506D02*
X1234233Y163206D01*
X1232784Y156094D02*
X1234196Y157506D01*
X1210199Y174609D02*
Y177506D01*
Y188072D01*
X1216434Y189306D02*
X1216813Y189686D01*
X1216972Y189845D01*
X1221533Y151045D02*
Y157506D01*
Y161258D01*
X1216333Y189706D02*
X1216813Y189686D01*
X1251534Y217006D02*
X1260599D01*
X1228633Y180986D02*
Y185117D01*
X1200479Y213452D02*
X1204033D01*
X1210171D01*
X1211034Y204656D02*
Y211484D01*
X1212333Y171706D02*
X1213836Y173209D01*
X1213939Y173312D01*
X1232784Y156094D02*
X1239133D01*
X1269633Y197406D02*
X1270134D01*
X1192134Y193606D02*
Y196851D01*
X1190384Y193606D02*
X1192134D01*
X1194934D01*
X1208546Y197256D02*
Y197837D01*
X1241133Y226661D02*
X1243534Y229062D01*
X1240518Y202046D02*
Y204190D01*
X1242021Y153206D02*
X1248584D01*
X1248601Y153224D01*
X1250980D01*
X1251507Y153751D01*
Y156080D01*
X1239933Y235951D02*
X1245089D01*
X1254533Y226506D01*
X1256959D01*
X1246423Y202046D02*
X1246776D01*
X1248534Y214259D02*
X1249158Y213635D01*
X1245868Y214259D02*
X1248534D01*
X1249158Y213635D02*
Y213635D01*
Y213635D02*
X1249660Y213133D01*
Y206225D02*
Y213133D01*
X1251534Y208258D02*
X1253285Y206506D01*
X1255231D02*
X1256534Y205203D01*
X1253285Y206506D02*
X1255231D01*
X1247000Y204717D02*
X1249401Y202316D01*
X1252764D01*
X1242360Y210752D02*
X1245868Y214259D01*
X1226774Y199506D02*
X1227384Y198896D01*
X1260599Y217006D02*
X1260699Y216906D01*
X1260599Y217006D02*
X1265034D01*
X1265439Y217412D01*
X1229733Y202906D02*
X1230233Y202406D01*
X1232644Y202046D02*
X1232734Y202135D01*
X1231913Y202046D02*
X1232644D01*
X1230624Y200756D02*
X1231913Y202046D01*
X1228843Y200756D02*
X1230624D01*
X1227584Y202016D02*
X1228843Y200756D01*
X1227584Y202016D02*
Y204456D01*
X1256747Y205138D02*
X1262533D01*
X1227584Y204456D02*
X1227633Y204506D01*
X1225916Y217389D02*
X1228416D01*
X1228833Y217806D01*
X1227734Y235951D02*
X1239933D01*
X1204333Y215606D02*
X1204434Y215706D01*
X1226383Y203256D02*
Y208856D01*
X1187934Y200906D02*
X1200479Y213452D01*
X1197534Y214506D02*
Y215306D01*
X1184534Y190306D02*
Y201206D01*
X1187234Y203906D01*
X1186934D02*
X1187234D01*
X1186934D02*
X1197534Y214506D01*
X1192165Y192796D02*
X1192554Y193186D01*
X1192134Y193606D02*
X1192554Y193186D01*
X1198734Y187006D02*
X1203034Y182706D01*
X1197709Y187528D02*
X1197709D01*
X1198231Y187006D01*
X1198734D01*
X1192165Y187720D02*
Y192796D01*
X1197459Y187277D02*
Y187277D01*
X1197709Y187528D01*
X1192165Y187720D02*
X1192692Y187193D01*
X1197375D01*
X1197459Y187277D01*
X1197459D01*
X1192195Y185993D02*
X1197047D01*
X1191192Y186996D02*
X1192195Y185993D01*
X1186692Y186996D02*
X1191192D01*
X1186165Y187523D02*
X1186692Y186996D01*
X1186165Y187523D02*
Y190306D01*
X1184534D02*
X1186165D01*
X1201733Y169706D02*
X1219983Y151456D01*
X1197047Y185993D02*
X1201733Y181306D01*
Y169706D02*
Y181306D01*
X1245133Y171206D02*
Y175406D01*
X1274803Y162806D02*
X1280634Y156976D01*
X1270634Y155406D02*
X1280534D01*
X1268633Y153406D02*
X1270634Y155406D01*
X1264534Y162806D02*
X1274803D01*
X1237134Y164006D02*
X1242076D01*
X1239734Y175806D02*
Y179106D01*
X1238433Y180406D02*
X1239734Y179106D01*
X1240434Y171706D02*
X1242334Y173606D01*
Y176406D01*
X1241533Y177206D02*
X1242334Y176406D01*
X1284515Y221088D02*
Y221268D01*
X1207633Y219456D02*
Y221984D01*
X1209033Y223384D01*
Y234370D01*
X1204333Y215606D02*
Y231638D01*
X1218034Y235951D02*
X1224533D01*
X1216124Y238156D02*
X1217383Y236897D01*
Y236601D02*
Y236897D01*
Y236601D02*
X1218034Y235951D01*
X1212643Y238156D02*
X1216124D01*
X1215234Y232606D02*
Y236006D01*
X1213033Y235247D02*
X1213083Y235197D01*
Y235116D02*
Y235197D01*
Y235116D02*
X1213123Y235076D01*
X1213033Y235247D02*
Y237806D01*
X1209033Y234370D02*
X1210670Y236006D01*
X1210872Y238176D02*
X1212831D01*
X1204333Y231638D02*
X1208519Y235824D01*
Y236897D01*
X1209779Y238156D01*
X1210852D01*
X1210872Y238176D01*
X1256959Y226506D02*
X1260820Y222645D01*
X1265439Y217412D02*
X1269092D01*
X1274316Y212188D01*
X1260820Y216747D02*
Y222645D01*
X1274533Y214163D02*
X1281705Y221335D01*
X1282633Y221304D01*
X1212784Y202906D02*
X1222188D01*
X1225434Y202306D02*
X1226383Y203256D01*
X1222802Y200825D02*
Y202292D01*
X1222188Y202906D02*
X1222802Y202292D01*
X1225161Y202306D02*
X1225434D01*
X1225033Y202106D02*
Y202179D01*
X1225161Y202306D01*
X1222802Y200825D02*
X1224120Y199506D01*
X1226774D01*
X1253983Y197088D02*
X1255492Y198598D01*
X1252644Y192991D02*
X1254360Y194706D01*
X1254533D01*
X1249573Y192991D02*
X1252644D01*
X1258333D01*
X1221982Y189845D02*
X1222134Y189996D01*
X1216972Y189845D02*
X1221982D01*
X1221432Y176016D02*
X1222661D01*
X1225865Y179220D01*
X1226904D01*
X1228738Y181054D01*
X1216533Y182855D02*
Y182957D01*
Y182855D02*
X1218618Y180771D01*
X1219516D01*
X1225519Y187085D02*
X1229494D01*
X1224014Y185581D02*
X1225519Y187085D01*
X1223560Y188259D02*
X1224355Y189053D01*
X1225921Y191103D02*
X1226003Y191022D01*
X1229494D01*
X1220533Y199754D02*
X1221982D01*
X1223948Y197789D01*
X1225452Y196927D02*
X1229494D01*
X1224590Y197789D02*
X1225452Y196927D01*
X1223948Y197789D02*
X1224590D01*
X1226540Y193384D02*
X1226933Y192991D01*
X1225032Y193384D02*
X1226540D01*
X1223363Y191716D02*
X1225032Y193384D01*
X1223363Y188368D02*
Y191716D01*
X1222134Y189996D02*
Y193384D01*
X1223814Y195064D01*
X1223961Y194959D02*
X1229494D01*
X1223599Y196544D02*
X1223961Y196182D01*
Y194959D02*
Y196182D01*
X1211282Y196689D02*
X1223652D01*
X925666Y196687D02*
X938036D01*
X938345Y194957D02*
Y196181D01*
X937983Y196543D02*
X938345Y196181D01*
Y194957D02*
X943878D01*
X936518Y193382D02*
X938198Y195062D01*
X936518Y189995D02*
Y193382D01*
X937747Y188366D02*
Y191714D01*
X939416Y193383D01*
X940924D01*
X941318Y192989D01*
X938332Y197787D02*
X938974D01*
X939836Y196926D01*
X943878D01*
X936366Y199753D02*
X938332Y197787D01*
X934918Y199753D02*
X936366D01*
X940387Y191021D02*
X943878D01*
X940306Y191102D02*
X940387Y191021D01*
X937945Y188257D02*
X938739Y189052D01*
X938398Y185579D02*
X939903Y187083D01*
X943878D01*
X933002Y180769D02*
X933901D01*
X930918Y182853D02*
X933002Y180769D01*
X930918Y182853D02*
Y182955D01*
X941288Y179218D02*
X943122Y181052D01*
X940249Y179218D02*
X941288D01*
X937045Y176014D02*
X940249Y179218D01*
X935816Y176014D02*
X937045D01*
X931356Y189843D02*
X936366D01*
X936518Y189995D01*
X967028Y192989D02*
X972718D01*
X963957D02*
X967028D01*
X968744Y194705D02*
X968918D01*
X967028Y192989D02*
X968744Y194705D01*
X968367Y197087D02*
X969876Y198596D01*
X938504Y199505D02*
X941158D01*
X937186Y200823D02*
X938504Y199505D01*
X939418Y202177D02*
X939545Y202305D01*
X939418Y202105D02*
Y202177D01*
X939545Y202305D02*
X939818D01*
X936572Y202905D02*
X937186Y202291D01*
Y200823D02*
Y202291D01*
X939818Y202305D02*
X940768Y203255D01*
X927168Y202905D02*
X936572D01*
X996089Y221333D02*
X997018Y221303D01*
X988918Y214161D02*
X996089Y221333D01*
X975204Y216746D02*
Y222644D01*
X983476Y217411D02*
X988700Y212187D01*
X979823Y217411D02*
X983476D01*
X971343Y226505D02*
X975204Y222644D01*
X925236Y238155D02*
X925256Y238175D01*
X924163Y238155D02*
X925236D01*
X922904Y236895D02*
X924163Y238155D01*
X922904Y235822D02*
Y236895D01*
X918718Y231636D02*
X922904Y235822D01*
X925256Y238175D02*
X927215D01*
X923418Y234369D02*
X925054Y236005D01*
X927418Y235245D02*
Y237805D01*
X927468Y235114D02*
X927507Y235075D01*
X927468Y235114D02*
Y235195D01*
X927418Y235245D02*
X927468Y235195D01*
X929618Y232605D02*
Y236005D01*
X927027Y238155D02*
X930508D01*
X931768Y236599D02*
X932418Y235949D01*
X931768Y236599D02*
Y236895D01*
X930508Y238155D02*
X931768Y236895D01*
X932418Y235949D02*
X938918D01*
X918718Y215605D02*
Y231636D01*
X923418Y223383D02*
Y234369D01*
X922018Y221983D02*
X923418Y223383D01*
X922018Y219454D02*
Y221983D01*
X998900Y221087D02*
Y221267D01*
X955918Y177205D02*
X956718Y176405D01*
Y173605D02*
Y176405D01*
X954818Y171705D02*
X956718Y173605D01*
X952818Y180405D02*
X954118Y179105D01*
Y175805D02*
Y179105D01*
X951518Y164005D02*
X956460D01*
X978918Y162805D02*
X989187D01*
X983018Y153405D02*
X985018Y155405D01*
X994918D01*
X989187Y162805D02*
X995018Y156974D01*
X959518Y171205D02*
Y175405D01*
X916118Y169705D02*
Y181305D01*
X911431Y185991D02*
X916118Y181305D01*
Y169705D02*
X934368Y151455D01*
X898918Y190305D02*
X900549D01*
Y187522D02*
Y190305D01*
Y187522D02*
X901076Y186995D01*
X905576D01*
X906579Y185991D01*
X911431D01*
X911843Y187276D02*
X911843D01*
X911759Y187191D02*
X911843Y187276D01*
X907076Y187191D02*
X911759D01*
X906549Y187719D02*
X907076Y187191D01*
X911843Y187276D02*
X912094Y187526D01*
X911843Y187276D02*
Y187276D01*
X906549Y187719D02*
Y192795D01*
X912615Y187004D02*
X913118D01*
X912094Y187526D02*
X912615Y187004D01*
X912094Y187526D02*
X912094D01*
X913118Y187004D02*
X917418Y182705D01*
X906518Y193605D02*
X906938Y193184D01*
X906549Y192795D02*
X906938Y193184D01*
X901318Y203905D02*
X911918Y214505D01*
X901318Y203905D02*
X901618D01*
X898918Y201205D02*
X901618Y203905D01*
X898918Y190305D02*
Y201205D01*
X911918Y214505D02*
Y215305D01*
X902318Y200905D02*
X914863Y213450D01*
X940768Y203255D02*
Y208855D01*
X918718Y215605D02*
X918818Y215705D01*
X942118Y235949D02*
X954318D01*
X942800Y217388D02*
X943218Y217805D01*
X940300Y217388D02*
X942800D01*
X941968Y204455D02*
X942018Y204505D01*
X971131Y205136D02*
X976918D01*
X941968Y202014D02*
Y204455D01*
Y202014D02*
X943227Y200755D01*
X945008D01*
X946297Y202044D01*
X947028D01*
X947118Y202134D01*
X944118Y202905D02*
X944618Y202405D01*
X979418Y217005D02*
X979823Y217411D01*
X974983Y217005D02*
X979418D01*
X974983D02*
X975083Y216905D01*
X941158Y199505D02*
X941768Y198895D01*
X956744Y210750D02*
X960252Y214258D01*
X963785Y202314D02*
X967148D01*
X961384Y204716D02*
X963785Y202314D01*
X967670Y206505D02*
X969615D01*
X970918Y205202D01*
X965918Y208257D02*
X967670Y206505D01*
X964044Y206224D02*
Y213131D01*
X963542Y213633D02*
X964044Y213131D01*
X963542Y213633D02*
Y213633D01*
X960252Y214258D02*
X962918D01*
X963542Y213633D01*
X960807Y202044D02*
X961160D01*
X968918Y226505D02*
X971343D01*
X959473Y235949D02*
X968918Y226505D01*
X954318Y235949D02*
X959473D01*
X965891Y153750D02*
Y156079D01*
X965364Y153223D02*
X965891Y153750D01*
X962986Y153223D02*
X965364D01*
X962968Y153205D02*
X962986Y153223D01*
X956405Y153205D02*
X962968D01*
X954902Y202044D02*
Y204189D01*
X955518Y226660D02*
X957918Y229060D01*
X922930Y197254D02*
Y197836D01*
X906518Y193605D02*
X909318D01*
X904768D02*
X906518D01*
Y196850D01*
X984018Y197405D02*
X984518D01*
X947168Y156092D02*
X953518D01*
X928220Y173207D02*
X928323Y173310D01*
X926718Y171705D02*
X928220Y173207D01*
X925418Y204655D02*
Y211482D01*
X918418Y213450D02*
X924555D01*
X914863D02*
X918418D01*
X943018Y180984D02*
Y185115D01*
X965918Y217005D02*
X974983D01*
X930718Y189705D02*
X931197Y189684D01*
X935918Y157505D02*
Y161257D01*
Y151043D02*
Y157505D01*
X931197Y189684D02*
X931356Y189843D01*
X930818Y189305D02*
X931197Y189684D01*
X924583Y177505D02*
Y188070D01*
Y174607D02*
Y177505D01*
X947168Y156092D02*
X948580Y157505D01*
X948618Y163205D01*
X928220Y173207D02*
X928323Y173105D01*
X928220Y173207D02*
X928323Y174607D01*
X934368Y148105D02*
Y151455D01*
Y148105D02*
X935918Y146555D01*
X947168D01*
X948418Y147805D01*
Y154842D01*
X947168Y156092D02*
X948418Y154842D01*
X942741Y156092D02*
X947168D01*
X941318Y192989D02*
X943878D01*
X924555Y211482D02*
X925418D01*
Y204655D02*
X925482Y199753D01*
X928418D01*
X924268Y205805D02*
X925418Y204655D01*
X918918Y205805D02*
X924268D01*
X917718Y204605D02*
X918918Y205805D01*
X917718Y190705D02*
Y204605D01*
X916000Y188987D02*
X917718Y190705D01*
X914169Y188987D02*
X916000D01*
X941768Y198895D02*
X943878D01*
X925418Y204655D02*
X927168Y202905D01*
X988918Y209253D02*
Y214161D01*
X930818Y183055D02*
Y189305D01*
Y183055D02*
X930918Y182955D01*
X924583Y188070D02*
X926218Y189705D01*
X930718D01*
X922046Y203734D02*
X923163D01*
X924130Y202767D01*
Y198705D02*
Y202767D01*
Y198705D02*
X924380Y198454D01*
X925299D01*
X925549Y198205D01*
Y196805D02*
Y198205D01*
Y196805D02*
X925666Y196687D01*
X942018Y235849D02*
X942118Y235949D01*
X942018Y232605D02*
X954318D01*
X942018Y221423D02*
Y232605D01*
X941918Y221323D02*
X942018Y221423D01*
X940300Y221323D02*
X941918D01*
X952933Y202044D02*
Y204621D01*
X944618Y202405D02*
Y203505D01*
X977918Y190005D02*
X981702Y189990D01*
X903418Y190060D02*
Y192255D01*
X904768Y193605D01*
X909318D02*
X909418Y193705D01*
Y196950D01*
X962068Y176005D02*
X964418D01*
X961818Y175755D02*
X962068Y176005D01*
X922118Y219354D02*
X924555D01*
X922018Y219454D02*
X922118Y219354D01*
X929618Y229357D02*
Y232605D01*
Y229357D02*
X929718Y229257D01*
X932418D01*
X975083Y214107D02*
Y216905D01*
X963957Y187083D02*
X965239D01*
X976318Y192505D02*
X982868D01*
X984118Y193755D01*
Y197305D01*
X984018Y197405D02*
X984118Y197305D01*
X977762Y197405D02*
X984018D01*
X975918Y176253D02*
X978018D01*
X978118Y176153D01*
Y173705D02*
Y176153D01*
Y173705D02*
X979318Y172505D01*
X983618D01*
X985318Y174205D01*
Y186374D01*
X981702Y189990D02*
X985318Y186374D01*
X922047Y197836D02*
X922930D01*
Y197254D02*
X924132D01*
X924282Y197105D01*
Y195672D02*
Y197105D01*
Y195672D02*
X924466Y195487D01*
X928185D01*
X928418Y195255D01*
Y193060D02*
Y195255D01*
X937168Y149793D02*
X942741D01*
X935918Y151043D02*
X937168Y149793D01*
X906518Y196850D02*
X906618Y196950D01*
X909418D01*
X984518Y197405D02*
X991118Y190805D01*
X938739Y189052D02*
X943878D01*
X960807Y181965D02*
Y182405D01*
X984018D02*
X984118Y182305D01*
Y177401D02*
Y182305D01*
X981699Y174983D02*
X984118Y177401D01*
X916518Y211550D02*
X918418Y213450D01*
X916518Y192039D02*
Y211550D01*
X916418Y191939D02*
X916518Y192039D01*
X914169Y191939D02*
X916418D01*
X925418Y193060D02*
X928418D01*
X924291Y191933D02*
X925418Y193060D01*
X922046Y191933D02*
X924291D01*
X949418Y167055D02*
Y169560D01*
Y167055D02*
X949518Y166955D01*
X964268D01*
X964418Y167105D01*
Y169312D01*
X935918Y167949D02*
X939007D01*
X940618Y169560D01*
X943418D01*
X920843Y171805D02*
Y174607D01*
Y171805D02*
X920943Y171705D01*
X926718D01*
X928323Y173310D02*
Y174607D01*
X920843Y183072D02*
Y185205D01*
X919918Y186130D02*
X920843Y185205D01*
X919918Y186130D02*
Y191833D01*
X920018Y191933D01*
X922046D01*
X950965Y179657D02*
Y181965D01*
X951818Y170473D02*
X954136Y168155D01*
X961878D01*
X958118Y165205D02*
X958218Y165305D01*
X958118Y156191D02*
Y165205D01*
Y156191D02*
X958218Y156091D01*
X962039D01*
X965918Y208257D02*
Y217005D01*
X920839Y194884D02*
X922048D01*
X919918Y195805D02*
X920839Y194884D01*
X919918Y195805D02*
Y203634D01*
X920018Y203734D01*
X922046D01*
X953518Y156092D02*
X956405Y153205D01*
X943018Y185115D02*
X943878D01*
X924483Y177605D02*
X924583Y177505D01*
X918763Y177605D02*
X924483D01*
X918663Y177505D02*
X918763Y177605D01*
X918663Y171684D02*
Y177505D01*
Y171684D02*
X922095Y168253D01*
X930418D01*
X938918Y235949D02*
X942118D01*
X927507Y224275D02*
Y235075D01*
X978718Y184987D02*
X981701D01*
X912903Y194890D02*
X914171D01*
X912018Y194005D02*
X912903Y194890D01*
X912018Y190357D02*
Y194005D01*
X911918Y190257D02*
X912018Y190357D01*
X909418Y190257D02*
X911918D01*
X970418Y173005D02*
Y176201D01*
Y173005D02*
X970518Y172905D01*
X975818D01*
X975918Y172805D01*
Y169560D02*
Y172805D01*
X935918Y161257D02*
Y163555D01*
X934668Y164805D02*
X935918Y163555D01*
X908418Y203741D02*
X914169D01*
X903418Y198740D02*
X908418Y203741D01*
X903418Y196753D02*
Y198740D01*
X943418Y176253D02*
Y177094D01*
X947028Y180705D01*
Y181965D01*
X935271Y213451D02*
X940300D01*
X971343Y211305D02*
Y214107D01*
Y211305D02*
X971443Y211205D01*
X978723D01*
X978823Y211305D01*
Y214107D01*
X928389Y193054D02*
X934889D01*
X968640Y222572D02*
X971343D01*
X968518Y222449D02*
X968640Y222572D01*
X958815Y222449D02*
X968518D01*
X938918Y227475D02*
Y229257D01*
X937347Y225905D02*
X938918Y227475D01*
X937347Y224275D02*
Y225905D01*
X978944Y169987D02*
X981708D01*
X978518Y169560D02*
X978944Y169987D01*
X975918Y169560D02*
X978518D01*
X963957Y191021D02*
X966418D01*
X948996Y179226D02*
Y181965D01*
Y179226D02*
X949418Y178805D01*
Y176253D02*
Y178805D01*
X954514Y235753D02*
X957918D01*
X954318Y235949D02*
X954514Y235753D01*
X958410Y215505D02*
Y222044D01*
X958815Y222449D01*
X956244Y208568D02*
X957776D01*
X934618Y221546D02*
X934872Y221800D01*
X935997D01*
X936870Y222674D01*
Y223798D01*
X937347Y224275D01*
X934618Y214105D02*
X935271Y213451D01*
X939823Y218878D02*
X940300Y219355D01*
X938698Y218878D02*
X939823D01*
X936768Y216948D02*
X938698Y218878D01*
X936768Y215737D02*
Y216948D01*
X943218Y217805D02*
Y225105D01*
X945118Y227005D01*
Y227805D01*
X949418Y227505D02*
X950718D01*
X944818Y224105D02*
X946618Y225905D01*
X947818D01*
X949418Y227505D01*
X940300Y213451D02*
X942664D01*
X940300Y215419D02*
X942632D01*
X944818Y217605D01*
Y224105D01*
X956244Y208568D02*
Y221303D01*
X955518Y222030D02*
X956244Y221303D01*
X955518Y222030D02*
Y226660D01*
X954270Y211812D02*
Y212957D01*
X955018Y213705D01*
Y220705D01*
X954318Y221405D02*
X955018Y220705D01*
X954318Y221405D02*
Y232605D01*
X942664Y213451D02*
X946018Y216805D01*
Y218153D01*
X948818Y220953D01*
X940768Y208855D02*
X946173Y214260D01*
X948818D01*
X942018Y204505D02*
Y208305D01*
X946118Y210805D02*
X953263D01*
X954270Y211812D01*
X958262Y204716D02*
X961384D01*
X945218Y209605D02*
X954218D01*
X954902Y204189D02*
X956018Y205305D01*
X952933Y204621D02*
X954118Y205805D01*
Y209605D01*
X942018Y208305D02*
X944518Y210805D01*
X946118D01*
X944561Y203449D02*
X944618Y203505D01*
X943561Y203748D02*
Y207948D01*
X945218Y209605D01*
X950933Y201744D02*
Y206020D01*
X948933Y201644D02*
Y204089D01*
X950933Y206020D02*
X951518Y206605D01*
X946318Y206705D02*
X948933Y204089D01*
X915218Y213455D02*
Y217605D01*
X930418Y164905D02*
Y168253D01*
Y164905D02*
X930518Y164805D01*
X934668D01*
X930418Y161505D02*
Y161560D01*
X926818Y161505D02*
X930418D01*
X917418Y170905D02*
X926818Y161505D01*
X917463Y179692D02*
X920843Y183072D01*
X917418Y170905D02*
Y179605D01*
Y179405D02*
Y182705D01*
X958218Y165305D02*
X965918D01*
X970418Y167705D02*
X970434D01*
X970418D02*
Y169509D01*
X962039Y162389D02*
X965834D01*
X966318Y161905D01*
X969718D01*
X970618Y162805D01*
Y169605D01*
X965891Y156079D02*
X972618Y162805D01*
X919618Y205755D02*
Y210005D01*
X961160Y202044D02*
X962918Y200287D01*
X977015Y181205D02*
X978215Y182405D01*
X984018D01*
X964618Y182505D02*
X976218D01*
X978718Y185005D01*
X960807Y182405D02*
X961618D01*
X962818Y181205D01*
X977015D01*
X963957Y183165D02*
X964618Y182505D01*
X963957Y183165D02*
Y185115D01*
X965239Y187083D02*
X966918Y185405D01*
Y184505D02*
Y185405D01*
Y184505D02*
X967718Y183705D01*
X975518D01*
X972018Y195453D02*
Y196405D01*
X964318Y197087D02*
X968367D01*
X966333Y191105D02*
X966418Y191021D01*
X966333Y191105D02*
X970218D01*
X972418Y188905D01*
X965057Y189021D02*
X967518D01*
X975518Y183705D02*
X976218Y184405D01*
Y192405D01*
X978823Y211305D02*
X980173D01*
X988918Y202560D01*
X962918Y200287D02*
X967200D01*
X968518Y201605D01*
Y205105D01*
X964044Y206224D02*
X965131Y205136D01*
X968318D01*
X972018Y196405D02*
X972918Y197305D01*
Y205136D01*
X963957Y198895D02*
X964149Y199087D01*
X967696D01*
X970715Y202105D01*
X970718D01*
X993918Y202205D02*
X994018Y202105D01*
X993918Y202205D02*
Y216105D01*
X998900Y221087D01*
X974662Y194505D02*
X980918D01*
X956870Y202044D02*
Y203324D01*
X958262Y204716D01*
X954902Y180520D02*
Y181465D01*
Y180520D02*
X955218Y180205D01*
X946018Y165805D02*
X948618Y163205D01*
X946018Y165805D02*
Y173105D01*
X928323D02*
X946018D01*
X951818Y170473D02*
Y178805D01*
X950965Y179657D02*
X951818Y178805D01*
X955218Y179605D02*
Y180205D01*
Y179605D02*
X955918Y178905D01*
Y177205D02*
Y178905D01*
X956870Y181965D02*
X957118Y181718D01*
X975018Y167005D02*
Y168305D01*
X972618Y164605D02*
X975018Y167005D01*
X972618Y162805D02*
Y164605D01*
X961878Y168155D02*
X962618Y168894D01*
Y172505D01*
X966002Y165389D02*
X968418D01*
Y172405D01*
X962618D02*
X968418D01*
X961818Y174605D02*
Y175755D01*
X958939Y179205D02*
X981718D01*
X958839Y179305D02*
X958939Y179205D01*
X958839Y179305D02*
Y181965D01*
X957118Y177805D02*
Y181718D01*
Y177805D02*
X959518Y175405D01*
X934618Y214438D02*
Y221546D01*
X928959Y215613D02*
X933111D01*
X934618Y214107D01*
Y214105D02*
Y214107D01*
X1077425Y214105D02*
Y214107D01*
X1075918Y215613D02*
X1077425Y214107D01*
X1071766Y215613D02*
X1075918D01*
X1077425Y214438D02*
Y221546D01*
X1099925Y177805D02*
X1102325Y175405D01*
X1099925Y177805D02*
Y181718D01*
X1101646Y179305D02*
Y181965D01*
Y179305D02*
X1101746Y179205D01*
X1124525D01*
X1104625Y174605D02*
Y175755D01*
X1105425Y172405D02*
X1111225D01*
Y165389D02*
Y172405D01*
X1108809Y165389D02*
X1111225D01*
X1105425Y168894D02*
Y172505D01*
X1104686Y168155D02*
X1105425Y168894D01*
X1115425Y162805D02*
Y164605D01*
X1117825Y167005D01*
Y168305D01*
X1099678Y181965D02*
X1099925Y181718D01*
X1098725Y177205D02*
Y178905D01*
X1098025Y179605D02*
X1098725Y178905D01*
X1098025Y179605D02*
Y180205D01*
X1093772Y179657D02*
X1094625Y178805D01*
Y170473D02*
Y178805D01*
X1071131Y173105D02*
X1088825D01*
Y165805D02*
Y173105D01*
Y165805D02*
X1091425Y163205D01*
X1097709Y180520D02*
X1098025Y180205D01*
X1097709Y180520D02*
Y181465D01*
X1099678Y203324D02*
X1101070Y204716D01*
X1099678Y202044D02*
Y203324D01*
X1117470Y194505D02*
X1123725D01*
X1136725Y216105D02*
X1141707Y221087D01*
X1136725Y202205D02*
Y216105D01*
Y202205D02*
X1136825Y202105D01*
X1113522D02*
X1113525D01*
X1110504Y199086D02*
X1113522Y202105D01*
X1106957Y199086D02*
X1110504D01*
X1106765Y198894D02*
X1106957Y199086D01*
X1115725Y197305D02*
Y205136D01*
X1114825Y196405D02*
X1115725Y197305D01*
X1107939Y205136D02*
X1111125D01*
X1106851Y206224D02*
X1107939Y205136D01*
X1111325Y201605D02*
Y205105D01*
X1110007Y200287D02*
X1111325Y201605D01*
X1105725Y200287D02*
X1110007D01*
X1122980Y211305D02*
X1131725Y202560D01*
X1121631Y211305D02*
X1122980D01*
X1119025Y184405D02*
Y192405D01*
X1118325Y183705D02*
X1119025Y184405D01*
X1107864Y189020D02*
X1110325D01*
X1113025Y191105D02*
X1115225Y188905D01*
X1109141Y191105D02*
X1113025D01*
X1109141D02*
X1109225Y191020D01*
X1107125Y197087D02*
X1111174D01*
X1114825Y195453D02*
Y196405D01*
X1110525Y183705D02*
X1118325D01*
X1109725Y184505D02*
X1110525Y183705D01*
X1109725Y184505D02*
Y185405D01*
X1108046Y187083D02*
X1109725Y185405D01*
X1106765Y183165D02*
Y185115D01*
Y183165D02*
X1107425Y182505D01*
X1105625Y181205D02*
X1119823D01*
X1104425Y182405D02*
X1105625Y181205D01*
X1103615Y182405D02*
X1104425D01*
X1119025Y182505D02*
X1121525Y185005D01*
X1107425Y182505D02*
X1119025D01*
X1121023Y182405D02*
X1126825D01*
X1119823Y181205D02*
X1121023Y182405D01*
X1103968Y202044D02*
X1105725Y200287D01*
X1062425Y205755D02*
Y210005D01*
X1108699Y156078D02*
X1115425Y162805D01*
X1113425D02*
Y169605D01*
X1112525Y161905D02*
X1113425Y162805D01*
X1109125Y161905D02*
X1112525D01*
X1108641Y162389D02*
X1109125Y161905D01*
X1104847Y162389D02*
X1108641D01*
X1113225Y167705D02*
Y169509D01*
Y167705D02*
X1113241D01*
X1101025Y165305D02*
X1108725D01*
X1060225Y179405D02*
Y182705D01*
Y170905D02*
Y179605D01*
X1060271Y179692D02*
X1063650Y183072D01*
X1060225Y170905D02*
X1069625Y161505D01*
X1073225D01*
Y161560D01*
X1073325Y164805D02*
X1077475D01*
X1073225Y164905D02*
X1073325Y164805D01*
X1073225Y164905D02*
Y168253D01*
X1058025Y213455D02*
Y217605D01*
X1089125Y206705D02*
X1091741Y204089D01*
X1093741Y206020D02*
X1094325Y206605D01*
X1091741Y201644D02*
Y204089D01*
X1093741Y201744D02*
Y206020D01*
X1086369Y207948D02*
X1088025Y209605D01*
X1086369Y203748D02*
Y207948D01*
X1087369Y203448D02*
X1087425Y203505D01*
X1087325Y210805D02*
X1088925D01*
X1084825Y208305D02*
X1087325Y210805D01*
X1096925Y205805D02*
Y209605D01*
X1095741Y204620D02*
X1096925Y205805D01*
X1097709Y204189D02*
X1098825Y205305D01*
X1088025Y209605D02*
X1097025D01*
X1101070Y204716D02*
X1104191D01*
X1096070Y210805D02*
X1097077Y211811D01*
X1088925Y210805D02*
X1096070D01*
X1084825Y204505D02*
Y208305D01*
X1088980Y214260D02*
X1091625D01*
X1083575Y208855D02*
X1088980Y214260D01*
X1088825Y218153D02*
X1091625Y220953D01*
X1088825Y216805D02*
Y218153D01*
X1085472Y213451D02*
X1088825Y216805D01*
X1097125Y221405D02*
Y232605D01*
Y221405D02*
X1097825Y220705D01*
Y213705D02*
Y220705D01*
X1097077Y212957D02*
X1097825Y213705D01*
X1097077Y211811D02*
Y212957D01*
X1098325Y222029D02*
Y226660D01*
Y222029D02*
X1099052Y221303D01*
Y208568D02*
Y221303D01*
X1087625Y217605D02*
Y224105D01*
X1085439Y215419D02*
X1087625Y217605D01*
X1083107Y215419D02*
X1085439D01*
X1083107Y213451D02*
X1085472D01*
X1090625Y225905D02*
X1092225Y227505D01*
X1089425Y225905D02*
X1090625D01*
X1087625Y224105D02*
X1089425Y225905D01*
X1092225Y227505D02*
X1093525D01*
X1087925Y227005D02*
Y227805D01*
X1086025Y225105D02*
X1087925Y227005D01*
X1086025Y217805D02*
Y225105D01*
X1079575Y215737D02*
Y216947D01*
X1081506Y218878D01*
X1082631D01*
X1083107Y219355D01*
X1077425Y214105D02*
X1078079Y213451D01*
X1079677Y223798D02*
X1080155Y224275D01*
X1079677Y222674D02*
Y223798D01*
X1078804Y221800D02*
X1079677Y222674D01*
X1077680Y221800D02*
X1078804D01*
X1077425Y221546D02*
X1077680Y221800D01*
X1099052Y208568D02*
X1100583D01*
X1101217Y222044D02*
X1101623Y222449D01*
X1101217Y215505D02*
Y222044D01*
X1097125Y235949D02*
X1097322Y235753D01*
X1100725D01*
X1092225Y176253D02*
Y178805D01*
X1091804Y179226D02*
X1092225Y178805D01*
X1091804Y179226D02*
Y181965D01*
X1106765Y191020D02*
X1109225D01*
X1118725Y169560D02*
X1121325D01*
X1121752Y169987D01*
X1124515D01*
X1080155Y224275D02*
Y225905D01*
X1081725Y227475D01*
Y229257D01*
X1101623Y222449D02*
X1111325D01*
X1111447Y222572D01*
X1114150D01*
X1071197Y193054D02*
X1077697D01*
X1121631Y211305D02*
Y214107D01*
X1121531Y211205D02*
X1121631Y211305D01*
X1114250Y211205D02*
X1121531D01*
X1114150Y211305D02*
X1114250Y211205D01*
X1114150Y211305D02*
Y214107D01*
X1078079Y213451D02*
X1083107D01*
X1089835Y180705D02*
Y181965D01*
X1086225Y177094D02*
X1089835Y180705D01*
X1086225Y176253D02*
Y177094D01*
X1046225Y196753D02*
Y198740D01*
X1051225Y203740D01*
X1056976D01*
X1077475Y164805D02*
X1078725Y163555D01*
Y161257D02*
Y163555D01*
X1118725Y169560D02*
Y172805D01*
X1118625Y172905D02*
X1118725Y172805D01*
X1113325Y172905D02*
X1118625D01*
X1113225Y173005D02*
X1113325Y172905D01*
X1113225Y173005D02*
Y176201D01*
X1052225Y190257D02*
X1054725D01*
X1054825Y190357D01*
Y194005D01*
X1055710Y194890D01*
X1056978D01*
X1121525Y184987D02*
X1124509D01*
X1070315Y224275D02*
Y235075D01*
X1081725Y235949D02*
X1084925D01*
X1064902Y168253D02*
X1073225D01*
X1061471Y171684D02*
X1064902Y168253D01*
X1061471Y171684D02*
Y177505D01*
X1061571Y177605D01*
X1067290D01*
X1067391Y177505D01*
X1085825Y185115D02*
X1086686D01*
X1096325Y156092D02*
X1099212Y153205D01*
X1062825Y203734D02*
X1064854D01*
X1062725Y203634D02*
X1062825Y203734D01*
X1062725Y195805D02*
Y203634D01*
Y195805D02*
X1063646Y194884D01*
X1064856D01*
X1108725Y208257D02*
Y217005D01*
X1101025Y156091D02*
X1104846D01*
X1100925Y156191D02*
X1101025Y156091D01*
X1100925Y156191D02*
Y165205D01*
X1101025Y165305D01*
X1096944Y168155D02*
X1104686D01*
X1094625Y170473D02*
X1096944Y168155D01*
X1093772Y179657D02*
Y181965D01*
X1062825Y191933D02*
X1064853D01*
X1062725Y191833D02*
X1062825Y191933D01*
X1062725Y186130D02*
Y191833D01*
Y186130D02*
X1063650Y185205D01*
Y183072D02*
Y185205D01*
X1071131Y173310D02*
Y174607D01*
X1063750Y171705D02*
X1069525D01*
X1063650Y171805D02*
X1063750Y171705D01*
X1063650Y171805D02*
Y174607D01*
X1083425Y169560D02*
X1086225D01*
X1081815Y167949D02*
X1083425Y169560D01*
X1078725Y167949D02*
X1081815D01*
X1107225Y167105D02*
Y169312D01*
X1107075Y166955D02*
X1107225Y167105D01*
X1092325Y166955D02*
X1107075D01*
X1092225Y167055D02*
X1092325Y166955D01*
X1092225Y167055D02*
Y169560D01*
X1064853Y191933D02*
X1067098D01*
X1068225Y193060D01*
X1071225D01*
X1056976Y191939D02*
X1059225D01*
X1059325Y192039D01*
Y211550D01*
X1061225Y213450D01*
X1124506Y174983D02*
X1126925Y177401D01*
Y182305D01*
X1126825Y182405D02*
X1126925Y182305D01*
X1103615Y181965D02*
Y182405D01*
X1081547Y189052D02*
X1086686D01*
X1127325Y197405D02*
X1133925Y190805D01*
X1049425Y196949D02*
X1052225D01*
X1049325Y196849D02*
X1049425Y196949D01*
X1078725Y151043D02*
X1079975Y149793D01*
X1085548D01*
X1071225Y193060D02*
Y195255D01*
X1070992Y195487D02*
X1071225Y195255D01*
X1067274Y195487D02*
X1070992D01*
X1067089Y195672D02*
X1067274Y195487D01*
X1067089Y195672D02*
Y197105D01*
X1066940Y197254D02*
X1067089Y197105D01*
X1065737Y197254D02*
X1066940D01*
X1064854Y197836D02*
X1065737D01*
X1124510Y189990D02*
X1128125Y186374D01*
Y174205D02*
Y186374D01*
X1126425Y172505D02*
X1128125Y174205D01*
X1122125Y172505D02*
X1126425D01*
X1120925Y173705D02*
X1122125Y172505D01*
X1120925Y173705D02*
Y176153D01*
X1120825Y176253D02*
X1120925Y176153D01*
X1118725Y176253D02*
X1120825D01*
X1120570Y197405D02*
X1126825D01*
X1126925Y197305D01*
Y193755D02*
Y197305D01*
X1125675Y192505D02*
X1126925Y193755D01*
X1119125Y192505D02*
X1125675D01*
X1106765Y187083D02*
X1108046D01*
X1117890Y214107D02*
Y216905D01*
X1072525Y229257D02*
X1075225D01*
X1072425Y229357D02*
X1072525Y229257D01*
X1072425Y229357D02*
Y232605D01*
X1064825Y219454D02*
X1064925Y219354D01*
X1067362D01*
X1104625Y175755D02*
X1104875Y176005D01*
X1107225D01*
X1052225Y193705D02*
Y196949D01*
X1052125Y193605D02*
X1052225Y193705D01*
X1046225Y192255D02*
X1047575Y193605D01*
X1046225Y190060D02*
Y192255D01*
X1120725Y190005D02*
X1124510Y189990D01*
X1087425Y202405D02*
Y203505D01*
X1095741Y202044D02*
Y204620D01*
X1083107Y221323D02*
X1084725D01*
X1084825Y221423D01*
Y232605D01*
X1097125D01*
X1084825Y235849D02*
X1084925Y235949D01*
X1068357Y196805D02*
X1068474Y196687D01*
X1068357Y196805D02*
Y198205D01*
X1068107Y198454D02*
X1068357Y198205D01*
X1067188Y198454D02*
X1068107D01*
X1066937Y198705D02*
X1067188Y198454D01*
X1066937Y198705D02*
Y202767D01*
X1065971Y203734D02*
X1066937Y202767D01*
X1064854Y203734D02*
X1065971D01*
X1069025Y189705D02*
X1073525D01*
X1067391Y188070D02*
X1069025Y189705D01*
X1073625Y183055D02*
X1073725Y182955D01*
X1073625Y183055D02*
Y189305D01*
X1131725Y209253D02*
Y214161D01*
X1068225Y204655D02*
X1069975Y202905D01*
X1084576Y198894D02*
X1086686D01*
X1056977Y188987D02*
X1058807D01*
X1060525Y190705D01*
Y204605D01*
X1061725Y205805D01*
X1067075D01*
X1068225Y204655D01*
X1068289Y199753D02*
X1071225D01*
X1068225Y204655D02*
X1068289Y199753D01*
X1067362Y211482D02*
X1068225D01*
X1084125Y192989D02*
X1086686D01*
X1085549Y156092D02*
X1089975D01*
X1091225Y154842D01*
Y147805D02*
Y154842D01*
X1089975Y146555D02*
X1091225Y147805D01*
X1078725Y146555D02*
X1089975D01*
X1077175Y148105D02*
X1078725Y146555D01*
X1077175Y148105D02*
Y151455D01*
X1071028Y173207D02*
X1071131Y174607D01*
X1071028Y173207D02*
X1071131Y173105D01*
X1091388Y157505D02*
X1091425Y163205D01*
X1089975Y156092D02*
X1091388Y157505D01*
X1067391Y174607D02*
Y177505D01*
Y188070D01*
X1073625Y189305D02*
X1074004Y189684D01*
X1074164Y189843D01*
X1078725Y151043D02*
Y157505D01*
Y161257D01*
X1073525Y189705D02*
X1074004Y189684D01*
X1108725Y217005D02*
X1117791D01*
X1085825Y180984D02*
Y185115D01*
X1057671Y213450D02*
X1061225D01*
X1067362D01*
X1068225Y204655D02*
Y211482D01*
X1069525Y171705D02*
X1071028Y173207D01*
X1071131Y173310D01*
X1089975Y156092D02*
X1096325D01*
X1126825Y197405D02*
X1127325D01*
X1049325Y193605D02*
Y196849D01*
X1047575Y193605D02*
X1049325D01*
X1052125D01*
X1065737Y197254D02*
Y197836D01*
X1098325Y226660D02*
X1100725Y229060D01*
X1097709Y202044D02*
Y204189D01*
X1099212Y153205D02*
X1105775D01*
X1105793Y153223D01*
X1108172D01*
X1108699Y153750D01*
Y156078D01*
X1097125Y235949D02*
X1102280D01*
X1111725Y226505D01*
X1114151D01*
X1103615Y202044D02*
X1103968D01*
X1105725Y214257D02*
X1106349Y213633D01*
X1103059Y214257D02*
X1105725D01*
X1106349Y213633D02*
Y213633D01*
Y213633D02*
X1106851Y213131D01*
Y206224D02*
Y213131D01*
X1108725Y208257D02*
X1110477Y206505D01*
X1112422D02*
X1113725Y205202D01*
X1110477Y206505D02*
X1112422D01*
X1104191Y204716D02*
X1106593Y202314D01*
X1109956D01*
X1099552Y210750D02*
X1103059Y214257D01*
X1083966Y199505D02*
X1084576Y198894D01*
X1117791Y217005D02*
X1117890Y216905D01*
X1117791Y217005D02*
X1122225D01*
X1122631Y217410D01*
X1086925Y202905D02*
X1087425Y202405D01*
X1089835Y202044D02*
X1089925Y202134D01*
X1089105Y202044D02*
X1089835D01*
X1087816Y200755D02*
X1089105Y202044D01*
X1086034Y200755D02*
X1087816D01*
X1084775Y202014D02*
X1086034Y200755D01*
X1084775Y202014D02*
Y204455D01*
X1113939Y205136D02*
X1119725D01*
X1084775Y204455D02*
X1084825Y204505D01*
X1083107Y217387D02*
X1085608D01*
X1086025Y217805D01*
X1084925Y235949D02*
X1097125D01*
X1061525Y215605D02*
X1061625Y215705D01*
X1083575Y203255D02*
Y208855D01*
X1045125Y200905D02*
X1057671Y213450D01*
X1054725Y214505D02*
Y215305D01*
X1041725Y190305D02*
Y201205D01*
X1044425Y203905D01*
X1044125D02*
X1044425D01*
X1044125D02*
X1054725Y214505D01*
X1049357Y192795D02*
X1049746Y193184D01*
X1049325Y193605D02*
X1049746Y193184D01*
X1055926Y187004D02*
X1060225Y182705D01*
X1054901Y187526D02*
X1054901D01*
X1055423Y187004D01*
X1055926D01*
X1049357Y187718D02*
Y192795D01*
X1054651Y187276D02*
Y187276D01*
X1054901Y187526D01*
X1049357Y187718D02*
X1049884Y187191D01*
X1054566D01*
X1054651Y187276D01*
X1054651D01*
X1049387Y185991D02*
X1054239D01*
X1048384Y186994D02*
X1049387Y185991D01*
X1043884Y186994D02*
X1048384D01*
X1043357Y187522D02*
X1043884Y186994D01*
X1043357Y187522D02*
Y190305D01*
X1041725D02*
X1043357D01*
X1058925Y169705D02*
X1077175Y151455D01*
X1054239Y185991D02*
X1058925Y181305D01*
Y169705D02*
Y181305D01*
X1102325Y171205D02*
Y175405D01*
X1131995Y162805D02*
X1137825Y156974D01*
X1127825Y155405D02*
X1137725D01*
X1125825Y153405D02*
X1127825Y155405D01*
X1121725Y162805D02*
X1131995D01*
X1094325Y164005D02*
X1099267D01*
X1096925Y175805D02*
Y179105D01*
X1095625Y180405D02*
X1096925Y179105D01*
X1097625Y171705D02*
X1099525Y173605D01*
Y176405D01*
X1098725Y177205D02*
X1099525Y176405D01*
X1141707Y221087D02*
Y221267D01*
X1064825Y219454D02*
Y221982D01*
X1066225Y223382D01*
Y234368D01*
X1061525Y215605D02*
Y231636D01*
X1075225Y235949D02*
X1081725D01*
X1073316Y238155D02*
X1074575Y236895D01*
Y236599D02*
Y236895D01*
Y236599D02*
X1075225Y235949D01*
X1069835Y238155D02*
X1073316D01*
X1072425Y232605D02*
Y236005D01*
X1070225Y235245D02*
X1070275Y235195D01*
Y235114D02*
Y235195D01*
Y235114D02*
X1070315Y235075D01*
X1070225Y235245D02*
Y237805D01*
X1066225Y234368D02*
X1067861Y236005D01*
X1068064Y238175D02*
X1070023D01*
X1061525Y231636D02*
X1065711Y235822D01*
Y236895D01*
X1066971Y238155D01*
X1068044D01*
X1068064Y238175D01*
X1114151Y226505D02*
X1118011Y222644D01*
X1122631Y217410D02*
X1126283D01*
X1131507Y212187D01*
X1118011Y216746D02*
Y222644D01*
X1131725Y214161D02*
X1138897Y221333D01*
X1139825Y221303D01*
X1069975Y202905D02*
X1079380D01*
X1082625Y202305D02*
X1083575Y203255D01*
X1079994Y200823D02*
Y202291D01*
X1079380Y202905D02*
X1079994Y202291D01*
X1082353Y202305D02*
X1082625D01*
X1082225Y202105D02*
Y202177D01*
X1082353Y202305D01*
X1079994Y200823D02*
X1081312Y199505D01*
X1083966D01*
X1111174Y197087D02*
X1112684Y198596D01*
X1109835Y192989D02*
X1111551Y194705D01*
X1111725D01*
X1106765Y192989D02*
X1109835D01*
X1115525D01*
X1079174Y189843D02*
X1079325Y189995D01*
X1074164Y189843D02*
X1079174D01*
X1078623Y176014D02*
X1079853D01*
X1083057Y179218D01*
X1084095D01*
X1085930Y181052D01*
X1073725Y182853D02*
Y182955D01*
Y182853D02*
X1075809Y180769D01*
X1076708D01*
X1082711Y187083D02*
X1086686D01*
X1081206Y185579D02*
X1082711Y187083D01*
X1080752Y188257D02*
X1081547Y189052D01*
X1083113Y191102D02*
X1083194Y191020D01*
X1086686D01*
X1077725Y199753D02*
X1079174D01*
X1081139Y197787D01*
X1082643Y196926D02*
X1086686D01*
X1081782Y197787D02*
X1082643Y196926D01*
X1081139Y197787D02*
X1081782D01*
X1083731Y193383D02*
X1084125Y192989D01*
X1082223Y193383D02*
X1083731D01*
X1080554Y191714D02*
X1082223Y193383D01*
X1080554Y188366D02*
Y191714D01*
X1079325Y189995D02*
Y193382D01*
X1081005Y195062D01*
X1081153Y194957D02*
X1086686D01*
X1080791Y196543D02*
X1081153Y196181D01*
Y194957D02*
Y196181D01*
X1068474Y196687D02*
X1080843D01*
X782864Y196683D02*
X795234D01*
X795543Y194953D02*
Y196176D01*
X795181Y196538D02*
X795543Y196176D01*
Y194953D02*
X801076D01*
X793716Y193377D02*
X795396Y195057D01*
X793716Y189990D02*
Y193377D01*
X794945Y188362D02*
Y191709D01*
X796614Y193378D01*
X798122D01*
X798516Y192984D01*
X795530Y197783D02*
X796172D01*
X797034Y196921D01*
X801076D01*
X793564Y199748D02*
X795530Y197783D01*
X792116Y199748D02*
X793564D01*
X797585Y191016D02*
X801076D01*
X797504Y191097D02*
X797585Y191016D01*
X795143Y188253D02*
X795937Y189047D01*
X795597Y185574D02*
X797101Y187079D01*
X801076D01*
X790200Y180764D02*
X791098D01*
X788116Y182849D02*
X790200Y180764D01*
X788116Y182849D02*
Y182951D01*
X798486Y179214D02*
X800320Y181048D01*
X797447Y179214D02*
X798486D01*
X794243Y176010D02*
X797447Y179214D01*
X793014Y176010D02*
X794243D01*
X788554Y189839D02*
X793564D01*
X793716Y189990D01*
X824226Y192984D02*
X829916D01*
X821155D02*
X824226D01*
X825942Y194700D02*
X826116D01*
X824226Y192984D02*
X825942Y194700D01*
X825565Y197082D02*
X827074Y198592D01*
X795702Y199500D02*
X798356D01*
X794384Y200819D02*
X795702Y199500D01*
X796616Y202173D02*
X796743Y202300D01*
X796616Y202100D02*
Y202173D01*
X796743Y202300D02*
X797016D01*
X793770Y202900D02*
X794384Y202286D01*
Y200819D02*
Y202286D01*
X797016Y202300D02*
X797966Y203250D01*
X784366Y202900D02*
X793770D01*
X853287Y221328D02*
X854216Y221298D01*
X846116Y214157D02*
X853287Y221328D01*
X832402Y216741D02*
Y222639D01*
X840674Y217406D02*
X845898Y212182D01*
X837022Y217406D02*
X840674D01*
X828541Y226500D02*
X832402Y222639D01*
X782434Y238150D02*
X782454Y238170D01*
X781361Y238150D02*
X782434D01*
X780102Y236891D02*
X781361Y238150D01*
X780102Y235818D02*
Y236891D01*
X775916Y231632D02*
X780102Y235818D01*
X782454Y238170D02*
X784413D01*
X780616Y234364D02*
X782252Y236000D01*
X784616Y235241D02*
Y237800D01*
X784666Y235110D02*
X784705Y235070D01*
X784666Y235110D02*
Y235191D01*
X784616Y235241D02*
X784666Y235191D01*
X786816Y232600D02*
Y236000D01*
X784225Y238150D02*
X787706D01*
X788966Y236595D02*
X789616Y235945D01*
X788966Y236595D02*
Y236891D01*
X787706Y238150D02*
X788966Y236891D01*
X789616Y235945D02*
X796116D01*
X775916Y215600D02*
Y231632D01*
X780616Y223378D02*
Y234364D01*
X779216Y221978D02*
X780616Y223378D01*
X779216Y219450D02*
Y221978D01*
X856098Y221082D02*
Y221262D01*
X813116Y177200D02*
X813916Y176400D01*
Y173600D02*
Y176400D01*
X812016Y171700D02*
X813916Y173600D01*
X810016Y180400D02*
X811316Y179100D01*
Y175800D02*
Y179100D01*
X808716Y164000D02*
X813658D01*
X836116Y162800D02*
X846385D01*
X840216Y153400D02*
X842216Y155400D01*
X852116D01*
X846385Y162800D02*
X852216Y156970D01*
X816716Y171200D02*
Y175400D01*
X773316Y169700D02*
Y181300D01*
X768629Y185987D02*
X773316Y181300D01*
Y169700D02*
X791566Y151450D01*
X756116Y190300D02*
X757747D01*
Y187517D02*
Y190300D01*
Y187517D02*
X758274Y186990D01*
X762774D01*
X763777Y185987D01*
X768629D01*
X769041Y187271D02*
X769041D01*
X768957Y187187D02*
X769041Y187271D01*
X764274Y187187D02*
X768957D01*
X763747Y187714D02*
X764274Y187187D01*
X769041Y187271D02*
X769292Y187522D01*
X769041Y187271D02*
Y187271D01*
X763747Y187714D02*
Y192790D01*
X769813Y187000D02*
X770316D01*
X769292Y187522D02*
X769813Y187000D01*
X769292Y187522D02*
X769292D01*
X770316Y187000D02*
X774616Y182700D01*
X763716Y193600D02*
X764136Y193180D01*
X763747Y192790D02*
X764136Y193180D01*
X758516Y203900D02*
X769116Y214500D01*
X758516Y203900D02*
X758816D01*
X756116Y201200D02*
X758816Y203900D01*
X756116Y190300D02*
Y201200D01*
X769116Y214500D02*
Y215300D01*
X759516Y200900D02*
X772061Y213446D01*
X797966Y203250D02*
Y208850D01*
X775916Y215600D02*
X776016Y215700D01*
X799316Y235945D02*
X811516D01*
X799998Y217383D02*
X800416Y217800D01*
X797498Y217383D02*
X799998D01*
X799166Y204450D02*
X799216Y204500D01*
X828329Y205132D02*
X834116D01*
X799166Y202010D02*
Y204450D01*
Y202010D02*
X800425Y200750D01*
X802206D01*
X803496Y202040D01*
X804226D01*
X804316Y202129D01*
X801316Y202900D02*
X801816Y202400D01*
X836616Y217000D02*
X837022Y217406D01*
X832181Y217000D02*
X836616D01*
X832181D02*
X832281Y216900D01*
X798356Y199500D02*
X798966Y198890D01*
X813942Y210746D02*
X817450Y214253D01*
X820983Y202310D02*
X824347D01*
X818582Y204711D02*
X820983Y202310D01*
X824868Y206500D02*
X826813D01*
X828116Y205197D01*
X823116Y208252D02*
X824868Y206500D01*
X821242Y206219D02*
Y213127D01*
X820740Y213629D02*
X821242Y213127D01*
X820740Y213629D02*
Y213629D01*
X817450Y214253D02*
X820116D01*
X820740Y213629D01*
X818005Y202040D02*
X818358D01*
X826116Y226500D02*
X828541D01*
X816671Y235945D02*
X826116Y226500D01*
X811516Y235945D02*
X816671D01*
X823089Y153745D02*
Y156074D01*
X822562Y153218D02*
X823089Y153745D01*
X820183Y153218D02*
X822562D01*
X820166Y153200D02*
X820183Y153218D01*
X813603Y153200D02*
X820166D01*
X812100Y202040D02*
Y204184D01*
X812716Y226655D02*
X815116Y229055D01*
X780128Y197250D02*
Y197831D01*
X763716Y193600D02*
X766516D01*
X761966D02*
X763716D01*
Y196845D01*
X841216Y197400D02*
X841716D01*
X804366Y156088D02*
X810716D01*
X785418Y173203D02*
X785521Y173306D01*
X783916Y171700D02*
X785418Y173203D01*
X782616Y204650D02*
Y211478D01*
X775616Y213446D02*
X781753D01*
X772061D02*
X775616D01*
X800216Y180980D02*
Y185110D01*
X823116Y217000D02*
X832181D01*
X787916Y189700D02*
X788395Y189680D01*
X793116Y157500D02*
Y161252D01*
Y151039D02*
Y157500D01*
X788395Y189680D02*
X788554Y189839D01*
X788016Y189300D02*
X788395Y189680D01*
X781781Y177500D02*
Y188066D01*
Y174603D02*
Y177500D01*
X804366Y156088D02*
X805778Y157500D01*
X805816Y163200D01*
X785418Y173203D02*
X785521Y173100D01*
X785418Y173203D02*
X785521Y174603D01*
X791566Y148100D02*
Y151450D01*
Y148100D02*
X793116Y146550D01*
X804366D01*
X805616Y147800D01*
Y154838D01*
X804366Y156088D02*
X805616Y154838D01*
X799939Y156088D02*
X804366D01*
X798516Y192984D02*
X801076D01*
X781753Y211478D02*
X782616D01*
Y204650D02*
X782680Y199748D01*
X785616D01*
X781466Y205800D02*
X782616Y204650D01*
X776116Y205800D02*
X781466D01*
X774916Y204600D02*
X776116Y205800D01*
X774916Y190700D02*
Y204600D01*
X773198Y188982D02*
X774916Y190700D01*
X771367Y188982D02*
X773198D01*
X798966Y198890D02*
X801076D01*
X782616Y204650D02*
X784366Y202900D01*
X846116Y209248D02*
Y214157D01*
X788016Y183051D02*
Y189300D01*
Y183051D02*
X788116Y182951D01*
X781781Y188066D02*
X783416Y189700D01*
X787916D01*
X779244Y203730D02*
X780361D01*
X781328Y202763D01*
Y198700D02*
Y202763D01*
Y198700D02*
X781578Y198450D01*
X782497D01*
X782747Y198200D01*
Y196800D02*
Y198200D01*
Y196800D02*
X782864Y196683D01*
X799216Y235845D02*
X799316Y235945D01*
X799216Y232600D02*
X811516D01*
X799216Y221419D02*
Y232600D01*
X799116Y221319D02*
X799216Y221419D01*
X797498Y221319D02*
X799116D01*
X810131Y202040D02*
Y204616D01*
X801816Y202400D02*
Y203500D01*
X835116Y190000D02*
X838900Y189985D01*
X760616Y190055D02*
Y192250D01*
X761966Y193600D01*
X766516D02*
X766616Y193700D01*
Y196945D01*
X819266Y176000D02*
X821616D01*
X819016Y175750D02*
X819266Y176000D01*
X779316Y219350D02*
X781753D01*
X779216Y219450D02*
X779316Y219350D01*
X786816Y229352D02*
Y232600D01*
Y229352D02*
X786916Y229252D01*
X789616D01*
X832281Y214103D02*
Y216900D01*
X821155Y187079D02*
X822437D01*
X833516Y192500D02*
X840066D01*
X841316Y193750D01*
Y197300D01*
X841216Y197400D02*
X841316Y197300D01*
X834960Y197400D02*
X841216D01*
X833116Y176248D02*
X835216D01*
X835316Y176148D01*
Y173700D02*
Y176148D01*
Y173700D02*
X836516Y172500D01*
X840816D01*
X842516Y174200D01*
Y186370D01*
X838900Y189985D02*
X842516Y186370D01*
X779245Y197831D02*
X780128D01*
Y197250D02*
X781330D01*
X781480Y197100D01*
Y195667D02*
Y197100D01*
Y195667D02*
X781664Y195483D01*
X785383D01*
X785616Y195250D01*
Y193055D02*
Y195250D01*
X794366Y149789D02*
X799939D01*
X793116Y151039D02*
X794366Y149789D01*
X763716Y196845D02*
X763816Y196945D01*
X766616D01*
X841716Y197400D02*
X848316Y190800D01*
X795937Y189047D02*
X801076D01*
X818005Y181961D02*
Y182400D01*
X841216D02*
X841316Y182300D01*
Y177397D02*
Y182300D01*
X838897Y174978D02*
X841316Y177397D01*
X773716Y211546D02*
X775616Y213446D01*
X773716Y192035D02*
Y211546D01*
X773616Y191935D02*
X773716Y192035D01*
X771367Y191935D02*
X773616D01*
X782616Y193055D02*
X785616D01*
X781489Y191929D02*
X782616Y193055D01*
X779244Y191929D02*
X781489D01*
X806616Y167050D02*
Y169555D01*
Y167050D02*
X806716Y166950D01*
X821466D01*
X821616Y167100D01*
Y169307D01*
X793116Y167945D02*
X796205D01*
X797816Y169555D01*
X800616D01*
X778041Y171800D02*
Y174603D01*
Y171800D02*
X778141Y171700D01*
X783916D01*
X785521Y173306D02*
Y174603D01*
X778041Y183067D02*
Y185200D01*
X777116Y186125D02*
X778041Y185200D01*
X777116Y186125D02*
Y191829D01*
X777216Y191929D01*
X779244D01*
X808163Y179653D02*
Y181961D01*
X809016Y170469D02*
X811334Y168150D01*
X819077D01*
X815316Y165200D02*
X815416Y165300D01*
X815316Y156187D02*
Y165200D01*
Y156187D02*
X815416Y156087D01*
X819237D01*
X823116Y208252D02*
Y217000D01*
X778037Y194879D02*
X779246D01*
X777116Y195800D02*
X778037Y194879D01*
X777116Y195800D02*
Y203630D01*
X777216Y203730D01*
X779244D01*
X810716Y156088D02*
X813603Y153200D01*
X800216Y185110D02*
X801076D01*
X781681Y177600D02*
X781781Y177500D01*
X775961Y177600D02*
X781681D01*
X775861Y177500D02*
X775961Y177600D01*
X775861Y171680D02*
Y177500D01*
Y171680D02*
X779293Y168248D01*
X787616D01*
X796116Y235945D02*
X799316D01*
X784705Y224270D02*
Y235070D01*
X835916Y184982D02*
X838899D01*
X770101Y194885D02*
X771369D01*
X769216Y194000D02*
X770101Y194885D01*
X769216Y190352D02*
Y194000D01*
X769116Y190252D02*
X769216Y190352D01*
X766616Y190252D02*
X769116D01*
X827616Y173000D02*
Y176197D01*
Y173000D02*
X827716Y172900D01*
X833016D01*
X833116Y172800D01*
Y169555D02*
Y172800D01*
X793116Y161252D02*
Y163550D01*
X791866Y164800D02*
X793116Y163550D01*
X765616Y203736D02*
X771367D01*
X760616Y198736D02*
X765616Y203736D01*
X760616Y196748D02*
Y198736D01*
X800616Y176248D02*
Y177090D01*
X804226Y180700D01*
Y181961D01*
X792469Y213447D02*
X797498D01*
X828541Y211300D02*
Y214103D01*
Y211300D02*
X828641Y211200D01*
X835921D01*
X836021Y211300D01*
Y214103D01*
X785587Y193050D02*
X792087D01*
X825838Y222567D02*
X828541D01*
X825716Y222445D02*
X825838Y222567D01*
X816013Y222445D02*
X825716D01*
X796116Y227470D02*
Y229252D01*
X794545Y225900D02*
X796116Y227470D01*
X794545Y224271D02*
Y225900D01*
X836142Y169982D02*
X838906D01*
X835716Y169555D02*
X836142Y169982D01*
X833116Y169555D02*
X835716D01*
X821155Y191016D02*
X823616D01*
X806194Y179221D02*
Y181961D01*
Y179221D02*
X806616Y178800D01*
Y176248D02*
Y178800D01*
X811712Y235748D02*
X815116D01*
X811516Y235945D02*
X811712Y235748D01*
X815608Y215500D02*
Y222040D01*
X816013Y222445D01*
X813442Y208563D02*
X814974D01*
X791816Y221541D02*
X792070Y221796D01*
X793195D01*
X794068Y222669D01*
Y223793D01*
X794545Y224271D01*
X791816Y214100D02*
X792469Y213447D01*
X797021Y218874D02*
X797498Y219350D01*
X795896Y218874D02*
X797021D01*
X793966Y216943D02*
X795896Y218874D01*
X793966Y215733D02*
Y216943D01*
X800416Y217800D02*
Y225100D01*
X802316Y227000D01*
Y227800D01*
X806616Y227500D02*
X807916D01*
X802016Y224100D02*
X803816Y225900D01*
X805016D01*
X806616Y227500D01*
X797498Y213447D02*
X799862D01*
X797498Y215414D02*
X799830D01*
X802016Y217600D01*
Y224100D01*
X813442Y208563D02*
Y221298D01*
X812716Y222025D02*
X813442Y221298D01*
X812716Y222025D02*
Y226655D01*
X811468Y211807D02*
Y212952D01*
X812216Y213700D01*
Y220700D01*
X811516Y221400D02*
X812216Y220700D01*
X811516Y221400D02*
Y232600D01*
X799862Y213447D02*
X803216Y216800D01*
Y218148D01*
X806016Y220948D01*
X797966Y208850D02*
X803371Y214255D01*
X806016D01*
X799216Y204500D02*
Y208300D01*
X803316Y210800D02*
X810461D01*
X811468Y211807D01*
X815460Y204711D02*
X818582D01*
X802416Y209600D02*
X811416D01*
X812100Y204184D02*
X813216Y205300D01*
X810131Y204616D02*
X811316Y205800D01*
Y209600D01*
X799216Y208300D02*
X801716Y210800D01*
X803316D01*
X801759Y203444D02*
X801816Y203500D01*
X800759Y203744D02*
Y207944D01*
X802416Y209600D01*
X808131Y201740D02*
Y206016D01*
X806131Y201640D02*
Y204084D01*
X808131Y206016D02*
X808716Y206600D01*
X803516Y206700D02*
X806131Y204084D01*
X772416Y213450D02*
Y217600D01*
X787616Y164900D02*
Y168248D01*
Y164900D02*
X787716Y164800D01*
X791866D01*
X787616Y161500D02*
Y161555D01*
X784016Y161500D02*
X787616D01*
X774616Y170900D02*
X784016Y161500D01*
X774661Y179688D02*
X778041Y183067D01*
X774616Y170900D02*
Y179600D01*
Y179400D02*
Y182700D01*
X815416Y165300D02*
X823116D01*
X827616Y167700D02*
X827632D01*
X827616D02*
Y169504D01*
X819237Y162384D02*
X823032D01*
X823516Y161900D01*
X826916D01*
X827816Y162800D01*
Y169600D01*
X823089Y156074D02*
X829816Y162800D01*
X776816Y205750D02*
Y210000D01*
X818358Y202040D02*
X820116Y200282D01*
X834213Y181200D02*
X835413Y182400D01*
X841216D01*
X821816Y182500D02*
X833416D01*
X835916Y185000D01*
X818005Y182400D02*
X818816D01*
X820016Y181200D01*
X834213D01*
X821155Y183161D02*
X821816Y182500D01*
X821155Y183161D02*
Y185110D01*
X822437Y187079D02*
X824116Y185400D01*
Y184500D02*
Y185400D01*
Y184500D02*
X824916Y183700D01*
X832716D01*
X829216Y195448D02*
Y196400D01*
X821516Y197082D02*
X825565D01*
X823531Y191100D02*
X823616Y191016D01*
X823531Y191100D02*
X827416D01*
X829616Y188900D01*
X822255Y189016D02*
X824716D01*
X832716Y183700D02*
X833416Y184400D01*
Y192400D01*
X836021Y211300D02*
X837371D01*
X846116Y202555D01*
X820116Y200282D02*
X824397D01*
X825716Y201600D01*
Y205100D01*
X821242Y206219D02*
X822329Y205132D01*
X825516D01*
X829216Y196400D02*
X830116Y197300D01*
Y205132D01*
X821155Y198890D02*
X821347Y199082D01*
X824895D01*
X827913Y202100D01*
X827916D01*
X851116Y202200D02*
X851216Y202100D01*
X851116Y202200D02*
Y216100D01*
X856098Y221082D01*
X831860Y194500D02*
X838116D01*
X814068Y202040D02*
Y203320D01*
X815460Y204711D01*
X812100Y180516D02*
Y181461D01*
Y180516D02*
X812416Y180200D01*
X803216Y165800D02*
X805816Y163200D01*
X803216Y165800D02*
Y173100D01*
X785521D02*
X803216D01*
X809016Y170469D02*
Y178800D01*
X808163Y179653D02*
X809016Y178800D01*
X812416Y179600D02*
Y180200D01*
Y179600D02*
X813116Y178900D01*
Y177200D02*
Y178900D01*
X814068Y181961D02*
X814316Y181714D01*
X832216Y167000D02*
Y168300D01*
X829816Y164600D02*
X832216Y167000D01*
X829816Y162800D02*
Y164600D01*
X819077Y168150D02*
X819816Y168889D01*
Y172500D01*
X823200Y165384D02*
X825616D01*
Y172400D01*
X819816D02*
X825616D01*
X819016Y174600D02*
Y175750D01*
X816137Y179200D02*
X838916D01*
X816037Y179300D02*
X816137Y179200D01*
X816037Y179300D02*
Y181961D01*
X814316Y177800D02*
Y181714D01*
Y177800D02*
X816716Y175400D01*
X791816Y214434D02*
Y221541D01*
X786157Y215609D02*
X790309D01*
X791816Y214102D01*
Y214100D02*
Y214102D01*
X649008Y214100D02*
Y214102D01*
X647502Y215609D02*
X649008Y214102D01*
X643349Y215609D02*
X647502D01*
X649008Y214434D02*
Y221541D01*
X671508Y177800D02*
X673908Y175400D01*
X671508Y177800D02*
Y181714D01*
X673229Y179300D02*
Y181961D01*
Y179300D02*
X673329Y179200D01*
X696108D01*
X676208Y174600D02*
Y175750D01*
X677008Y172400D02*
X682808D01*
Y165384D02*
Y172400D01*
X680392Y165384D02*
X682808D01*
X677008Y168889D02*
Y172500D01*
X676269Y168150D02*
X677008Y168889D01*
X687008Y162800D02*
Y164600D01*
X689408Y167000D01*
Y168300D01*
X671261Y181961D02*
X671508Y181714D01*
X670308Y177200D02*
Y178900D01*
X669608Y179600D02*
X670308Y178900D01*
X669608Y179600D02*
Y180200D01*
X665355Y179653D02*
X666208Y178800D01*
Y170469D02*
Y178800D01*
X642714Y173100D02*
X660408D01*
Y165800D02*
Y173100D01*
Y165800D02*
X663008Y163200D01*
X669292Y180516D02*
X669608Y180200D01*
X669292Y180516D02*
Y181461D01*
X671261Y203320D02*
X672653Y204712D01*
X671261Y202040D02*
Y203320D01*
X689053Y194500D02*
X695308D01*
X708308Y216100D02*
X713290Y221082D01*
X708308Y202200D02*
Y216100D01*
Y202200D02*
X708408Y202100D01*
X685105D02*
X685108D01*
X682087Y199082D02*
X685105Y202100D01*
X678540Y199082D02*
X682087D01*
X678347Y198890D02*
X678540Y199082D01*
X687308Y197300D02*
Y205132D01*
X686408Y196400D02*
X687308Y197300D01*
X679522Y205132D02*
X682708D01*
X678435Y206219D02*
X679522Y205132D01*
X682908Y201600D02*
Y205100D01*
X681590Y200282D02*
X682908Y201600D01*
X677308Y200282D02*
X681590D01*
X694563Y211300D02*
X703308Y202556D01*
X693214Y211300D02*
X694563D01*
X690608Y184400D02*
Y192400D01*
X689908Y183700D02*
X690608Y184400D01*
X679448Y189016D02*
X681908D01*
X684608Y191100D02*
X686808Y188900D01*
X680724Y191100D02*
X684608D01*
X680724D02*
X680808Y191016D01*
X678708Y197082D02*
X682757D01*
X686408Y195448D02*
Y196400D01*
X682108Y183700D02*
X689908D01*
X681308Y184500D02*
X682108Y183700D01*
X681308Y184500D02*
Y185400D01*
X679629Y187079D02*
X681308Y185400D01*
X678347Y183161D02*
Y185111D01*
Y183161D02*
X679008Y182500D01*
X677208Y181200D02*
X691405D01*
X676008Y182400D02*
X677208Y181200D01*
X675198Y182400D02*
X676008D01*
X690608Y182500D02*
X693108Y185000D01*
X679008Y182500D02*
X690608D01*
X692605Y182400D02*
X698408D01*
X691405Y181200D02*
X692605Y182400D01*
X675551Y202040D02*
X677308Y200282D01*
X634008Y205750D02*
Y210000D01*
X680282Y156074D02*
X687008Y162800D01*
X685008D02*
Y169600D01*
X684108Y161900D02*
X685008Y162800D01*
X680708Y161900D02*
X684108D01*
X680224Y162384D02*
X680708Y161900D01*
X676430Y162384D02*
X680224D01*
X684808Y167700D02*
Y169504D01*
Y167700D02*
X684824D01*
X672608Y165300D02*
X680308D01*
X631808Y179400D02*
Y182700D01*
Y170900D02*
Y179600D01*
X631854Y179688D02*
X635233Y183067D01*
X631808Y170900D02*
X641208Y161500D01*
X644808D01*
Y161556D01*
X644908Y164800D02*
X649058D01*
X644808Y164900D02*
X644908Y164800D01*
X644808Y164900D02*
Y168248D01*
X629608Y213450D02*
Y217600D01*
X660708Y206700D02*
X663324Y204085D01*
X665324Y206016D02*
X665908Y206600D01*
X663324Y201640D02*
Y204085D01*
X665324Y201740D02*
Y206016D01*
X657952Y207944D02*
X659608Y209600D01*
X657952Y203744D02*
Y207944D01*
X658952Y203444D02*
X659008Y203500D01*
X658908Y210800D02*
X660508D01*
X656408Y208300D02*
X658908Y210800D01*
X668508Y205800D02*
Y209600D01*
X667324Y204616D02*
X668508Y205800D01*
X669292Y204185D02*
X670408Y205300D01*
X659608Y209600D02*
X668608D01*
X672653Y204712D02*
X675774D01*
X667653Y210800D02*
X668660Y211807D01*
X660508Y210800D02*
X667653D01*
X656408Y204500D02*
Y208300D01*
X660563Y214256D02*
X663208D01*
X655158Y208850D02*
X660563Y214256D01*
X660408Y218148D02*
X663208Y220948D01*
X660408Y216800D02*
Y218148D01*
X657055Y213447D02*
X660408Y216800D01*
X668708Y221400D02*
Y232600D01*
Y221400D02*
X669408Y220700D01*
Y213700D02*
Y220700D01*
X668660Y212952D02*
X669408Y213700D01*
X668660Y211807D02*
Y212952D01*
X669908Y222025D02*
Y226656D01*
Y222025D02*
X670635Y221299D01*
Y208563D02*
Y221299D01*
X659208Y217600D02*
Y224100D01*
X657022Y215415D02*
X659208Y217600D01*
X654690Y215415D02*
X657022D01*
X654690Y213447D02*
X657055D01*
X662208Y225900D02*
X663808Y227500D01*
X661008Y225900D02*
X662208D01*
X659208Y224100D02*
X661008Y225900D01*
X663808Y227500D02*
X665108D01*
X659508Y227000D02*
Y227800D01*
X657608Y225100D02*
X659508Y227000D01*
X657608Y217800D02*
Y225100D01*
X651158Y215733D02*
Y216943D01*
X653089Y218874D01*
X654213D01*
X654690Y219351D01*
X649008Y214100D02*
X649662Y213447D01*
X651260Y223794D02*
X651738Y224271D01*
X651260Y222669D02*
Y223794D01*
X650387Y221796D02*
X651260Y222669D01*
X649263Y221796D02*
X650387D01*
X649008Y221541D02*
X649263Y221796D01*
X670635Y208563D02*
X672166D01*
X672800Y222040D02*
X673206Y222445D01*
X672800Y215500D02*
Y222040D01*
X668708Y235945D02*
X668905Y235748D01*
X672308D01*
X663808Y176248D02*
Y178800D01*
X663387Y179222D02*
X663808Y178800D01*
X663387Y179222D02*
Y181961D01*
X678347Y191016D02*
X680808D01*
X690308Y169556D02*
X692908D01*
X693335Y169982D01*
X696098D01*
X651738Y224271D02*
Y225900D01*
X653308Y227471D01*
Y229252D01*
X673206Y222445D02*
X682908D01*
X683030Y222567D01*
X685733D01*
X642780Y193050D02*
X649280D01*
X693214Y211300D02*
Y214103D01*
X693114Y211200D02*
X693214Y211300D01*
X685833Y211200D02*
X693114D01*
X685733Y211300D02*
X685833Y211200D01*
X685733Y211300D02*
Y214103D01*
X649662Y213447D02*
X654690D01*
X661418Y180700D02*
Y181961D01*
X657808Y177090D02*
X661418Y180700D01*
X657808Y176248D02*
Y177090D01*
X617808Y196748D02*
Y198736D01*
X622808Y203736D01*
X628559D01*
X649058Y164800D02*
X650308Y163550D01*
Y161252D02*
Y163550D01*
X690308Y169556D02*
Y172800D01*
X690208Y172900D02*
X690308Y172800D01*
X684908Y172900D02*
X690208D01*
X684808Y173000D02*
X684908Y172900D01*
X684808Y173000D02*
Y176197D01*
X623808Y190252D02*
X626308D01*
X626408Y190352D01*
Y194000D01*
X627293Y194886D01*
X628561D01*
X693108Y184982D02*
X696092D01*
X641897Y224271D02*
Y235070D01*
X653308Y235945D02*
X656508D01*
X636485Y168248D02*
X644808D01*
X633054Y171680D02*
X636485Y168248D01*
X633054Y171680D02*
Y177500D01*
X633154Y177600D01*
X638873D01*
X638974Y177500D01*
X657408Y185111D02*
X658269D01*
X667908Y156088D02*
X670795Y153200D01*
X634408Y203730D02*
X636437D01*
X634308Y203630D02*
X634408Y203730D01*
X634308Y195800D02*
Y203630D01*
Y195800D02*
X635229Y194879D01*
X636439D01*
X680308Y208252D02*
Y217000D01*
X672608Y156087D02*
X676429D01*
X672508Y156187D02*
X672608Y156087D01*
X672508Y156187D02*
Y165200D01*
X672608Y165300D01*
X668527Y168150D02*
X676269D01*
X666208Y170469D02*
X668527Y168150D01*
X665355Y179653D02*
Y181961D01*
X634408Y191929D02*
X636437D01*
X634308Y191829D02*
X634408Y191929D01*
X634308Y186126D02*
Y191829D01*
Y186126D02*
X635233Y185200D01*
Y183067D02*
Y185200D01*
X642714Y173306D02*
Y174603D01*
X635333Y171700D02*
X641108D01*
X635233Y171800D02*
X635333Y171700D01*
X635233Y171800D02*
Y174603D01*
X655008Y169556D02*
X657808D01*
X653398Y167945D02*
X655008Y169556D01*
X650308Y167945D02*
X653398D01*
X678808Y167100D02*
Y169307D01*
X678658Y166950D02*
X678808Y167100D01*
X663908Y166950D02*
X678658D01*
X663808Y167050D02*
X663908Y166950D01*
X663808Y167050D02*
Y169556D01*
X636437Y191929D02*
X638681D01*
X639808Y193056D01*
X642808D01*
X628559Y191935D02*
X630808D01*
X630908Y192035D01*
Y211546D01*
X632808Y213446D01*
X696090Y174979D02*
X698508Y177397D01*
Y182300D01*
X698408Y182400D02*
X698508Y182300D01*
X675198Y181961D02*
Y182400D01*
X653130Y189048D02*
X658269D01*
X698908Y197400D02*
X705508Y190801D01*
X621008Y196945D02*
X623808D01*
X620908Y196845D02*
X621008Y196945D01*
X650308Y151039D02*
X651558Y149789D01*
X657131D01*
X642808Y193056D02*
Y195250D01*
X642576Y195483D02*
X642808Y195250D01*
X638857Y195483D02*
X642576D01*
X638672Y195668D02*
X638857Y195483D01*
X638672Y195668D02*
Y197100D01*
X638523Y197250D02*
X638672Y197100D01*
X637320Y197250D02*
X638523D01*
X636437Y197832D02*
X637320D01*
X696093Y189985D02*
X699708Y186370D01*
Y174200D02*
Y186370D01*
X698008Y172500D02*
X699708Y174200D01*
X693708Y172500D02*
X698008D01*
X692508Y173700D02*
X693708Y172500D01*
X692508Y173700D02*
Y176148D01*
X692408Y176248D02*
X692508Y176148D01*
X690308Y176248D02*
X692408D01*
X692153Y197400D02*
X698408D01*
X698508Y197300D01*
Y193750D02*
Y197300D01*
X697258Y192500D02*
X698508Y193750D01*
X690708Y192500D02*
X697258D01*
X678347Y187079D02*
X679629D01*
X689473Y214103D02*
Y216900D01*
X644108Y229252D02*
X646808D01*
X644008Y229352D02*
X644108Y229252D01*
X644008Y229352D02*
Y232600D01*
X636408Y219450D02*
X636508Y219350D01*
X638945D01*
X676208Y175750D02*
X676458Y176000D01*
X678808D01*
X623808Y193700D02*
Y196945D01*
X623708Y193600D02*
X623808Y193700D01*
X617808Y192250D02*
X619158Y193600D01*
X617808Y190056D02*
Y192250D01*
X692308Y190000D02*
X696093Y189985D01*
X659008Y202400D02*
Y203500D01*
X667324Y202040D02*
Y204616D01*
X654690Y221319D02*
X656308D01*
X656408Y221419D01*
Y232600D01*
X668708D01*
X656408Y235845D02*
X656508Y235945D01*
X639939Y196800D02*
X640057Y196683D01*
X639939Y196800D02*
Y198200D01*
X639690Y198450D02*
X639939Y198200D01*
X638771Y198450D02*
X639690D01*
X638520Y198700D02*
X638771Y198450D01*
X638520Y198700D02*
Y202763D01*
X637554Y203730D02*
X638520Y202763D01*
X636437Y203730D02*
X637554D01*
X640608Y189700D02*
X645108D01*
X638974Y188066D02*
X640608Y189700D01*
X645208Y183051D02*
X645308Y182951D01*
X645208Y183051D02*
Y189300D01*
X703308Y209248D02*
Y214157D01*
X639808Y204650D02*
X641558Y202900D01*
X656159Y198890D02*
X658269D01*
X628560Y188983D02*
X630390D01*
X632108Y190700D01*
Y204600D01*
X633308Y205800D01*
X638658D01*
X639808Y204650D01*
X639872Y199748D02*
X642808D01*
X639808Y204650D02*
X639872Y199748D01*
X638945Y211478D02*
X639808D01*
X655708Y192985D02*
X658269D01*
X657132Y156088D02*
X661558D01*
X662808Y154838D01*
Y147800D02*
Y154838D01*
X661558Y146550D02*
X662808Y147800D01*
X650308Y146550D02*
X661558D01*
X648758Y148100D02*
X650308Y146550D01*
X648758Y148100D02*
Y151450D01*
X642611Y173203D02*
X642714Y174603D01*
X642611Y173203D02*
X642714Y173100D01*
X662971Y157500D02*
X663008Y163200D01*
X661558Y156088D02*
X662971Y157500D01*
X638974Y174603D02*
Y177500D01*
Y188066D01*
X645208Y189300D02*
X645587Y189680D01*
X645747Y189839D01*
X650308Y151039D02*
Y157500D01*
Y161252D01*
X645108Y189700D02*
X645587Y189680D01*
X680308Y217000D02*
X689373D01*
X657408Y180980D02*
Y185111D01*
X629254Y213446D02*
X632808D01*
X638945D01*
X639808Y204650D02*
Y211478D01*
X641108Y171700D02*
X642611Y173203D01*
X642714Y173306D01*
X661558Y156088D02*
X667908D01*
X698408Y197400D02*
X698908D01*
X620908Y193600D02*
Y196845D01*
X619158Y193600D02*
X620908D01*
X623708D01*
X637320Y197250D02*
Y197832D01*
X669908Y226656D02*
X672308Y229056D01*
X669292Y202040D02*
Y204185D01*
X670795Y153200D02*
X677358D01*
X677376Y153218D01*
X679755D01*
X680282Y153745D01*
Y156074D01*
X668708Y235945D02*
X673863D01*
X683308Y226500D01*
X685734D01*
X675198Y202040D02*
X675551D01*
X677308Y214253D02*
X677933Y213629D01*
X674642Y214253D02*
X677308D01*
X677933Y213629D02*
Y213629D01*
Y213629D02*
X678435Y213127D01*
Y206219D02*
Y213127D01*
X680308Y208252D02*
X682060Y206500D01*
X684005D02*
X685308Y205198D01*
X682060Y206500D02*
X684005D01*
X675774Y204712D02*
X678176Y202310D01*
X681539D01*
X671135Y210746D02*
X674642Y214253D01*
X655549Y199500D02*
X656159Y198890D01*
X689373Y217000D02*
X689473Y216900D01*
X689373Y217000D02*
X693808D01*
X694214Y217406D01*
X658508Y202900D02*
X659008Y202400D01*
X661418Y202040D02*
X661508Y202130D01*
X660688Y202040D02*
X661418D01*
X659399Y200750D02*
X660688Y202040D01*
X657618Y200750D02*
X659399D01*
X656358Y202010D02*
X657618Y200750D01*
X656358Y202010D02*
Y204450D01*
X685522Y205132D02*
X691308D01*
X656358Y204450D02*
X656408Y204500D01*
X654690Y217383D02*
X657191D01*
X657608Y217800D01*
X656508Y235945D02*
X668708D01*
X633108Y215600D02*
X633208Y215700D01*
X655158Y203250D02*
Y208850D01*
X616708Y200900D02*
X629254Y213446D01*
X626308Y214500D02*
Y215300D01*
X613308Y190300D02*
Y201200D01*
X616008Y203900D01*
X615708D02*
X616008D01*
X615708D02*
X626308Y214500D01*
X620940Y192791D02*
X621329Y193180D01*
X620908Y193600D02*
X621329Y193180D01*
X627509Y187000D02*
X631808Y182700D01*
X626484Y187522D02*
X626484D01*
X627006Y187000D01*
X627509D01*
X620940Y187714D02*
Y192791D01*
X626234Y187272D02*
Y187272D01*
X626484Y187522D01*
X620940Y187714D02*
X621467Y187187D01*
X626149D01*
X626234Y187272D01*
X626234D01*
X620970Y185987D02*
X625821D01*
X619967Y186990D02*
X620970Y185987D01*
X615467Y186990D02*
X619967D01*
X614940Y187517D02*
X615467Y186990D01*
X614940Y187517D02*
Y190300D01*
X613308D02*
X614940D01*
X630508Y169700D02*
X648758Y151450D01*
X625821Y185987D02*
X630508Y181300D01*
Y169700D02*
Y181300D01*
X673908Y171200D02*
Y175400D01*
X703578Y162800D02*
X709408Y156970D01*
X699408Y155400D02*
X709308D01*
X697408Y153400D02*
X699408Y155400D01*
X693308Y162800D02*
X703578D01*
X665908Y164000D02*
X670850D01*
X668508Y175800D02*
Y179100D01*
X667208Y180400D02*
X668508Y179100D01*
X669208Y171700D02*
X671108Y173600D01*
Y176400D01*
X670308Y177200D02*
X671108Y176400D01*
X713290Y221082D02*
Y221262D01*
X636408Y219450D02*
Y221978D01*
X637808Y223378D01*
Y234364D01*
X633108Y215600D02*
Y231632D01*
X646808Y235945D02*
X653308D01*
X644899Y238150D02*
X646158Y236891D01*
Y236595D02*
Y236891D01*
Y236595D02*
X646808Y235945D01*
X641418Y238150D02*
X644899D01*
X644008Y232600D02*
Y236000D01*
X641808Y235241D02*
X641858Y235191D01*
Y235110D02*
Y235191D01*
Y235110D02*
X641897Y235070D01*
X641808Y235241D02*
Y237800D01*
X637808Y234364D02*
X639444Y236000D01*
X639647Y238171D02*
X641606D01*
X633108Y231632D02*
X637294Y235818D01*
Y236891D01*
X638554Y238150D01*
X639627D01*
X639647Y238171D01*
X685734Y226500D02*
X689594Y222640D01*
X694214Y217406D02*
X697866D01*
X703090Y212182D01*
X689594Y216741D02*
Y222640D01*
X703308Y214157D02*
X710480Y221329D01*
X711408Y221299D01*
X641558Y202900D02*
X650963D01*
X654208Y202300D02*
X655158Y203250D01*
X651577Y200819D02*
Y202287D01*
X650963Y202900D02*
X651577Y202287D01*
X653935Y202300D02*
X654208D01*
X653808Y202100D02*
Y202173D01*
X653935Y202300D01*
X651577Y200819D02*
X652895Y199500D01*
X655549D01*
X682757Y197082D02*
X684267Y198592D01*
X681418Y192985D02*
X683134Y194700D01*
X683308D01*
X678347Y192985D02*
X681418D01*
X687108D01*
X650757Y189839D02*
X650908Y189990D01*
X645747Y189839D02*
X650757D01*
X650206Y176010D02*
X651436D01*
X654640Y179214D01*
X655678D01*
X657513Y181048D01*
X645308Y182849D02*
Y182951D01*
Y182849D02*
X647392Y180765D01*
X648291D01*
X654294Y187079D02*
X658269D01*
X652789Y185575D02*
X654294Y187079D01*
X652335Y188253D02*
X653130Y189048D01*
X654696Y191098D02*
X654777Y191016D01*
X658269D01*
X649308Y199748D02*
X650757D01*
X652722Y197783D01*
X654226Y196922D02*
X658269D01*
X653365Y197783D02*
X654226Y196922D01*
X652722Y197783D02*
X653365D01*
X655314Y193378D02*
X655708Y192985D01*
X653806Y193378D02*
X655314D01*
X652137Y191710D02*
X653806Y193378D01*
X652137Y188362D02*
Y191710D01*
X650908Y189990D02*
Y193378D01*
X652588Y195058D01*
X652736Y194953D02*
X658269D01*
X652374Y196538D02*
X652736Y196177D01*
Y194953D02*
Y196177D01*
X640057Y196683D02*
X652426D01*
X497249Y196683D02*
X509618D01*
X509927Y194953D02*
Y196176D01*
X509565Y196538D02*
X509927Y196176D01*
Y194953D02*
X515461D01*
X508100Y193377D02*
X509780Y195057D01*
X508100Y189990D02*
Y193377D01*
X509329Y188362D02*
Y191709D01*
X510998Y193378D01*
X512506D01*
X512900Y192984D01*
X509914Y197783D02*
X510557D01*
X511418Y196921D01*
X515461D01*
X507949Y199748D02*
X509914Y197783D01*
X506500Y199748D02*
X507949D01*
X511969Y191016D02*
X515461D01*
X511888Y191097D02*
X511969Y191016D01*
X509527Y188252D02*
X510322Y189047D01*
X509981Y185574D02*
X511485Y187079D01*
X515461D01*
X504584Y180764D02*
X505483D01*
X502500Y182849D02*
X504584Y180764D01*
X502500Y182849D02*
Y182951D01*
X512870Y179213D02*
X514705Y181048D01*
X511832Y179213D02*
X512870D01*
X508628Y176009D02*
X511832Y179213D01*
X507398Y176009D02*
X508628D01*
X502939Y189839D02*
X507949D01*
X508100Y189990D01*
X538610Y192984D02*
X544300D01*
X535539D02*
X538610D01*
X540326Y194700D02*
X540500D01*
X538610Y192984D02*
X540326Y194700D01*
X539949Y197082D02*
X541459Y198591D01*
X510087Y199500D02*
X512741D01*
X508769Y200818D02*
X510087Y199500D01*
X511000Y202173D02*
X511127Y202300D01*
X511000Y202100D02*
Y202173D01*
X511127Y202300D02*
X511400D01*
X508155Y202900D02*
X508769Y202286D01*
Y200818D02*
Y202286D01*
X511400Y202300D02*
X512350Y203250D01*
X498750Y202900D02*
X508155D01*
X567672Y221328D02*
X568600Y221298D01*
X560500Y214156D02*
X567672Y221328D01*
X546786Y216741D02*
Y222639D01*
X555058Y217406D02*
X560282Y212182D01*
X551406Y217406D02*
X555058D01*
X542926Y226500D02*
X546786Y222639D01*
X496819Y238150D02*
X496839Y238170D01*
X495746Y238150D02*
X496819D01*
X494486Y236891D02*
X495746Y238150D01*
X494486Y235818D02*
Y236891D01*
X490300Y231631D02*
X494486Y235818D01*
X496839Y238170D02*
X498798D01*
X495000Y234364D02*
X496636Y236000D01*
X499000Y235241D02*
Y237800D01*
X499050Y235109D02*
X499089Y235070D01*
X499050Y235109D02*
Y235191D01*
X499000Y235241D02*
X499050Y235191D01*
X501200Y232600D02*
Y236000D01*
X498609Y238150D02*
X502091D01*
X503350Y236595D02*
X504000Y235945D01*
X503350Y236595D02*
Y236891D01*
X502091Y238150D02*
X503350Y236891D01*
X504000Y235945D02*
X510500D01*
X490300Y215600D02*
Y231631D01*
X495000Y223378D02*
Y234364D01*
X493600Y221978D02*
X495000Y223378D01*
X493600Y219449D02*
Y221978D01*
X570482Y221082D02*
Y221262D01*
X527500Y177200D02*
X528300Y176400D01*
Y173600D02*
Y176400D01*
X526400Y171700D02*
X528300Y173600D01*
X524400Y180400D02*
X525700Y179100D01*
Y175800D02*
Y179100D01*
X523100Y164000D02*
X528042D01*
X550500Y162800D02*
X560770D01*
X554600Y153400D02*
X556600Y155400D01*
X566500D01*
X560770Y162800D02*
X566600Y156970D01*
X531100Y171200D02*
Y175400D01*
X487700Y169700D02*
Y181300D01*
X483013Y185987D02*
X487700Y181300D01*
Y169700D02*
X505950Y151450D01*
X470500Y190300D02*
X472131D01*
Y187517D02*
Y190300D01*
Y187517D02*
X472659Y186990D01*
X477158D01*
X478162Y185987D01*
X483013D01*
X483426Y187271D02*
X483426D01*
X483341Y187187D02*
X483426Y187271D01*
X478659Y187187D02*
X483341D01*
X478131Y187714D02*
X478659Y187187D01*
X483426Y187271D02*
X483676Y187521D01*
X483426Y187271D02*
Y187271D01*
X478131Y187714D02*
Y192790D01*
X484198Y186999D02*
X484700D01*
X483676Y187521D02*
X484198Y186999D01*
X483676Y187521D02*
X483676D01*
X484700Y186999D02*
X489000Y182700D01*
X478100Y193600D02*
X478521Y193179D01*
X478131Y192790D02*
X478521Y193179D01*
X472900Y203900D02*
X483500Y214500D01*
X472900Y203900D02*
X473200D01*
X470500Y201200D02*
X473200Y203900D01*
X470500Y190300D02*
Y201200D01*
X483500Y214500D02*
Y215300D01*
X473900Y200900D02*
X486446Y213446D01*
X512350Y203250D02*
Y208850D01*
X490300Y215600D02*
X490400Y215700D01*
X513700Y235945D02*
X525900D01*
X514383Y217383D02*
X514800Y217800D01*
X511882Y217383D02*
X514383D01*
X513550Y204450D02*
X513600Y204500D01*
X542714Y205132D02*
X548500D01*
X513550Y202009D02*
Y204450D01*
Y202009D02*
X514810Y200750D01*
X516590D01*
X517880Y202039D01*
X518610D01*
X518700Y202129D01*
X515700Y202900D02*
X516200Y202400D01*
X551000Y217000D02*
X551406Y217406D01*
X546565Y217000D02*
X551000D01*
X546565D02*
X546665Y216900D01*
X512741Y199500D02*
X513351Y198890D01*
X528327Y210745D02*
X531834Y214253D01*
X535368Y202310D02*
X538731D01*
X532966Y204711D02*
X535368Y202310D01*
X539252Y206500D02*
X541197D01*
X542500Y205197D01*
X537500Y208252D02*
X539252Y206500D01*
X535626Y206219D02*
Y213126D01*
X535124Y213628D02*
X535626Y213126D01*
X535124Y213628D02*
Y213628D01*
X531834Y214253D02*
X534500D01*
X535124Y213628D01*
X532390Y202039D02*
X532743D01*
X540500Y226500D02*
X542926D01*
X531055Y235945D02*
X540500Y226500D01*
X525900Y235945D02*
X531055D01*
X537474Y153745D02*
Y156074D01*
X536947Y153218D02*
X537474Y153745D01*
X534568Y153218D02*
X536947D01*
X534550Y153200D02*
X534568Y153218D01*
X527987Y153200D02*
X534550D01*
X526484Y202039D02*
Y204184D01*
X527100Y226655D02*
X529500Y229055D01*
X494512Y197250D02*
Y197831D01*
X478100Y193600D02*
X480900D01*
X476350D02*
X478100D01*
Y196845D01*
X555600Y197400D02*
X556100D01*
X518750Y156087D02*
X525100D01*
X499803Y173203D02*
X499906Y173306D01*
X498300Y171700D02*
X499803Y173203D01*
X497000Y204650D02*
Y211477D01*
X490000Y213446D02*
X496137D01*
X486446D02*
X490000D01*
X514600Y180980D02*
Y185110D01*
X537500Y217000D02*
X546565D01*
X502300Y189700D02*
X502779Y189679D01*
X507500Y157500D02*
Y161252D01*
Y151038D02*
Y157500D01*
X502779Y189679D02*
X502939Y189839D01*
X502400Y189300D02*
X502779Y189679D01*
X496165Y177500D02*
Y188065D01*
Y174602D02*
Y177500D01*
X518750Y156087D02*
X520163Y157500D01*
X520200Y163200D01*
X499803Y173203D02*
X499906Y173100D01*
X499803Y173203D02*
X499906Y174602D01*
X505950Y148100D02*
Y151450D01*
Y148100D02*
X507500Y146550D01*
X518750D01*
X520000Y147800D01*
Y154837D01*
X518750Y156087D02*
X520000Y154837D01*
X514324Y156087D02*
X518750D01*
X512900Y192984D02*
X515461D01*
X496137Y211477D02*
X497000D01*
Y204650D02*
X497064Y199748D01*
X500000D01*
X495850Y205800D02*
X497000Y204650D01*
X490500Y205800D02*
X495850D01*
X489300Y204600D02*
X490500Y205800D01*
X489300Y190700D02*
Y204600D01*
X487582Y188982D02*
X489300Y190700D01*
X485752Y188982D02*
X487582D01*
X513351Y198890D02*
X515461D01*
X497000Y204650D02*
X498750Y202900D01*
X560500Y209248D02*
Y214156D01*
X502400Y183051D02*
Y189300D01*
Y183051D02*
X502500Y182951D01*
X496165Y188065D02*
X497800Y189700D01*
X502300D01*
X493629Y203729D02*
X494745D01*
X495712Y202763D01*
Y198700D02*
Y202763D01*
Y198700D02*
X495963Y198450D01*
X496882D01*
X497131Y198200D01*
Y196800D02*
Y198200D01*
Y196800D02*
X497249Y196683D01*
X513600Y235845D02*
X513700Y235945D01*
X513600Y232600D02*
X525900D01*
X513600Y221418D02*
Y232600D01*
X513500Y221318D02*
X513600Y221418D01*
X511882Y221318D02*
X513500D01*
X524516Y202039D02*
Y204616D01*
X516200Y202400D02*
Y203500D01*
X549500Y190000D02*
X553285Y189985D01*
X475000Y190055D02*
Y192250D01*
X476350Y193600D01*
X480900D02*
X481000Y193700D01*
Y196945D01*
X533650Y176000D02*
X536000D01*
X533400Y175750D02*
X533650Y176000D01*
X493700Y219349D02*
X496137D01*
X493600Y219449D02*
X493700Y219349D01*
X501200Y229352D02*
Y232600D01*
Y229352D02*
X501300Y229252D01*
X504000D01*
X546665Y214102D02*
Y216900D01*
X535539Y187079D02*
X536821D01*
X547900Y192500D02*
X554450D01*
X555700Y193750D01*
Y197300D01*
X555600Y197400D02*
X555700Y197300D01*
X549345Y197400D02*
X555600D01*
X547500Y176248D02*
X549600D01*
X549700Y176148D01*
Y173700D02*
Y176148D01*
Y173700D02*
X550900Y172500D01*
X555200D01*
X556900Y174200D01*
Y186370D01*
X553285Y189985D02*
X556900Y186370D01*
X493629Y197831D02*
X494512D01*
Y197250D02*
X495715D01*
X495864Y197100D01*
Y195667D02*
Y197100D01*
Y195667D02*
X496049Y195483D01*
X499767D01*
X500000Y195250D01*
Y193055D02*
Y195250D01*
X508750Y149788D02*
X514323D01*
X507500Y151038D02*
X508750Y149788D01*
X478100Y196845D02*
X478200Y196945D01*
X481000D01*
X556100Y197400D02*
X562700Y190800D01*
X510322Y189047D02*
X515461D01*
X532390Y181961D02*
Y182400D01*
X555600D02*
X555700Y182300D01*
Y177397D02*
Y182300D01*
X553281Y174978D02*
X555700Y177397D01*
X488100Y211546D02*
X490000Y213446D01*
X488100Y192035D02*
Y211546D01*
X488000Y191935D02*
X488100Y192035D01*
X485751Y191935D02*
X488000D01*
X497000Y193055D02*
X500000D01*
X495873Y191928D02*
X497000Y193055D01*
X493628Y191928D02*
X495873D01*
X521000Y167050D02*
Y169555D01*
Y167050D02*
X521100Y166950D01*
X535850D01*
X536000Y167100D01*
Y169307D01*
X507500Y167945D02*
X510590D01*
X512200Y169555D01*
X515000D01*
X492425Y171800D02*
Y174602D01*
Y171800D02*
X492525Y171700D01*
X498300D01*
X499906Y173306D02*
Y174602D01*
X492425Y183067D02*
Y185200D01*
X491500Y186125D02*
X492425Y185200D01*
X491500Y186125D02*
Y191828D01*
X491600Y191928D01*
X493628D01*
X522547Y179653D02*
Y181961D01*
X523400Y170469D02*
X525719Y168150D01*
X533461D01*
X529700Y165200D02*
X529800Y165300D01*
X529700Y156186D02*
Y165200D01*
Y156186D02*
X529800Y156086D01*
X533621D01*
X537500Y208252D02*
Y217000D01*
X492421Y194879D02*
X493631D01*
X491500Y195800D02*
X492421Y194879D01*
X491500Y195800D02*
Y203629D01*
X491600Y203729D01*
X493629D01*
X525100Y156087D02*
X527987Y153200D01*
X514600Y185110D02*
X515461D01*
X496065Y177600D02*
X496165Y177500D01*
X490346Y177600D02*
X496065D01*
X490246Y177500D02*
X490346Y177600D01*
X490246Y171680D02*
Y177500D01*
Y171680D02*
X493677Y168248D01*
X502000D01*
X510500Y235945D02*
X513700D01*
X499089Y224270D02*
Y235070D01*
X550300Y184982D02*
X553284D01*
X484485Y194885D02*
X485753D01*
X483600Y194000D02*
X484485Y194885D01*
X483600Y190352D02*
Y194000D01*
X483500Y190252D02*
X483600Y190352D01*
X481000Y190252D02*
X483500D01*
X542000Y173000D02*
Y176197D01*
Y173000D02*
X542100Y172900D01*
X547400D01*
X547500Y172800D01*
Y169555D02*
Y172800D01*
X507500Y161252D02*
Y163550D01*
X506250Y164800D02*
X507500Y163550D01*
X480000Y203736D02*
X485751D01*
X475000Y198736D02*
X480000Y203736D01*
X475000Y196748D02*
Y198736D01*
X515000Y176248D02*
Y177090D01*
X518610Y180700D01*
Y181961D01*
X506854Y213446D02*
X511882D01*
X542925Y211300D02*
Y214102D01*
Y211300D02*
X543025Y211200D01*
X550306D01*
X550406Y211300D01*
Y214102D01*
X499971Y193049D02*
X506471D01*
X540222Y222567D02*
X542925D01*
X540100Y222445D02*
X540222Y222567D01*
X530398Y222445D02*
X540100D01*
X510500Y227470D02*
Y229252D01*
X508930Y225900D02*
X510500Y227470D01*
X508930Y224271D02*
Y225900D01*
X550527Y169982D02*
X553290D01*
X550100Y169555D02*
X550527Y169982D01*
X547500Y169555D02*
X550100D01*
X535539Y191016D02*
X538000D01*
X520579Y179221D02*
Y181961D01*
Y179221D02*
X521000Y178800D01*
Y176248D02*
Y178800D01*
X526097Y235748D02*
X529500D01*
X525900Y235945D02*
X526097Y235748D01*
X529992Y215500D02*
Y222039D01*
X530398Y222445D01*
X527827Y208563D02*
X529358D01*
X506200Y221541D02*
X506455Y221796D01*
X507579D01*
X508452Y222669D01*
Y223793D01*
X508930Y224271D01*
X506200Y214100D02*
X506854Y213446D01*
X511405Y218873D02*
X511882Y219350D01*
X510281Y218873D02*
X511405D01*
X508350Y216943D02*
X510281Y218873D01*
X508350Y215733D02*
Y216943D01*
X514800Y217800D02*
Y225100D01*
X516700Y227000D01*
Y227800D01*
X521000Y227500D02*
X522300D01*
X516400Y224100D02*
X518200Y225900D01*
X519400D01*
X521000Y227500D01*
X511882Y213446D02*
X514246D01*
X511882Y215414D02*
X514214D01*
X516400Y217600D01*
Y224100D01*
X527827Y208563D02*
Y221298D01*
X527100Y222025D02*
X527827Y221298D01*
X527100Y222025D02*
Y226655D01*
X525852Y211807D02*
Y212952D01*
X526600Y213700D01*
Y220700D01*
X525900Y221400D02*
X526600Y220700D01*
X525900Y221400D02*
Y232600D01*
X514246Y213446D02*
X517600Y216800D01*
Y218148D01*
X520400Y220948D01*
X512350Y208850D02*
X517755Y214255D01*
X520400D01*
X513600Y204500D02*
Y208300D01*
X517700Y210800D02*
X524845D01*
X525852Y211807D01*
X529845Y204711D02*
X532966D01*
X516800Y209600D02*
X525800D01*
X526484Y204184D02*
X527600Y205300D01*
X524516Y204616D02*
X525700Y205800D01*
Y209600D01*
X513600Y208300D02*
X516100Y210800D01*
X517700D01*
X516144Y203444D02*
X516200Y203500D01*
X515144Y203744D02*
Y207944D01*
X516800Y209600D01*
X522516Y201739D02*
Y206016D01*
X520516Y201639D02*
Y204084D01*
X522516Y206016D02*
X523100Y206600D01*
X517900Y206700D02*
X520516Y204084D01*
X486800Y213450D02*
Y217600D01*
X502000Y164900D02*
Y168248D01*
Y164900D02*
X502100Y164800D01*
X506250D01*
X502000Y161500D02*
Y161555D01*
X498400Y161500D02*
X502000D01*
X489000Y170900D02*
X498400Y161500D01*
X489046Y179687D02*
X492425Y183067D01*
X489000Y170900D02*
Y179600D01*
Y179400D02*
Y182700D01*
X529800Y165300D02*
X537500D01*
X542000Y167700D02*
X542016D01*
X542000D02*
Y169504D01*
X533622Y162384D02*
X537416D01*
X537900Y161900D01*
X541300D01*
X542200Y162800D01*
Y169600D01*
X537474Y156074D02*
X544200Y162800D01*
X491200Y205750D02*
Y210000D01*
X532743Y202039D02*
X534500Y200282D01*
X548597Y181200D02*
X549797Y182400D01*
X555600D01*
X536200Y182500D02*
X547800D01*
X550300Y185000D01*
X532390Y182400D02*
X533200D01*
X534400Y181200D01*
X548597D01*
X535539Y183161D02*
X536200Y182500D01*
X535539Y183161D02*
Y185110D01*
X536821Y187079D02*
X538500Y185400D01*
Y184500D02*
Y185400D01*
Y184500D02*
X539300Y183700D01*
X547100D01*
X543600Y195448D02*
Y196400D01*
X535900Y197082D02*
X539949D01*
X537916Y191100D02*
X538000Y191016D01*
X537916Y191100D02*
X541800D01*
X544000Y188900D01*
X536639Y189016D02*
X539100D01*
X547100Y183700D02*
X547800Y184400D01*
Y192400D01*
X550406Y211300D02*
X551755D01*
X560500Y202555D01*
X534500Y200282D02*
X538782D01*
X540100Y201600D01*
Y205100D01*
X535626Y206219D02*
X536714Y205132D01*
X539900D01*
X543600Y196400D02*
X544500Y197300D01*
Y205132D01*
X535539Y198890D02*
X535732Y199082D01*
X539279D01*
X542297Y202100D01*
X542300D01*
X565500Y202200D02*
X565600Y202100D01*
X565500Y202200D02*
Y216100D01*
X570482Y221082D01*
X546245Y194500D02*
X552500D01*
X528453Y202039D02*
Y203319D01*
X529845Y204711D01*
X526484Y180516D02*
Y181461D01*
Y180516D02*
X526800Y180200D01*
X517600Y165800D02*
X520200Y163200D01*
X517600Y165800D02*
Y173100D01*
X499906D02*
X517600D01*
X523400Y170469D02*
Y178800D01*
X522547Y179653D02*
X523400Y178800D01*
X526800Y179600D02*
Y180200D01*
Y179600D02*
X527500Y178900D01*
Y177200D02*
Y178900D01*
X528453Y181961D02*
X528700Y181713D01*
X546600Y167000D02*
Y168300D01*
X544200Y164600D02*
X546600Y167000D01*
X544200Y162800D02*
Y164600D01*
X533461Y168150D02*
X534200Y168889D01*
Y172500D01*
X537584Y165384D02*
X540000D01*
Y172400D01*
X534200D02*
X540000D01*
X533400Y174600D02*
Y175750D01*
X530521Y179200D02*
X553300D01*
X530421Y179300D02*
X530521Y179200D01*
X530421Y179300D02*
Y181961D01*
X528700Y177800D02*
Y181713D01*
Y177800D02*
X531100Y175400D01*
X506200Y214434D02*
Y221541D01*
X500541Y215609D02*
X504693D01*
X506200Y214102D01*
Y214100D02*
Y214102D01*
D31*
X1214574Y215615D02*
X1214849Y215341D01*
X1264439Y214109D02*
X1267136D01*
X1268034Y215006D01*
X981520Y214107D02*
X982418Y215005D01*
X978823Y214107D02*
X981520D01*
X928959Y215613D02*
X929233Y215339D01*
X1071766Y215613D02*
X1072040Y215339D01*
X1121631Y214107D02*
X1124327D01*
X1125225Y215005D01*
X838718Y214103D02*
X839616Y215000D01*
X836021Y214103D02*
X838718D01*
X786157Y215609D02*
X786431Y215335D01*
X643349Y215609D02*
X643623Y215335D01*
X693214Y214103D02*
X695911D01*
X696808Y215000D01*
X553102Y214102D02*
X554000Y215000D01*
X550406Y214102D02*
X553102D01*
X500541Y215609D02*
X500815Y215334D01*
D32*
X1318456Y226100D02*
D03*
X1318492Y208001D02*
D03*
X1318500Y182972D02*
D03*
X1318479Y169097D02*
D03*
X1318474Y154462D02*
D03*
X1325280D02*
D03*
X1325285Y169097D02*
D03*
X1325306Y182972D02*
D03*
X1325298Y208001D02*
D03*
X1325262Y226100D02*
D03*
D33*
X1244258Y187282D02*
D03*
X1239534D02*
D03*
X1234809D02*
D03*
X1244258Y192006D02*
D03*
X1239534D02*
D03*
X1234809D02*
D03*
X1244258Y196731D02*
D03*
X1239534D02*
D03*
X1234809D02*
D03*
X958642Y187280D02*
D03*
X953918D02*
D03*
X949193D02*
D03*
X958642Y192005D02*
D03*
X953918D02*
D03*
X949193D02*
D03*
X958642Y196729D02*
D03*
X953918D02*
D03*
X949193D02*
D03*
X1101449Y187280D02*
D03*
X1096725D02*
D03*
X1092001D02*
D03*
X1101449Y192005D02*
D03*
X1096725D02*
D03*
X1092001D02*
D03*
X1101449Y196729D02*
D03*
X1096725D02*
D03*
X1092001D02*
D03*
X815840Y187276D02*
D03*
X811116D02*
D03*
X806391D02*
D03*
X815840Y192000D02*
D03*
X811116D02*
D03*
X806391D02*
D03*
X815840Y196725D02*
D03*
X811116D02*
D03*
X806391D02*
D03*
X673033Y187276D02*
D03*
X668308D02*
D03*
X663584D02*
D03*
X673033Y192000D02*
D03*
X668308D02*
D03*
X663584D02*
D03*
X673033Y196725D02*
D03*
X668308D02*
D03*
X663584D02*
D03*
X530224Y187276D02*
D03*
X525500D02*
D03*
X520776D02*
D03*
X530224Y192000D02*
D03*
X525500D02*
D03*
X520776D02*
D03*
X530224Y196724D02*
D03*
X525500D02*
D03*
X520776D02*
D03*
D34*
X1214849Y215341D02*
D03*
X1279634Y202106D02*
D03*
X1256334D02*
D03*
X1308834Y152206D02*
D03*
X1308434Y157006D02*
D03*
X1308834Y166806D02*
D03*
X1308533Y171706D02*
D03*
X1308733Y180306D02*
D03*
X1308634Y185406D02*
D03*
X1309134Y205706D02*
D03*
X1309033Y210406D02*
D03*
X1308834Y223506D02*
D03*
Y228606D02*
D03*
X1298234Y228506D02*
D03*
X1272699Y220400D02*
D03*
X1279999Y228200D02*
D03*
X1276499Y231100D02*
D03*
X1289834Y216006D02*
D03*
X1294034Y213006D02*
D03*
X1286833Y205306D02*
D03*
X1272633Y172006D02*
D03*
X1275634Y174606D02*
D03*
X1280334Y164006D02*
D03*
X1283834Y167006D02*
D03*
X1290434Y173906D02*
D03*
X1282633Y181206D02*
D03*
X1285633Y184206D02*
D03*
X1257133Y156506D02*
D03*
X1260433Y159106D02*
D03*
X1264834Y148506D02*
D03*
X1242130Y206017D02*
D03*
X1222383Y215739D02*
D03*
X1244026Y215506D02*
D03*
X1223525Y188347D02*
D03*
X1276733Y190806D02*
D03*
X1238433Y216406D02*
D03*
X1226033Y197206D02*
D03*
X1187934Y200906D02*
D03*
X1221533Y157506D02*
D03*
X1247433Y174606D02*
D03*
X1245833Y170506D02*
D03*
X1184534Y190306D02*
D03*
X1298833Y156606D02*
D03*
Y152606D02*
D03*
X1283033Y208906D02*
D03*
X1298333Y206106D02*
D03*
Y210106D02*
D03*
X1297834Y180106D02*
D03*
Y183606D02*
D03*
X1293655Y176212D02*
D03*
X1268034Y215006D02*
D03*
X1268334Y151606D02*
D03*
X1268699Y223900D02*
D03*
X1298333Y223706D02*
D03*
X1264034Y190006D02*
D03*
X1251933Y202606D02*
D03*
X1229733Y202906D02*
D03*
X1204434Y215706D02*
D03*
X1197534Y215306D02*
D03*
X1239633Y175306D02*
D03*
X1264534Y164006D02*
D03*
X1239933Y171206D02*
D03*
X1236434Y164406D02*
D03*
X1241533Y163506D02*
D03*
X1298034Y166206D02*
D03*
X1297733Y170806D02*
D03*
X1215234Y236006D02*
D03*
X1210670D02*
D03*
X1195762Y223711D02*
D03*
X1196128Y151560D02*
D03*
X1170806Y176165D02*
D03*
X1181428Y208860D02*
D03*
X1199628Y148460D02*
D03*
X1204028Y159060D02*
D03*
X1207328Y156460D02*
D03*
X1178828Y184160D02*
D03*
X1181828Y181160D02*
D03*
X1174028Y173860D02*
D03*
X1180628Y166960D02*
D03*
X1184128Y163960D02*
D03*
X1188828Y174560D02*
D03*
X1191828Y171960D02*
D03*
X1177628Y205260D02*
D03*
X1170428Y212960D02*
D03*
X1174628Y215960D02*
D03*
X1187962Y230911D02*
D03*
X1184462Y228011D02*
D03*
X1191762Y220211D02*
D03*
X1275533Y226978D02*
D03*
X1272733Y224026D02*
D03*
X1290239Y212017D02*
D03*
X1287438Y209065D02*
D03*
X1177781Y180795D02*
D03*
X1174981Y177843D02*
D03*
X1187738Y170871D02*
D03*
X1184937Y167920D02*
D03*
X1203382Y155277D02*
D03*
X1200582Y152325D02*
D03*
X1191984Y223458D02*
D03*
X1189032Y226258D02*
D03*
X1177256Y209046D02*
D03*
X1174304Y211846D02*
D03*
X1289417Y177724D02*
D03*
X1286465Y180525D02*
D03*
X1279648Y167903D02*
D03*
X1276696Y170704D02*
D03*
X1263976Y152440D02*
D03*
X1261024Y155240D02*
D03*
X1225033Y202106D02*
D03*
X1254533Y194706D02*
D03*
X1225921Y191103D02*
D03*
X1223833Y195106D02*
D03*
X938218Y195105D02*
D03*
X940306Y191102D02*
D03*
X968918Y194705D02*
D03*
X939418Y202105D02*
D03*
X975408Y155239D02*
D03*
X978360Y152438D02*
D03*
X991081Y170702D02*
D03*
X994032Y167902D02*
D03*
X1000850Y180523D02*
D03*
X1003802Y177723D02*
D03*
X888688Y211845D02*
D03*
X891640Y209044D02*
D03*
X903416Y226257D02*
D03*
X906368Y223456D02*
D03*
X914966Y152324D02*
D03*
X917766Y155276D02*
D03*
X899321Y167918D02*
D03*
X902122Y170870D02*
D03*
X889365Y177841D02*
D03*
X892165Y180793D02*
D03*
X1001822Y209064D02*
D03*
X1004623Y212016D02*
D03*
X987117Y224024D02*
D03*
X989917Y226976D02*
D03*
X906146Y220209D02*
D03*
X898846Y228009D02*
D03*
X902346Y230909D02*
D03*
X889012Y215958D02*
D03*
X884812Y212959D02*
D03*
X892012Y205258D02*
D03*
X906212Y171958D02*
D03*
X903212Y174558D02*
D03*
X898512Y163959D02*
D03*
X895012Y166958D02*
D03*
X888412Y173858D02*
D03*
X896212Y181158D02*
D03*
X893212Y184159D02*
D03*
X921712Y156458D02*
D03*
X918412Y159058D02*
D03*
X914012Y148459D02*
D03*
X895812Y208858D02*
D03*
X885190Y176164D02*
D03*
X910512Y151558D02*
D03*
X910146Y223709D02*
D03*
X925054Y236005D02*
D03*
X929618D02*
D03*
X1012118Y170805D02*
D03*
X1012418Y166205D02*
D03*
X955918Y163505D02*
D03*
X950818Y164405D02*
D03*
X954318Y171205D02*
D03*
X978918Y164005D02*
D03*
X954018Y175305D02*
D03*
X911918Y215305D02*
D03*
X918818Y215705D02*
D03*
X944118Y202905D02*
D03*
X966318Y202605D02*
D03*
X978418Y190005D02*
D03*
X1012718Y223705D02*
D03*
X983083Y223899D02*
D03*
X982718Y151605D02*
D03*
X982418Y215005D02*
D03*
X1008040Y176210D02*
D03*
X1012218Y183605D02*
D03*
Y180105D02*
D03*
X1012718Y210105D02*
D03*
Y206105D02*
D03*
X997418Y208905D02*
D03*
X1013218Y152605D02*
D03*
Y156605D02*
D03*
X898918Y190305D02*
D03*
X960218Y170505D02*
D03*
X961818Y174605D02*
D03*
X935918Y157505D02*
D03*
X902318Y200905D02*
D03*
X940418Y197205D02*
D03*
X952818Y216405D02*
D03*
X991118Y190805D02*
D03*
X937909Y188346D02*
D03*
X958410Y215505D02*
D03*
X936768Y215737D02*
D03*
X956514Y206015D02*
D03*
X979218Y148505D02*
D03*
X974818Y159105D02*
D03*
X971518Y156505D02*
D03*
X1000018Y184205D02*
D03*
X997018Y181205D02*
D03*
X1004818Y173905D02*
D03*
X998218Y167005D02*
D03*
X994718Y164005D02*
D03*
X990018Y174605D02*
D03*
X987018Y172005D02*
D03*
X1001218Y205305D02*
D03*
X1008418Y213005D02*
D03*
X1004218Y216005D02*
D03*
X990883Y231099D02*
D03*
X994383Y228199D02*
D03*
X987083Y220399D02*
D03*
X1012618Y228505D02*
D03*
X1023218Y228605D02*
D03*
Y223505D02*
D03*
X1023418Y210405D02*
D03*
X1023518Y205705D02*
D03*
X1023018Y185405D02*
D03*
X1023118Y180305D02*
D03*
X1022918Y171705D02*
D03*
X1023218Y166805D02*
D03*
X1022818Y157005D02*
D03*
X1023218Y152205D02*
D03*
X970718Y202105D02*
D03*
X994018D02*
D03*
X929233Y215339D02*
D03*
X1072040Y215339D02*
D03*
X1136825Y202105D02*
D03*
X1113525D02*
D03*
X1166025Y152205D02*
D03*
X1165625Y157005D02*
D03*
X1166025Y166805D02*
D03*
X1165725Y171705D02*
D03*
X1165925Y180305D02*
D03*
X1165825Y185405D02*
D03*
X1166325Y205705D02*
D03*
X1166225Y210405D02*
D03*
X1166025Y223505D02*
D03*
Y228605D02*
D03*
X1155425Y228505D02*
D03*
X1129891Y220398D02*
D03*
X1137191Y228199D02*
D03*
X1133691Y231099D02*
D03*
X1147025Y216005D02*
D03*
X1151225Y213005D02*
D03*
X1144025Y205305D02*
D03*
X1129825Y172005D02*
D03*
X1132825Y174605D02*
D03*
X1137525Y164005D02*
D03*
X1141025Y167005D02*
D03*
X1147625Y173905D02*
D03*
X1139825Y181205D02*
D03*
X1142825Y184205D02*
D03*
X1114325Y156505D02*
D03*
X1117625Y159105D02*
D03*
X1122025Y148505D02*
D03*
X1099322Y206015D02*
D03*
X1079575Y215737D02*
D03*
X1101217Y215505D02*
D03*
X1080717Y188346D02*
D03*
X1133925Y190805D02*
D03*
X1095625Y216405D02*
D03*
X1083225Y197205D02*
D03*
X1045125Y200905D02*
D03*
X1078725Y157505D02*
D03*
X1104625Y174605D02*
D03*
X1103025Y170505D02*
D03*
X1041725Y190305D02*
D03*
X1156025Y156605D02*
D03*
Y152605D02*
D03*
X1140225Y208905D02*
D03*
X1155525Y206105D02*
D03*
Y210105D02*
D03*
X1155025Y180105D02*
D03*
Y183605D02*
D03*
X1150847Y176210D02*
D03*
X1125225Y215005D02*
D03*
X1125525Y151605D02*
D03*
X1125891Y223899D02*
D03*
X1155525Y223705D02*
D03*
X1121225Y190005D02*
D03*
X1109125Y202605D02*
D03*
X1086925Y202905D02*
D03*
X1061625Y215705D02*
D03*
X1054725Y215305D02*
D03*
X1096825Y175305D02*
D03*
X1121725Y164005D02*
D03*
X1097125Y171205D02*
D03*
X1093625Y164405D02*
D03*
X1098725Y163505D02*
D03*
X1155225Y166205D02*
D03*
X1154925Y170805D02*
D03*
X1072425Y236005D02*
D03*
X1067861D02*
D03*
X1052954Y223709D02*
D03*
X1053320Y151558D02*
D03*
X1027998Y176163D02*
D03*
X1038620Y208858D02*
D03*
X1056820Y148458D02*
D03*
X1061220Y159058D02*
D03*
X1064520Y156458D02*
D03*
X1036020Y184158D02*
D03*
X1039020Y181158D02*
D03*
X1031220Y173858D02*
D03*
X1037820Y166958D02*
D03*
X1041320Y163958D02*
D03*
X1046020Y174558D02*
D03*
X1049020Y171958D02*
D03*
X1034820Y205258D02*
D03*
X1027620Y212958D02*
D03*
X1031820Y215958D02*
D03*
X1045154Y230909D02*
D03*
X1041654Y228009D02*
D03*
X1048954Y220209D02*
D03*
X1132725Y226976D02*
D03*
X1129924Y224024D02*
D03*
X1147431Y212016D02*
D03*
X1144630Y209064D02*
D03*
X1034973Y180793D02*
D03*
X1032172Y177841D02*
D03*
X1044929Y170870D02*
D03*
X1042129Y167918D02*
D03*
X1060574Y155275D02*
D03*
X1057773Y152324D02*
D03*
X1049176Y223456D02*
D03*
X1046224Y226257D02*
D03*
X1034447Y209044D02*
D03*
X1031495Y211845D02*
D03*
X1146609Y177723D02*
D03*
X1143657Y180523D02*
D03*
X1136840Y167901D02*
D03*
X1133888Y170702D02*
D03*
X1121168Y152438D02*
D03*
X1118216Y155239D02*
D03*
X1082225Y202105D02*
D03*
X1111725Y194705D02*
D03*
X1083113Y191102D02*
D03*
X1081025Y195105D02*
D03*
X795416Y195100D02*
D03*
X797504Y191097D02*
D03*
X826116Y194700D02*
D03*
X796616Y202100D02*
D03*
X832607Y155234D02*
D03*
X835558Y152434D02*
D03*
X848279Y170698D02*
D03*
X851231Y167897D02*
D03*
X858048Y180519D02*
D03*
X860999Y177718D02*
D03*
X745886Y211840D02*
D03*
X748838Y209040D02*
D03*
X760614Y226252D02*
D03*
X763566Y223452D02*
D03*
X772164Y152319D02*
D03*
X774964Y155271D02*
D03*
X756519Y167913D02*
D03*
X759320Y170865D02*
D03*
X746563Y177837D02*
D03*
X749363Y180789D02*
D03*
X859021Y209059D02*
D03*
X861821Y212011D02*
D03*
X844315Y224020D02*
D03*
X847116Y226972D02*
D03*
X763344Y220205D02*
D03*
X756044Y228005D02*
D03*
X759544Y230905D02*
D03*
X746210Y215954D02*
D03*
X742010Y212954D02*
D03*
X749210Y205254D02*
D03*
X763410Y171954D02*
D03*
X760410Y174554D02*
D03*
X755710Y163954D02*
D03*
X752210Y166954D02*
D03*
X745610Y173854D02*
D03*
X753410Y181154D02*
D03*
X750410Y184154D02*
D03*
X778910Y156454D02*
D03*
X775610Y159054D02*
D03*
X771210Y148454D02*
D03*
X753010Y208854D02*
D03*
X742388Y176159D02*
D03*
X767710Y151554D02*
D03*
X767344Y223705D02*
D03*
X782252Y236000D02*
D03*
X786816D02*
D03*
X869316Y170800D02*
D03*
X869616Y166200D02*
D03*
X813116Y163500D02*
D03*
X808016Y164400D02*
D03*
X811516Y171200D02*
D03*
X836116Y164000D02*
D03*
X811216Y175300D02*
D03*
X769116Y215300D02*
D03*
X776016Y215700D02*
D03*
X801316Y202900D02*
D03*
X823516Y202600D02*
D03*
X835616Y190000D02*
D03*
X869916Y223700D02*
D03*
X840281Y223894D02*
D03*
X839916Y151600D02*
D03*
X839616Y215000D02*
D03*
X865238Y176205D02*
D03*
X869416Y183600D02*
D03*
Y180100D02*
D03*
X869916Y210100D02*
D03*
Y206100D02*
D03*
X854616Y208900D02*
D03*
X870416Y152600D02*
D03*
Y156600D02*
D03*
X756116Y190300D02*
D03*
X817416Y170500D02*
D03*
X819016Y174600D02*
D03*
X793116Y157500D02*
D03*
X759516Y200900D02*
D03*
X797616Y197200D02*
D03*
X810016Y216400D02*
D03*
X848316Y190800D02*
D03*
X795107Y188341D02*
D03*
X815608Y215500D02*
D03*
X793966Y215733D02*
D03*
X813712Y206011D02*
D03*
X836416Y148500D02*
D03*
X832016Y159100D02*
D03*
X828716Y156500D02*
D03*
X857216Y184200D02*
D03*
X854216Y181200D02*
D03*
X862016Y173900D02*
D03*
X855416Y167000D02*
D03*
X851916Y164000D02*
D03*
X847216Y174600D02*
D03*
X844216Y172000D02*
D03*
X858416Y205300D02*
D03*
X865616Y213000D02*
D03*
X861416Y216000D02*
D03*
X848081Y231094D02*
D03*
X851581Y228194D02*
D03*
X844281Y220394D02*
D03*
X869816Y228500D02*
D03*
X880416Y228600D02*
D03*
Y223500D02*
D03*
X880616Y210400D02*
D03*
X880716Y205700D02*
D03*
X880216Y185400D02*
D03*
X880316Y180300D02*
D03*
X880116Y171700D02*
D03*
X880416Y166800D02*
D03*
X880016Y157000D02*
D03*
X880416Y152200D02*
D03*
X827916Y202100D02*
D03*
X851216D02*
D03*
X786431Y215335D02*
D03*
X643623Y215335D02*
D03*
X708408Y202100D02*
D03*
X685108D02*
D03*
X737608Y152200D02*
D03*
X737208Y157000D02*
D03*
X737608Y166800D02*
D03*
X737308Y171700D02*
D03*
X737508Y180300D02*
D03*
X737408Y185400D02*
D03*
X737908Y205700D02*
D03*
X737808Y210400D02*
D03*
X737608Y223500D02*
D03*
Y228600D02*
D03*
X727008Y228500D02*
D03*
X701474Y220394D02*
D03*
X708774Y228194D02*
D03*
X705274Y231094D02*
D03*
X718608Y216000D02*
D03*
X722808Y213000D02*
D03*
X715608Y205300D02*
D03*
X701408Y172000D02*
D03*
X704408Y174600D02*
D03*
X709108Y164000D02*
D03*
X712608Y167000D02*
D03*
X719208Y173900D02*
D03*
X711408Y181200D02*
D03*
X714408Y184200D02*
D03*
X685908Y156500D02*
D03*
X689208Y159100D02*
D03*
X693608Y148500D02*
D03*
X670905Y206011D02*
D03*
X651158Y215733D02*
D03*
X672800Y215500D02*
D03*
X652300Y188342D02*
D03*
X705508Y190801D02*
D03*
X667208Y216400D02*
D03*
X654808Y197200D02*
D03*
X616708Y200900D02*
D03*
X650308Y157500D02*
D03*
X676208Y174600D02*
D03*
X674608Y170500D02*
D03*
X613308Y190300D02*
D03*
X727608Y156600D02*
D03*
Y152600D02*
D03*
X711808Y208900D02*
D03*
X727108Y206100D02*
D03*
Y210100D02*
D03*
X726608Y180100D02*
D03*
Y183600D02*
D03*
X722430Y176206D02*
D03*
X696808Y215000D02*
D03*
X697108Y151600D02*
D03*
X697474Y223894D02*
D03*
X727108Y223700D02*
D03*
X692808Y190000D02*
D03*
X680708Y202600D02*
D03*
X658508Y202900D02*
D03*
X633208Y215700D02*
D03*
X626308Y215300D02*
D03*
X668408Y175300D02*
D03*
X693308Y164000D02*
D03*
X668708Y171200D02*
D03*
X665208Y164400D02*
D03*
X670308Y163500D02*
D03*
X726808Y166200D02*
D03*
X726508Y170800D02*
D03*
X644008Y236000D02*
D03*
X639444D02*
D03*
X624537Y223705D02*
D03*
X624902Y151554D02*
D03*
X599580Y176159D02*
D03*
X610203Y208854D02*
D03*
X628403Y148454D02*
D03*
X632802Y159054D02*
D03*
X636102Y156454D02*
D03*
X607603Y184154D02*
D03*
X610603Y181154D02*
D03*
X602803Y173854D02*
D03*
X609403Y166954D02*
D03*
X612902Y163954D02*
D03*
X617602Y174554D02*
D03*
X620603Y171954D02*
D03*
X606402Y205254D02*
D03*
X599202Y212954D02*
D03*
X603403Y215954D02*
D03*
X616737Y230905D02*
D03*
X613237Y228005D02*
D03*
X620537Y220205D02*
D03*
X704308Y226972D02*
D03*
X701507Y224020D02*
D03*
X719014Y212011D02*
D03*
X716213Y209059D02*
D03*
X606556Y180789D02*
D03*
X603755Y177837D02*
D03*
X616512Y170866D02*
D03*
X613712Y167914D02*
D03*
X632157Y155271D02*
D03*
X629356Y152319D02*
D03*
X620759Y223452D02*
D03*
X617807Y226253D02*
D03*
X606031Y209040D02*
D03*
X603079Y211841D02*
D03*
X718192Y177718D02*
D03*
X715240Y180519D02*
D03*
X708423Y167897D02*
D03*
X705471Y170698D02*
D03*
X692751Y152434D02*
D03*
X689799Y155235D02*
D03*
X653808Y202100D02*
D03*
X683308Y194700D02*
D03*
X654696Y191098D02*
D03*
X652608Y195100D02*
D03*
X509800Y195100D02*
D03*
X511888Y191097D02*
D03*
X540500Y194700D02*
D03*
X511000Y202100D02*
D03*
X546991Y155234D02*
D03*
X549943Y152434D02*
D03*
X562663Y170697D02*
D03*
X565615Y167897D02*
D03*
X572432Y180519D02*
D03*
X575384Y177718D02*
D03*
X460270Y211840D02*
D03*
X463222Y209039D02*
D03*
X474999Y226252D02*
D03*
X477951Y223452D02*
D03*
X486548Y152319D02*
D03*
X489349Y155271D02*
D03*
X470904Y167913D02*
D03*
X473704Y170865D02*
D03*
X460947Y177836D02*
D03*
X463748Y180788D02*
D03*
X573405Y209059D02*
D03*
X576205Y212011D02*
D03*
X558699Y224020D02*
D03*
X561500Y226972D02*
D03*
X448634Y154516D02*
D03*
X444566Y154408D02*
D03*
X448634Y169038D02*
D03*
X444566Y168931D02*
D03*
X448741Y182704D02*
D03*
X444673Y182597D02*
D03*
X448848Y207859D02*
D03*
X444780Y207752D02*
D03*
X444673Y226128D02*
D03*
X448741Y226235D02*
D03*
X477729Y220205D02*
D03*
X470429Y228005D02*
D03*
X473929Y230905D02*
D03*
X460595Y215954D02*
D03*
X456394Y212954D02*
D03*
X463594Y205254D02*
D03*
X477795Y171954D02*
D03*
X474794Y174554D02*
D03*
X470094Y163954D02*
D03*
X466595Y166954D02*
D03*
X459995Y173854D02*
D03*
X467795Y181154D02*
D03*
X464794Y184154D02*
D03*
X493294Y156454D02*
D03*
X489994Y159054D02*
D03*
X485595Y148454D02*
D03*
X467394Y208854D02*
D03*
X456773Y176159D02*
D03*
X482094Y151554D02*
D03*
X481729Y223705D02*
D03*
X440940Y170767D02*
D03*
X441240Y166167D02*
D03*
X441420Y223657D02*
D03*
X440750Y184855D02*
D03*
X440906Y180723D02*
D03*
X441024Y210067D02*
D03*
Y206067D02*
D03*
X441963Y152567D02*
D03*
Y156567D02*
D03*
X441320Y228457D02*
D03*
X451920Y228557D02*
D03*
Y223457D02*
D03*
X451724Y210367D02*
D03*
X451824Y205667D02*
D03*
X451688Y185367D02*
D03*
X451788Y180267D02*
D03*
X451740Y171667D02*
D03*
X452039Y166767D02*
D03*
X451563Y156967D02*
D03*
X451963Y152167D02*
D03*
X496636Y236000D02*
D03*
X501200D02*
D03*
X583700Y170800D02*
D03*
X584000Y166200D02*
D03*
X527500Y163500D02*
D03*
X522400Y164400D02*
D03*
X525900Y171200D02*
D03*
X550500Y164000D02*
D03*
X525600Y175300D02*
D03*
X483500Y215300D02*
D03*
X490400Y215700D02*
D03*
X515700Y202900D02*
D03*
X537900Y202600D02*
D03*
X550000Y190000D02*
D03*
X584300Y223700D02*
D03*
X554666Y223894D02*
D03*
X554300Y151600D02*
D03*
X554000Y215000D02*
D03*
X579622Y176205D02*
D03*
X583800Y183600D02*
D03*
Y180100D02*
D03*
X584300Y210100D02*
D03*
Y206100D02*
D03*
X569000Y208900D02*
D03*
X584800Y152600D02*
D03*
Y156600D02*
D03*
X470500Y190300D02*
D03*
X531800Y170500D02*
D03*
X533400Y174600D02*
D03*
X507500Y157500D02*
D03*
X473900Y200900D02*
D03*
X512000Y197200D02*
D03*
X524400Y216400D02*
D03*
X562700Y190800D02*
D03*
X509491Y188341D02*
D03*
X529992Y215500D02*
D03*
X508350Y215733D02*
D03*
X528096Y206011D02*
D03*
X550800Y148500D02*
D03*
X546400Y159100D02*
D03*
X543100Y156500D02*
D03*
X571600Y184200D02*
D03*
X568600Y181200D02*
D03*
X576400Y173900D02*
D03*
X569800Y167000D02*
D03*
X566300Y164000D02*
D03*
X561600Y174600D02*
D03*
X558600Y172000D02*
D03*
X572800Y205300D02*
D03*
X580000Y213000D02*
D03*
X575800Y216000D02*
D03*
X562466Y231094D02*
D03*
X565966Y228194D02*
D03*
X558666Y220394D02*
D03*
X584200Y228500D02*
D03*
X594800Y228600D02*
D03*
Y223500D02*
D03*
X595000Y210400D02*
D03*
X595100Y205700D02*
D03*
X594600Y185400D02*
D03*
X594700Y180300D02*
D03*
X594500Y171700D02*
D03*
X594800Y166800D02*
D03*
X594400Y157000D02*
D03*
X594800Y152200D02*
D03*
X542300Y202100D02*
D03*
X565600D02*
D03*
X500815Y215334D02*
D03*
D35*
X1267392Y199908D02*
D03*
X1267391Y164964D02*
D03*
X981776Y164963D02*
D03*
X981776Y199906D02*
D03*
X1124583Y199906D02*
D03*
X1124583Y164963D02*
D03*
X838974Y164958D02*
D03*
X838974Y199902D02*
D03*
X696166Y199902D02*
D03*
X696166Y164959D02*
D03*
X553358Y164958D02*
D03*
X553358Y199902D02*
D03*
M02*
