G04 Layer_Color=8421504*
%FSLAX25Y25*%
%MOIN*%
G70*
G01*
G75*
%ADD13R,0.03937X0.04331*%
%ADD14R,0.02559X0.03937*%
%ADD15R,0.02362X0.02165*%
%ADD16O,0.01181X0.03150*%
%ADD17O,0.03150X0.01181*%
%ADD18R,0.12992X0.12992*%
%ADD19O,0.00984X0.03543*%
%ADD20O,0.03543X0.00984*%
%ADD21R,0.03150X0.04331*%
%ADD22R,0.07874X0.01575*%
%ADD23R,0.05906X0.03937*%
%ADD24C,0.01000*%
%ADD29C,0.00500*%
D13*
X1189034Y196754D02*
D03*
Y190061D02*
D03*
X1195033Y190258D02*
D03*
Y196951D02*
D03*
X1216033Y168254D02*
D03*
Y161562D02*
D03*
X1244526Y224046D02*
D03*
X1221533Y161258D02*
D03*
Y167951D02*
D03*
X1243534Y236754D02*
D03*
Y230062D02*
D03*
X1213938Y199760D02*
D03*
Y193067D02*
D03*
X1219279Y199728D02*
D03*
Y193036D02*
D03*
X1236434Y229358D02*
D03*
Y236051D02*
D03*
X1251134Y175954D02*
D03*
Y169261D02*
D03*
X1257133Y169358D02*
D03*
Y176051D02*
D03*
X1262134Y176054D02*
D03*
Y169361D02*
D03*
X1228633Y176254D02*
D03*
Y169562D02*
D03*
X1234534Y176254D02*
D03*
Y169562D02*
D03*
X1219069Y229239D02*
D03*
Y235932D02*
D03*
X1224533Y229258D02*
D03*
Y235951D02*
D03*
X1234433Y220954D02*
D03*
Y214262D02*
D03*
X1230933Y229458D02*
D03*
Y236151D02*
D03*
X1251534Y216758D02*
D03*
Y223451D02*
D03*
X1274533Y209254D02*
D03*
Y202561D02*
D03*
X1261633Y206054D02*
D03*
Y199362D02*
D03*
X1258733Y193654D02*
D03*
Y186961D02*
D03*
X973118Y193653D02*
D03*
Y186960D02*
D03*
X976018Y206053D02*
D03*
Y199360D02*
D03*
X988918Y209253D02*
D03*
Y202560D02*
D03*
X965918Y216757D02*
D03*
Y223449D02*
D03*
X945318Y229457D02*
D03*
Y236150D02*
D03*
X948818Y220953D02*
D03*
Y214260D02*
D03*
X938918Y229257D02*
D03*
Y235949D02*
D03*
X933454Y229238D02*
D03*
Y235931D02*
D03*
X948918Y176253D02*
D03*
Y169560D02*
D03*
X943018Y176253D02*
D03*
Y169560D02*
D03*
X976518Y176053D02*
D03*
Y169360D02*
D03*
X971518Y169357D02*
D03*
Y176050D02*
D03*
X965518Y175953D02*
D03*
Y169260D02*
D03*
X950818Y229357D02*
D03*
Y236050D02*
D03*
X933664Y199727D02*
D03*
Y193034D02*
D03*
X928322Y199758D02*
D03*
Y193066D02*
D03*
X957918Y236753D02*
D03*
Y230060D02*
D03*
X935918Y161257D02*
D03*
Y167949D02*
D03*
X958910Y224044D02*
D03*
X930418Y168253D02*
D03*
Y161560D02*
D03*
X909418Y190257D02*
D03*
Y196950D02*
D03*
X903418Y196753D02*
D03*
Y190060D02*
D03*
X1046225Y196753D02*
D03*
Y190060D02*
D03*
X1052225Y190257D02*
D03*
Y196949D02*
D03*
X1073225Y168253D02*
D03*
Y161560D02*
D03*
X1101717Y224044D02*
D03*
X1078725Y161257D02*
D03*
Y167949D02*
D03*
X1100725Y236753D02*
D03*
Y230060D02*
D03*
X1071130Y199758D02*
D03*
Y193065D02*
D03*
X1076471Y199727D02*
D03*
Y193034D02*
D03*
X1093625Y229357D02*
D03*
Y236049D02*
D03*
X1108325Y175953D02*
D03*
Y169260D02*
D03*
X1114325Y169357D02*
D03*
Y176049D02*
D03*
X1119325Y176053D02*
D03*
Y169360D02*
D03*
X1085825Y176253D02*
D03*
Y169560D02*
D03*
X1091725Y176253D02*
D03*
Y169560D02*
D03*
X1076261Y229238D02*
D03*
Y235930D02*
D03*
X1081725Y229257D02*
D03*
Y235949D02*
D03*
X1091625Y220953D02*
D03*
Y214260D02*
D03*
X1088125Y229457D02*
D03*
Y236149D02*
D03*
X1108725Y216757D02*
D03*
Y223449D02*
D03*
X1131725Y209253D02*
D03*
Y202560D02*
D03*
X1118825Y206053D02*
D03*
Y199360D02*
D03*
X1115925Y193653D02*
D03*
Y186960D02*
D03*
X830316Y193648D02*
D03*
Y186955D02*
D03*
X833216Y206048D02*
D03*
Y199355D02*
D03*
X846116Y209248D02*
D03*
Y202555D02*
D03*
X823116Y216752D02*
D03*
Y223445D02*
D03*
X802516Y229452D02*
D03*
Y236145D02*
D03*
X806016Y220948D02*
D03*
Y214255D02*
D03*
X796116Y229252D02*
D03*
Y235945D02*
D03*
X790652Y229233D02*
D03*
Y235926D02*
D03*
X806116Y176248D02*
D03*
Y169555D02*
D03*
X800216Y176248D02*
D03*
Y169555D02*
D03*
X833716Y176048D02*
D03*
Y169355D02*
D03*
X828716Y169352D02*
D03*
Y176045D02*
D03*
X822716Y175948D02*
D03*
Y169255D02*
D03*
X808016Y229352D02*
D03*
Y236045D02*
D03*
X790862Y199722D02*
D03*
Y193030D02*
D03*
X785520Y199754D02*
D03*
Y193061D02*
D03*
X815116Y236748D02*
D03*
Y230055D02*
D03*
X793116Y161252D02*
D03*
Y167945D02*
D03*
X816108Y224040D02*
D03*
X787616Y168248D02*
D03*
Y161555D02*
D03*
X766616Y190252D02*
D03*
Y196945D02*
D03*
X760616Y196748D02*
D03*
Y190055D02*
D03*
X617808Y196748D02*
D03*
Y190056D02*
D03*
X623808Y190252D02*
D03*
Y196945D02*
D03*
X644808Y168248D02*
D03*
Y161556D02*
D03*
X673300Y224040D02*
D03*
X650308Y161252D02*
D03*
Y167945D02*
D03*
X672308Y236748D02*
D03*
Y230056D02*
D03*
X642713Y199754D02*
D03*
Y193061D02*
D03*
X648054Y199723D02*
D03*
Y193030D02*
D03*
X665208Y229352D02*
D03*
Y236045D02*
D03*
X679908Y175949D02*
D03*
Y169255D02*
D03*
X685908Y169352D02*
D03*
Y176045D02*
D03*
X690908Y176048D02*
D03*
Y169356D02*
D03*
X657408Y176248D02*
D03*
Y169556D02*
D03*
X663308Y176248D02*
D03*
Y169556D02*
D03*
X647844Y229234D02*
D03*
Y235926D02*
D03*
X653308Y229252D02*
D03*
Y235945D02*
D03*
X663208Y220948D02*
D03*
Y214256D02*
D03*
X659708Y229452D02*
D03*
Y236145D02*
D03*
X680308Y216752D02*
D03*
Y223445D02*
D03*
X703308Y209248D02*
D03*
Y202556D02*
D03*
X690408Y206048D02*
D03*
Y199356D02*
D03*
X687508Y193648D02*
D03*
Y186956D02*
D03*
X475000Y196748D02*
D03*
Y190055D02*
D03*
X481000Y190252D02*
D03*
Y196945D02*
D03*
X502000Y168248D02*
D03*
Y161555D02*
D03*
X530492Y224039D02*
D03*
X507500Y161252D02*
D03*
Y167945D02*
D03*
X529500Y236748D02*
D03*
Y230055D02*
D03*
X499905Y199753D02*
D03*
Y193061D02*
D03*
X505246Y199722D02*
D03*
Y193029D02*
D03*
X522400Y229352D02*
D03*
Y236045D02*
D03*
X537100Y175948D02*
D03*
Y169255D02*
D03*
X543100Y169352D02*
D03*
Y176045D02*
D03*
X548100Y176048D02*
D03*
Y169355D02*
D03*
X514600Y176248D02*
D03*
Y169555D02*
D03*
X520500Y176248D02*
D03*
Y169555D02*
D03*
X505036Y229233D02*
D03*
Y235926D02*
D03*
X510500Y229252D02*
D03*
Y235945D02*
D03*
X520400Y220948D02*
D03*
Y214255D02*
D03*
X516900Y229452D02*
D03*
Y236145D02*
D03*
X537500Y216752D02*
D03*
Y223445D02*
D03*
X560500Y209248D02*
D03*
Y202555D02*
D03*
X547600Y206048D02*
D03*
Y199355D02*
D03*
X544700Y193648D02*
D03*
Y186955D02*
D03*
D14*
X1206459Y183073D02*
D03*
X1213939D02*
D03*
X1206459Y174609D02*
D03*
X1210199D02*
D03*
X1213939D02*
D03*
X1256217Y222568D02*
D03*
X1263697D02*
D03*
X1256217Y214103D02*
D03*
X1259957D02*
D03*
X1263697D02*
D03*
X970601Y222566D02*
D03*
X978081D02*
D03*
X970601Y214101D02*
D03*
X974341D02*
D03*
X978081D02*
D03*
X920843Y183072D02*
D03*
X928323D02*
D03*
X920843Y174607D02*
D03*
X924583D02*
D03*
X928323D02*
D03*
X1063650Y183072D02*
D03*
X1071131D02*
D03*
X1063650Y174607D02*
D03*
X1067391D02*
D03*
X1071131D02*
D03*
X1113408Y222566D02*
D03*
X1120889D02*
D03*
X1113408Y214101D02*
D03*
X1117149D02*
D03*
X1120889D02*
D03*
X827799Y222561D02*
D03*
X835279D02*
D03*
X827799Y214097D02*
D03*
X831539D02*
D03*
X835279D02*
D03*
X778041Y183067D02*
D03*
X785521D02*
D03*
X778041Y174603D02*
D03*
X781781D02*
D03*
X785521D02*
D03*
X635233Y183067D02*
D03*
X642714D02*
D03*
X635233Y174603D02*
D03*
X638974D02*
D03*
X642714D02*
D03*
X684991Y222562D02*
D03*
X692472D02*
D03*
X684991Y214097D02*
D03*
X688732D02*
D03*
X692472D02*
D03*
X492425Y183067D02*
D03*
X499906D02*
D03*
X492425Y174602D02*
D03*
X496165D02*
D03*
X499906D02*
D03*
X542183Y222561D02*
D03*
X549664D02*
D03*
X542183Y214097D02*
D03*
X545924D02*
D03*
X549664D02*
D03*
D15*
X1207662Y203736D02*
D03*
X1207662Y197837D02*
D03*
X1207664Y200786D02*
D03*
X1207664Y194885D02*
D03*
X1207662Y191935D02*
D03*
X1207663Y188982D02*
D03*
X1199785Y188988D02*
D03*
X1199784Y191941D02*
D03*
X1199787Y194892D02*
D03*
X1199787Y200793D02*
D03*
X1199785Y197844D02*
D03*
X1199784Y203742D02*
D03*
X922046Y203734D02*
D03*
X922047Y197836D02*
D03*
X922049Y200784D02*
D03*
X922048Y194884D02*
D03*
X922046Y191933D02*
D03*
X922047Y188980D02*
D03*
X914169Y188987D02*
D03*
X914169Y191939D02*
D03*
X914171Y194890D02*
D03*
X914171Y200791D02*
D03*
X914169Y197842D02*
D03*
X914169Y203741D02*
D03*
X1064854Y203734D02*
D03*
X1064854Y197836D02*
D03*
X1064856Y200784D02*
D03*
X1064856Y194884D02*
D03*
X1064853Y191933D02*
D03*
X1064854Y188980D02*
D03*
X1056977Y188987D02*
D03*
X1056976Y191939D02*
D03*
X1056978Y194890D02*
D03*
X1056979Y200791D02*
D03*
X1056977Y197842D02*
D03*
X1056976Y203740D02*
D03*
X779244Y203730D02*
D03*
X779245Y197831D02*
D03*
X779247Y200780D02*
D03*
X779246Y194879D02*
D03*
X779244Y191929D02*
D03*
X779245Y188976D02*
D03*
X771367Y188982D02*
D03*
X771367Y191935D02*
D03*
X771369Y194885D02*
D03*
X771369Y200786D02*
D03*
X771367Y197838D02*
D03*
X771367Y203736D02*
D03*
X636437Y203730D02*
D03*
X636437Y197832D02*
D03*
X636439Y200780D02*
D03*
X636439Y194879D02*
D03*
X636437Y191929D02*
D03*
X636437Y188976D02*
D03*
X628560Y188983D02*
D03*
X628559Y191935D02*
D03*
X628561Y194886D02*
D03*
X628562Y200787D02*
D03*
X628559Y197838D02*
D03*
X628559Y203736D02*
D03*
X493629Y203729D02*
D03*
X493629Y197831D02*
D03*
X493631Y200780D02*
D03*
X493631Y194879D02*
D03*
X493628Y191928D02*
D03*
X493629Y188976D02*
D03*
X485752Y188982D02*
D03*
X485751Y191935D02*
D03*
X485753Y194885D02*
D03*
X485754Y200786D02*
D03*
X485751Y197837D02*
D03*
X485751Y203736D02*
D03*
D16*
X1222963Y224277D02*
D03*
X1220995Y224277D02*
D03*
X1219028D02*
D03*
X1215091Y224277D02*
D03*
X1217059Y224277D02*
D03*
X1213123Y224276D02*
D03*
X1222964Y208532D02*
D03*
X1219027Y208531D02*
D03*
X1220995Y208532D02*
D03*
X1217059Y208531D02*
D03*
X1215091D02*
D03*
X1213123Y208531D02*
D03*
X937347Y224275D02*
D03*
X935379Y224275D02*
D03*
X933412D02*
D03*
X929475Y224275D02*
D03*
X931443Y224275D02*
D03*
X927507Y224275D02*
D03*
X937348Y208530D02*
D03*
X933411Y208530D02*
D03*
X935379Y208530D02*
D03*
X931443Y208530D02*
D03*
X929475D02*
D03*
X927507Y208530D02*
D03*
X1080155Y224275D02*
D03*
X1078187Y224275D02*
D03*
X1076219D02*
D03*
X1072283Y224275D02*
D03*
X1074251Y224275D02*
D03*
X1070315Y224275D02*
D03*
X1080155Y208530D02*
D03*
X1076219Y208530D02*
D03*
X1078187Y208530D02*
D03*
X1074250Y208530D02*
D03*
X1072283D02*
D03*
X1070315Y208530D02*
D03*
X794545Y224271D02*
D03*
X792577Y224271D02*
D03*
X790610D02*
D03*
X786673Y224271D02*
D03*
X788641Y224271D02*
D03*
X784705Y224270D02*
D03*
X794546Y208526D02*
D03*
X790609Y208525D02*
D03*
X792577Y208526D02*
D03*
X788641Y208525D02*
D03*
X786673D02*
D03*
X784705Y208525D02*
D03*
X651738Y224271D02*
D03*
X649770Y224271D02*
D03*
X647802D02*
D03*
X643866Y224271D02*
D03*
X645834Y224271D02*
D03*
X641897Y224271D02*
D03*
X651738Y208526D02*
D03*
X647802Y208526D02*
D03*
X649770Y208526D02*
D03*
X645833Y208526D02*
D03*
X643866D02*
D03*
X641898Y208525D02*
D03*
X508930Y224271D02*
D03*
X506962Y224271D02*
D03*
X504994D02*
D03*
X501058Y224270D02*
D03*
X503026Y224271D02*
D03*
X499089Y224270D02*
D03*
X508930Y208526D02*
D03*
X504994Y208525D02*
D03*
X506962Y208525D02*
D03*
X503025Y208525D02*
D03*
X501058D02*
D03*
X499090Y208525D02*
D03*
D17*
X1225916Y211484D02*
D03*
X1225916Y215421D02*
D03*
Y213453D02*
D03*
Y217389D02*
D03*
Y219356D02*
D03*
X1225916Y221325D02*
D03*
X1210171Y211484D02*
D03*
X1210171Y213452D02*
D03*
Y215419D02*
D03*
X1210170Y219356D02*
D03*
X1210171Y217388D02*
D03*
X1210170Y221324D02*
D03*
X940300Y211483D02*
D03*
X940300Y215419D02*
D03*
Y213451D02*
D03*
Y217388D02*
D03*
Y219355D02*
D03*
X940300Y221323D02*
D03*
X924555Y211482D02*
D03*
X924555Y213450D02*
D03*
Y215418D02*
D03*
X924555Y219354D02*
D03*
X924555Y217386D02*
D03*
X924554Y221322D02*
D03*
X1083108Y211483D02*
D03*
X1083107Y215419D02*
D03*
Y213451D02*
D03*
Y217387D02*
D03*
Y219355D02*
D03*
X1083107Y221323D02*
D03*
X1067362Y211482D02*
D03*
X1067362Y213450D02*
D03*
Y215418D02*
D03*
X1067362Y219354D02*
D03*
X1067362Y217386D02*
D03*
X1067362Y221322D02*
D03*
X797498Y211478D02*
D03*
X797498Y215414D02*
D03*
Y213447D02*
D03*
Y217383D02*
D03*
Y219350D02*
D03*
X797498Y221319D02*
D03*
X781753Y211478D02*
D03*
X781753Y213446D02*
D03*
Y215413D02*
D03*
X781753Y219350D02*
D03*
X781753Y217382D02*
D03*
X781752Y221318D02*
D03*
X654691Y211478D02*
D03*
X654690Y215415D02*
D03*
Y213447D02*
D03*
Y217383D02*
D03*
Y219351D02*
D03*
X654690Y221319D02*
D03*
X638945Y211478D02*
D03*
X638945Y213446D02*
D03*
Y215413D02*
D03*
X638945Y219350D02*
D03*
X638945Y217382D02*
D03*
X638945Y221318D02*
D03*
X511883Y211478D02*
D03*
X511882Y215414D02*
D03*
Y213446D02*
D03*
Y217383D02*
D03*
Y219350D02*
D03*
X511882Y221318D02*
D03*
X496137Y211477D02*
D03*
X496137Y213446D02*
D03*
Y215413D02*
D03*
X496137Y219349D02*
D03*
X496137Y217382D02*
D03*
X496137Y221318D02*
D03*
D18*
X1239534Y192006D02*
D03*
X953918Y192005D02*
D03*
X1096725Y192005D02*
D03*
X811116Y192000D02*
D03*
X668308Y192000D02*
D03*
X525500Y192000D02*
D03*
D19*
X1232644Y202046D02*
D03*
X1234612D02*
D03*
X1236581D02*
D03*
X1238549D02*
D03*
X1240518D02*
D03*
X1242486D02*
D03*
X1244455D02*
D03*
X1246423D02*
D03*
Y181967D02*
D03*
X1244455D02*
D03*
X1242486D02*
D03*
X1240518D02*
D03*
X1238549D02*
D03*
X1236581D02*
D03*
X1234612D02*
D03*
X1232644D02*
D03*
X947028Y202044D02*
D03*
X948996D02*
D03*
X950965D02*
D03*
X952933D02*
D03*
X954902D02*
D03*
X956870D02*
D03*
X958839D02*
D03*
X960807D02*
D03*
Y181965D02*
D03*
X958839D02*
D03*
X956870D02*
D03*
X954902D02*
D03*
X952933D02*
D03*
X950965D02*
D03*
X948996D02*
D03*
X947028D02*
D03*
X1089835Y202044D02*
D03*
X1091804D02*
D03*
X1093772D02*
D03*
X1095741D02*
D03*
X1097709D02*
D03*
X1099678D02*
D03*
X1101646D02*
D03*
X1103615D02*
D03*
Y181965D02*
D03*
X1101646D02*
D03*
X1099678D02*
D03*
X1097709D02*
D03*
X1095741D02*
D03*
X1093772D02*
D03*
X1091804D02*
D03*
X1089835D02*
D03*
X804226Y202040D02*
D03*
X806194D02*
D03*
X808163D02*
D03*
X810131D02*
D03*
X812100D02*
D03*
X814068D02*
D03*
X816037D02*
D03*
X818005D02*
D03*
Y181961D02*
D03*
X816037D02*
D03*
X814068D02*
D03*
X812100D02*
D03*
X810131D02*
D03*
X808163D02*
D03*
X806194D02*
D03*
X804226D02*
D03*
X661418Y202040D02*
D03*
X663387D02*
D03*
X665355D02*
D03*
X667324D02*
D03*
X669292D02*
D03*
X671261D02*
D03*
X673229D02*
D03*
X675198D02*
D03*
Y181961D02*
D03*
X673229D02*
D03*
X671261D02*
D03*
X669292D02*
D03*
X667324D02*
D03*
X665355D02*
D03*
X663387D02*
D03*
X661418D02*
D03*
X518610Y202039D02*
D03*
X520579D02*
D03*
X522547D02*
D03*
X524516D02*
D03*
X526484D02*
D03*
X528453D02*
D03*
X530421D02*
D03*
X532390D02*
D03*
Y181961D02*
D03*
X530421D02*
D03*
X528453D02*
D03*
X526484D02*
D03*
X524516D02*
D03*
X522547D02*
D03*
X520579D02*
D03*
X518610D02*
D03*
D20*
X1249573Y198896D02*
D03*
Y196927D02*
D03*
Y194959D02*
D03*
Y192991D02*
D03*
Y191022D02*
D03*
Y189053D02*
D03*
Y187085D02*
D03*
Y185117D02*
D03*
X1229494D02*
D03*
Y187085D02*
D03*
Y189053D02*
D03*
Y191022D02*
D03*
Y192991D02*
D03*
Y194959D02*
D03*
Y196927D02*
D03*
Y198896D02*
D03*
X963957Y198895D02*
D03*
Y196926D02*
D03*
Y194957D02*
D03*
Y192989D02*
D03*
Y191021D02*
D03*
Y189052D02*
D03*
Y187083D02*
D03*
Y185115D02*
D03*
X943878D02*
D03*
Y187083D02*
D03*
Y189052D02*
D03*
Y191021D02*
D03*
Y192989D02*
D03*
Y194957D02*
D03*
Y196926D02*
D03*
Y198895D02*
D03*
X1106765Y198894D02*
D03*
Y196926D02*
D03*
Y194957D02*
D03*
Y192989D02*
D03*
Y191020D02*
D03*
Y189052D02*
D03*
Y187083D02*
D03*
Y185115D02*
D03*
X1086686D02*
D03*
Y187083D02*
D03*
Y189052D02*
D03*
Y191020D02*
D03*
Y192989D02*
D03*
Y194957D02*
D03*
Y196926D02*
D03*
Y198894D02*
D03*
X821155Y198890D02*
D03*
Y196921D02*
D03*
Y194953D02*
D03*
Y192984D02*
D03*
Y191016D02*
D03*
Y189047D02*
D03*
Y187079D02*
D03*
Y185110D02*
D03*
X801076D02*
D03*
Y187079D02*
D03*
Y189047D02*
D03*
Y191016D02*
D03*
Y192984D02*
D03*
Y194953D02*
D03*
Y196921D02*
D03*
Y198890D02*
D03*
X678347Y198890D02*
D03*
Y196922D02*
D03*
Y194953D02*
D03*
Y192985D02*
D03*
Y191016D02*
D03*
Y189048D02*
D03*
Y187079D02*
D03*
Y185111D02*
D03*
X658269D02*
D03*
Y187079D02*
D03*
Y189048D02*
D03*
Y191016D02*
D03*
Y192985D02*
D03*
Y194953D02*
D03*
Y196922D02*
D03*
Y198890D02*
D03*
X535539Y198890D02*
D03*
Y196921D02*
D03*
Y194953D02*
D03*
Y192984D02*
D03*
Y191016D02*
D03*
Y189047D02*
D03*
Y187079D02*
D03*
Y185110D02*
D03*
X515461D02*
D03*
Y187079D02*
D03*
Y189047D02*
D03*
Y191016D02*
D03*
Y192984D02*
D03*
Y194953D02*
D03*
Y196921D02*
D03*
Y198890D02*
D03*
D21*
X1246691Y210069D02*
D03*
X1242360D02*
D03*
X961075Y210068D02*
D03*
X956744D02*
D03*
X1103883Y210068D02*
D03*
X1099552D02*
D03*
X818273Y210063D02*
D03*
X813942D02*
D03*
X675465Y210063D02*
D03*
X671135D02*
D03*
X532657Y210063D02*
D03*
X528327D02*
D03*
D22*
X1221429Y185465D02*
D03*
X1221428Y180742D02*
D03*
X1221432Y176016D02*
D03*
X935813Y185463D02*
D03*
X935812Y180740D02*
D03*
X935816Y176014D02*
D03*
X1078621Y185463D02*
D03*
X1078620Y180740D02*
D03*
X1078623Y176014D02*
D03*
X793011Y185458D02*
D03*
X793010Y180736D02*
D03*
X793014Y176010D02*
D03*
X650204Y185459D02*
D03*
X650203Y180736D02*
D03*
X650206Y176010D02*
D03*
X507396Y185458D02*
D03*
X507395Y180736D02*
D03*
X507398Y176009D02*
D03*
D23*
X1247655Y162390D02*
D03*
X1247654Y156093D02*
D03*
X1247654Y149794D02*
D03*
X1228357Y149795D02*
D03*
X1228357Y156094D02*
D03*
X1228358Y162391D02*
D03*
X962039Y162389D02*
D03*
X962039Y156091D02*
D03*
X962038Y149792D02*
D03*
X942741Y149793D02*
D03*
X942741Y156092D02*
D03*
X942742Y162390D02*
D03*
X1104847Y162389D02*
D03*
X1104846Y156091D02*
D03*
X1104846Y149792D02*
D03*
X1085548Y149793D02*
D03*
X1085549Y156092D02*
D03*
X1085550Y162390D02*
D03*
X819237Y162384D02*
D03*
X819237Y156087D02*
D03*
X819236Y149788D02*
D03*
X799939Y149789D02*
D03*
X799939Y156088D02*
D03*
X799940Y162385D02*
D03*
X676430Y162384D02*
D03*
X676429Y156087D02*
D03*
X676429Y149788D02*
D03*
X657131Y149789D02*
D03*
X657132Y156088D02*
D03*
X657132Y162385D02*
D03*
X533622Y162384D02*
D03*
X533621Y156086D02*
D03*
X533621Y149787D02*
D03*
X514323Y149788D02*
D03*
X514324Y156087D02*
D03*
X514324Y162385D02*
D03*
D24*
X994916Y155300D02*
D03*
D29*
X425029Y241174D02*
X1325373D01*
X424937Y143882D02*
X425005Y241146D01*
X424937Y143882D02*
X1325373Y143517D01*
Y241174D01*
M02*
