G04 Layer_Physical_Order=1*
G04 Layer_Color=255*
%FSLAX25Y25*%
%MOIN*%
G70*
G01*
G75*
%ADD10C,0.01000*%
%ADD11C,0.00500*%
%ADD12C,0.04200*%
%ADD13C,0.05906*%
%ADD14R,0.05906X0.05906*%
%ADD15C,0.03937*%
%ADD16R,0.03937X0.03937*%
D10*
X350500Y121500D02*
X351500Y120500D01*
X348000Y121500D02*
X350500D01*
Y158500D02*
X351500Y159500D01*
X348000Y158500D02*
X350500D01*
X348000Y130255D02*
X348097Y130352D01*
X348000Y121500D02*
Y130255D01*
Y150449D02*
X348097Y150352D01*
X348000Y150449D02*
Y158500D01*
X334252Y137900D02*
X336252Y135899D01*
X316978Y137900D02*
X334252D01*
X316879Y137999D02*
X316978Y137900D01*
X334350Y144099D02*
X338097Y140352D01*
X319044Y144099D02*
X334350D01*
X316445Y141500D02*
X319044Y144099D01*
X313000Y141500D02*
X316445D01*
X343644Y135899D02*
X348097Y140352D01*
X336252Y135899D02*
X343644D01*
X315380Y136500D02*
X316879Y137999D01*
X313000Y136500D02*
X315380D01*
X331500Y154000D02*
X333499D01*
X332500D01*
Y159998D01*
X331500Y158998D01*
D11*
X337999Y122499D02*
X337499Y122999D01*
X336500D01*
X336000Y122499D01*
Y120500D01*
X336500Y120000D01*
X337499D01*
X337999Y120500D01*
Y121500D01*
X337000D01*
X338999Y120000D02*
Y122999D01*
X340998Y120000D01*
Y122999D01*
X341998D02*
Y120000D01*
X343498D01*
X343997Y120500D01*
Y122499D01*
X343498Y122999D01*
X341998D01*
X336000Y160499D02*
Y158500D01*
X337000Y157500D01*
X337999Y158500D01*
Y160499D01*
X340998Y159999D02*
X340498Y160499D01*
X339499D01*
X338999Y159999D01*
Y158000D01*
X339499Y157500D01*
X340498D01*
X340998Y158000D01*
X343997Y159999D02*
X343498Y160499D01*
X342498D01*
X341998Y159999D01*
Y158000D01*
X342498Y157500D01*
X343498D01*
X343997Y158000D01*
X318500Y126999D02*
Y125000D01*
X319500Y124000D01*
X320499Y125000D01*
Y126999D01*
X323498Y126499D02*
X322998Y126999D01*
X321999D01*
X321499Y126499D01*
Y124500D01*
X321999Y124000D01*
X322998D01*
X323498Y124500D01*
X326497Y126499D02*
X325998Y126999D01*
X324998D01*
X324498Y126499D01*
Y124500D01*
X324998Y124000D01*
X325998D01*
X326497Y124500D01*
X318000Y128500D02*
Y131499D01*
X319000Y130499D01*
X319999Y131499D01*
Y128500D01*
X320999Y131499D02*
X321999D01*
X321499D01*
Y128500D01*
X320999D01*
X321999D01*
X325498Y130999D02*
X324998Y131499D01*
X323998D01*
X323498Y130999D01*
Y130499D01*
X323998Y129999D01*
X324998D01*
X325498Y129500D01*
Y129000D01*
X324998Y128500D01*
X323998D01*
X323498Y129000D01*
X327997Y131499D02*
X326997D01*
X326497Y130999D01*
Y129000D01*
X326997Y128500D01*
X327997D01*
X328497Y129000D01*
Y130999D01*
X327997Y131499D01*
X318000Y133000D02*
Y135999D01*
X319000Y134999D01*
X319999Y135999D01*
Y133000D01*
X322498Y135999D02*
X321499D01*
X320999Y135499D01*
Y133500D01*
X321499Y133000D01*
X322498D01*
X322998Y133500D01*
Y135499D01*
X322498Y135999D01*
X325997Y135499D02*
X325498Y135999D01*
X324498D01*
X323998Y135499D01*
Y134999D01*
X324498Y134500D01*
X325498D01*
X325997Y134000D01*
Y133500D01*
X325498Y133000D01*
X324498D01*
X323998Y133500D01*
X326997Y135999D02*
X327997D01*
X327497D01*
Y133000D01*
X326997D01*
X327997D01*
X321999Y141999D02*
X321499Y142499D01*
X320500D01*
X320000Y141999D01*
Y141499D01*
X320500Y140999D01*
X321499D01*
X321999Y140500D01*
Y140000D01*
X321499Y139500D01*
X320500D01*
X320000Y140000D01*
X324998Y141999D02*
X324499Y142499D01*
X323499D01*
X322999Y141999D01*
Y140000D01*
X323499Y139500D01*
X324499D01*
X324998Y140000D01*
X325998Y142499D02*
Y139500D01*
Y140500D01*
X327997Y142499D01*
X326498Y140999D01*
X327997Y139500D01*
X317500Y146000D02*
Y148999D01*
X319000D01*
X319499Y148499D01*
Y147500D01*
X319000Y147000D01*
X317500D01*
X318500D02*
X319499Y146000D01*
X322498Y148999D02*
X320499D01*
Y146000D01*
X322498D01*
X320499Y147500D02*
X321499D01*
X325497Y148499D02*
X324998Y148999D01*
X323998D01*
X323498Y148499D01*
Y147999D01*
X323998Y147500D01*
X324998D01*
X325497Y147000D01*
Y146500D01*
X324998Y146000D01*
X323998D01*
X323498Y146500D01*
X328496Y148999D02*
X326497D01*
Y146000D01*
X328496D01*
X326497Y147500D02*
X327497D01*
X329496Y148999D02*
X331495D01*
X330496D01*
Y146000D01*
X319999Y153499D02*
X319499Y153999D01*
X318500D01*
X318000Y153499D01*
Y151500D01*
X318500Y151000D01*
X319499D01*
X319999Y151500D01*
Y152499D01*
X319000D01*
X320999Y151000D02*
Y153999D01*
X322998Y151000D01*
Y153999D01*
X323998D02*
Y151000D01*
X325498D01*
X325997Y151500D01*
Y153499D01*
X325498Y153999D01*
X323998D01*
X307500Y117000D02*
Y162500D01*
Y117000D02*
X355000D01*
Y162500D01*
X307500D02*
X355000D01*
D12*
X351500Y159500D02*
D03*
Y120500D02*
D03*
D13*
X348097Y130352D02*
D03*
X338097D02*
D03*
X348097Y140352D02*
D03*
X338097D02*
D03*
X348097Y150352D02*
D03*
D14*
X338097D02*
D03*
D15*
X313000Y156500D02*
D03*
Y151500D02*
D03*
Y146500D02*
D03*
Y141500D02*
D03*
Y136500D02*
D03*
Y131500D02*
D03*
Y126500D02*
D03*
D16*
Y121500D02*
D03*
M02*
