G04 Layer_Physical_Order=2*
G04 Layer_Color=16711680*
%FSLAX25Y25*%
%MOIN*%
G70*
G01*
G75*
%ADD36C,0.02000*%
%ADD37C,0.01600*%
%ADD38C,0.00800*%
%ADD42C,0.01200*%
%ADD43R,0.00984X0.00787*%
%ADD44R,0.09000X0.07000*%
%ADD45C,0.05512*%
%ADD46R,0.05906X0.05906*%
%ADD47C,0.05906*%
%ADD48C,0.02500*%
%ADD49C,0.02100*%
%ADD50C,0.15201*%
G36*
X325000Y102500D02*
X257829D01*
X257755Y103000D01*
X257807Y103016D01*
X259301Y103814D01*
X260611Y104889D01*
X261686Y106199D01*
X262484Y107693D01*
X262976Y109314D01*
X263093Y110500D01*
X245907D01*
X246024Y109314D01*
X246516Y107693D01*
X247314Y106199D01*
X248389Y104889D01*
X249699Y103814D01*
X251193Y103016D01*
X251245Y103000D01*
X251171Y102500D01*
X145277D01*
X145011Y103000D01*
X145270Y103624D01*
X145385Y104500D01*
X145270Y105376D01*
X145141Y105687D01*
X145319Y105954D01*
X145427Y106500D01*
X145427Y106500D01*
Y114169D01*
X165012D01*
X165178Y114057D01*
X165900Y113914D01*
X166622Y114057D01*
X167234Y114466D01*
X167643Y115078D01*
X167786Y115800D01*
X167643Y116522D01*
X167234Y117134D01*
X166622Y117543D01*
X165900Y117686D01*
X165178Y117543D01*
X165012Y117431D01*
X143176D01*
X135831Y124776D01*
Y130573D01*
X136293Y130765D01*
X137888Y129171D01*
X137814Y128800D01*
X137957Y128078D01*
X138366Y127466D01*
X138978Y127057D01*
X139700Y126914D01*
X140422Y127057D01*
X141034Y127466D01*
X141443Y128078D01*
X141586Y128800D01*
X141443Y129522D01*
X141034Y130134D01*
X140422Y130543D01*
X139700Y130686D01*
X139329Y130613D01*
X137220Y132722D01*
Y149441D01*
X137720Y149611D01*
X138107Y149107D01*
X138808Y148569D01*
X139624Y148231D01*
X140500Y148115D01*
X141376Y148231D01*
X142192Y148569D01*
X142894Y149107D01*
X143431Y149808D01*
X143710Y150480D01*
X188385D01*
X188576Y150019D01*
X178279Y139721D01*
X178211Y139620D01*
X143844D01*
X143634Y139934D01*
X143022Y140343D01*
X142300Y140486D01*
X141578Y140343D01*
X140966Y139934D01*
X140557Y139322D01*
X140414Y138600D01*
X140557Y137878D01*
X140966Y137266D01*
X141578Y136857D01*
X142300Y136714D01*
X143022Y136857D01*
X143634Y137266D01*
X143844Y137580D01*
X179000D01*
X179390Y137658D01*
X179721Y137879D01*
X179942Y138210D01*
X180014Y138572D01*
X195294Y153852D01*
X195648Y153700D01*
X195769Y153620D01*
X195907Y152929D01*
X196316Y152317D01*
X196928Y151908D01*
X197650Y151764D01*
X198371Y151908D01*
X198983Y152317D01*
X199193Y152631D01*
X220150D01*
X220540Y152708D01*
X220871Y152929D01*
X234922Y166980D01*
X239456D01*
X239666Y166666D01*
X240278Y166257D01*
X241000Y166114D01*
X241722Y166257D01*
X242334Y166666D01*
X242743Y167278D01*
X242886Y168000D01*
X242743Y168722D01*
X242334Y169334D01*
X241722Y169743D01*
X241000Y169886D01*
X240278Y169743D01*
X239666Y169334D01*
X239456Y169020D01*
X234499D01*
X234109Y168942D01*
X233778Y168721D01*
X219727Y154670D01*
X199193D01*
X198983Y154984D01*
X198371Y155393D01*
X197680Y155531D01*
X197600Y155652D01*
X197448Y156006D01*
X201272Y159830D01*
X201932D01*
X202322Y159908D01*
X202653Y160129D01*
X203971Y161447D01*
X204136Y161694D01*
X204221Y161779D01*
X204442Y162110D01*
X204520Y162500D01*
Y178600D01*
X204442Y178990D01*
X204221Y179321D01*
X203861Y179680D01*
X204069Y180180D01*
X212353D01*
X212564Y179680D01*
X212257Y179222D01*
X212114Y178500D01*
X212257Y177778D01*
X212666Y177166D01*
X213278Y176757D01*
X214000Y176614D01*
X214371Y176688D01*
X219279Y171779D01*
X219610Y171558D01*
X220000Y171480D01*
X235956D01*
X236166Y171166D01*
X236778Y170757D01*
X237500Y170614D01*
X238222Y170757D01*
X238834Y171166D01*
X239243Y171778D01*
X239386Y172500D01*
X239243Y173222D01*
X238834Y173834D01*
X238222Y174243D01*
X237500Y174386D01*
X236778Y174243D01*
X236166Y173834D01*
X235956Y173520D01*
X220422D01*
X215812Y178129D01*
X215886Y178500D01*
X215743Y179222D01*
X215436Y179680D01*
X215647Y180180D01*
X249178D01*
X251079Y178279D01*
X251410Y178058D01*
X251800Y177980D01*
X252956D01*
X253166Y177666D01*
X253778Y177257D01*
X254500Y177114D01*
X255222Y177257D01*
X255834Y177666D01*
X256243Y178278D01*
X256386Y179000D01*
X256243Y179722D01*
X255834Y180334D01*
X255222Y180743D01*
X254500Y180886D01*
X253778Y180743D01*
X253166Y180334D01*
X252956Y180020D01*
X252222D01*
X250977Y181265D01*
X251168Y181727D01*
X282547D01*
X282937Y181805D01*
X283268Y182026D01*
X307309Y206067D01*
X307434Y206000D01*
X309500D01*
Y208066D01*
X309433Y208191D01*
X317729Y216488D01*
X318100Y216414D01*
X318822Y216557D01*
X319434Y216966D01*
X319843Y217578D01*
X319986Y218300D01*
X319843Y219022D01*
X319434Y219634D01*
X318822Y220043D01*
X318100Y220186D01*
X317378Y220043D01*
X316766Y219634D01*
X316357Y219022D01*
X316214Y218300D01*
X316287Y217929D01*
X282124Y183766D01*
X247361D01*
X247170Y184228D01*
X256621Y193679D01*
X256842Y194010D01*
X256920Y194400D01*
Y196800D01*
X256842Y197190D01*
X256621Y197521D01*
X255961Y198180D01*
X256169Y198680D01*
X282785D01*
X282977Y198219D01*
X275778Y191020D01*
X258544D01*
X258334Y191334D01*
X257722Y191743D01*
X257000Y191886D01*
X256278Y191743D01*
X255666Y191334D01*
X255257Y190722D01*
X255114Y190000D01*
X255257Y189278D01*
X255666Y188666D01*
X256278Y188257D01*
X257000Y188114D01*
X257722Y188257D01*
X258334Y188666D01*
X258544Y188980D01*
X276200D01*
X276590Y189058D01*
X276921Y189279D01*
X286621Y198979D01*
X298888Y211246D01*
X299259Y211173D01*
X299981Y211316D01*
X300593Y211725D01*
X301002Y212337D01*
X301145Y213059D01*
X301002Y213781D01*
X300593Y214393D01*
X299981Y214802D01*
X299259Y214945D01*
X298537Y214802D01*
X297925Y214393D01*
X297516Y213781D01*
X297373Y213059D01*
X297446Y212688D01*
X285478Y200720D01*
X240147D01*
X239980Y201220D01*
X240431Y201808D01*
X240770Y202624D01*
X240885Y203500D01*
X240770Y204376D01*
X240431Y205192D01*
X239894Y205893D01*
X239192Y206431D01*
X238452Y206738D01*
X238442Y206790D01*
X238221Y207121D01*
X226321Y219021D01*
X225990Y219242D01*
X225600Y219320D01*
X219761D01*
X219542Y219809D01*
X219754Y220080D01*
X227478D01*
X238279Y209279D01*
X238610Y209058D01*
X239000Y208980D01*
X258943D01*
X259153Y208666D01*
X259765Y208257D01*
X260486Y208114D01*
X261208Y208257D01*
X261820Y208666D01*
X262229Y209278D01*
X262373Y210000D01*
X262229Y210722D01*
X261820Y211334D01*
X261208Y211743D01*
X260486Y211886D01*
X259765Y211743D01*
X259153Y211334D01*
X258943Y211020D01*
X256553D01*
Y217553D01*
X251754D01*
X237154Y232154D01*
X236624Y232507D01*
X236000Y232631D01*
X227288D01*
X227122Y232743D01*
X226400Y232886D01*
X225678Y232743D01*
X225066Y232334D01*
X224657Y231722D01*
X224514Y231000D01*
X224657Y230278D01*
X225066Y229666D01*
X225678Y229257D01*
X226400Y229114D01*
X227122Y229257D01*
X227288Y229369D01*
X235324D01*
X249447Y215246D01*
Y211020D01*
X246326D01*
X246079Y211520D01*
X246453Y212007D01*
X246851Y212968D01*
X246921Y213500D01*
X239079D01*
X239149Y212968D01*
X239547Y212007D01*
X239717Y211785D01*
X239496Y211252D01*
X239224Y211217D01*
X228621Y221821D01*
X228290Y222042D01*
X227900Y222120D01*
X219200D01*
X218810Y222042D01*
X218479Y221821D01*
X203528Y206870D01*
X173700D01*
X173310Y206792D01*
X172979Y206571D01*
X163521Y197113D01*
X163150Y197186D01*
X162428Y197043D01*
X161816Y196634D01*
X161407Y196022D01*
X161264Y195300D01*
X161407Y194578D01*
X161816Y193966D01*
X162428Y193557D01*
X163150Y193414D01*
X163872Y193557D01*
X164484Y193966D01*
X164893Y194578D01*
X165036Y195300D01*
X164962Y195671D01*
X174122Y204830D01*
X180785D01*
X180976Y204368D01*
X171179Y194571D01*
X170958Y194240D01*
X170880Y193850D01*
Y182944D01*
X170566Y182734D01*
X170157Y182122D01*
X170014Y181400D01*
X170157Y180678D01*
X170566Y180066D01*
X171178Y179657D01*
X171900Y179514D01*
X172622Y179657D01*
X173234Y180066D01*
X173643Y180678D01*
X173786Y181400D01*
X173643Y182122D01*
X173234Y182734D01*
X172920Y182944D01*
Y193428D01*
X182922Y203430D01*
X196067D01*
X196302Y202989D01*
X196257Y202922D01*
X196114Y202200D01*
X196257Y201478D01*
X196666Y200866D01*
X196980Y200656D01*
Y194245D01*
X197058Y193855D01*
X197215Y193620D01*
X197053Y193120D01*
X183074D01*
X182850Y193583D01*
X182848Y193601D01*
X184935Y195687D01*
X185306Y195614D01*
X186027Y195757D01*
X186639Y196166D01*
X187048Y196778D01*
X187192Y197500D01*
X187048Y198222D01*
X186639Y198834D01*
X186027Y199243D01*
X185306Y199386D01*
X184584Y199243D01*
X183972Y198834D01*
X183563Y198222D01*
X183419Y197500D01*
X183493Y197129D01*
X175279Y188915D01*
X175058Y188585D01*
X174980Y188194D01*
Y183600D01*
X175058Y183210D01*
X175279Y182879D01*
X181029Y177129D01*
X181360Y176908D01*
X181750Y176830D01*
X189200D01*
X189590Y176908D01*
X189921Y177129D01*
X191222Y178430D01*
X202228D01*
X202480Y178178D01*
Y176000D01*
X202039Y175764D01*
X201922Y175843D01*
X201200Y175986D01*
X200478Y175843D01*
X199866Y175434D01*
X199457Y174822D01*
X199314Y174100D01*
X199457Y173378D01*
X199866Y172766D01*
X200180Y172556D01*
Y168293D01*
X190807Y158920D01*
X189083D01*
X188847Y159361D01*
X188892Y159429D01*
X189036Y160150D01*
X188892Y160872D01*
X188483Y161484D01*
X187871Y161893D01*
X187675Y161932D01*
X160015Y189592D01*
X159108Y194649D01*
X186189Y221730D01*
X186973D01*
X187139Y221618D01*
X187861Y221475D01*
X188583Y221618D01*
X189195Y222027D01*
X189604Y222639D01*
X189747Y223361D01*
X189604Y224083D01*
X189195Y224695D01*
X188583Y225104D01*
X187861Y225247D01*
X187139Y225104D01*
X186973Y224992D01*
X185513D01*
X184889Y224868D01*
X184360Y224515D01*
X156292Y196447D01*
X156087Y196352D01*
X155673Y196344D01*
X155609Y196384D01*
X155222Y196643D01*
X154500Y196786D01*
X153778Y196643D01*
X153166Y196234D01*
X152956Y195920D01*
X145522D01*
X142491Y198951D01*
X142770Y199624D01*
X142885Y200500D01*
X142770Y201376D01*
X142431Y202192D01*
X141893Y202893D01*
X141192Y203431D01*
X140376Y203769D01*
X139500Y203885D01*
X138624Y203769D01*
X137808Y203431D01*
X137107Y202893D01*
X136569Y202192D01*
X136231Y201376D01*
X136115Y200500D01*
X136231Y199624D01*
X136569Y198808D01*
X137107Y198107D01*
X137808Y197569D01*
X138624Y197231D01*
X139500Y197115D01*
X140376Y197231D01*
X141049Y197509D01*
X144379Y194179D01*
X144710Y193958D01*
X145100Y193880D01*
X152956D01*
X153166Y193566D01*
X153778Y193157D01*
X154500Y193014D01*
X154999Y193113D01*
X155245Y192652D01*
X149424Y186831D01*
X138600D01*
X137976Y186707D01*
X137446Y186354D01*
X133046Y181954D01*
X132693Y181424D01*
X132569Y180800D01*
Y124100D01*
X132693Y123476D01*
X133046Y122947D01*
X141347Y114646D01*
X141876Y114293D01*
X142500Y114169D01*
X142573D01*
Y108189D01*
X142197Y107859D01*
X142000Y107885D01*
X141124Y107770D01*
X140308Y107431D01*
X139606Y106894D01*
X139069Y106192D01*
X138731Y105376D01*
X138615Y104500D01*
X138731Y103624D01*
X138989Y103000D01*
X138723Y102500D01*
X108653D01*
X108462Y102962D01*
X108500Y103000D01*
Y128892D01*
X110730D01*
Y137092D01*
X108500D01*
Y146832D01*
X110685D01*
Y155032D01*
X108500D01*
Y171892D01*
X110730D01*
Y180092D01*
X108500D01*
Y185703D01*
X110677D01*
Y193903D01*
X108500D01*
Y199968D01*
X111055D01*
Y203968D01*
X105555D01*
Y204968D01*
X111055D01*
Y208968D01*
X108500D01*
Y237500D01*
X325000D01*
Y102500D01*
D02*
G37*
%LPC*%
G36*
X163695Y146500D02*
X162000D01*
Y144805D01*
X162378Y144880D01*
X163122Y145378D01*
X163619Y146122D01*
X163695Y146500D01*
D02*
G37*
G36*
X161000Y149195D02*
X160622Y149119D01*
X159878Y148622D01*
X159380Y147878D01*
X159305Y147500D01*
X161000D01*
Y149195D01*
D02*
G37*
G36*
X162000D02*
Y147500D01*
X163695D01*
X163619Y147878D01*
X163122Y148622D01*
X162378Y149119D01*
X162000Y149195D01*
D02*
G37*
G36*
X312500Y138695D02*
Y137000D01*
X314195D01*
X314120Y137378D01*
X313622Y138122D01*
X312878Y138619D01*
X312500Y138695D01*
D02*
G37*
G36*
X211432Y141870D02*
X202250D01*
X201860Y141792D01*
X201529Y141571D01*
X199871Y139912D01*
X199500Y139986D01*
X198778Y139843D01*
X198166Y139434D01*
X197757Y138822D01*
X197614Y138100D01*
X197757Y137378D01*
X198166Y136766D01*
X198778Y136357D01*
X199500Y136214D01*
X200222Y136357D01*
X200834Y136766D01*
X201243Y137378D01*
X201386Y138100D01*
X201312Y138471D01*
X202672Y139830D01*
X208567D01*
X208803Y139389D01*
X208757Y139322D01*
X208614Y138600D01*
X208757Y137878D01*
X209166Y137266D01*
X209778Y136857D01*
X210500Y136714D01*
X210871Y136787D01*
X220988Y126671D01*
X220914Y126300D01*
X221057Y125578D01*
X221163Y125420D01*
X220896Y124920D01*
X195922D01*
X185812Y135029D01*
X185886Y135400D01*
X185743Y136122D01*
X185334Y136734D01*
X184722Y137143D01*
X184000Y137286D01*
X183278Y137143D01*
X182666Y136734D01*
X182257Y136122D01*
X182114Y135400D01*
X182257Y134678D01*
X182666Y134066D01*
X183278Y133657D01*
X184000Y133514D01*
X184371Y133588D01*
X194779Y123179D01*
X195110Y122958D01*
X195500Y122880D01*
X233800D01*
X234190Y122958D01*
X234521Y123179D01*
X238129Y126787D01*
X238500Y126714D01*
X239222Y126857D01*
X239834Y127266D01*
X240243Y127878D01*
X240386Y128600D01*
X240243Y129322D01*
X239834Y129934D01*
X239222Y130343D01*
X238500Y130486D01*
X237778Y130343D01*
X237166Y129934D01*
X236757Y129322D01*
X236614Y128600D01*
X236687Y128229D01*
X233378Y124920D01*
X224704D01*
X224437Y125420D01*
X224543Y125578D01*
X224686Y126300D01*
X224543Y127022D01*
X224134Y127634D01*
X223522Y128043D01*
X222800Y128186D01*
X222429Y128112D01*
X212419Y138123D01*
X212663Y138584D01*
X212682Y138580D01*
X215956D01*
X216166Y138266D01*
X216778Y137857D01*
X217500Y137714D01*
X218222Y137857D01*
X218834Y138266D01*
X219243Y138878D01*
X219386Y139600D01*
X219243Y140322D01*
X218834Y140934D01*
X218222Y141343D01*
X217500Y141486D01*
X216778Y141343D01*
X216166Y140934D01*
X215956Y140620D01*
X213104D01*
X212153Y141571D01*
X211822Y141792D01*
X211432Y141870D01*
D02*
G37*
G36*
X161000Y146500D02*
X159305D01*
X159380Y146122D01*
X159878Y145378D01*
X160622Y144880D01*
X161000Y144805D01*
Y146500D01*
D02*
G37*
G36*
X140000Y194885D02*
X139124Y194770D01*
X138308Y194431D01*
X137607Y193894D01*
X137069Y193192D01*
X136731Y192376D01*
X136615Y191500D01*
X136731Y190624D01*
X137069Y189808D01*
X137607Y189107D01*
X138308Y188569D01*
X139124Y188231D01*
X140000Y188115D01*
X140876Y188231D01*
X141692Y188569D01*
X142394Y189107D01*
X142931Y189808D01*
X143270Y190624D01*
X143385Y191500D01*
X143270Y192376D01*
X142931Y193192D01*
X142394Y193894D01*
X141692Y194431D01*
X140876Y194770D01*
X140000Y194885D01*
D02*
G37*
G36*
X309500Y205000D02*
X307805D01*
X307880Y204622D01*
X308378Y203878D01*
X309122Y203380D01*
X309500Y203305D01*
Y205000D01*
D02*
G37*
G36*
X312195D02*
X310500D01*
Y203305D01*
X310878Y203380D01*
X311622Y203878D01*
X312120Y204622D01*
X312195Y205000D01*
D02*
G37*
G36*
X310500Y207695D02*
Y206000D01*
X312195D01*
X312120Y206378D01*
X311622Y207122D01*
X310878Y207620D01*
X310500Y207695D01*
D02*
G37*
G36*
X305000Y196695D02*
Y195000D01*
X306695D01*
X306620Y195378D01*
X306122Y196122D01*
X305378Y196619D01*
X305000Y196695D01*
D02*
G37*
G36*
X304000Y194000D02*
X302305D01*
X302380Y193622D01*
X302878Y192878D01*
X303622Y192380D01*
X304000Y192305D01*
Y194000D01*
D02*
G37*
G36*
X306695D02*
X305000D01*
Y192305D01*
X305378Y192380D01*
X306122Y192878D01*
X306620Y193622D01*
X306695Y194000D01*
D02*
G37*
G36*
X304000Y196695D02*
X303622Y196619D01*
X302878Y196122D01*
X302380Y195378D01*
X302305Y195000D01*
X304000D01*
Y196695D01*
D02*
G37*
G36*
X311500Y138695D02*
X311122Y138619D01*
X310378Y138122D01*
X309880Y137378D01*
X309805Y137000D01*
X311500D01*
Y138695D01*
D02*
G37*
G36*
X177195Y118000D02*
X175500D01*
Y116305D01*
X175878Y116381D01*
X176622Y116878D01*
X177120Y117622D01*
X177195Y118000D01*
D02*
G37*
G36*
X174500Y120695D02*
X174122Y120619D01*
X173378Y120122D01*
X172880Y119378D01*
X172805Y119000D01*
X174500D01*
Y120695D01*
D02*
G37*
G36*
X175500D02*
Y119000D01*
X177195D01*
X177120Y119378D01*
X176622Y120122D01*
X175878Y120619D01*
X175500Y120695D01*
D02*
G37*
G36*
X174500Y118000D02*
X172805D01*
X172880Y117622D01*
X173378Y116878D01*
X174122Y116381D01*
X174500Y116305D01*
Y118000D01*
D02*
G37*
G36*
X133500Y110885D02*
X132624Y110769D01*
X131808Y110431D01*
X131106Y109894D01*
X130569Y109192D01*
X130230Y108376D01*
X130115Y107500D01*
X130230Y106624D01*
X130569Y105808D01*
X131106Y105106D01*
X131808Y104569D01*
X132624Y104230D01*
X133500Y104115D01*
X134376Y104230D01*
X135192Y104569D01*
X135893Y105106D01*
X136431Y105808D01*
X136769Y106624D01*
X136885Y107500D01*
X136769Y108376D01*
X136431Y109192D01*
X135893Y109894D01*
X135192Y110431D01*
X134376Y110769D01*
X133500Y110885D01*
D02*
G37*
G36*
X254000Y119593D02*
X252814Y119476D01*
X251193Y118984D01*
X249699Y118186D01*
X248389Y117111D01*
X247314Y115801D01*
X246516Y114307D01*
X246024Y112686D01*
X245907Y111500D01*
X254000D01*
Y119593D01*
D02*
G37*
G36*
X255000D02*
Y111500D01*
X263093D01*
X262976Y112686D01*
X262484Y114307D01*
X261686Y115801D01*
X260611Y117111D01*
X259301Y118186D01*
X257807Y118984D01*
X256186Y119476D01*
X255000Y119593D01*
D02*
G37*
G36*
X233488Y134895D02*
X232844Y134767D01*
X232298Y134402D01*
X231933Y133856D01*
X231805Y133212D01*
X231933Y132569D01*
X232298Y132023D01*
X232844Y131658D01*
X233488Y131530D01*
X234132Y131658D01*
X234677Y132023D01*
X235042Y132569D01*
X235170Y133212D01*
X235042Y133856D01*
X234677Y134402D01*
X234132Y134767D01*
X233488Y134895D01*
D02*
G37*
G36*
X314195Y136000D02*
X312500D01*
Y134305D01*
X312878Y134380D01*
X313622Y134878D01*
X314120Y135622D01*
X314195Y136000D01*
D02*
G37*
G36*
X258000Y136695D02*
X257622Y136619D01*
X256878Y136122D01*
X256381Y135378D01*
X256305Y135000D01*
X258000D01*
Y136695D01*
D02*
G37*
G36*
X259000D02*
Y135000D01*
X260695D01*
X260619Y135378D01*
X260122Y136122D01*
X259378Y136619D01*
X259000Y136695D01*
D02*
G37*
G36*
X311500Y136000D02*
X309805D01*
X309880Y135622D01*
X310378Y134878D01*
X311122Y134380D01*
X311500Y134305D01*
Y136000D01*
D02*
G37*
G36*
X198492Y134903D02*
X197848Y134775D01*
X197302Y134410D01*
X196938Y133865D01*
X196810Y133221D01*
X196938Y132577D01*
X197302Y132031D01*
X197848Y131667D01*
X198492Y131538D01*
X199136Y131667D01*
X199682Y132031D01*
X200046Y132577D01*
X200174Y133221D01*
X200046Y133865D01*
X199682Y134410D01*
X199136Y134775D01*
X198492Y134903D01*
D02*
G37*
G36*
X258000Y134000D02*
X256305D01*
X256381Y133622D01*
X256878Y132878D01*
X257622Y132380D01*
X258000Y132305D01*
Y134000D01*
D02*
G37*
G36*
X260695D02*
X259000D01*
Y132305D01*
X259378Y132380D01*
X260122Y132878D01*
X260619Y133622D01*
X260695Y134000D01*
D02*
G37*
G36*
X144667Y225287D02*
X141445D01*
Y222065D01*
X141925Y222128D01*
X142839Y222507D01*
X143624Y223109D01*
X144226Y223893D01*
X144604Y224807D01*
X144667Y225287D01*
D02*
G37*
G36*
X140445Y229510D02*
X139964Y229447D01*
X139051Y229068D01*
X138266Y228466D01*
X137664Y227682D01*
X137286Y226768D01*
X137222Y226287D01*
X140445D01*
Y229510D01*
D02*
G37*
G36*
X141445D02*
Y226287D01*
X144667D01*
X144604Y226768D01*
X144226Y227682D01*
X143624Y228466D01*
X142839Y229068D01*
X141925Y229447D01*
X141445Y229510D01*
D02*
G37*
G36*
X140445Y225287D02*
X137222D01*
X137286Y224807D01*
X137664Y223893D01*
X138266Y223109D01*
X139051Y222507D01*
X139964Y222128D01*
X140445Y222065D01*
Y225287D01*
D02*
G37*
G36*
X175695Y220000D02*
X174000D01*
Y218305D01*
X174378Y218380D01*
X175122Y218878D01*
X175619Y219622D01*
X175695Y220000D01*
D02*
G37*
G36*
X173000Y222695D02*
X172622Y222620D01*
X171878Y222122D01*
X171380Y221378D01*
X171305Y221000D01*
X173000D01*
Y222695D01*
D02*
G37*
G36*
X174000D02*
Y221000D01*
X175695D01*
X175619Y221378D01*
X175122Y222122D01*
X174378Y222620D01*
X174000Y222695D01*
D02*
G37*
G36*
X207000Y231000D02*
X205305D01*
X205381Y230622D01*
X205878Y229878D01*
X206622Y229380D01*
X207000Y229305D01*
Y231000D01*
D02*
G37*
G36*
X208000Y233695D02*
Y232000D01*
X209695D01*
X209619Y232378D01*
X209122Y233122D01*
X208378Y233619D01*
X208000Y233695D01*
D02*
G37*
G36*
X307500Y235695D02*
X307122Y235619D01*
X306378Y235122D01*
X305880Y234378D01*
X305805Y234000D01*
X307500D01*
Y235695D01*
D02*
G37*
G36*
X308500D02*
Y234000D01*
X310195D01*
X310120Y234378D01*
X309622Y235122D01*
X308878Y235619D01*
X308500Y235695D01*
D02*
G37*
G36*
X207000Y233695D02*
X206622Y233619D01*
X205878Y233122D01*
X205381Y232378D01*
X205305Y232000D01*
X207000D01*
Y233695D01*
D02*
G37*
G36*
X209695Y231000D02*
X208000D01*
Y229305D01*
X208378Y229380D01*
X209122Y229878D01*
X209619Y230622D01*
X209695Y231000D01*
D02*
G37*
G36*
X307500Y233000D02*
X305805D01*
X305880Y232622D01*
X306378Y231878D01*
X307122Y231381D01*
X307500Y231305D01*
Y233000D01*
D02*
G37*
G36*
X310195D02*
X308500D01*
Y231305D01*
X308878Y231381D01*
X309622Y231878D01*
X310120Y232622D01*
X310195Y233000D01*
D02*
G37*
G36*
X279500Y210695D02*
X279122Y210619D01*
X278378Y210122D01*
X277881Y209378D01*
X277805Y209000D01*
X279500D01*
Y210695D01*
D02*
G37*
G36*
X280500D02*
Y209000D01*
X282195D01*
X282119Y209378D01*
X281622Y210122D01*
X280878Y210619D01*
X280500Y210695D01*
D02*
G37*
G36*
X190500Y213195D02*
X190122Y213120D01*
X189378Y212622D01*
X188881Y211878D01*
X188805Y211500D01*
X190500D01*
Y213195D01*
D02*
G37*
G36*
X193195Y210500D02*
X191500D01*
Y208805D01*
X191878Y208880D01*
X192622Y209378D01*
X193120Y210122D01*
X193195Y210500D01*
D02*
G37*
G36*
X279500Y208000D02*
X277805D01*
X277881Y207622D01*
X278378Y206878D01*
X279122Y206381D01*
X279500Y206305D01*
Y208000D01*
D02*
G37*
G36*
X282195D02*
X280500D01*
Y206305D01*
X280878Y206381D01*
X281622Y206878D01*
X282119Y207622D01*
X282195Y208000D01*
D02*
G37*
G36*
X190500Y210500D02*
X188805D01*
X188881Y210122D01*
X189378Y209378D01*
X190122Y208880D01*
X190500Y208805D01*
Y210500D01*
D02*
G37*
G36*
X191500Y213195D02*
Y211500D01*
X193195D01*
X193120Y211878D01*
X192622Y212622D01*
X191878Y213120D01*
X191500Y213195D01*
D02*
G37*
G36*
X117153Y216695D02*
X116775Y216619D01*
X116031Y216122D01*
X115726Y215667D01*
X115491Y215509D01*
X115181Y215046D01*
X115172Y215000D01*
X117153D01*
Y216695D01*
D02*
G37*
G36*
X118153D02*
Y215000D01*
X119847D01*
X119772Y215378D01*
X119275Y216122D01*
X118531Y216619D01*
X118153Y216695D01*
D02*
G37*
G36*
X173000Y220000D02*
X171305D01*
X171380Y219622D01*
X171878Y218878D01*
X172622Y218380D01*
X173000Y218305D01*
Y220000D01*
D02*
G37*
G36*
X243500Y217921D02*
Y214500D01*
X246921D01*
X246851Y215032D01*
X246453Y215993D01*
X245819Y216819D01*
X244993Y217453D01*
X244032Y217851D01*
X243500Y217921D01*
D02*
G37*
G36*
X117153Y214000D02*
X115172D01*
X115181Y213954D01*
X115491Y213491D01*
X115726Y213333D01*
X116031Y212878D01*
X116775Y212381D01*
X117153Y212305D01*
Y214000D01*
D02*
G37*
G36*
X119847D02*
X118153D01*
Y212305D01*
X118531Y212381D01*
X119275Y212878D01*
X119772Y213622D01*
X119847Y214000D01*
D02*
G37*
G36*
X242500Y217921D02*
X241968Y217851D01*
X241007Y217453D01*
X240181Y216819D01*
X239547Y215993D01*
X239149Y215032D01*
X239079Y214500D01*
X242500D01*
Y217921D01*
D02*
G37*
%LPD*%
D36*
X236000Y231000D02*
X253000Y214000D01*
X226400Y231000D02*
X236000D01*
X185513Y223361D02*
X187861D01*
X157352Y195200D02*
X185513Y223361D01*
X157352Y195200D02*
X158500Y188800D01*
X187150Y160150D01*
X157352Y192452D02*
Y195200D01*
X150100Y185200D02*
X157352Y192452D01*
X138600Y185200D02*
X150100D01*
X134200Y180800D02*
X138600Y185200D01*
X134200Y124100D02*
Y180800D01*
Y124100D02*
X142500Y115800D01*
X154000D02*
X165900D01*
X142500D02*
X144000D01*
X154000D01*
D37*
X116500Y214500D02*
X117653D01*
X144000Y106500D02*
Y115800D01*
X142000Y104500D02*
X144000Y106500D01*
D38*
X214000Y178500D02*
X220000Y172500D01*
X237500D01*
X234499Y168000D02*
X241000D01*
X220150Y153650D02*
X234499Y168000D01*
X251800Y179000D02*
X254500D01*
X276200Y190000D02*
X285900Y199700D01*
X257000Y190000D02*
X276200D01*
X249600Y181200D02*
X251800Y179000D01*
X197650Y153650D02*
X220150D01*
X200850Y160850D02*
X201932D01*
X179000Y139000D02*
X200850Y160850D01*
X201932D02*
X203250Y162168D01*
Y162250D01*
X203500Y162500D01*
Y178600D01*
X199500Y138100D02*
X202250Y140850D01*
X211432D01*
X212682Y139600D01*
X217500D01*
X233800Y123900D02*
X238500Y128600D01*
X195500Y123900D02*
X233800D01*
X184000Y135400D02*
X195500Y123900D01*
X282547Y182747D02*
X318100Y218300D01*
X187253Y182747D02*
X282547D01*
X186425Y183575D02*
X187253Y182747D01*
X239000Y210000D02*
X260486D01*
X227900Y221100D02*
X239000Y210000D01*
X219200Y221100D02*
X227900D01*
X203950Y205850D02*
X219200Y221100D01*
X173700Y205850D02*
X203950D01*
X163150Y195300D02*
X173700Y205850D01*
X150400Y181100D02*
X155200Y185900D01*
X142500Y181100D02*
X150400D01*
X136200Y174800D02*
X142500Y181100D01*
X136200Y132300D02*
Y174800D01*
Y132300D02*
X139700Y128800D01*
X201950Y204450D02*
X204000Y202400D01*
X182500Y204450D02*
X201950D01*
X171900Y193850D02*
X182500Y204450D01*
X171900Y181400D02*
Y193850D01*
X184000Y181200D02*
X249600D01*
X243650Y185650D02*
X253600Y195600D01*
X202516Y185650D02*
X243650D01*
X200216Y187950D02*
X202516Y185650D01*
X183600Y187950D02*
X200216D01*
X180850Y185200D02*
X183600Y187950D01*
X176000Y188194D02*
X185306Y197500D01*
X176000Y183600D02*
Y188194D01*
Y183600D02*
X181750Y177850D01*
X189200D01*
X190800Y179450D01*
X202650D01*
X203500Y178600D01*
X142300Y138600D02*
X179000D01*
X145100Y194900D02*
X154500D01*
X139500Y200500D02*
X145100Y194900D01*
X210500Y138600D02*
X222800Y126300D01*
X207956Y196256D02*
Y199756D01*
X214400Y206200D01*
X225300D01*
X228000Y203500D01*
X203215Y187050D02*
X208050D01*
X198165Y192100D02*
X203215Y187050D01*
X182900Y192100D02*
X198165D01*
X178600Y187800D02*
X182900Y192100D01*
X178600Y184000D02*
Y187800D01*
Y184000D02*
X179650Y182950D01*
X182400D01*
X185450Y186000D01*
X188400D01*
X189400Y185000D01*
Y151500D02*
X201000Y163100D01*
X198000Y194245D02*
Y202200D01*
Y194245D02*
X202645Y189600D01*
X206850D01*
X217000Y201500D02*
X220600Y197900D01*
X254800D01*
X255900Y196800D01*
Y194400D02*
Y196800D01*
X245750Y184250D02*
X255900Y194400D01*
X195050Y184250D02*
X245750D01*
X194300Y185000D02*
X195050Y184250D01*
X201200Y167871D02*
Y174100D01*
X191229Y157900D02*
X201200Y167871D01*
X153100Y157900D02*
X191229D01*
X140000Y171000D02*
X153100Y157900D01*
X140500Y151500D02*
X189400D01*
X205400Y192300D02*
X206279Y193179D01*
Y205379D01*
X219200Y218300D01*
X225600D01*
X237500Y206400D01*
Y203500D02*
Y206400D01*
X285900Y199700D02*
X299259Y213059D01*
X235600Y199700D02*
X285900D01*
X232556Y202744D02*
X235600Y199700D01*
X232556Y202744D02*
Y204944D01*
X223000Y214500D02*
X232556Y204944D01*
X206850Y189600D02*
X217000Y199750D01*
Y201500D01*
X207956Y196044D02*
X208800Y195200D01*
X208050Y187050D02*
X213500Y192500D01*
D42*
X106570Y240570D02*
X326930D01*
X106000Y240000D02*
X106570Y240570D01*
X106000Y99500D02*
Y240000D01*
X327500Y99500D02*
Y240000D01*
X106000Y99500D02*
X327500D01*
D43*
X110335Y239075D02*
D03*
D44*
X105577Y189803D02*
D03*
X105585Y150932D02*
D03*
X105630Y175992D02*
D03*
X105555Y204468D02*
D03*
X105630Y132992D02*
D03*
D45*
X223000Y214500D02*
D03*
X140945Y225787D02*
D03*
X133500Y107500D02*
D03*
X213500Y190500D02*
D03*
X217000Y201500D02*
D03*
X139500Y200500D02*
D03*
X237500Y203500D02*
D03*
X228000D02*
D03*
X140500Y151500D02*
D03*
X140000Y171000D02*
D03*
Y191500D02*
D03*
X142000Y104500D02*
D03*
D46*
X253000Y214000D02*
D03*
D47*
X243000D02*
D03*
D48*
X161500Y147000D02*
D03*
X175000Y118500D02*
D03*
X312000Y136500D02*
D03*
X258500Y134500D02*
D03*
X310000Y205500D02*
D03*
X308000Y233500D02*
D03*
X304500Y194500D02*
D03*
X280000Y208500D02*
D03*
X207500Y231500D02*
D03*
X173500Y220500D02*
D03*
X237500Y172500D02*
D03*
X241000Y168000D02*
D03*
X214000Y178500D02*
D03*
X254500Y179000D02*
D03*
X257000Y190000D02*
D03*
X197650Y153650D02*
D03*
X199500Y138100D02*
D03*
X217500Y139600D02*
D03*
X184000Y135400D02*
D03*
X117653Y214500D02*
D03*
X238500Y128600D02*
D03*
X318100Y218300D02*
D03*
X186425Y183575D02*
D03*
X260486Y210000D02*
D03*
X163150Y195300D02*
D03*
X155200Y185900D02*
D03*
X139700Y128800D02*
D03*
X191000Y211000D02*
D03*
X204000Y202400D02*
D03*
X171900Y181400D02*
D03*
X184000Y181200D02*
D03*
X253600Y195600D02*
D03*
X180850Y185200D02*
D03*
X185306Y197500D02*
D03*
X142300Y138600D02*
D03*
X154500Y194900D02*
D03*
X210500Y138600D02*
D03*
X222800Y126300D02*
D03*
X189400Y185000D02*
D03*
X198000Y202200D02*
D03*
X194300Y185000D02*
D03*
X201200Y174100D02*
D03*
X226400Y231000D02*
D03*
X187150Y160150D02*
D03*
X187861Y223361D02*
D03*
X165900Y115800D02*
D03*
X201000Y163100D02*
D03*
X205400Y192300D02*
D03*
X299259Y213059D02*
D03*
X208800Y195200D02*
D03*
D49*
X198492Y133221D02*
D03*
X233488Y133212D02*
D03*
D50*
X254500Y111000D02*
D03*
M02*
