G04 Layer_Physical_Order=1*
G04 Layer_Color=255*
%FSLAX25Y25*%
%MOIN*%
G70*
G01*
G75*
%ADD10R,0.07874X0.02402*%
%ADD11R,0.14173X0.14173*%
%ADD12R,0.03937X0.04331*%
%ADD13C,0.03000*%
%ADD14R,0.02362X0.01654*%
%ADD15R,0.00886X0.02362*%
%ADD16R,0.02559X0.03937*%
%ADD17O,0.03150X0.05906*%
%ADD18O,0.05906X0.03150*%
%ADD19R,0.04331X0.03937*%
%ADD20R,0.05906X0.03937*%
%ADD21R,0.09843X0.14961*%
%ADD22R,0.01969X0.05512*%
%ADD23R,0.12598X0.03937*%
%ADD24R,0.07087X0.07480*%
%ADD25R,0.07480X0.07480*%
%ADD26R,0.08268X0.06299*%
%ADD27R,0.01575X0.05315*%
%ADD28R,0.04134X0.02362*%
%ADD29R,0.03937X0.10039*%
%ADD30R,0.06693X0.06693*%
%ADD31R,0.02362X0.02559*%
%ADD32R,0.02362X0.01772*%
%ADD33R,0.04331X0.07480*%
%ADD34O,0.06890X0.02165*%
%ADD35O,0.02165X0.06890*%
%ADD36C,0.02000*%
%ADD37C,0.01600*%
%ADD38C,0.00800*%
%ADD39C,0.01400*%
%ADD40C,0.01000*%
%ADD41C,0.01300*%
%ADD42C,0.01200*%
%ADD43R,0.00984X0.00787*%
%ADD44R,0.09000X0.07000*%
%ADD45C,0.05512*%
%ADD46R,0.05906X0.05906*%
%ADD47C,0.05906*%
%ADD48C,0.02500*%
%ADD49C,0.02100*%
%ADD50C,0.15201*%
D10*
X128907Y122371D02*
D03*
Y126316D02*
D03*
Y146026D02*
D03*
Y142084D02*
D03*
Y185445D02*
D03*
Y165735D02*
D03*
Y169677D02*
D03*
Y161793D02*
D03*
X128907Y189426D02*
D03*
Y201251D02*
D03*
Y197309D02*
D03*
Y217019D02*
D03*
Y193367D02*
D03*
X128907Y157851D02*
D03*
Y153910D02*
D03*
Y149968D02*
D03*
Y181503D02*
D03*
Y177561D02*
D03*
Y173619D02*
D03*
X128907Y213077D02*
D03*
Y209135D02*
D03*
Y205193D02*
D03*
X128907Y138142D02*
D03*
Y134200D02*
D03*
Y130258D02*
D03*
D11*
X117883Y231596D02*
D03*
Y107777D02*
D03*
D12*
X170500Y215748D02*
D03*
Y209055D02*
D03*
X247000Y139945D02*
D03*
Y133252D02*
D03*
X140500Y164945D02*
D03*
Y158252D02*
D03*
X140000Y177555D02*
D03*
Y184248D02*
D03*
X259000Y163445D02*
D03*
Y156752D02*
D03*
X158000Y134555D02*
D03*
Y141248D02*
D03*
X253000Y157055D02*
D03*
Y163748D02*
D03*
X259000Y140055D02*
D03*
Y146748D02*
D03*
X253000Y140055D02*
D03*
Y146748D02*
D03*
X240500Y139945D02*
D03*
Y133252D02*
D03*
X191500Y198555D02*
D03*
Y205248D02*
D03*
X209000Y208945D02*
D03*
Y202252D02*
D03*
X164000Y131252D02*
D03*
Y137945D02*
D03*
X176500Y137748D02*
D03*
Y131055D02*
D03*
X170000Y137748D02*
D03*
Y131055D02*
D03*
X153000Y160748D02*
D03*
Y154055D02*
D03*
D13*
X208478Y133219D02*
D03*
X203482Y133210D02*
D03*
X213481Y133218D02*
D03*
X223485Y133215D02*
D03*
X218482Y133216D02*
D03*
X228486Y133217D02*
D03*
D14*
X321339Y207941D02*
D03*
Y210500D02*
D03*
Y213059D02*
D03*
X313858Y207941D02*
D03*
Y210500D02*
D03*
Y213059D02*
D03*
D15*
X203350Y198349D02*
D03*
X201780Y198343D02*
D03*
X200206Y198342D02*
D03*
X197060Y198339D02*
D03*
X198634Y198340D02*
D03*
X198632Y205420D02*
D03*
X197058Y205420D02*
D03*
X200205Y205423D02*
D03*
X201779Y205423D02*
D03*
X203349Y205430D02*
D03*
D16*
X185906Y201102D02*
D03*
X182165D02*
D03*
X178425D02*
D03*
X185906Y209567D02*
D03*
X178425D02*
D03*
X146425Y177567D02*
D03*
X153906D02*
D03*
X146425Y169102D02*
D03*
X150165D02*
D03*
X153906D02*
D03*
D17*
X299326Y199994D02*
D03*
X308381D02*
D03*
X289877D02*
D03*
X294602D02*
D03*
X276098D02*
D03*
X285153D02*
D03*
X304444D02*
D03*
X280035D02*
D03*
D18*
X266255Y137002D02*
D03*
Y141726D02*
D03*
Y146450D02*
D03*
Y151175D02*
D03*
Y155899D02*
D03*
Y160624D02*
D03*
Y165348D02*
D03*
Y170072D02*
D03*
Y174797D02*
D03*
Y179521D02*
D03*
Y184246D02*
D03*
Y188970D02*
D03*
X318617D02*
D03*
Y184246D02*
D03*
Y179521D02*
D03*
Y174797D02*
D03*
Y170072D02*
D03*
Y165348D02*
D03*
Y160624D02*
D03*
Y155899D02*
D03*
Y151175D02*
D03*
Y146450D02*
D03*
Y141726D02*
D03*
Y137002D02*
D03*
D19*
X158945Y190500D02*
D03*
X152252D02*
D03*
X294445Y214000D02*
D03*
X287752D02*
D03*
X247445Y189500D02*
D03*
X240752D02*
D03*
X247445Y196000D02*
D03*
X240752D02*
D03*
X201445Y211500D02*
D03*
X194752D02*
D03*
X183945Y217000D02*
D03*
X177252D02*
D03*
X173945Y201500D02*
D03*
X167252D02*
D03*
X225748Y146500D02*
D03*
X219055D02*
D03*
X240752Y177000D02*
D03*
X247445D02*
D03*
X240752Y183000D02*
D03*
X247445D02*
D03*
X220252Y176500D02*
D03*
X226945D02*
D03*
D20*
X302176Y222115D02*
D03*
X302176Y228413D02*
D03*
X302177Y234712D02*
D03*
X282879Y234713D02*
D03*
X282879Y228414D02*
D03*
X282878Y222116D02*
D03*
D21*
X152137Y113790D02*
D03*
X185192Y113778D02*
D03*
D22*
X165537Y123889D02*
D03*
X162387Y123889D02*
D03*
X168687Y123888D02*
D03*
X174986Y123887D02*
D03*
X171836Y123888D02*
D03*
D23*
X234671Y103507D02*
D03*
X234670Y119257D02*
D03*
X207890Y119261D02*
D03*
X207892Y103511D02*
D03*
D24*
X232060Y234873D02*
D03*
X263568Y234879D02*
D03*
D25*
X243086Y234873D02*
D03*
X252536Y234876D02*
D03*
D26*
X236784Y226802D02*
D03*
X258838Y226817D02*
D03*
D27*
X245247Y226314D02*
D03*
X242689Y226311D02*
D03*
X247807Y226316D02*
D03*
X250365Y226319D02*
D03*
X252932Y226323D02*
D03*
D28*
X150478Y135458D02*
D03*
X150471Y139164D02*
D03*
X150462Y142895D02*
D03*
X139840Y142906D02*
D03*
X139857Y135469D02*
D03*
D29*
X208565Y222264D02*
D03*
X200681Y222266D02*
D03*
X192805Y222265D02*
D03*
D30*
X220252Y235963D02*
D03*
X181675Y235936D02*
D03*
D31*
X221444Y185545D02*
D03*
X221443Y194986D02*
D03*
X226569Y194982D02*
D03*
X226569Y185541D02*
D03*
D32*
X221441Y188690D02*
D03*
X221441Y191838D02*
D03*
X226567Y191834D02*
D03*
X226566Y188686D02*
D03*
D33*
X227083Y154059D02*
D03*
Y168724D02*
D03*
X217929D02*
D03*
Y154157D02*
D03*
D34*
X161756Y152252D02*
D03*
Y155402D02*
D03*
Y158551D02*
D03*
Y161701D02*
D03*
Y164850D02*
D03*
Y168000D02*
D03*
Y171150D02*
D03*
Y174299D02*
D03*
Y177449D02*
D03*
Y180598D02*
D03*
Y183748D02*
D03*
X206244D02*
D03*
Y180598D02*
D03*
Y177449D02*
D03*
Y174299D02*
D03*
Y171150D02*
D03*
Y168000D02*
D03*
Y164850D02*
D03*
Y161701D02*
D03*
Y158551D02*
D03*
Y155402D02*
D03*
Y152252D02*
D03*
D35*
X168252Y190244D02*
D03*
X171402D02*
D03*
X174551D02*
D03*
X177701D02*
D03*
X180850D02*
D03*
X184000D02*
D03*
X187150D02*
D03*
X190299D02*
D03*
X193449D02*
D03*
X196598D02*
D03*
X199748D02*
D03*
Y145756D02*
D03*
X196598D02*
D03*
X193449D02*
D03*
X190299D02*
D03*
X187150D02*
D03*
X184000D02*
D03*
X180850D02*
D03*
X177701D02*
D03*
X174551D02*
D03*
X171402D02*
D03*
X168252D02*
D03*
D36*
X122200Y121677D02*
X124307Y119571D01*
X124347D01*
X133500Y110418D01*
Y107500D02*
Y110418D01*
X122200Y121677D02*
Y128000D01*
X124476Y130276D01*
X124800D02*
Y132992D01*
X145200Y119200D02*
Y140000D01*
X148095Y142895D01*
X150462D01*
X128929Y134218D02*
Y138160D01*
X252932Y220168D02*
Y226323D01*
Y220168D02*
X253000Y220100D01*
Y214000D02*
Y220100D01*
X217600Y222200D02*
X226400Y231000D01*
X208565Y222200D02*
Y222264D01*
X192805Y222265D02*
Y223361D01*
X187150Y145756D02*
Y160150D01*
X162387Y119313D02*
X165900Y115800D01*
X162387Y119313D02*
Y123889D01*
X164000Y130313D02*
Y131252D01*
X162387Y128700D02*
X164000Y130313D01*
X162387Y123889D02*
Y128700D01*
X154700Y141248D02*
X158000D01*
X153053Y142895D02*
X154700Y141248D01*
X150462Y142895D02*
X153053D01*
X133500Y107500D02*
X145200Y119200D01*
X124800Y134218D02*
X128929D01*
X105630Y132992D02*
X124800D01*
X124476Y130276D02*
X124800D01*
X128929D01*
X124800Y132992D02*
Y134218D01*
X187861Y223361D02*
X192805D01*
X208565Y222200D02*
X217600D01*
D37*
X138000Y222843D02*
X140945Y225787D01*
X138000Y210800D02*
Y222843D01*
X152250Y190500D02*
Y193402D01*
X150165Y169102D02*
Y180665D01*
X152252Y182752D01*
Y190500D01*
X150476Y195177D02*
X152250Y193402D01*
X150476Y195177D02*
Y210800D01*
X138000D02*
X150476D01*
X133347D02*
X138000D01*
X159776Y201500D02*
X167252D01*
X150476Y210800D02*
X159776Y201500D01*
X123000Y209153D02*
X128900D01*
X119153D02*
X123000D01*
X117653Y214500D02*
X123000Y209153D01*
X131700D02*
X133347Y210800D01*
X105555Y204468D02*
X114468D01*
X119153Y209153D01*
D38*
X161500Y147000D02*
X162300Y147800D01*
X164000D01*
X312502Y137002D02*
X318617D01*
X312000Y136500D02*
X312502Y137002D01*
X240500Y139945D02*
Y150851D01*
X227083Y164268D02*
X240500Y150851D01*
X251202Y136779D02*
X253000Y138578D01*
X258500Y134500D02*
X259000Y135000D01*
Y140055D01*
X310000Y205500D02*
Y207505D01*
X312995Y210500D01*
X313858D01*
X302177Y234712D02*
X303388Y233500D01*
X308000D01*
X304444Y194556D02*
X304500Y194500D01*
X304444Y194556D02*
Y199994D01*
X278400Y207400D02*
X279500Y208500D01*
X280000D01*
X205596Y230400D02*
X206696Y231500D01*
X207500D01*
X174648Y219852D02*
X177252D01*
X183100Y207306D02*
X183807Y206598D01*
X185906Y204500D01*
X176732Y206598D02*
X183807D01*
X174275Y209055D02*
X176732Y206598D01*
X170500Y209055D02*
X174275D01*
X170500Y215748D02*
X176681Y209567D01*
X178425D01*
X170502Y195300D02*
X171402Y194400D01*
X163150Y195300D02*
X170502D01*
X241600Y105007D02*
X247593Y111000D01*
X254500D01*
X244500Y142445D02*
Y164125D01*
Y142445D02*
X247000Y139945D01*
X242665Y136779D02*
X251202D01*
X222800Y126300D02*
X240048D01*
X247000Y133252D01*
X237500Y172500D02*
X245000D01*
X247445Y174945D01*
Y177000D01*
X245500Y168000D02*
X251500Y174000D01*
X241000Y168000D02*
X245500D01*
X211252Y183748D02*
X214000Y181000D01*
Y178500D02*
Y181000D01*
X206244Y183748D02*
X211252D01*
X216500Y180000D02*
X217300Y180800D01*
X216500Y176500D02*
Y180000D01*
X215500Y175500D02*
X216500Y176500D01*
X212500Y175500D02*
X215500D01*
X210551Y177449D02*
X212500Y175500D01*
X206244Y177449D02*
X210551D01*
X217929Y168724D02*
Y172500D01*
X220252Y174823D01*
Y176500D01*
X217300Y180800D02*
Y195200D01*
X251500Y174000D02*
Y181000D01*
X249500Y183000D02*
X251500Y181000D01*
X247445Y183000D02*
X249500D01*
X254500Y179000D02*
Y192300D01*
X255850Y193650D01*
X244500Y164125D02*
X257000Y176625D01*
Y190000D01*
X190299Y150299D02*
X193650Y153650D01*
X197650D01*
X190299Y145756D02*
Y150299D01*
X255850Y193650D02*
Y196532D01*
X254532Y197850D02*
X255850Y196532D01*
X252668Y197850D02*
X254532D01*
X250818Y196000D02*
X252668Y197850D01*
X247445Y196000D02*
X250818D01*
X199500Y138100D02*
X199600Y138000D01*
X201500D01*
X203482Y136018D01*
Y133210D02*
Y136018D01*
X213667Y143333D02*
X217500Y139500D01*
X222800Y126300D02*
X223485Y126985D01*
Y133215D01*
X223714Y141500D02*
X236769D01*
X236945D01*
X228486Y133217D02*
X236769Y141500D01*
X218482Y128982D02*
Y133216D01*
X216500Y127000D02*
X218482Y128982D01*
X198000Y127000D02*
X216500D01*
X193449Y131551D02*
X198000Y127000D01*
X193449Y131551D02*
Y145756D01*
X196598Y138598D02*
Y145756D01*
X195000Y137000D02*
X196598Y138598D01*
X195000Y132000D02*
Y137000D01*
Y132000D02*
X198000Y129000D01*
X212500D01*
X213481Y129981D01*
Y133218D01*
X199748Y141949D02*
Y145756D01*
Y141949D02*
X208478Y133219D01*
X240945Y138500D02*
X242665Y136779D01*
X238500Y138500D02*
Y139945D01*
Y138500D02*
X240945D01*
X236945Y141500D02*
X238500Y139945D01*
X219055Y146158D02*
Y148700D01*
Y146158D02*
X223714Y141500D01*
X221204Y105007D02*
X241600D01*
X319400Y210400D02*
X321339Y210500D01*
X239700Y177000D02*
X240752D01*
X231159Y185541D02*
X239700Y177000D01*
X226569Y185541D02*
X231159D01*
X238100Y183000D02*
X240752D01*
X232414Y188686D02*
X238100Y183000D01*
X226566Y188686D02*
X232414D01*
X234400Y189500D02*
X240752D01*
X232066Y191834D02*
X234400Y189500D01*
X226567Y191834D02*
X232066D01*
X234118Y196000D02*
X240752D01*
X233100Y194982D02*
X234118Y196000D01*
X226569Y194982D02*
X233100D01*
X225748Y145500D02*
Y148600D01*
X227083Y149935D01*
Y154059D01*
X206244Y164850D02*
X207400D01*
X208350Y163900D01*
X221883D01*
X227083Y158700D01*
Y154059D02*
Y158700D01*
X212424Y168724D02*
X217929D01*
X211700Y168000D02*
X212424Y168724D01*
X206244Y168000D02*
X211700D01*
X163656Y190244D02*
X168252D01*
X163400Y190500D02*
X163656Y190244D01*
X158945Y190500D02*
X163400D01*
X177701Y142301D02*
Y145756D01*
X176500Y141100D02*
X177701Y142301D01*
X176500Y137748D02*
Y141100D01*
X174551Y143400D02*
Y145756D01*
X173500Y142349D02*
X174551Y143400D01*
X173500Y139148D02*
Y142349D01*
X172100Y137748D02*
X173500Y139148D01*
X170000Y137748D02*
X172100D01*
X158397Y158551D02*
X161756D01*
X156200Y160748D02*
X158397Y158551D01*
X153000Y160748D02*
X156200D01*
X238500Y128600D02*
Y133252D01*
X184000Y135400D02*
Y145756D01*
X140000Y184248D02*
X144577D01*
X146425Y182400D01*
Y177567D02*
Y182400D01*
Y174725D02*
Y177567D01*
X143800Y172100D02*
X146425Y174725D01*
X143800Y164945D02*
Y172100D01*
X140500Y164945D02*
X143800D01*
X320000Y213059D02*
X321339D01*
X318100Y214959D02*
X320000Y213059D01*
X318100Y214959D02*
Y218300D01*
X186425Y183575D02*
X187150Y184300D01*
Y190244D01*
X176500Y128800D02*
Y131055D01*
X175344Y127644D02*
X176500Y128800D01*
X169531Y127644D02*
X175344D01*
X168687Y126800D02*
X169531Y127644D01*
X168687Y123888D02*
Y126800D01*
X168000Y131055D02*
X170000D01*
X167137Y130192D02*
X168000Y131055D01*
X167137Y128800D02*
Y130192D01*
X165537Y127200D02*
X167137Y128800D01*
X165537Y123889D02*
Y127200D01*
X278900Y228414D02*
X282879D01*
X260486Y210000D02*
X278900Y228414D01*
X171402Y190244D02*
Y194400D01*
X174551Y187900D02*
Y190244D01*
X172351Y185700D02*
X174551Y187900D01*
X165700Y185700D02*
X172351D01*
X165500Y185900D02*
X165700Y185700D01*
X155200Y185900D02*
X165500D01*
X139700Y135469D02*
X139857D01*
X203350Y198349D02*
Y199450D01*
X208450D02*
X209000Y200000D01*
Y202252D01*
X211200D01*
X212000Y203052D01*
Y212200D01*
X208000Y216200D02*
X212000Y212200D01*
X205596Y216200D02*
X208000D01*
X205596D02*
Y230400D01*
X201796Y234200D02*
X205596Y230400D01*
X191600Y234200D02*
X201796D01*
X177252Y219852D02*
X191600Y234200D01*
X177252Y217000D02*
Y219852D01*
X128900Y205211D02*
X128929D01*
X128900Y213095D02*
X128929D01*
X128900Y209153D02*
X131700D01*
X199748Y177130D02*
Y190244D01*
X198699Y176081D02*
X199748Y177130D01*
X198699Y162151D02*
Y176081D01*
Y162151D02*
X200000Y160850D01*
X202348D01*
X203199Y161701D01*
X206244D01*
X167252Y204000D02*
X168052Y204800D01*
X180565D01*
X182165Y203200D01*
Y201102D02*
Y203200D01*
X191500Y205248D02*
X194100D01*
X194272Y205420D01*
X197058D01*
X194752Y211500D02*
X197058D01*
X206244Y161701D02*
X214400D01*
X217929Y158172D01*
Y154157D02*
Y158172D01*
X194752Y211000D02*
Y211500D01*
X225445Y177500D02*
X227083D01*
X217929Y149826D02*
Y154157D01*
Y149826D02*
X219055Y148700D01*
X227083Y164268D02*
Y168724D01*
X242689Y214000D02*
X243000D01*
X249600Y207400D01*
X278400D01*
X280035Y205765D01*
Y199994D02*
Y205765D01*
X253000Y140055D02*
X259000D01*
X174986Y123887D02*
Y126200D01*
X179200D02*
X180850Y127850D01*
Y145756D01*
X221200Y105011D02*
X221204Y105007D01*
X153000Y154055D02*
X156700D01*
X158046Y155402D01*
X161756D01*
Y180598D02*
X166200D01*
X166300Y180498D01*
Y155402D02*
Y180498D01*
X161756Y155402D02*
X166300D01*
X164000Y147800D02*
X166300Y150100D01*
X164000Y137945D02*
Y147800D01*
X149600Y139164D02*
X150471D01*
X201780Y198343D02*
Y199911D01*
X204000Y202130D01*
Y202400D01*
X168252Y177752D02*
X171900Y181400D01*
X168252Y145756D02*
Y177752D01*
X245000Y196000D02*
X247445D01*
X184000Y181200D02*
Y190244D01*
X247445Y189500D02*
Y192000D01*
X250000D01*
X253600Y195600D01*
X180850Y185200D02*
Y190244D01*
X200681Y216800D02*
Y222266D01*
X199750Y215869D02*
X200681Y216800D01*
X189219Y215869D02*
X199750D01*
X187350Y214000D02*
X189219Y215869D01*
X185000Y214000D02*
X187350D01*
X183100Y212100D02*
X185000Y214000D01*
X183100Y207306D02*
Y212100D01*
X185906Y201102D02*
Y204500D01*
X185306Y197500D02*
X185906Y198100D01*
X139840Y142906D02*
X142300D01*
X176298Y201102D02*
X178425D01*
X175900Y201500D02*
X176298Y201102D01*
X173945Y201500D02*
X175900D01*
X155977Y134555D02*
X158000D01*
X155074Y135458D02*
X155977Y134555D01*
X150478Y135458D02*
X155074D01*
X209000Y206400D02*
Y208945D01*
X208100Y205500D02*
X209000Y206400D01*
X203349Y205430D02*
Y205500D01*
X201445Y209011D02*
Y211500D01*
X199643Y209011D02*
X201445D01*
X198632Y208000D02*
X199643Y209011D01*
X198632Y205420D02*
Y208000D01*
X250000Y163748D02*
X253000D01*
X250000Y146748D02*
Y163748D01*
Y146748D02*
X253000D01*
X259000D02*
Y156752D01*
X287752Y214000D02*
Y215600D01*
X282878Y220474D02*
X287752Y215600D01*
X282878Y220474D02*
Y222116D01*
X262925Y151175D02*
X266255D01*
X262100Y152000D02*
X262925Y151175D01*
X262100Y152000D02*
Y159200D01*
X261300Y160000D02*
X262100Y159200D01*
X256000Y160000D02*
X261300D01*
X256000Y158255D02*
Y160000D01*
X254800Y157055D02*
X256000Y158255D01*
X253000Y157055D02*
X254800D01*
X264021Y160624D02*
X266255D01*
X261200Y163445D02*
X264021Y160624D01*
X259000Y163445D02*
X261200D01*
X321339Y207941D02*
X323200D01*
X325000Y206141D01*
Y186046D02*
Y206141D01*
X323200Y184246D02*
X325000Y186046D01*
X318617Y184246D02*
X323200D01*
X177701Y190244D02*
Y194499D01*
X174200Y198000D02*
X177701Y194499D01*
X157600Y198000D02*
X174200D01*
X154500Y194900D02*
X157600Y198000D01*
X132385Y193385D02*
X139500Y200500D01*
X128929Y193385D02*
X132385D01*
X209998Y155402D02*
X211800Y153600D01*
X210500Y138600D02*
X211800Y139900D01*
X217261Y120761D02*
X222800Y126300D01*
X207890Y120761D02*
X217261D01*
X206244Y155402D02*
X209998D01*
X211800Y139900D02*
Y153600D01*
X222800Y126300D02*
X228343Y120757D01*
X234670D01*
X262400Y184246D02*
X266255D01*
X261054Y185591D02*
X262400Y184246D01*
X261054Y185591D02*
Y196496D01*
X257877Y199673D02*
X261054Y196496D01*
X231827Y199673D02*
X257877D01*
X228000Y203500D02*
X231827Y199673D01*
X198634Y196407D02*
Y198340D01*
X198226Y196000D02*
X198634Y196407D01*
X195100Y196000D02*
X198226D01*
X194000Y194900D02*
X195100Y196000D01*
X191200Y194900D02*
X194000D01*
X190299Y193999D02*
X191200Y194900D01*
X190299Y190244D02*
Y193999D01*
X189400Y185000D02*
X190299Y185899D01*
Y190244D01*
X201700Y163800D02*
Y171150D01*
X140500Y151500D02*
Y158252D01*
X137615Y151500D02*
X140500D01*
X136100Y149985D02*
X137615Y151500D01*
X128929Y149985D02*
X136100D01*
X128900Y157869D02*
X128929D01*
X128900Y153927D02*
X128929D01*
X128900Y149985D02*
X128929D01*
X197060Y198339D02*
Y201260D01*
X198000Y202200D01*
X193449Y185851D02*
X194300Y185000D01*
X193449Y185851D02*
Y190244D01*
X201399Y174299D02*
X206244D01*
X201200Y174100D02*
X201399Y174299D01*
X140000Y177555D02*
Y177579D01*
X128900Y181521D02*
X128929D01*
X128900Y173637D02*
X128929D01*
X128900Y177579D02*
X128929D01*
X264700Y188970D02*
X266255D01*
X261200Y201900D02*
X264700Y198400D01*
X237500Y201900D02*
Y203500D01*
X299200Y228413D02*
X302176D01*
X294445Y223657D02*
X299200Y228413D01*
X294445Y214000D02*
Y223657D01*
X178425Y209567D02*
Y212055D01*
X183370Y217000D01*
X183945D01*
Y224545D01*
X188800Y229400D01*
X201600Y214469D02*
X204196Y217065D01*
X190869Y214469D02*
X201600D01*
X188500Y212100D02*
X190869Y214469D01*
X188500Y198555D02*
Y212100D01*
Y198555D02*
X191500D01*
X188800Y229400D02*
X202500D01*
X204196Y227704D01*
Y214845D02*
X204700Y214341D01*
Y208500D02*
Y214341D01*
X203811Y207611D02*
X204700Y208500D01*
X201779Y207611D02*
X203811D01*
X201779Y205423D02*
Y207611D01*
X221444Y185545D02*
Y187100D01*
X221441Y187103D02*
X221444Y187100D01*
X221441Y187103D02*
Y188690D01*
Y190200D01*
X221441Y191838D01*
Y193400D01*
X221443Y193402D01*
Y194986D01*
Y200043D01*
X223000Y201600D02*
Y214500D01*
X204439Y196089D02*
X206006Y197656D01*
X200917Y196089D02*
X204439D01*
X200206Y196800D02*
Y198342D01*
X201779Y204650D02*
Y205423D01*
X201750Y204621D02*
X201779Y204650D01*
X201750Y201871D02*
Y204621D01*
X200206Y200328D02*
X201750Y201871D01*
X200206Y198342D02*
Y200328D01*
X213667Y143333D02*
Y155884D01*
X211000Y158551D02*
X213667Y155884D01*
X206244Y158551D02*
X211000D01*
X179198Y166400D02*
X190551D01*
X198400Y158551D01*
X206244D01*
X157600Y183748D02*
X161756D01*
X156800Y182948D02*
X157600Y183748D01*
X156800Y174494D02*
Y182948D01*
X153906Y171600D02*
X156800Y174494D01*
X153906Y169102D02*
Y171600D01*
Y167906D02*
Y169102D01*
X146425Y166100D02*
X152100D01*
X146425D02*
Y169102D01*
X150000Y150800D02*
Y164000D01*
Y150800D02*
X156000D01*
X157452Y152252D01*
X161756D01*
X178425Y198000D02*
X184800D01*
X178425D02*
Y201102D01*
X171402Y145756D02*
Y158603D01*
X196598Y183800D02*
Y190244D01*
X301141Y213059D02*
X313858D01*
X201700Y171150D02*
X206244D01*
X201000Y163100D02*
X201700Y163800D01*
X192200Y126200D02*
X200589Y117811D01*
Y105011D02*
Y117811D01*
Y105011D02*
X221200D01*
X176352Y217000D02*
X177252D01*
X120992Y175992D02*
X122579Y177579D01*
X105630Y175992D02*
X120992D01*
X105585Y150932D02*
X121539D01*
X122485Y149985D01*
X128814Y193500D02*
X128929Y193385D01*
X123500Y193500D02*
X128814D01*
X119803Y189803D02*
X123500Y193500D01*
X105577Y189803D02*
X119803D01*
X319300Y210500D02*
X319400Y210400D01*
X313858Y210500D02*
X319300D01*
X164000Y137000D02*
Y137945D01*
X202702Y180598D02*
X206244D01*
X201700Y181600D02*
X202702Y180598D01*
X201700Y181600D02*
Y185400D01*
X205400Y189100D01*
Y192300D01*
X299259Y213059D02*
X300200Y214000D01*
X206006Y197656D02*
X219056D01*
X200606Y196400D02*
X200917Y196089D01*
X198706Y194500D02*
X200606Y196400D01*
X196598Y194500D02*
X198706D01*
X196598Y190244D02*
Y194500D01*
X171402Y176353D02*
X174400Y179351D01*
Y182551D01*
X173203Y183748D02*
X174400Y182551D01*
X161756Y183748D02*
X173203D01*
X150165Y190500D02*
X152250D01*
X166300Y150100D02*
Y155402D01*
X179200Y126200D02*
X192200D01*
X167252Y201500D02*
Y204000D01*
X318600Y188970D02*
X318617D01*
X318600Y209600D02*
X319400Y210400D01*
X185906Y198100D02*
Y199106D01*
Y201102D01*
X122485Y149985D02*
X128900D01*
X122579Y177579D02*
X128900D01*
X150000Y164000D02*
X152100Y166100D01*
X153906Y167906D01*
X171402Y158603D02*
Y176353D01*
Y158603D02*
X179198Y166400D01*
X196598Y183800D01*
X200206Y196800D02*
X200606Y196400D01*
X219056Y197656D02*
X221443Y200043D01*
X223000Y201600D01*
X204196Y214845D02*
Y217065D01*
Y227704D01*
X208800Y195200D02*
X217300D01*
X300200Y214000D02*
X301141Y213059D01*
X294445Y214000D02*
X300200D01*
X237500Y201900D02*
X261200D01*
X264700Y188970D02*
Y198400D01*
X128929Y177579D02*
X140000D01*
X128900D02*
Y181521D01*
Y173637D02*
Y177579D01*
Y153927D02*
Y157869D01*
Y149985D02*
Y153927D01*
X203349Y205500D02*
X208100D01*
X184800Y198000D02*
X185906Y199106D01*
X142300Y138600D02*
Y142906D01*
X318600Y188970D02*
Y209600D01*
X227083Y168724D02*
Y177500D01*
X203350Y199450D02*
X208450D01*
X197058Y205420D02*
Y211500D01*
X191000Y211000D02*
X194752D01*
X128900Y209153D02*
Y213095D01*
Y205211D02*
Y209153D01*
X174986Y126200D02*
X179200D01*
X149600Y137945D02*
X164000D01*
X149600D02*
Y139164D01*
X139700Y128800D02*
Y135469D01*
D39*
X174986Y123887D02*
X175000Y123873D01*
Y118500D02*
Y123873D01*
D40*
X140000Y171000D02*
Y177555D01*
D41*
X242689Y214000D02*
Y226311D01*
D42*
X106570Y240570D02*
X326930D01*
X106000Y240000D02*
X106570Y240570D01*
X106000Y99500D02*
Y240000D01*
X327500Y99500D02*
Y240000D01*
X106000Y99500D02*
X327500D01*
D43*
X110335Y239075D02*
D03*
D44*
X105577Y189803D02*
D03*
X105585Y150932D02*
D03*
X105630Y175992D02*
D03*
X105555Y204468D02*
D03*
X105630Y132992D02*
D03*
D45*
X223000Y214500D02*
D03*
X140945Y225787D02*
D03*
X133500Y107500D02*
D03*
X213500Y190500D02*
D03*
X217000Y201500D02*
D03*
X139500Y200500D02*
D03*
X237500Y203500D02*
D03*
X228000D02*
D03*
X140500Y151500D02*
D03*
X140000Y171000D02*
D03*
Y191500D02*
D03*
X142000Y104500D02*
D03*
D46*
X253000Y214000D02*
D03*
D47*
X243000D02*
D03*
D48*
X161500Y147000D02*
D03*
X175000Y118500D02*
D03*
X312000Y136500D02*
D03*
X258500Y134500D02*
D03*
X310000Y205500D02*
D03*
X308000Y233500D02*
D03*
X304500Y194500D02*
D03*
X280000Y208500D02*
D03*
X207500Y231500D02*
D03*
X173500Y220500D02*
D03*
X237500Y172500D02*
D03*
X241000Y168000D02*
D03*
X214000Y178500D02*
D03*
X254500Y179000D02*
D03*
X257000Y190000D02*
D03*
X197650Y153650D02*
D03*
X199500Y138100D02*
D03*
X217500Y139600D02*
D03*
X184000Y135400D02*
D03*
X117653Y214500D02*
D03*
X238500Y128600D02*
D03*
X318100Y218300D02*
D03*
X186425Y183575D02*
D03*
X260486Y210000D02*
D03*
X163150Y195300D02*
D03*
X155200Y185900D02*
D03*
X139700Y128800D02*
D03*
X191000Y211000D02*
D03*
X204000Y202400D02*
D03*
X171900Y181400D02*
D03*
X184000Y181200D02*
D03*
X253600Y195600D02*
D03*
X180850Y185200D02*
D03*
X185306Y197500D02*
D03*
X142300Y138600D02*
D03*
X154500Y194900D02*
D03*
X210500Y138600D02*
D03*
X222800Y126300D02*
D03*
X189400Y185000D02*
D03*
X198000Y202200D02*
D03*
X194300Y185000D02*
D03*
X201200Y174100D02*
D03*
X226400Y231000D02*
D03*
X187150Y160150D02*
D03*
X187861Y223361D02*
D03*
X165900Y115800D02*
D03*
X201000Y163100D02*
D03*
X205400Y192300D02*
D03*
X299259Y213059D02*
D03*
X208800Y195200D02*
D03*
D49*
X198492Y133221D02*
D03*
X233488Y133212D02*
D03*
D50*
X254500Y111000D02*
D03*
M02*
