M48
;Layer_Color=9474304
;FILE_FORMAT=2:5
INCH,LZ
;TYPE=PLATED
T1F00S00C0.01500
T2F00S00C0.02100
T3F00S00C0.03543
T4F00S00C0.04016
T5F00S00C0.05500
T6F00S00C0.12200
%
T01
X01397Y01288
X01423Y01386
X01615Y0147
X0184Y01354
X01995Y01381
X02105Y01386
X02175Y01396
X02228Y01263
X02385Y01286
X02585Y01345
X0312Y01365
X019765Y015365
X0175Y01185
X01659Y01158
X03181Y02183
X031Y02055
X03045Y01945
X0299259Y0213059
X028Y02085
X0260486Y021
X02536Y01956
X0257Y019
X02545Y0179
X02375Y01725
X0241Y0168
X0214Y01785
X02012Y01741
X0201Y01631
X018715Y016015
X0186425Y0183575
X01894Y0185
X01943
X018085Y01852
X0184Y01812
X01719Y01814
X016315Y01953
X0185306Y01975
X0198Y02022
X0204Y02024
X02054Y01923
X02088Y01952
X0191Y0211
X0187861Y0223361
X01735Y02205
X02075Y02315
X02264Y0231
X0308Y02335
X01545Y01949
X01552Y01859
X0117653Y02145
T02
X0198492Y0133221
X0233488Y0133212
T03
X0243Y0214
X0253
T04
X01335Y01075
X0142Y01045
X01405Y01515
X02135Y01905
X0217Y02015
X0228Y02035
X02375
X0223Y02145
X0140945Y0225787
X01395Y02005
X014Y01915
Y0171
T05
X010563Y0132992
X0105585Y0150932
X010563Y0175992
X0105577Y0189803
X0105555Y0204468
T06
X02545Y0111
M30
