G04 Layer_Color=8421504*
%FSLAX25Y25*%
%MOIN*%
G70*
G01*
G75*
%ADD10R,0.07874X0.02402*%
%ADD11R,0.14173X0.14173*%
%ADD12R,0.03937X0.04331*%
%ADD14R,0.02362X0.01654*%
%ADD16R,0.02559X0.03937*%
%ADD17O,0.03150X0.05906*%
%ADD18O,0.05906X0.03150*%
%ADD19R,0.04331X0.03937*%
%ADD20R,0.05906X0.03937*%
%ADD21R,0.09843X0.14961*%
%ADD22R,0.01969X0.05512*%
%ADD23R,0.12598X0.03937*%
%ADD24R,0.07087X0.07480*%
%ADD25R,0.07480X0.07480*%
%ADD26R,0.08268X0.06299*%
%ADD27R,0.01575X0.05315*%
%ADD28R,0.04134X0.02362*%
%ADD29R,0.03937X0.10039*%
%ADD30R,0.06693X0.06693*%
%ADD31R,0.02362X0.02559*%
%ADD32R,0.02362X0.01772*%
%ADD33R,0.04331X0.07480*%
%ADD34O,0.06890X0.02165*%
%ADD35O,0.02165X0.06890*%
%ADD42C,0.01200*%
%ADD43R,0.00984X0.00787*%
%ADD58R,0.00492X0.01969*%
D10*
X128907Y122371D02*
D03*
Y126316D02*
D03*
Y146026D02*
D03*
Y142084D02*
D03*
Y185445D02*
D03*
Y165735D02*
D03*
Y169677D02*
D03*
Y161793D02*
D03*
X128907Y189426D02*
D03*
Y201251D02*
D03*
Y197309D02*
D03*
Y217019D02*
D03*
Y193367D02*
D03*
X128907Y157851D02*
D03*
Y153910D02*
D03*
Y149968D02*
D03*
Y181503D02*
D03*
Y177561D02*
D03*
Y173619D02*
D03*
X128907Y213077D02*
D03*
Y209135D02*
D03*
Y205193D02*
D03*
X128907Y138142D02*
D03*
Y134200D02*
D03*
Y130258D02*
D03*
D11*
X117883Y231596D02*
D03*
Y107777D02*
D03*
D12*
X170500Y215748D02*
D03*
Y209055D02*
D03*
X247000Y139945D02*
D03*
Y133252D02*
D03*
X140500Y164945D02*
D03*
Y158252D02*
D03*
X140000Y177555D02*
D03*
Y184248D02*
D03*
X259000Y163445D02*
D03*
Y156752D02*
D03*
X158000Y134555D02*
D03*
Y141248D02*
D03*
X253000Y157055D02*
D03*
Y163748D02*
D03*
X259000Y140055D02*
D03*
Y146748D02*
D03*
X253000Y140055D02*
D03*
Y146748D02*
D03*
X240500Y139945D02*
D03*
Y133252D02*
D03*
X191500Y198555D02*
D03*
Y205248D02*
D03*
X209000Y208945D02*
D03*
Y202252D02*
D03*
X164000Y131252D02*
D03*
Y137945D02*
D03*
X176500Y137748D02*
D03*
Y131055D02*
D03*
X170000Y137748D02*
D03*
Y131055D02*
D03*
X153000Y160748D02*
D03*
Y154055D02*
D03*
D14*
X321339Y207941D02*
D03*
Y210500D02*
D03*
Y213059D02*
D03*
X313858Y207941D02*
D03*
Y210500D02*
D03*
Y213059D02*
D03*
D16*
X185906Y201102D02*
D03*
X182165D02*
D03*
X178425D02*
D03*
X185906Y209567D02*
D03*
X178425D02*
D03*
X146425Y177567D02*
D03*
X153906D02*
D03*
X146425Y169102D02*
D03*
X150165D02*
D03*
X153906D02*
D03*
D17*
X299326Y199994D02*
D03*
X308381D02*
D03*
X289877D02*
D03*
X294602D02*
D03*
X276098D02*
D03*
X285153D02*
D03*
X304444D02*
D03*
X280035D02*
D03*
D18*
X266255Y137002D02*
D03*
Y141726D02*
D03*
Y146450D02*
D03*
Y151175D02*
D03*
Y155899D02*
D03*
Y160624D02*
D03*
Y165348D02*
D03*
Y170072D02*
D03*
Y174797D02*
D03*
Y179521D02*
D03*
Y184246D02*
D03*
Y188970D02*
D03*
X318617D02*
D03*
Y184246D02*
D03*
Y179521D02*
D03*
Y174797D02*
D03*
Y170072D02*
D03*
Y165348D02*
D03*
Y160624D02*
D03*
Y155899D02*
D03*
Y151175D02*
D03*
Y146450D02*
D03*
Y141726D02*
D03*
Y137002D02*
D03*
D19*
X158945Y190500D02*
D03*
X152252D02*
D03*
X294445Y214000D02*
D03*
X287752D02*
D03*
X247445Y189500D02*
D03*
X240752D02*
D03*
X247445Y196000D02*
D03*
X240752D02*
D03*
X201445Y211500D02*
D03*
X194752D02*
D03*
X183945Y217000D02*
D03*
X177252D02*
D03*
X173945Y201500D02*
D03*
X167252D02*
D03*
X225748Y146500D02*
D03*
X219055D02*
D03*
X240752Y177000D02*
D03*
X247445D02*
D03*
X240752Y183000D02*
D03*
X247445D02*
D03*
X220252Y176500D02*
D03*
X226945D02*
D03*
D20*
X302176Y222115D02*
D03*
X302176Y228413D02*
D03*
X302177Y234712D02*
D03*
X282879Y234713D02*
D03*
X282879Y228414D02*
D03*
X282878Y222116D02*
D03*
D21*
X152137Y113790D02*
D03*
X185192Y113778D02*
D03*
D22*
X165537Y123889D02*
D03*
X162387Y123889D02*
D03*
X168687Y123888D02*
D03*
X174986Y123887D02*
D03*
X171836Y123888D02*
D03*
D23*
X234671Y103507D02*
D03*
X234670Y119257D02*
D03*
X207890Y119261D02*
D03*
X207892Y103511D02*
D03*
D24*
X232060Y234873D02*
D03*
X263568Y234879D02*
D03*
D25*
X243086Y234873D02*
D03*
X252536Y234876D02*
D03*
D26*
X236784Y226802D02*
D03*
X258838Y226817D02*
D03*
D27*
X245247Y226314D02*
D03*
X242689Y226311D02*
D03*
X247807Y226316D02*
D03*
X250365Y226319D02*
D03*
X252932Y226323D02*
D03*
D28*
X150478Y135458D02*
D03*
X150471Y139164D02*
D03*
X150462Y142895D02*
D03*
X139840Y142906D02*
D03*
X139857Y135469D02*
D03*
D29*
X208565Y222264D02*
D03*
X200681Y222266D02*
D03*
X192805Y222265D02*
D03*
D30*
X220252Y235963D02*
D03*
X181675Y235936D02*
D03*
D31*
X221444Y185545D02*
D03*
X221443Y194986D02*
D03*
X226569Y194982D02*
D03*
X226569Y185541D02*
D03*
D32*
X221441Y188690D02*
D03*
X221441Y191838D02*
D03*
X226567Y191834D02*
D03*
X226566Y188686D02*
D03*
D33*
X227083Y154059D02*
D03*
Y168724D02*
D03*
X217929D02*
D03*
Y154157D02*
D03*
D34*
X161756Y152252D02*
D03*
Y155402D02*
D03*
Y158551D02*
D03*
Y161701D02*
D03*
Y164850D02*
D03*
Y168000D02*
D03*
Y171150D02*
D03*
Y174299D02*
D03*
Y177449D02*
D03*
Y180598D02*
D03*
Y183748D02*
D03*
X206244D02*
D03*
Y180598D02*
D03*
Y177449D02*
D03*
Y174299D02*
D03*
Y171150D02*
D03*
Y168000D02*
D03*
Y164850D02*
D03*
Y161701D02*
D03*
Y158551D02*
D03*
Y155402D02*
D03*
Y152252D02*
D03*
D35*
X168252Y190244D02*
D03*
X171402D02*
D03*
X174551D02*
D03*
X177701D02*
D03*
X180850D02*
D03*
X184000D02*
D03*
X187150D02*
D03*
X190299D02*
D03*
X193449D02*
D03*
X196598D02*
D03*
X199748D02*
D03*
Y145756D02*
D03*
X196598D02*
D03*
X193449D02*
D03*
X190299D02*
D03*
X187150D02*
D03*
X184000D02*
D03*
X180850D02*
D03*
X177701D02*
D03*
X174551D02*
D03*
X171402D02*
D03*
X168252D02*
D03*
D42*
X106570Y240570D02*
X326930D01*
X106000Y240000D02*
X106570Y240570D01*
X106000Y99500D02*
Y240000D01*
X327500Y99500D02*
Y240000D01*
X106000Y99500D02*
X327500D01*
D43*
X110335Y239075D02*
D03*
D58*
X203350Y198349D02*
D03*
X201780Y198343D02*
D03*
X200206Y198342D02*
D03*
X197060Y198339D02*
D03*
X198634Y198340D02*
D03*
X198632Y205420D02*
D03*
X197058Y205420D02*
D03*
X200205Y205423D02*
D03*
X201779Y205423D02*
D03*
X203349Y205430D02*
D03*
M02*
